<svg width="650" height="864" viewBox="0 0 650 864" fill="none" xmlns="http://www.w3.org/2000/svg">
<g id="chips" filter="url(#filter0_d_309_151)">
<g id="Union">
<path fill-rule="evenodd" clip-rule="evenodd" d="M4 8L6 28C6 28 12.653 88.8958 16 128C14 359 14 495 16 728C12.653 767.104 6 828 6 828L4 848L21 828L36 848L51 828L66 848L81 828L96 848L111 828L126 848L141 828L156 848L171 828L186 848L201 828L216 848L231 828L246 848L261 828L276 848L291 828L306 848L321 828L336 848L351 828L366 848L381 828L396 848L411 828L426 848L441 828L456 848L471 828L486 848L501 828L516 848L531 828L546 848L561 828L576 848L591 828L606 848L621 828L638 848L636 828C636 828 629.347 767.104 626 728C628 493.5 628 362 626 128C629.347 88.8958 636 28 636 28L638 8L621 28L606 8L591 28L576 8L561 28L546 8L531 28L516 8L501 28L486 8L471 28L456 8L441 28L426 8L411 28L396 8L381 28L366 8L351 28L336 8L321 28L306 8L291 28L276 8L261 28L246 8L231 28L216 8L201 28L186 8L171 28L156 8L141 28L126 8L111 28L96 8L81 28L66 8L51 28L36 8L21 28L4 8Z" fill="#DBA3E8"/>
<path d="M6 28L3.51241 28.2488L3.51355 28.2601L3.51479 28.2715L6 28ZM4 8L5.90485 6.38088L0.715055 0.27524L1.51241 8.24876L4 8ZM16 128L18.4999 128.022L18.5009 127.904L18.4909 127.787L16 128ZM16 728L18.4909 728.213L18.5009 728.096L18.4999 727.979L16 728ZM6 828L3.51479 827.728L3.51355 827.74L3.51241 827.751L6 828ZM4 848L1.51241 847.751L0.715055 855.725L5.90485 849.619L4 848ZM21 828L23 826.5L21.1221 823.996L19.0952 826.381L21 828ZM36 848L34 849.5L36 852.167L38 849.5L36 848ZM51 828L53 826.5L51 823.833L49 826.5L51 828ZM66 848L64 849.5L66 852.167L68 849.5L66 848ZM81 828L83 826.5L81 823.833L79 826.5L81 828ZM96 848L94 849.5L96 852.167L98 849.5L96 848ZM111 828L113 826.5L111 823.833L109 826.5L111 828ZM126 848L124 849.5L126 852.167L128 849.5L126 848ZM141 828L143 826.5L141 823.833L139 826.5L141 828ZM156 848L154 849.5L156 852.167L158 849.5L156 848ZM171 828L173 826.5L171 823.833L169 826.5L171 828ZM186 848L184 849.5L186 852.167L188 849.5L186 848ZM201 828L203 826.5L201 823.833L199 826.5L201 828ZM216 848L214 849.5L216 852.167L218 849.5L216 848ZM231 828L233 826.5L231 823.833L229 826.5L231 828ZM246 848L244 849.5L246 852.167L248 849.5L246 848ZM261 828L263 826.5L261 823.833L259 826.5L261 828ZM276 848L274 849.5L276 852.167L278 849.5L276 848ZM291 828L293 826.5L291 823.833L289 826.5L291 828ZM306 848L304 849.5L306 852.167L308 849.5L306 848ZM321 828L323 826.5L321 823.833L319 826.5L321 828ZM336 848L334 849.5L336 852.167L338 849.5L336 848ZM351 828L353 826.5L351 823.833L349 826.5L351 828ZM366 848L364 849.5L366 852.167L368 849.5L366 848ZM381 828L383 826.5L381 823.833L379 826.5L381 828ZM396 848L394 849.5L396 852.167L398 849.5L396 848ZM411 828L413 826.5L411 823.833L409 826.5L411 828ZM426 848L424 849.5L426 852.167L428 849.5L426 848ZM441 828L443 826.5L441 823.833L439 826.5L441 828ZM456 848L454 849.5L456 852.167L458 849.5L456 848ZM471 828L473 826.5L471 823.833L469 826.5L471 828ZM486 848L484 849.5L486 852.167L488 849.5L486 848ZM501 828L503 826.5L501 823.833L499 826.5L501 828ZM516 848L514 849.5L516 852.167L518 849.5L516 848ZM531 828L533 826.5L531 823.833L529 826.5L531 828ZM546 848L544 849.5L546 852.167L548 849.5L546 848ZM561 828L563 826.5L561 823.833L559 826.5L561 828ZM576 848L574 849.5L576 852.167L578 849.5L576 848ZM591 828L593 826.5L591 823.833L589 826.5L591 828ZM606 848L604 849.5L606 852.167L608 849.5L606 848ZM621 828L622.905 826.381L620.878 823.996L619 826.5L621 828ZM638 848L636.095 849.619L641.285 855.725L640.488 847.751L638 848ZM636 828L638.488 827.751L638.486 827.74L638.485 827.728L636 828ZM626 728L623.5 727.979L623.499 728.096L623.509 728.213L626 728ZM626 128L623.509 127.787L623.499 127.904L623.5 128.021L626 128ZM636 28L638.485 28.2715L638.486 28.2601L638.488 28.2488L636 28ZM638 8L640.488 8.24876L641.285 0.27524L636.095 6.38088L638 8ZM621 28L619 29.5L620.878 32.0038L622.905 29.6191L621 28ZM606 8L608 6.5L606 3.83333L604 6.5L606 8ZM591 28L589 29.5L591 32.1667L593 29.5L591 28ZM576 8L578 6.5L576 3.83333L574 6.5L576 8ZM561 28L559 29.5L561 32.1667L563 29.5L561 28ZM546 8L548 6.5L546 3.83333L544 6.5L546 8ZM531 28L529 29.5L531 32.1667L533 29.5L531 28ZM516 8L518 6.5L516 3.83333L514 6.5L516 8ZM501 28L499 29.5L501 32.1667L503 29.5L501 28ZM486 8L488 6.5L486 3.83333L484 6.5L486 8ZM471 28L469 29.5L471 32.1667L473 29.5L471 28ZM456 8L458 6.5L456 3.83333L454 6.5L456 8ZM441 28L439 29.5L441 32.1667L443 29.5L441 28ZM426 8L428 6.5L426 3.83333L424 6.5L426 8ZM411 28L409 29.5L411 32.1667L413 29.5L411 28ZM396 8L398 6.5L396 3.83333L394 6.5L396 8ZM381 28L379 29.5L381 32.1667L383 29.5L381 28ZM366 8L368 6.5L366 3.83333L364 6.5L366 8ZM351 28L349 29.5L351 32.1667L353 29.5L351 28ZM336 8L338 6.5L336 3.83333L334 6.5L336 8ZM321 28L319 29.5L321 32.1667L323 29.5L321 28ZM306 8L308 6.5L306 3.83333L304 6.5L306 8ZM291 28L289 29.5L291 32.1667L293 29.5L291 28ZM276 8L278 6.5L276 3.83333L274 6.5L276 8ZM261 28L259 29.5L261 32.1667L263 29.5L261 28ZM246 8L248 6.5L246 3.83333L244 6.5L246 8ZM231 28L229 29.5L231 32.1667L233 29.5L231 28ZM216 8L218 6.5L216 3.83333L214 6.5L216 8ZM201 28L199 29.5L201 32.1667L203 29.5L201 28ZM186 8L188 6.5L186 3.83333L184 6.5L186 8ZM171 28L169 29.5L171 32.1667L173 29.5L171 28ZM156 8L158 6.5L156 3.83333L154 6.5L156 8ZM141 28L139 29.5L141 32.1667L143 29.5L141 28ZM126 8L128 6.5L126 3.83333L124 6.5L126 8ZM111 28L109 29.5L111 32.1667L113 29.5L111 28ZM96 8L98 6.5L96 3.83333L94 6.5L96 8ZM81 28L79 29.5L81 32.1667L83 29.5L81 28ZM66 8L68 6.5L66 3.83333L64 6.5L66 8ZM51 28L49 29.5L51 32.1667L53 29.5L51 28ZM36 8L38 6.5L36 3.83333L34 6.5L36 8ZM21 28L19.0952 29.6191L21.1221 32.0038L23 29.5L21 28ZM8.48759 27.7512L6.48759 7.75124L1.51241 8.24876L3.51241 28.2488L8.48759 27.7512ZM18.4909 127.787C16.8154 108.211 14.3135 83.1933 12.2316 63.0785C11.1904 53.0191 10.2539 44.1822 9.57765 37.8601C9.23952 34.699 8.96645 32.1664 8.7779 30.424C8.68362 29.5528 8.61047 28.8791 8.56088 28.4231C8.53608 28.1951 8.51718 28.0216 8.50446 27.905C8.49811 27.8467 8.4933 27.8026 8.49008 27.7731C8.48847 27.7583 8.48725 27.7472 8.48644 27.7397C8.48604 27.736 8.48573 27.7332 8.48552 27.7313C8.48542 27.7304 8.48534 27.7297 8.48529 27.7292C8.48524 27.7287 8.48521 27.7285 6 28C3.51479 28.2715 3.51481 28.2717 3.51486 28.2722C3.51491 28.2726 3.51498 28.2733 3.51508 28.2742C3.51528 28.2761 3.51558 28.2788 3.51599 28.2825C3.51679 28.2898 3.51799 28.3008 3.51959 28.3155C3.52279 28.3448 3.52758 28.3887 3.53391 28.4468C3.54658 28.563 3.56544 28.7362 3.59019 28.9637C3.63969 29.4189 3.71274 30.0917 3.80692 30.962C3.99527 32.7025 4.26812 35.233 4.60601 38.3919C5.28179 44.7097 6.2177 53.5408 7.25816 63.5933C9.33949 83.7025 11.8376 108.684 13.5091 128.213L18.4909 127.787ZM18.4999 727.979C16.5 494.993 16.5 359.007 18.4999 128.022L13.5001 127.978C11.5 358.993 11.5 495.007 13.5001 728.021L18.4999 727.979ZM6 828C8.48521 828.272 8.48524 828.271 8.48529 828.271C8.48534 828.27 8.48542 828.27 8.48552 828.269C8.48573 828.267 8.48604 828.264 8.48644 828.26C8.48725 828.253 8.48847 828.242 8.49008 828.227C8.4933 828.197 8.49811 828.153 8.50446 828.095C8.51718 827.978 8.53608 827.805 8.56088 827.577C8.61047 827.121 8.68362 826.447 8.7779 825.576C8.96645 823.834 9.23952 821.301 9.57765 818.14C10.2539 811.818 11.1904 802.981 12.2316 792.921C14.3135 772.807 16.8154 747.789 18.4909 728.213L13.5091 727.787C11.8376 747.316 9.33949 772.297 7.25816 792.407C6.2177 802.459 5.28179 811.29 4.60601 817.608C4.26812 820.767 3.99527 823.297 3.80692 825.038C3.71274 825.908 3.63969 826.581 3.59019 827.036C3.56544 827.264 3.54658 827.437 3.53391 827.553C3.52758 827.611 3.52279 827.655 3.51959 827.684C3.51799 827.699 3.51679 827.71 3.51599 827.718C3.51558 827.721 3.51528 827.724 3.51508 827.726C3.51498 827.727 3.51491 827.727 3.51486 827.728C3.51481 827.728 3.51479 827.728 6 828ZM6.48759 848.249L8.48759 828.249L3.51241 827.751L1.51241 847.751L6.48759 848.249ZM19.0952 826.381L2.09515 846.381L5.90485 849.619L22.9048 829.619L19.0952 826.381ZM38 846.5L23 826.5L19 829.5L34 849.5L38 846.5ZM49 826.5L34 846.5L38 849.5L53 829.5L49 826.5ZM68 846.5L53 826.5L49 829.5L64 849.5L68 846.5ZM79 826.5L64 846.5L68 849.5L83 829.5L79 826.5ZM98 846.5L83 826.5L79 829.5L94 849.5L98 846.5ZM109 826.5L94 846.5L98 849.5L113 829.5L109 826.5ZM128 846.5L113 826.5L109 829.5L124 849.5L128 846.5ZM139 826.5L124 846.5L128 849.5L143 829.5L139 826.5ZM158 846.5L143 826.5L139 829.5L154 849.5L158 846.5ZM169 826.5L154 846.5L158 849.5L173 829.5L169 826.5ZM188 846.5L173 826.5L169 829.5L184 849.5L188 846.5ZM199 826.5L184 846.5L188 849.5L203 829.5L199 826.5ZM218 846.5L203 826.5L199 829.5L214 849.5L218 846.5ZM229 826.5L214 846.5L218 849.5L233 829.5L229 826.5ZM248 846.5L233 826.5L229 829.5L244 849.5L248 846.5ZM259 826.5L244 846.5L248 849.5L263 829.5L259 826.5ZM278 846.5L263 826.5L259 829.5L274 849.5L278 846.5ZM289 826.5L274 846.5L278 849.5L293 829.5L289 826.5ZM308 846.5L293 826.5L289 829.5L304 849.5L308 846.5ZM319 826.5L304 846.5L308 849.5L323 829.5L319 826.5ZM338 846.5L323 826.5L319 829.5L334 849.5L338 846.5ZM349 826.5L334 846.5L338 849.5L353 829.5L349 826.5ZM368 846.5L353 826.5L349 829.5L364 849.5L368 846.5ZM379 826.5L364 846.5L368 849.5L383 829.5L379 826.5ZM398 846.5L383 826.5L379 829.5L394 849.5L398 846.5ZM409 826.5L394 846.5L398 849.5L413 829.5L409 826.5ZM428 846.5L413 826.5L409 829.5L424 849.5L428 846.5ZM439 826.5L424 846.5L428 849.5L443 829.5L439 826.5ZM458 846.5L443 826.5L439 829.5L454 849.5L458 846.5ZM469 826.5L454 846.5L458 849.5L473 829.5L469 826.5ZM488 846.5L473 826.5L469 829.5L484 849.5L488 846.5ZM499 826.5L484 846.5L488 849.5L503 829.5L499 826.5ZM518 846.5L503 826.5L499 829.5L514 849.5L518 846.5ZM529 826.5L514 846.5L518 849.5L533 829.5L529 826.5ZM548 846.5L533 826.5L529 829.5L544 849.5L548 846.5ZM559 826.5L544 846.5L548 849.5L563 829.5L559 826.5ZM578 846.5L563 826.5L559 829.5L574 849.5L578 846.5ZM589 826.5L574 846.5L578 849.5L593 829.5L589 826.5ZM608 846.5L593 826.5L589 829.5L604 849.5L608 846.5ZM619 826.5L604 846.5L608 849.5L623 829.5L619 826.5ZM619.095 829.619L636.095 849.619L639.905 846.381L622.905 826.381L619.095 829.619ZM640.488 847.751L638.488 827.751L633.512 828.249L635.512 848.249L640.488 847.751ZM623.509 728.213C625.185 747.789 627.686 772.807 629.768 792.921C630.81 802.981 631.746 811.818 632.422 818.14C632.76 821.301 633.034 823.834 633.222 825.576C633.316 826.447 633.39 827.121 633.439 827.577C633.464 827.805 633.483 827.978 633.496 828.095C633.502 828.153 633.507 828.197 633.51 828.227C633.512 828.242 633.513 828.253 633.514 828.26C633.514 828.264 633.514 828.267 633.514 828.269C633.515 828.27 633.515 828.27 633.515 828.271C633.515 828.271 633.515 828.272 636 828C638.485 827.728 638.485 827.728 638.485 827.728C638.485 827.727 638.485 827.727 638.485 827.726C638.485 827.724 638.484 827.721 638.484 827.718C638.483 827.71 638.482 827.699 638.48 827.684C638.477 827.655 638.472 827.611 638.466 827.553C638.453 827.437 638.435 827.264 638.41 827.036C638.36 826.581 638.287 825.908 638.193 825.038C638.005 823.297 637.732 820.767 637.394 817.608C636.718 811.29 635.782 802.459 634.742 792.407C632.66 772.297 630.162 747.316 628.491 727.787L623.509 728.213ZM623.5 128.021C625.5 362.007 625.5 493.493 623.5 727.979L628.5 728.021C630.5 493.507 630.5 361.993 628.5 127.979L623.5 128.021ZM636 28C633.515 27.7285 633.515 27.7287 633.515 27.7292C633.515 27.7297 633.515 27.7304 633.514 27.7313C633.514 27.7332 633.514 27.736 633.514 27.7397C633.513 27.7472 633.512 27.7583 633.51 27.7731C633.507 27.8026 633.502 27.8467 633.496 27.905C633.483 28.0216 633.464 28.1951 633.439 28.4231C633.39 28.8791 633.316 29.5528 633.222 30.424C633.034 32.1664 632.76 34.699 632.422 37.8601C631.746 44.1822 630.81 53.0191 629.768 63.0785C627.686 83.1933 625.185 108.211 623.509 127.787L628.491 128.213C630.162 108.684 632.66 83.7025 634.742 63.5933C635.782 53.5408 636.718 44.7097 637.394 38.3919C637.732 35.233 638.005 32.7025 638.193 30.962C638.287 30.0917 638.36 29.4189 638.41 28.9637C638.435 28.7362 638.453 28.563 638.466 28.4468C638.472 28.3887 638.477 28.3448 638.48 28.3155C638.482 28.3008 638.483 28.2898 638.484 28.2825C638.484 28.2788 638.485 28.2761 638.485 28.2742C638.485 28.2733 638.485 28.2726 638.485 28.2722C638.485 28.2717 638.485 28.2715 636 28ZM635.512 7.75124L633.512 27.7512L638.488 28.2488L640.488 8.24876L635.512 7.75124ZM622.905 29.6191L639.905 9.61912L636.095 6.38088L619.095 26.3809L622.905 29.6191ZM604 9.5L619 29.5L623 26.5L608 6.5L604 9.5ZM593 29.5L608 9.5L604 6.5L589 26.5L593 29.5ZM574 9.5L589 29.5L593 26.5L578 6.5L574 9.5ZM563 29.5L578 9.5L574 6.5L559 26.5L563 29.5ZM544 9.5L559 29.5L563 26.5L548 6.5L544 9.5ZM533 29.5L548 9.5L544 6.5L529 26.5L533 29.5ZM514 9.5L529 29.5L533 26.5L518 6.5L514 9.5ZM503 29.5L518 9.5L514 6.5L499 26.5L503 29.5ZM484 9.5L499 29.5L503 26.5L488 6.5L484 9.5ZM473 29.5L488 9.5L484 6.5L469 26.5L473 29.5ZM454 9.5L469 29.5L473 26.5L458 6.5L454 9.5ZM443 29.5L458 9.5L454 6.5L439 26.5L443 29.5ZM424 9.5L439 29.5L443 26.5L428 6.5L424 9.5ZM413 29.5L428 9.5L424 6.5L409 26.5L413 29.5ZM394 9.5L409 29.5L413 26.5L398 6.5L394 9.5ZM383 29.5L398 9.5L394 6.5L379 26.5L383 29.5ZM364 9.5L379 29.5L383 26.5L368 6.5L364 9.5ZM353 29.5L368 9.5L364 6.5L349 26.5L353 29.5ZM334 9.5L349 29.5L353 26.5L338 6.5L334 9.5ZM323 29.5L338 9.5L334 6.5L319 26.5L323 29.5ZM304 9.5L319 29.5L323 26.5L308 6.5L304 9.5ZM293 29.5L308 9.5L304 6.5L289 26.5L293 29.5ZM274 9.5L289 29.5L293 26.5L278 6.5L274 9.5ZM263 29.5L278 9.5L274 6.5L259 26.5L263 29.5ZM244 9.5L259 29.5L263 26.5L248 6.5L244 9.5ZM233 29.5L248 9.5L244 6.5L229 26.5L233 29.5ZM214 9.5L229 29.5L233 26.5L218 6.5L214 9.5ZM203 29.5L218 9.5L214 6.5L199 26.5L203 29.5ZM184 9.5L199 29.5L203 26.5L188 6.5L184 9.5ZM173 29.5L188 9.5L184 6.5L169 26.5L173 29.5ZM154 9.5L169 29.5L173 26.5L158 6.5L154 9.5ZM143 29.5L158 9.5L154 6.5L139 26.5L143 29.5ZM124 9.5L139 29.5L143 26.5L128 6.5L124 9.5ZM113 29.5L128 9.5L124 6.5L109 26.5L113 29.5ZM94 9.5L109 29.5L113 26.5L98 6.5L94 9.5ZM83 29.5L98 9.5L94 6.5L79 26.5L83 29.5ZM64 9.5L79 29.5L83 26.5L68 6.5L64 9.5ZM53 29.5L68 9.5L64 6.5L49 26.5L53 29.5ZM34 9.5L49 29.5L53 26.5L38 6.5L34 9.5ZM23 29.5L38 9.5L34 6.5L19 26.5L23 29.5ZM2.09515 9.61912L19.0952 29.6191L22.9048 26.3809L5.90485 6.38088L2.09515 9.61912Z" fill="black"/>
</g>
<path id="dash5" d="M609.999 636.209L566.344 648.134" stroke="black" stroke-width="10"/>
<path id="dash4" d="M277.668 733.231L243.324 703.76" stroke="black" stroke-width="10"/>
<path id="dash3" d="M88.0405 492.424L46.3042 509.919" stroke="black" stroke-width="10"/>
<path id="dash2" d="M398.677 128.521L353.667 123.822" stroke="black" stroke-width="10"/>
<path id="dash1" d="M70.1685 185.353L94.1747 146.99" stroke="black" stroke-width="10"/>
<path id="Polygon 35" d="M115.655 71.3523L215.612 69.4018L175.066 151.761L115.655 71.3523Z" fill="#FFFDC0"/>
<path id="Exclude" fill-rule="evenodd" clip-rule="evenodd" d="M448.189 284.354C459.501 286.883 470.339 286.187 479.948 284.354C486.474 278.727 506.503 221.988 482.575 178.7C500.437 175.898 514.202 181.572 524.179 190.032L528.374 187.744L526.5 192.112C533.311 198.557 538.134 206.232 541.089 212.954L527.257 314.258C524.429 312.94 521.224 312.281 517.641 312.281C512.234 312.281 507.688 313.781 504 316.781C500.125 319.938 498.188 324.656 498.188 330.938C498.188 336.281 499.75 340.359 502.875 343.172C507.031 346.922 511.953 348.797 517.641 348.797C519.407 348.797 521.017 348.967 522.471 349.308L518.763 376.465C518.395 376.488 518.021 376.5 517.641 376.5C513.141 376.5 509.5 374.891 506.719 371.672C504.469 369.078 503.344 365.875 503.344 362.062V358.219H502.875L493.969 362.438C493.969 368.438 496.078 373.672 500.297 378.141C504.571 382.665 510.341 384.93 517.607 384.937L476.5 686L196 646.5L95 251L103.456 249.412L117.141 289.875H117.609L125.719 286.031L140.315 242.488L157.785 239.206C157.783 239.376 157.781 239.547 157.781 239.719V289.875H158.25L167.156 285.656V256.875H195.75V289.875H196.219L205.125 285.656V239.719C205.125 236.355 204.625 233.314 203.624 230.595L223.875 226.791V289.875H224.344L233.25 285.656V264.094H246.609C253.703 264.094 259.484 261.828 263.953 257.297C268.172 253.016 270.281 247.469 270.281 240.656C270.281 233.875 268.172 228.328 263.953 224.016C262.452 222.483 260.798 221.21 258.989 220.195L426.521 188.725C426.263 190.668 426.086 192.772 426 195.049C427.775 192.291 429.75 189.846 431.906 187.714L462.649 181.939C442.934 188.992 428.244 207.48 448.189 232.269C448.189 202.006 460.549 181.135 478.208 181.135C490.616 201.896 474.554 229.794 461.545 252.389C453.847 265.76 447.218 277.274 448.189 284.354ZM462.649 181.939C467.003 180.381 471.601 179.381 476.126 178.994C458.442 174.099 442.845 176.897 431.906 187.714L426.521 188.725C430.634 157.809 455.528 167.866 469.04 173.326C471.786 174.435 474.061 175.354 475.597 175.701C464.721 159.685 441.662 164.879 426 170.507C444.708 142.37 461.675 146.698 478.208 173.963C477.773 151.46 483.429 113.8 526.5 137.608C509.968 137.608 482.123 152.326 480.818 173.97C489.084 162.715 525.195 118.994 560 180.03C555.853 176.1 551.446 172.864 546.918 170.26L547.5 166L540.974 167.226C517.125 156.526 491.606 162.048 483.429 175.268C483.908 175.119 484.65 174.847 485.612 174.495C492.613 171.927 511.3 165.073 525.74 170.087L462.649 181.939ZM525.74 170.087C534.254 173.044 541.292 180.127 543.589 194.646L541.089 212.954C542.098 215.25 542.89 217.435 543.468 219.422C544.697 209.413 544.634 201.258 543.589 194.646L546.918 170.26C544.956 169.132 542.971 168.122 540.974 167.226L525.74 170.087ZM258.989 220.195C255.451 218.211 251.324 217.219 246.609 217.219H228.844L223.875 219.562V226.791L258.989 220.195ZM194.228 232.36L203.624 230.595C202.57 227.732 200.961 225.226 198.797 223.078C194.234 218.547 188.453 216.281 181.453 216.281C174.328 216.281 168.547 218.547 164.109 223.078C159.998 227.311 157.89 232.687 157.785 239.206L167.278 237.423C167.197 238.16 167.156 238.925 167.156 239.719V248.344H195.75V239.719C195.75 236.907 195.243 234.454 194.228 232.36ZM194.228 232.36L167.278 237.423C167.623 234.274 168.708 231.649 170.531 229.547C173.312 226.328 176.953 224.719 181.453 224.719C185.953 224.719 189.594 226.328 192.375 229.547C193.114 230.399 193.732 231.337 194.228 232.36ZM130.524 244.327L140.315 242.488L148.125 219.188L140.016 215.344H139.547L130.524 244.327ZM112.483 247.716L103.456 249.412L93.2344 219.188L101.344 215.344H101.812L112.483 247.716ZM112.483 247.716L121.219 274.219L130.524 244.327L112.483 247.716ZM523.635 340.788C528.333 341.511 532.117 343.149 534.984 345.703C539.172 349.422 541.266 354.812 541.266 361.875C541.266 368.25 539.172 373.672 534.984 378.141C530.703 382.672 524.922 384.938 517.641 384.938L517.607 384.937L518.763 376.465C522.723 376.214 525.989 374.617 528.562 371.672C530.781 369.141 531.891 365.906 531.891 361.969C531.891 358.25 530.984 355.328 529.172 353.203C527.523 351.266 525.289 349.967 522.471 349.308L523.635 340.788ZM525.968 323.696L527.257 314.258C528.696 314.928 530.038 315.769 531.281 316.781C535.156 319.938 537.094 324.266 537.094 329.766L528.188 333.984H527.719V330.234C527.719 327.534 527.135 325.355 525.968 323.696ZM525.968 323.696C525.596 323.166 525.164 322.689 524.672 322.266C522.703 320.547 520.359 319.688 517.641 319.688C514.609 319.688 512.172 320.641 510.328 322.547C508.484 324.453 507.562 327.016 507.562 330.234C507.562 333.328 508.266 335.656 509.672 337.219C511.547 339.312 514.203 340.359 517.641 340.359C519.781 340.359 521.779 340.502 523.635 340.788L525.968 323.696ZM233.25 255.656H246.609C250.703 255.656 254.344 254.047 257.531 250.828C259.781 248.547 260.906 245.156 260.906 240.656C260.906 236.469 259.781 233.078 257.531 230.484C254.75 227.266 251.109 225.656 246.609 225.656H233.25V255.656ZM293.719 265.5C293.719 269.688 294.844 273.078 297.094 275.672C299.875 278.891 303.516 280.5 308.016 280.5C312.516 280.5 316.156 278.891 318.938 275.672C321.188 273.078 322.312 269.688 322.312 265.5V239.719C322.312 235.531 321.188 232.141 318.938 229.547C316.156 226.328 312.516 224.719 308.016 224.719C303.516 224.719 299.875 226.328 297.094 229.547C294.844 232.141 293.719 235.531 293.719 239.719V265.5ZM284.344 265.5V239.719C284.344 232.938 286.453 227.391 290.672 223.078C295.109 218.547 300.891 216.281 308.016 216.281C315.141 216.281 320.922 218.547 325.359 223.078C329.578 227.359 331.688 232.906 331.688 239.719V265.5C331.688 272.281 329.578 277.828 325.359 282.141C320.922 286.672 315.141 288.938 308.016 288.938C300.891 288.938 295.109 286.672 290.672 282.141C286.453 277.828 284.344 272.281 284.344 265.5ZM350.438 289.875V219.562L355.406 217.219H373.172C380.297 217.219 386.078 219.484 390.516 224.016C394.734 228.328 396.844 233.875 396.844 240.656C396.844 247.469 394.734 253.016 390.516 257.297C388.016 259.828 385.094 261.656 381.75 262.781L397.969 285.984L389.719 289.875H389.25L371.203 264.094H359.812V285.656L350.906 289.875H350.438ZM359.812 255.656H373.172C377.266 255.656 380.906 254.047 384.094 250.828C386.344 248.547 387.469 245.156 387.469 240.656C387.469 236.469 386.344 233.078 384.094 230.484C381.312 227.266 377.672 225.656 373.172 225.656H359.812V255.656ZM262.219 358.219V361.5C262.219 368.281 260.109 373.828 255.891 378.141C251.453 382.672 245.672 384.938 238.547 384.938C231.422 384.938 225.641 382.672 221.203 378.141C216.984 373.828 214.875 368.281 214.875 361.5V335.719C214.875 328.938 216.984 323.391 221.203 319.078C225.641 314.547 231.422 312.281 238.547 312.281C245.922 312.281 251.703 314.547 255.891 319.078C260.109 323.609 262.219 328.844 262.219 334.781L253.312 339H252.844V335.719C252.844 331.531 251.719 328.141 249.469 325.547C246.688 322.328 243.047 320.719 238.547 320.719C234.047 320.719 230.406 322.328 227.625 325.547C225.375 328.141 224.25 331.531 224.25 335.719V361.5C224.25 365.688 225.375 369.078 227.625 371.672C230.406 374.891 234.047 376.5 238.547 376.5C243.047 376.5 246.688 374.891 249.469 371.672C251.719 369.078 252.844 366 252.844 362.438L261.75 358.219H262.219ZM280.969 385.875V315.562L285.938 313.219H303.703C310.828 313.219 316.609 315.484 321.047 320.016C325.266 324.328 327.375 329.875 327.375 336.656C327.375 343.469 325.266 349.016 321.047 353.297C318.547 355.828 315.625 357.656 312.281 358.781L328.5 381.984L320.25 385.875H319.781L301.734 360.094H290.344V381.656L281.438 385.875H280.969ZM290.344 351.656H303.703C307.797 351.656 311.438 350.047 314.625 346.828C316.875 344.547 318 341.156 318 336.656C318 332.469 316.875 329.078 314.625 326.484C311.844 323.266 308.203 321.656 303.703 321.656H290.344V351.656ZM344.906 385.875V315.562L353.812 311.344H354.281V381.656L345.375 385.875H344.906ZM418.453 361.875C418.453 368.25 416.359 373.672 412.172 378.141C407.891 382.672 402.109 384.938 394.828 384.938C387.547 384.938 381.766 382.672 377.484 378.141C373.266 373.672 371.156 368.438 371.156 362.438L380.062 358.219H380.531V362.062C380.531 365.875 381.656 369.078 383.906 371.672C386.688 374.891 390.328 376.5 394.828 376.5C399.297 376.5 402.938 374.891 405.75 371.672C407.969 369.141 409.078 365.906 409.078 361.969C409.078 358.25 408.172 355.328 406.359 353.203C403.859 350.266 400.016 348.797 394.828 348.797C389.141 348.797 384.219 346.922 380.062 343.172C376.938 340.359 375.375 336.281 375.375 330.938C375.375 324.656 377.312 319.938 381.188 316.781C384.875 313.781 389.422 312.281 394.828 312.281C400.234 312.281 404.781 313.781 408.469 316.781C412.344 319.938 414.281 324.266 414.281 329.766L405.375 333.984H404.906V330.234C404.906 326.672 403.891 324.016 401.859 322.266C399.891 320.547 397.547 319.688 394.828 319.688C391.797 319.688 389.359 320.641 387.516 322.547C385.672 324.453 384.75 327.016 384.75 330.234C384.75 333.328 385.453 335.656 386.859 337.219C388.734 339.312 391.391 340.359 394.828 340.359C402.391 340.359 408.172 342.141 412.172 345.703C416.359 349.422 418.453 354.812 418.453 361.875ZM444.75 351.656H458.109C462.203 351.656 465.844 350.047 469.031 346.828C471.281 344.547 472.406 341.156 472.406 336.656C472.406 332.469 471.281 329.078 469.031 326.484C466.25 323.266 462.609 321.656 458.109 321.656H444.75V351.656ZM435.375 385.875V315.562L440.344 313.219H458.109C465.234 313.219 471.016 315.484 475.453 320.016C479.672 324.328 481.781 329.875 481.781 336.656C481.781 343.469 479.672 349.016 475.453 353.297C470.984 357.828 465.203 360.094 458.109 360.094H444.75V381.656L435.844 385.875H435.375Z" fill="#7EFDCF"/>
<path id="Polygon 36" d="M491.696 539.834L553.94 461.598L591.519 545.352L491.696 539.834Z" fill="#FFFDC0"/>
<g id="chip">
<path id="Vector 170" d="M296.501 527.048C203.502 571.548 167 536.55 167 504.049C167 471.549 236.001 472.548 238.001 472.548C240.001 472.548 389.5 482.548 296.501 527.048Z" fill="#FFE483"/>
<path id="Rectangle 119" d="M312.5 436.552C353.5 370.05 449.189 376.049 458.5 446.549C465.5 499.549 390.951 610.254 285.494 589.05C276.06 587.153 254 571.549 243 546.549C215.72 484.549 190.5 477.049 171 492.049C186 461.549 288.726 475.114 312.5 436.552Z" fill="#FFFDC0"/>
<path id="Rectangle 120" d="M321.819 437.505C334.012 423.085 318.296 456.548 334 456.548C371.5 456.549 385.575 482.554 369 493.549C318.5 527.049 342.192 481.872 325.5 471.548C306.634 459.88 283 470.935 283 463.548C294 455.048 309.095 462.863 321.819 437.505Z" fill="#FFE483"/>
</g>
<path id="&#226;&#128;&#156;It&#226;&#128;&#153;s mostly air!&#226;&#128;&#157;" d="M280.45 623.06C279.838 623.164 279.359 623.073 279.013 622.787C278.677 622.487 278.463 622.066 278.371 621.523C278.279 620.98 278.38 620.422 278.676 619.849C278.98 619.262 279.472 618.62 280.15 617.923C280.826 617.214 281.418 616.816 281.926 616.73C282.192 616.685 282.388 616.717 282.513 616.826C282.648 616.922 282.765 616.98 282.863 616.999C282.973 617.016 283.043 617.111 283.072 617.284C283.102 617.458 283.077 617.592 282.998 617.689C282.918 617.774 282.733 618.12 282.444 618.728C282.164 619.322 282.004 619.712 281.964 619.897C282.179 620.039 282.319 620.306 282.386 620.699C282.452 621.092 282.299 621.558 281.927 622.096C281.555 622.635 281.063 622.956 280.45 623.06ZM275.395 623.846C274.818 623.944 274.36 623.837 274.022 623.526C273.695 623.213 273.486 622.785 273.394 622.242C273.302 621.699 273.393 621.149 273.667 620.591C273.939 620.022 274.373 619.396 274.97 618.712C275.579 618.026 276.051 617.655 276.386 617.598C276.733 617.539 276.987 617.567 277.149 617.683C277.321 617.784 277.444 617.841 277.517 617.852C277.59 617.863 277.642 617.962 277.674 618.146C277.703 618.32 277.677 618.449 277.597 618.534C277.528 618.617 277.372 618.958 277.129 619.558C276.884 620.146 276.753 620.531 276.736 620.712C276.939 620.856 277.074 621.13 277.143 621.535C277.21 621.928 277.08 622.389 276.754 622.92C276.426 623.439 275.973 623.748 275.395 623.846ZM292.709 612.815L293.517 612.642C293.818 612.591 293.988 612.681 294.027 612.912C294.039 612.982 294.036 613.036 294.019 613.074C289.873 622.133 286.065 630.969 282.593 639.581C282.409 640.04 282.224 640.315 282.037 640.406C282.026 640.408 281.972 640.441 281.876 640.505C281.335 640.822 280.949 641 280.718 641.04C280.487 641.079 280.361 641.106 280.34 641.122C280.256 641.255 280.138 641.334 279.988 641.36C279.85 641.383 279.756 641.393 279.708 641.389C279.662 641.397 279.521 641.373 279.286 641.318C279.053 641.275 278.932 641.23 278.924 641.183C278.828 640.617 278.793 640.273 278.82 640.149C278.924 639.288 279.866 636.751 281.648 632.538C283.427 628.314 285.264 624.181 287.158 620.139C289.061 616.084 290.244 613.804 290.705 613.298C290.845 613.143 291.048 613.043 291.313 612.998L292.709 612.815ZM298.436 614.732L299.176 614.785C299.28 614.767 299.381 614.804 299.48 614.894C299.578 614.984 299.635 615.075 299.651 615.168C299.667 615.26 299.588 615.529 299.414 615.975C299.239 616.42 299.029 616.931 298.782 617.508C298.545 618.071 298.419 618.378 298.403 618.428C299.293 618.206 299.922 618.064 300.292 618.001C300.673 617.936 300.938 617.921 301.087 617.955C301.233 617.978 301.414 618.096 301.628 618.309C301.852 618.509 302.05 618.66 302.222 618.761C302.391 618.851 302.497 619.018 302.538 619.26C302.579 619.503 302.464 619.736 302.193 619.961C301.932 620.171 301.637 620.322 301.307 620.414C298.672 621.134 297.217 621.524 296.941 621.582C296.248 623.174 295.316 625.632 294.145 628.957C292.983 632.268 292.415 634.313 292.44 635.094C292.453 635.448 292.477 635.735 292.515 635.955C292.591 636.405 292.866 636.59 293.34 636.51C293.814 636.43 294.309 636.161 294.826 635.705C295.341 635.238 295.805 634.749 296.217 634.239C297.315 632.864 297.911 632.169 298.003 632.153C298.304 632.102 298.542 632.597 298.718 633.637C298.814 634.203 298.641 634.755 298.197 635.294C297.201 636.497 296.347 637.42 295.636 638.064C294.925 638.707 294.171 639.097 293.374 639.232C293.2 639.261 293.036 639.272 292.88 639.262C291.926 639.246 291.187 639.026 290.664 638.604C290.15 638.168 289.821 637.523 289.676 636.668C289.543 635.811 289.621 634.734 289.912 633.436C290.213 632.125 290.628 630.718 291.157 629.214C292.025 626.76 292.916 624.446 293.831 622.27L293.187 622.469C291.872 622.846 291.105 623.054 290.886 623.091L290.73 623.117C290.395 623.174 290.06 623.165 289.727 623.091C289.391 623.005 289.207 622.864 289.174 622.668C289.14 622.472 289.189 622.267 289.319 622.055C289.461 621.841 289.541 621.679 289.558 621.569C289.596 621.301 289.848 620.967 290.315 620.567C290.794 620.165 291.165 619.935 291.428 619.879C291.69 619.81 291.942 619.75 292.182 619.697C292.434 619.643 292.71 619.584 293.008 619.522C293.318 619.457 293.553 619.405 293.713 619.366L295.261 619.033C295.984 617.412 296.49 616.364 296.778 615.887C297.077 615.408 297.252 615.147 297.304 615.102C297.354 615.046 297.466 615.004 297.639 614.974L298.436 614.732ZM303.87 612.919C304.482 612.815 304.955 612.907 305.289 613.195C305.635 613.481 305.854 613.896 305.946 614.439C306.038 614.982 305.932 615.547 305.627 616.133C305.334 616.718 304.849 617.365 304.173 618.074C303.507 618.769 302.989 619.148 302.619 619.211C302.249 619.274 301.977 619.248 301.804 619.135C301.642 619.02 301.518 618.958 301.433 618.948C301.349 618.939 301.291 618.848 301.262 618.674C301.231 618.49 301.255 618.355 301.336 618.27C301.417 618.185 301.597 617.845 301.876 617.251C302.166 616.643 302.33 616.247 302.37 616.062C302.156 615.92 302.016 615.658 301.952 615.277C301.885 614.884 302.032 614.419 302.393 613.883C302.765 613.344 303.257 613.023 303.87 612.919ZM304.546 633.094L304.575 633.374C304.624 633.663 304.776 633.893 305.031 634.064C305.286 634.234 305.506 634.304 305.69 634.273C307.077 634.038 308.266 633.622 309.259 633.026C310.263 632.427 310.729 631.92 310.659 631.504C310.625 631.308 310.401 631.174 309.984 631.102C309.578 631.016 308.894 630.948 307.935 630.897C306.985 630.832 306.292 630.777 305.857 630.732C305.419 630.676 305.07 630.616 304.81 630.553C304.55 630.49 304.277 630.388 303.991 630.246C303.384 629.957 303.016 629.437 302.889 628.686C302.759 627.923 302.909 627.125 303.338 626.292C303.777 625.445 304.373 624.684 305.127 624.01C305.88 623.335 306.707 622.713 307.609 622.144C309.392 621.022 310.936 620.35 312.242 620.128C313.524 619.911 314.363 620.054 314.757 620.558C314.883 620.738 314.966 620.95 315.007 621.193L315.028 621.314C315.132 621.926 315.08 622.428 314.873 622.82C314.678 623.21 314.321 623.591 313.802 623.965C313.294 624.336 312.873 624.55 312.538 624.607C312.214 624.662 312.002 624.674 311.902 624.643C311.813 624.611 311.734 624.565 311.665 624.505C311.593 624.434 311.508 624.389 311.41 624.37C311.323 624.349 311.268 624.269 311.245 624.131C311.221 623.992 311.255 623.844 311.347 623.686C311.437 623.516 311.492 623.346 311.511 623.176C310.754 623.34 309.987 623.655 309.21 624.119C308.431 624.572 307.775 625.046 307.24 625.541C306.718 626.034 306.29 626.492 305.958 626.917C305.626 627.342 305.475 627.641 305.504 627.814C305.532 627.976 305.82 628.064 306.369 628.078C308.841 628.146 310.482 628.29 311.292 628.509C312.102 628.728 312.688 629.033 313.051 629.423C313.415 629.813 313.627 630.187 313.688 630.545C313.813 631.285 313.637 632.034 313.159 632.792C312.682 633.551 312.045 634.211 311.249 634.774C309.544 636.002 307.998 636.734 306.611 636.969C305.236 637.202 304.247 637.15 303.643 636.813C303.053 636.485 302.708 636.032 302.61 635.455C302.512 634.877 302.567 634.321 302.773 633.787C302.989 633.239 303.328 632.926 303.791 632.848C304.253 632.769 304.504 632.851 304.546 633.094ZM323.695 633.519L322.84 633.628L322.528 633.681C322.406 633.666 322.273 633.618 322.129 633.535C321.972 633.455 321.856 633.397 321.778 633.363C321.701 633.328 321.653 633.253 321.633 633.138C321.612 633.011 321.622 632.789 321.663 632.473C323.076 627.134 324.581 622.802 326.18 619.476C326.357 619.113 326.685 618.808 327.166 618.56C327.657 618.299 328.145 618.127 328.63 618.044C328.919 617.995 329.101 618.196 329.178 618.647C329.199 618.774 329.183 618.955 329.127 619.19C329.07 619.414 328.898 619.8 328.61 620.348C328.323 620.896 327.978 621.525 327.575 622.235C327.173 622.945 326.945 623.352 326.891 623.456C328.196 621.547 329.416 620.086 330.552 619.073C331.697 618.047 332.553 617.486 333.119 617.39C333.697 617.292 334.164 617.385 334.521 617.669C334.888 617.94 335.104 618.266 335.168 618.647C335.231 619.017 335.255 619.334 335.24 619.598C335.235 619.848 335.187 620.124 335.095 620.425C335.002 620.714 334.92 620.965 334.849 621.179C334.788 621.38 334.668 621.656 334.49 622.007C334.31 622.347 334.184 622.582 334.111 622.713C334.049 622.842 333.908 623.092 333.685 623.463C333.474 623.831 333.36 624.035 333.343 624.074C333.612 623.695 333.981 623.139 334.451 622.406C334.921 621.672 335.316 621.059 335.636 620.565C335.968 620.069 336.389 619.504 336.9 618.87C337.409 618.225 337.895 617.691 338.358 617.268C339.472 616.271 340.671 615.664 341.953 615.446C342.392 615.372 342.786 615.447 343.133 615.674C343.48 615.9 343.687 616.21 343.754 616.603C343.819 616.984 343.508 617.988 342.821 619.614C342.132 621.228 341.445 622.854 340.76 624.492C340.084 626.116 339.779 627.118 339.843 627.5C339.934 628.031 340.086 628.332 340.3 628.403C340.512 628.462 340.755 628.457 341.028 628.386C341.301 628.316 341.658 628.072 342.098 627.652C342.549 627.231 342.941 626.808 343.273 626.383C343.811 625.698 344.305 625.037 344.756 624.402C344.854 624.279 344.972 624.205 345.111 624.182C345.33 624.144 345.492 624.289 345.595 624.617C345.698 624.944 345.78 625.287 345.84 625.645C345.901 626.003 345.909 626.257 345.863 626.408C345.637 627.111 345.032 628.028 344.047 629.158C343.062 630.288 342.044 630.942 340.992 631.12C340.865 631.142 340.772 631.152 340.712 631.15C339.502 631.236 338.622 631.053 338.069 630.6C337.527 630.133 337.192 629.53 337.067 628.791C336.942 628.051 337.038 627.114 337.357 625.978C337.687 624.841 338.08 623.793 338.535 622.836C338.991 621.88 339.41 621.018 339.791 620.252C340.182 619.473 340.372 619.054 340.362 618.996C340.353 618.939 340.302 618.918 340.209 618.933C339.851 618.994 339.152 619.707 338.111 621.072C336.332 623.406 334.83 625.622 333.605 627.72C333.283 628.274 332.533 629.667 331.354 631.899C331.22 632.16 330.962 632.322 330.581 632.387C330.211 632.45 329.812 632.446 329.385 632.376C328.955 632.294 328.72 632.138 328.681 631.907C328.661 631.791 329.306 630.018 330.614 626.587C331.92 623.144 332.549 621.284 332.502 621.007C332.453 620.718 332.255 620.603 331.909 620.662C331.574 620.719 330.961 621.346 330.07 622.543C327.621 625.834 325.828 628.997 324.69 632.031C324.614 632.21 324.455 632.499 324.213 632.896C323.972 633.294 323.799 633.501 323.695 633.519ZM354.799 614.551C355.146 614.492 355.524 614.589 355.935 614.84C356.358 615.089 356.624 615.537 356.734 616.184C356.842 616.82 356.758 617.69 356.481 618.794C356.203 619.888 355.761 621.032 355.156 622.228C354.549 623.413 353.851 624.554 353.062 625.65C352.283 626.733 351.396 627.668 350.4 628.455C349.414 629.229 348.476 629.691 347.586 629.842C346.697 629.992 345.933 629.837 345.296 629.374C344.669 628.898 344.271 628.163 344.102 627.17C343.932 626.165 343.986 625.014 344.266 623.719C344.557 622.421 345.011 621.245 345.628 620.189C346.244 619.122 346.939 618.142 347.715 617.25C349.342 615.417 350.865 614.38 352.287 614.139C352.922 614.031 353.428 614.106 353.804 614.363C353.937 614.448 354.011 614.53 354.025 614.611L354.042 614.715C354.2 614.665 354.452 614.61 354.799 614.551ZM353.439 617.153L353.318 617.174C352.914 617.242 352.662 616.982 352.562 616.393C351.765 616.813 350.964 617.448 350.157 618.298C349.35 619.148 348.663 620.108 348.096 621.179C346.939 623.325 346.459 625.052 346.657 626.362C346.767 627.009 347.059 627.292 347.532 627.212C348.006 627.132 348.658 626.7 349.488 625.918C350.318 625.135 351.092 624.088 351.808 622.778C352.537 621.466 353.055 620.35 353.362 619.43C353.679 618.497 353.812 617.88 353.761 617.58C353.709 617.268 353.601 617.125 353.439 617.153ZM359.588 623.759L359.617 624.039C359.666 624.328 359.818 624.558 360.073 624.729C360.328 624.899 360.548 624.969 360.733 624.938C362.119 624.702 363.308 624.287 364.301 623.691C365.305 623.092 365.771 622.585 365.701 622.169C365.668 621.973 365.443 621.839 365.026 621.767C364.62 621.681 363.937 621.613 362.977 621.562C362.027 621.497 361.334 621.442 360.899 621.397C360.461 621.341 360.112 621.281 359.852 621.218C359.592 621.155 359.319 621.053 359.033 620.911C358.426 620.622 358.058 620.102 357.931 619.351C357.801 618.588 357.951 617.79 358.381 616.957C358.819 616.11 359.415 615.349 360.169 614.674C360.922 614 361.75 613.378 362.651 612.809C364.434 611.687 365.978 611.015 367.284 610.793C368.566 610.576 369.405 610.719 369.799 611.223C369.925 611.403 370.008 611.615 370.05 611.858L370.07 611.979C370.174 612.591 370.123 613.093 369.916 613.485C369.72 613.875 369.363 614.256 368.844 614.63C368.336 615.001 367.915 615.215 367.58 615.272C367.256 615.327 367.044 615.339 366.944 615.308C366.856 615.276 366.776 615.23 366.707 615.17C366.635 615.099 366.55 615.054 366.452 615.035C366.365 615.014 366.31 614.934 366.287 614.796C366.263 614.657 366.298 614.509 366.39 614.35C366.48 614.181 366.534 614.011 366.553 613.841C365.796 614.005 365.029 614.32 364.252 614.784C363.473 615.237 362.817 615.711 362.283 616.206C361.76 616.699 361.333 617.157 361.001 617.582C360.668 618.007 360.517 618.306 360.546 618.479C360.574 618.641 360.862 618.729 361.411 618.743C363.883 618.811 365.524 618.954 366.334 619.174C367.144 619.393 367.73 619.698 368.094 620.088C368.457 620.478 368.669 620.852 368.73 621.21C368.855 621.949 368.679 622.698 368.201 623.457C367.724 624.215 367.087 624.876 366.291 625.439C364.586 626.667 363.04 627.399 361.653 627.634C360.279 627.867 359.289 627.815 358.685 627.478C358.095 627.15 357.75 626.697 357.652 626.12C357.554 625.542 357.609 624.986 357.815 624.452C358.031 623.904 358.371 623.591 358.833 623.513C359.295 623.434 359.547 623.516 359.588 623.759ZM379.474 600.988L380.214 601.041C380.318 601.023 380.419 601.06 380.518 601.15C380.616 601.24 380.673 601.331 380.689 601.424C380.705 601.516 380.626 601.785 380.452 602.231C380.278 602.676 380.067 603.187 379.82 603.764C379.583 604.327 379.457 604.634 379.441 604.684C380.331 604.462 380.96 604.32 381.33 604.257C381.711 604.192 381.976 604.177 382.125 604.211C382.271 604.234 382.452 604.352 382.666 604.565C382.89 604.765 383.088 604.916 383.26 605.017C383.43 605.107 383.535 605.274 383.576 605.516C383.617 605.759 383.502 605.992 383.231 606.217C382.97 606.427 382.675 606.578 382.346 606.67C379.71 607.39 378.255 607.78 377.979 607.838C377.287 609.43 376.354 611.888 375.183 615.213C374.021 618.524 373.453 620.569 373.478 621.35C373.491 621.704 373.516 621.991 373.553 622.211C373.629 622.661 373.904 622.846 374.378 622.766C374.852 622.686 375.347 622.417 375.864 621.961C376.379 621.494 376.843 621.005 377.256 620.495C378.354 619.12 378.949 618.425 379.041 618.409C379.342 618.358 379.58 618.853 379.756 619.893C379.852 620.459 379.679 621.011 379.235 621.55C378.239 622.753 377.385 623.676 376.674 624.32C375.963 624.964 375.209 625.353 374.412 625.488C374.238 625.517 374.074 625.528 373.918 625.518C372.964 625.502 372.225 625.282 371.702 624.86C371.188 624.424 370.859 623.779 370.714 622.924C370.581 622.067 370.659 620.99 370.95 619.692C371.251 618.381 371.666 616.974 372.196 615.47C373.063 613.017 373.954 610.702 374.869 608.526L374.225 608.725C372.91 609.102 372.143 609.31 371.924 609.347L371.768 609.373C371.433 609.43 371.098 609.421 370.765 609.347C370.429 609.261 370.245 609.12 370.212 608.924C370.178 608.728 370.227 608.523 370.357 608.311C370.499 608.097 370.579 607.935 370.596 607.825C370.634 607.557 370.886 607.223 371.353 606.823C371.832 606.421 372.203 606.191 372.467 606.135C372.728 606.066 372.98 606.006 373.22 605.953C373.473 605.899 373.748 605.84 374.046 605.778C374.356 605.713 374.591 605.661 374.751 605.622L376.299 605.289C377.023 603.668 377.528 602.62 377.816 602.143C378.115 601.664 378.291 601.403 378.342 601.358C378.392 601.302 378.504 601.26 378.677 601.23L379.474 600.988ZM388.917 595.589C389.472 595.495 389.985 595.58 390.458 595.845C390.941 596.096 391.237 596.545 391.346 597.192C391.456 597.839 391.27 598.916 390.789 600.424C390.306 601.92 389.684 603.476 388.924 605.091C388.162 606.694 387.282 608.412 386.286 610.245C384.711 613.151 383.172 615.783 381.67 618.142C381.682 618.282 381.674 618.551 381.647 618.948C381.628 619.331 381.652 619.714 381.716 620.095C381.781 620.476 382.013 620.794 382.413 621.047C382.822 621.286 383.286 621.362 383.806 621.274C384.326 621.186 384.849 620.907 385.376 620.437C385.914 619.966 386.364 619.467 386.727 618.942C387.68 617.556 388.296 616.84 388.573 616.793C388.85 616.746 389.061 617.144 389.204 617.987L389.262 618.334C389.339 618.784 389.314 619.127 389.187 619.363C388.419 620.717 387.478 621.792 386.364 622.587C385.249 623.371 384.149 623.855 383.063 624.039C381.977 624.223 381.095 624.034 380.417 623.471C379.737 622.897 379.299 622.032 379.103 620.877C378.721 618.624 378.873 615.876 379.559 612.634C380.255 609.378 381.179 606.553 382.33 604.159C384.919 598.751 387.115 595.895 388.917 595.589ZM388.625 598.598C388.596 598.425 388.523 598.348 388.408 598.368C388.003 598.436 387.136 599.772 385.807 602.374C384.477 604.977 383.542 607.032 383.001 608.538C382.472 610.042 382.043 611.892 381.714 614.087C382.803 612.238 384.259 609.4 386.082 605.573C387.915 601.732 388.762 599.407 388.625 598.598ZM394.34 627.35C394.292 627.418 394.161 627.737 393.949 628.308C393.751 628.888 393.529 629.473 393.284 630.061C393.041 630.661 392.712 631.245 392.298 631.815C391.895 632.383 391.529 632.712 391.199 632.804C390.884 632.905 390.68 632.963 390.587 632.979C389.524 633.159 388.902 632.712 388.719 631.637C388.506 630.378 388.909 628.794 389.928 626.886C390.317 626.166 390.825 625.373 391.45 624.506C392.078 623.651 392.417 623.165 392.469 623.05C392.523 622.945 393.115 621.181 394.246 617.756C393.342 619.157 392.482 620.32 391.663 621.243C390.843 622.155 390.002 622.731 389.14 622.972L389.018 622.993C388.568 623.069 388.098 622.995 387.608 622.769C387.12 622.554 386.813 622.077 386.687 621.338C386.501 620.24 386.616 619.127 387.03 617.999C387.178 617.606 387.433 616.938 387.796 615.997C388.171 615.054 388.511 614.147 388.814 613.275C389.123 612.569 389.425 611.757 389.721 610.839C390.017 609.921 390.25 609.264 390.42 608.866C390.589 608.457 390.777 608.235 390.985 608.2C391.193 608.165 391.481 608.253 391.85 608.463C392.228 608.661 392.447 608.939 392.508 609.297C392.569 609.655 392.075 611.337 391.028 614.344C389.981 617.35 389.49 619.044 389.554 619.425C389.57 619.518 389.624 619.556 389.717 619.541C390.029 619.488 390.642 618.932 391.556 617.874C392.479 616.802 393.47 615.463 394.529 613.857C395.713 612.075 396.607 610.48 397.212 609.069C397.288 608.89 397.349 608.755 397.393 608.664C397.446 608.56 397.508 608.431 397.577 608.277C397.655 608.109 397.716 607.98 397.761 607.889C397.816 607.796 397.876 607.691 397.939 607.573C398.012 607.442 398.078 607.342 398.137 607.272C398.197 607.203 398.262 607.132 398.333 607.061C398.441 606.924 398.57 606.842 398.72 606.817C398.882 606.789 399.124 606.784 399.448 606.8C399.783 606.815 399.987 606.858 400.058 606.929C400.141 606.998 400.223 607.061 400.304 607.119C400.441 607.226 400.52 607.338 400.539 607.453C400.557 607.557 400.535 607.709 400.474 607.91C400.411 608.099 400.029 609.103 399.327 610.922C397.265 616.287 395.882 620.183 395.176 622.608C396.681 620.832 398.782 618.223 401.479 614.782C401.589 614.657 401.707 614.583 401.834 614.561C402.192 614.501 402.464 615.019 402.65 616.117C402.705 616.44 402.684 616.664 402.586 616.787C399.582 620.031 396.833 623.552 394.34 627.35ZM420.349 603.469C421.227 603.321 421.717 603.546 421.819 604.147C421.874 604.471 421.839 604.72 421.715 604.896C421.59 605.072 421.352 605.629 421 606.568C420.658 607.494 420.299 608.672 419.923 610.103C419.557 611.52 419.367 612.711 419.353 613.676C419.337 613.798 419.348 613.962 419.383 614.17C419.491 614.806 419.718 615.094 420.064 615.035C420.411 614.977 420.794 614.745 421.213 614.341C421.629 613.926 421.991 613.502 422.298 613.07C422.604 612.626 422.896 612.178 423.176 611.726C423.468 611.273 423.643 611.011 423.703 610.942C423.762 610.872 423.861 610.826 424 610.802C424.219 610.765 424.381 610.91 424.484 611.237C424.587 611.564 424.669 611.907 424.729 612.265C424.79 612.623 424.798 612.878 424.752 613.028C424.528 613.743 423.923 614.66 422.936 615.779C421.961 616.895 421.005 617.532 420.069 617.691C419.145 617.848 418.415 617.68 417.88 617.189C417.345 616.697 417.02 616.11 416.904 615.429C416.787 614.736 416.799 614.109 416.942 613.55C416.195 614.961 415.271 616.205 414.17 617.283C413.081 618.359 412.143 618.964 411.357 619.097C410.572 619.231 409.89 619.102 409.313 618.713C408.578 618.232 408.122 617.471 407.946 616.431C407.767 615.38 407.82 614.289 408.104 613.159C408.397 612.016 408.852 610.946 409.467 609.951C410.081 608.943 410.783 608.004 411.575 607.133C413.238 605.306 414.878 604.255 416.496 603.98C417.12 603.875 417.646 603.892 418.074 604.034C418.502 604.175 418.794 604.393 418.951 604.687C419.158 604.224 419.345 603.925 419.512 603.79C419.689 603.641 419.968 603.534 420.349 603.469ZM418.371 605.784C416.395 606.119 414.536 607.564 412.794 610.117C412.176 611.03 411.643 612.09 411.193 613.295C410.756 614.498 410.571 615.302 410.64 615.707C410.708 616.111 410.858 616.294 411.089 616.255C411.413 616.2 412.206 615.411 413.469 613.89C414.731 612.356 415.553 611.248 415.937 610.565C416.354 609.805 417.166 608.211 418.371 605.784ZM431.869 595.49C431.98 596.148 431.787 596.864 431.288 597.638C430.787 598.401 430.202 598.839 429.532 598.952C428.873 599.064 428.485 598.773 428.368 598.08C428.25 597.387 428.427 596.679 428.899 595.958C429.381 595.222 429.974 594.795 430.679 594.675C430.99 594.622 431.254 594.667 431.468 594.809C431.682 594.951 431.816 595.178 431.869 595.49ZM431.627 611.095C431.686 611.442 431.693 611.696 431.649 611.858C431.279 613.11 430.537 614.198 429.422 615.124C428.305 616.039 427.291 616.573 426.378 616.728C425.465 616.883 424.627 616.71 423.865 616.209C423.103 615.709 422.668 615.141 422.56 614.505C422.452 613.87 422.613 612.892 423.043 611.571C423.472 610.25 423.918 609.021 424.379 607.885C424.84 606.749 425.064 606.141 425.05 606.06C425.034 605.967 424.883 605.815 424.598 605.602C424.324 605.387 424.177 605.221 424.157 605.106C424.135 604.979 424.318 604.621 424.706 604.032C425.103 603.43 425.6 602.823 426.198 602.21C426.805 601.584 427.287 601.241 427.645 601.18C428.015 601.117 428.372 601.223 428.716 601.498C429.059 601.772 429.254 602.042 429.299 602.308C429.344 602.574 428.393 605.309 426.447 610.512C426.424 610.587 426.352 610.76 426.231 611.03C426.12 611.286 426.032 611.503 425.967 611.681C425.912 611.845 425.845 612.046 425.767 612.285C425.614 612.787 425.564 613.193 425.617 613.505C425.684 613.898 425.983 614.049 426.514 613.959C427.046 613.869 427.564 613.597 428.07 613.143C428.585 612.675 429.013 612.187 429.354 611.677C430.243 610.326 430.762 609.638 430.912 609.612C431.212 609.561 431.451 610.056 431.627 611.095ZM435.088 604.803C437.29 601.244 439.35 599.302 441.268 598.977C441.741 598.896 442.153 598.975 442.502 599.213C442.861 599.438 443.079 599.775 443.155 600.226C443.232 600.676 443.037 601.488 442.57 602.661C442.113 603.82 441.674 604.809 441.255 605.629C441.029 606.048 440.731 606.289 440.361 606.351C440.003 606.412 439.697 606.327 439.444 606.097C439.203 605.864 439.052 605.569 438.991 605.211C438.856 604.414 439.13 603.44 439.815 602.29L439.774 602.261C439.399 602.36 438.579 603.272 437.314 604.996C436.061 606.718 435.002 608.253 434.137 609.6C433.281 610.934 432.377 612.537 431.423 614.411C431.149 614.968 430.885 615.268 430.63 615.312C430.388 615.353 430.052 615.333 429.622 615.251C429.178 615.16 428.91 615.086 428.818 615.031C428.714 614.977 428.648 614.869 428.62 614.708C428.593 614.546 428.608 614.353 428.665 614.129C428.72 613.894 428.841 613.559 429.029 613.123C429.205 612.689 429.467 611.991 429.815 611.028C430.174 610.064 430.735 608.602 431.496 606.643C432.257 604.683 432.71 603.501 432.855 603.096C433.165 602.259 433.429 601.643 433.648 601.25C434.056 600.503 434.878 600.025 436.115 599.815C436.392 599.768 436.56 599.918 436.619 600.264C436.711 600.807 436.382 601.915 435.631 603.588L435.088 604.803ZM457.546 583.843L458.91 583.79C459.199 583.741 459.359 583.808 459.39 583.993C459.396 584.028 459.386 584.107 459.359 584.23C456.669 590.095 453.732 596.958 450.549 604.82C450.375 605.265 450.178 605.542 449.959 605.651C449.948 605.653 449.937 605.66 449.927 605.674C449.918 605.687 449.898 605.709 449.867 605.738C449.846 605.753 449.813 605.771 449.769 605.79C449.607 605.889 449.411 605.958 449.18 605.997C448.949 606.036 448.793 606.098 448.712 606.183C448.631 606.268 448.458 606.333 448.193 606.378C447.765 606.451 447.514 606.267 447.44 605.828C447.308 605.054 447.961 602.911 449.398 599.399C450.844 595.873 452.29 592.585 453.733 589.535C455.175 586.473 456.127 584.689 456.588 584.183C456.718 584.042 457.038 583.929 457.546 583.843ZM444.963 612.881C444.839 612.153 445.034 611.442 445.546 610.749C446.057 610.045 446.647 609.636 447.317 609.522C447.999 609.406 448.397 609.684 448.51 610.354C448.624 611.024 448.425 611.741 447.912 612.505C447.412 613.268 446.826 613.706 446.156 613.82C445.486 613.933 445.088 613.62 444.963 612.881ZM460.989 586.272C461.602 586.168 462.075 586.26 462.409 586.548C462.755 586.834 462.973 587.249 463.066 587.792C463.158 588.335 463.051 588.899 462.747 589.486C462.454 590.071 461.969 590.717 461.293 591.426C460.626 592.122 460.108 592.501 459.739 592.564C459.369 592.626 459.097 592.601 458.923 592.488C458.761 592.373 458.638 592.31 458.553 592.301C458.468 592.292 458.411 592.2 458.382 592.027C458.35 591.842 458.375 591.707 458.456 591.622C458.536 591.537 458.716 591.198 458.996 590.604C459.285 589.996 459.45 589.599 459.49 589.414C459.275 589.272 459.136 589.011 459.071 588.63C459.005 588.237 459.152 587.772 459.512 587.235C459.885 586.697 460.377 586.376 460.989 586.272ZM466.044 585.486C466.622 585.388 467.08 585.494 467.418 585.805C467.754 586.105 467.967 586.521 468.057 587.052C468.145 587.572 468.055 588.128 467.787 588.72C467.517 589.301 467.078 589.934 466.469 590.62C465.872 591.303 465.4 591.675 465.053 591.733C464.718 591.79 464.464 591.762 464.29 591.649C464.128 591.534 464.01 591.471 463.937 591.459C463.864 591.448 463.813 591.356 463.783 591.182C463.752 590.997 463.771 590.863 463.84 590.78C463.909 590.697 464.066 590.362 464.311 589.773C464.565 589.172 464.702 588.786 464.721 588.616C464.505 588.463 464.363 588.19 464.297 587.797C464.228 587.392 464.358 586.931 464.686 586.411C465.014 585.892 465.466 585.584 466.044 585.486Z" fill="#672686"/>
<path id="squiggle3" d="M427.918 718.629C427.918 718.629 427.561 669.699 482.896 694.342C538.232 718.984 533.347 672.054 533.347 672.054" stroke="#FFB8E2" stroke-width="26"/>
<path id="squiggle2" d="M139.458 357.979C139.458 357.979 177.154 389.176 122.694 415.698C68.2345 442.219 107.311 468.663 107.311 468.663" stroke="#FFB8E2" stroke-width="26"/>
<path id="squiggle1" d="M506.953 267.342C506.953 267.342 542.175 233.376 562.433 290.463C582.69 347.55 613.343 311.68 613.343 311.68" stroke="#FFB8E2" stroke-width="26"/>
<path id="triangle 1" d="M32.7559 679.11L86.7235 594.952L132.623 674.452L32.7559 679.11Z" fill="#FFFDC0"/>
<path id="Vector 168" d="M71 758H571" stroke="#672686" stroke-width="5" stroke-linecap="round"/>
<path id="Vector 169" d="M66 98H566" stroke="#672686" stroke-width="5" stroke-linecap="round"/>
</g>
<defs>
<filter id="filter0_d_309_151" x="0.714844" y="0.275391" width="648.57" height="863.449" filterUnits="userSpaceOnUse" color-interpolation-filters="sRGB">
<feFlood flood-opacity="0" result="BackgroundImageFix"/>
<feColorMatrix in="SourceAlpha" type="matrix" values="0 0 0 0 0 0 0 0 0 0 0 0 0 0 0 0 0 0 127 0" result="hardAlpha"/>
<feOffset dx="8" dy="8"/>
<feComposite in2="hardAlpha" operator="out"/>
<feColorMatrix type="matrix" values="0 0 0 0 0 0 0 0 0 0 0 0 0 0 0 0 0 0 1 0"/>
<feBlend mode="normal" in2="BackgroundImageFix" result="effect1_dropShadow_309_151"/>
<feBlend mode="normal" in="SourceGraphic" in2="effect1_dropShadow_309_151" result="shape"/>
</filter>
</defs>
</svg>
