<svg width="600" height="600" viewBox="0 0 600 600" fill="none" xmlns="http://www.w3.org/2000/svg">
<style>
  @keyframes slide-shutter {
  from {transform: translate(0,0);}
  to {transform: translate(-5.9em,0);}
  }

  .shutter {
  transform-box: fill-box;
  transform-origin: center;
  animation-duration: 2s;
  animation-name: slide-shutter;
  animation-iteration-count: infinite;
  animation-direction: alternate;
  }
</style>
  <g id="floppy disk">
<g id="Exclude">
<mask id="path-1-inside-1_310_261" fill="white">
<path fill-rule="evenodd" clip-rule="evenodd" d="M0 9.99999C0 4.47714 4.47715 0 10 0H65V10H475V0H540L600 60V590C600 595.523 595.523 600 590 600H9.99999C4.47714 600 0 595.523 0 590V9.99999ZM25 560H40V575H25V560ZM575 560H560V575H575V560Z"/>
</mask>
<path fill-rule="evenodd" clip-rule="evenodd" d="M0 9.99999C0 4.47714 4.47715 0 10 0H65V10H475V0H540L600 60V590C600 595.523 595.523 600 590 600H9.99999C4.47714 600 0 595.523 0 590V9.99999ZM25 560H40V575H25V560ZM575 560H560V575H575V560Z" fill="#FFFDC0"/>
<path d="M65 0H70V-5H65V0ZM65 10H60V15H65V10ZM475 10V15H480V10H475ZM475 0V-5H470V0H475ZM540 0L543.536 -3.53553L542.071 -5H540V0ZM600 60H605V57.9289L603.536 56.4645L600 60ZM40 560H45V555H40V560ZM25 560V555H20V560H25ZM40 575V580H45V575H40ZM25 575H20V580H25V575ZM560 560V555H555V560H560ZM575 560H580V555H575V560ZM560 575H555V580H560V575ZM575 575V580H580V575H575ZM10 -5C1.71574 -5 -5 1.71571 -5 9.99999H5C5 7.23857 7.23857 5 10 5V-5ZM65 -5H10V5H65V-5ZM70 10V0H60V10H70ZM475 5H65V15H475V5ZM470 0V10H480V0H470ZM540 -5H475V5H540V-5ZM603.536 56.4645L543.536 -3.53553L536.464 3.53553L596.464 63.5355L603.536 56.4645ZM605 590V60H595V590H605ZM590 605C598.284 605 605 598.284 605 590H595C595 592.761 592.761 595 590 595V605ZM9.99999 605H590V595H9.99999V605ZM-5 590C-5 598.284 1.71571 605 9.99999 605V595C7.23858 595 5 592.761 5 590H-5ZM-5 9.99999V590H5V9.99999H-5ZM40 555H25V565H40V555ZM45 575V560H35V575H45ZM25 580H40V570H25V580ZM20 560V575H30V560H20ZM560 565H575V555H560V565ZM565 575V560H555V575H565ZM575 570H560V580H575V570ZM570 560V575H580V560H570Z" fill="black" mask="url(#path-1-inside-1_310_261)"/>
</g>
<rect id="Rectangle 124" x="62.5" y="7.5" width="415" height="215" fill="#FFE483" stroke="black" stroke-width="5"/>
<rect id="Rectangle 244" x="248.5" y="28.5" width="88" height="177" rx="7.5" fill="#FF9683" stroke="black" stroke-width="5"/>
<g id="Intersect">
<mask id="path-5-inside-2_310_261" fill="white">
<path fill-rule="evenodd" clip-rule="evenodd" d="M339 43.1059V198C339 203.523 334.523 208 329 208H256C250.477 208 246 203.523 246 198V43.1059C261.092 40.408 276.632 39 292.5 39C308.368 39 323.908 40.408 339 43.1059Z"/>
</mask>
<path fill-rule="evenodd" clip-rule="evenodd" d="M339 43.1059V198C339 203.523 334.523 208 329 208H256C250.477 208 246 203.523 246 198V43.1059C261.092 40.408 276.632 39 292.5 39C308.368 39 323.908 40.408 339 43.1059Z" fill="#672686"/>
<path d="M339 43.1059H344V38.9204L339.88 38.1839L339 43.1059ZM246 43.1059L245.12 38.1839L241 38.9204V43.1059H246ZM334 43.1059V198H344V43.1059H334ZM334 198C334 200.761 331.761 203 329 203V213C337.284 213 344 206.284 344 198H334ZM329 203H256V213H329V203ZM256 203C253.239 203 251 200.761 251 198H241C241 206.284 247.716 213 256 213V203ZM251 198V43.1059H241V198H251ZM246.88 48.0279C261.683 45.3817 276.928 44 292.5 44V34C276.335 34 260.502 35.4343 245.12 38.1839L246.88 48.0279ZM292.5 44C308.072 44 323.317 45.3817 338.12 48.0279L339.88 38.1839C324.498 35.4343 308.665 34 292.5 34V44Z" fill="black" mask="url(#path-5-inside-2_310_261)"/>
</g>
<g id="shutter" class="shutter">
<mask id="path-7-inside-3_310_261" fill="white">
<path fill-rule="evenodd" clip-rule="evenodd" d="M480 0H155V215C155 220.523 159.477 225 165 225H470C475.523 225 480 220.523 480 215V0ZM355 35C352.239 35 350 37.2386 350 40V195C350 197.761 352.239 200 355 200H420C422.761 200 425 197.761 425 195V40C425 37.2386 422.761 35 420 35H355Z"/>
</mask>
<path fill-rule="evenodd" clip-rule="evenodd" d="M480 0H155V215C155 220.523 159.477 225 165 225H470C475.523 225 480 220.523 480 215V0ZM355 35C352.239 35 350 37.2386 350 40V195C350 197.761 352.239 200 355 200H420C422.761 200 425 197.761 425 195V40C425 37.2386 422.761 35 420 35H355Z" fill="#A2DCEA"/>
<path d="M155 0V-5H150V0H155ZM480 0H485V-5H480V0ZM155 5H480V-5H155V5ZM160 215V0H150V215H160ZM165 220C162.239 220 160 217.761 160 215H150C150 223.284 156.716 230 165 230V220ZM470 220H165V230H470V220ZM475 215C475 217.761 472.761 220 470 220V230C478.284 230 485 223.284 485 215H475ZM475 0V215H485V0H475ZM355 40V40V30C349.477 30 345 34.4771 345 40H355ZM355 195V40H345V195H355ZM355 195H345C345 200.523 349.477 205 355 205V195ZM420 195H355V205H420V195ZM420 195V205C425.523 205 430 200.523 430 195H420ZM420 40V195H430V40H420ZM420 40H430C430 34.4771 425.523 30 420 30V40ZM355 40H420V30H355V40Z" fill="black" mask="url(#path-7-inside-3_310_261)"/>
</g>
<path id="Rectangle 125" d="M70 302.5H530C534.142 302.5 537.5 305.858 537.5 310V597.5H62.5V310C62.5 305.858 65.8579 302.5 70 302.5Z" fill="#EEEEEE" stroke="black" stroke-width="5"/>
<path id="Rectangle 126" d="M65 310C65 307.239 67.2386 305 70 305H530C532.761 305 535 307.239 535 310V355H65V310Z" fill="#FFB8E2"/>
<path id="Vector 171" d="M108 415H488" stroke="black"/>
<path id="Vector 172" d="M108 475H488" stroke="black"/>
<path id="Vector 173" d="M108 535H488" stroke="black"/>
<path id="Arrow 1" d="M32 55L17.5662 80H46.4338L32 55ZM34.5 105V77.5H29.5V105H34.5Z" fill="#FFE483"/>
<path id="Vapor Wallet Research Data 2021" d="M115.083 434.664C116.621 434.323 117.998 434.494 119.213 435.178C120.429 435.863 121.549 436.861 122.573 438.174C123.59 439.453 124.535 440.985 125.408 442.772C126.274 444.524 127.137 446.35 127.998 448.25C128.852 450.114 129.698 451.944 130.536 453.739C131.401 455.491 132.328 457.027 133.318 458.348C134.343 459.662 135.428 460.668 136.573 461.368C137.746 462.025 139.084 462.186 140.587 461.853C140.657 461.838 140.74 461.801 140.838 461.743C140.9 461.692 140.979 461.638 141.077 461.58C141.209 461.514 141.383 461.31 141.601 460.968C141.811 460.592 141.939 460.343 141.986 460.223C142.017 460.032 142.029 459.425 142.022 458.399C142.015 457.374 142.019 456.071 142.035 454.49C142.087 452.902 142.13 451.113 142.166 449.125C142.202 447.136 142.251 445.126 142.315 443.095C142.405 441.021 142.511 439.017 142.632 437.083C142.746 435.114 142.888 433.359 143.06 431.817C143.232 430.275 143.434 429.038 143.668 428.106C143.928 427.131 144.216 426.609 144.53 426.539C144.95 426.446 145.301 426.46 145.585 426.581C145.868 426.701 146.094 426.89 146.26 427.146C146.427 427.402 146.567 427.702 146.679 428.043C146.784 428.35 146.871 428.661 146.941 428.976C147.057 429.5 147.158 430.45 147.243 431.825C147.363 433.192 147.449 434.823 147.503 436.718C147.583 438.571 147.615 440.618 147.599 442.859C147.617 445.092 147.591 447.372 147.52 449.698C147.441 451.99 147.294 454.223 147.08 456.398C146.857 458.537 146.571 460.471 146.22 462.2C145.897 463.885 145.473 465.281 144.948 466.388C144.451 467.452 143.852 468.061 143.153 468.216C142.209 468.425 141.242 468.365 140.252 468.034C139.262 467.704 138.289 467.204 137.334 466.536C136.379 465.867 135.435 465.086 134.504 464.192C133.599 463.256 132.747 462.308 131.948 461.348C131.183 460.381 130.465 459.458 129.793 458.58C129.122 457.702 128.565 456.927 128.123 456.254C127.529 455.396 126.805 454.364 125.951 453.16C125.124 451.913 124.251 450.621 123.331 449.285C122.446 447.94 121.544 446.6 120.624 445.263C119.732 443.884 118.93 442.668 118.22 441.615C117.502 440.528 116.918 439.63 116.468 438.923C116.017 438.216 115.785 437.827 115.769 437.758L115.083 434.664ZM179.303 453.104C178.177 454.307 177.205 455.385 176.389 456.336C175.6 457.244 174.806 458.044 174.005 458.735C173.205 459.426 172.307 460.01 171.313 460.487C170.353 460.957 169.122 461.358 167.619 461.691C164.368 462.412 161.766 462.091 159.813 460.726C157.852 459.327 156.492 456.915 155.732 453.489C155.438 452.16 155.306 450.741 155.338 449.23C155.37 447.719 155.563 446.191 155.917 444.645C156.298 443.057 156.822 441.529 157.486 440.061C158.143 438.559 158.958 437.186 159.929 435.944C160.901 434.701 161.989 433.653 163.193 432.799C164.425 431.903 165.792 431.288 167.295 430.954C169.867 430.641 171.981 430.832 173.639 431.528C175.29 432.189 176.656 433.225 177.739 434.636C178.814 436.011 179.705 437.629 180.411 439.49C181.109 441.315 181.753 443.227 182.342 445.223C182.967 447.212 183.626 449.193 184.32 451.166C185.015 453.14 185.936 454.898 187.085 456.44C186.886 457.694 186.628 458.595 186.309 459.143C186.033 459.717 185.615 459.902 185.056 459.696C184.497 459.49 183.75 458.848 182.814 457.772C181.914 456.688 180.743 455.132 179.303 453.104ZM160.213 452.605C160.654 454.598 161.347 455.985 162.29 456.766C163.261 457.504 164.708 457.66 166.63 457.234C168.064 456.916 169.373 456.369 170.558 455.593C171.77 454.774 172.769 453.819 173.554 452.728C174.331 451.602 174.877 450.344 175.192 448.954C175.508 447.564 175.495 446.1 175.154 444.561C175.014 443.932 174.838 443.054 174.625 441.928C174.404 440.767 174.082 439.646 173.659 438.566C173.237 437.486 172.691 436.598 172.024 435.903C171.348 435.172 170.521 434.916 169.542 435.133C167.724 435.536 166.151 436.38 164.822 437.665C163.486 438.915 162.417 440.38 161.616 442.061C160.815 443.743 160.294 445.527 160.052 447.415C159.803 449.267 159.856 450.997 160.213 452.605ZM186.529 438.298C185.777 434.907 186.005 432.216 187.214 430.224C188.423 428.232 190.653 426.876 193.904 426.155C195.232 425.861 196.623 425.681 198.076 425.615C199.563 425.542 200.971 425.689 202.299 426.054C203.619 426.385 204.767 427.011 205.741 427.932C206.751 428.845 207.445 430.158 207.825 431.871C208.243 433.759 208.219 435.635 207.752 437.499C207.313 439.32 206.626 441.104 205.693 442.852C204.788 444.556 203.723 446.204 202.498 447.796C201.301 449.345 200.18 450.822 199.135 452.228C199.096 452.383 199.092 452.696 199.123 453.166C199.181 453.593 199.225 453.877 199.256 454.017C199.512 455.17 200.1 456.25 201.02 457.256C201.983 458.29 202.998 459.312 204.065 460.322C205.141 461.368 206.154 462.463 207.105 463.609C208.056 464.756 208.686 466.028 208.996 467.426C209.182 468.265 209.116 468.793 208.798 469.011C208.487 469.263 207.772 469.513 206.653 469.761C205.892 469.637 205.046 469.127 204.114 468.234C203.225 467.367 202.264 466.26 201.232 464.912C200.234 463.556 199.194 462.007 198.111 460.267C197.071 458.554 196.041 456.802 195.02 455.011C194.027 453.177 193.059 451.374 192.116 449.603C191.2 447.789 190.372 446.12 189.631 444.597C188.89 443.075 188.234 441.771 187.664 440.687C187.12 439.561 186.742 438.764 186.529 438.298ZM191.09 437.782C191.207 438.306 191.412 439.068 191.707 440.066C191.994 441.029 192.351 441.977 192.778 442.909C193.239 443.834 193.779 444.613 194.396 445.246C195.005 445.845 195.712 446.055 196.516 445.877C197.6 445.636 198.602 445.029 199.523 444.055C200.479 443.072 201.253 441.929 201.843 440.624C202.469 439.312 202.905 437.968 203.15 436.594C203.423 435.176 203.443 433.943 203.21 432.894C203.017 432.02 202.656 431.385 202.128 430.989C201.592 430.557 200.961 430.275 200.235 430.143C199.536 429.968 198.811 429.927 198.062 430.02C197.304 430.077 196.594 430.18 195.929 430.327C193.937 430.769 192.519 431.652 191.675 432.976C190.859 434.257 190.664 435.859 191.09 437.782ZM213.209 441.515C212.729 439.348 212.79 437.225 213.393 435.148C213.988 433.035 214.96 431.133 216.308 429.44C217.684 427.705 219.318 426.224 221.21 424.997C223.137 423.763 225.167 422.91 227.299 422.437C228.488 422.173 229.622 422.325 230.701 422.893C231.816 423.453 232.811 424.222 233.689 425.201C234.558 426.145 235.286 427.194 235.872 428.348C236.493 429.494 236.904 430.522 237.105 431.431C237.54 433.388 237.49 435.398 236.957 437.46C236.416 439.487 235.553 441.384 234.368 443.151C233.174 444.882 231.731 446.394 230.037 447.687C228.343 448.98 226.552 449.835 224.664 450.254C222.986 450.626 221.508 450.66 220.231 450.356C218.945 450.018 217.848 449.454 216.94 448.665C216.024 447.841 215.248 446.822 214.611 445.606C214.002 444.347 213.535 442.984 213.209 441.515ZM217.783 441.051C217.984 441.96 218.232 442.749 218.527 443.417C218.849 444.042 219.257 444.557 219.75 444.961C220.278 445.358 220.905 445.622 221.631 445.755C222.35 445.852 223.198 445.792 224.177 445.575C225.471 445.288 226.687 444.652 227.825 443.666C228.956 442.645 229.908 441.481 230.681 440.172C231.482 438.821 232.05 437.411 232.384 435.943C232.719 434.475 232.747 433.112 232.468 431.854C232.344 431.294 232.156 430.694 231.904 430.053C231.652 429.412 231.341 428.839 230.972 428.334C230.604 427.829 230.149 427.435 229.61 427.151C229.07 426.867 228.451 426.803 227.751 426.958C227.122 427.097 226.417 427.474 225.636 428.087C224.89 428.693 224.119 429.432 223.322 430.306C222.561 431.171 221.818 432.124 221.095 433.165C220.407 434.198 219.789 435.215 219.241 436.217C218.693 437.218 218.277 438.154 217.993 439.024C217.744 439.886 217.674 440.562 217.783 441.051ZM237.639 424.16C237.569 423.846 237.517 423.527 237.482 423.205C237.44 422.848 237.444 422.535 237.494 422.267C237.537 421.964 237.644 421.702 237.815 421.481C238.021 421.252 238.334 421.091 238.753 420.997C239.103 420.92 239.549 421.114 240.093 421.581C240.664 422.004 241.269 422.585 241.91 423.323C242.543 424.027 243.177 424.821 243.814 425.707C244.485 426.585 245.071 427.409 245.572 428.178C246.1 428.905 246.534 429.542 246.876 430.09C247.217 430.637 247.41 430.925 247.452 430.952C247.635 429.628 247.848 428.187 248.089 426.63C248.331 425.072 248.718 423.593 249.251 422.191C249.811 420.746 250.557 419.481 251.49 418.394C252.457 417.299 253.763 416.569 255.406 416.205C256.245 416.019 257.062 415.984 257.858 416.101C258.682 416.176 259.431 416.413 260.107 416.813C260.81 417.171 261.413 417.66 261.918 418.282C262.422 418.904 262.776 419.669 262.977 420.578C263.148 421.347 262.953 421.959 262.394 422.413C261.869 422.859 261.222 423.168 260.453 423.338L259.929 423.454L257.174 421.7C257.104 421.715 257.048 421.709 257.005 421.682C256.935 421.698 256.865 421.713 256.795 421.729C256.753 421.701 256.696 421.695 256.626 421.711C255.403 421.982 254.519 422.545 253.975 423.399C253.458 424.211 253.137 425.162 253.012 426.253C252.88 427.31 252.885 428.409 253.028 429.551C253.199 430.65 253.384 431.654 253.586 432.563C253.741 433.262 253.97 433.963 254.272 434.666C254.567 435.335 254.88 435.999 255.209 436.659C255.532 437.285 255.844 437.949 256.146 438.652C256.441 439.32 256.674 440.039 256.845 440.808C257.17 442.276 256.546 443.185 254.973 443.534C254.099 443.727 253.089 443.474 251.944 442.775C250.791 442.04 249.584 441.061 248.322 439.837C247.095 438.605 245.872 437.226 244.654 435.699C243.427 434.137 242.317 432.604 241.323 431.101C240.33 429.597 239.494 428.224 238.815 426.981C238.17 425.73 237.779 424.79 237.639 424.16ZM285.444 403.548C285.32 402.989 285.312 402.459 285.421 401.958C285.557 401.414 285.957 401.069 286.622 400.922C287.181 400.798 287.851 401.254 288.631 402.292C289.446 403.321 290.335 404.683 291.297 406.377C292.287 408.028 293.336 409.867 294.446 411.895C295.548 413.888 296.674 415.821 297.822 417.693C298.963 419.531 300.097 421.169 301.222 422.606C302.34 424.009 303.406 424.928 304.419 425.363C305.181 424.828 305.709 424.069 306.005 423.086C306.328 422.061 306.511 420.902 306.554 419.608C306.59 418.28 306.519 416.884 306.341 415.42C306.19 413.913 306.026 412.427 305.848 410.963C305.697 409.456 305.558 408.001 305.43 406.599C305.295 405.162 305.269 403.884 305.351 402.766C305.468 401.639 305.719 400.703 306.103 399.958C306.488 399.212 307.083 398.751 307.887 398.572C308.376 398.464 308.825 398.419 309.233 398.439C309.633 398.424 310.042 398.7 310.461 399.267C310.702 399.69 311.077 400.304 311.585 401.108C312.093 401.912 312.668 402.849 313.308 403.917C313.983 404.978 314.713 406.118 315.497 407.338C316.308 408.515 317.115 409.675 317.919 410.817C318.757 411.952 319.566 413.037 320.347 414.075C321.119 415.077 321.839 415.926 322.507 416.622C322.608 416.746 322.833 416.934 323.182 417.187C323.559 417.397 323.803 417.508 323.916 417.52L325.671 414.765C326.134 414.039 326.394 413.064 326.453 411.841C326.504 410.582 326.429 409.169 326.228 407.599C326.062 406.022 325.802 404.356 325.45 402.6C325.124 400.802 324.785 399.025 324.433 397.269C324.08 395.514 323.774 393.803 323.515 392.136C323.255 390.47 323.112 388.998 323.086 387.72C323.051 386.408 323.18 385.334 323.472 384.499C323.763 383.664 324.311 383.157 325.115 382.979C325.15 382.971 325.189 382.981 325.232 383.008C325.302 382.993 325.372 382.977 325.442 382.962C325.554 382.973 325.628 382.975 325.663 382.968C325.698 382.96 325.801 383.011 325.972 383.119C326.135 383.193 326.28 383.271 326.408 383.353C326.572 383.426 326.7 383.508 326.793 383.597C326.921 383.679 327.01 383.751 327.061 383.813C327.115 384.058 327.212 384.495 327.351 385.124C327.526 385.746 327.694 386.423 327.857 387.158C328.02 387.892 328.175 388.591 328.322 389.255C328.497 389.877 328.611 390.31 328.665 390.554C328.82 391.253 329.016 392.219 329.252 393.45C329.524 394.674 329.781 396.084 330.025 397.68C330.296 399.234 330.542 400.921 330.763 402.743C331.01 404.522 331.171 406.32 331.244 408.138C331.309 409.92 331.275 411.67 331.142 413.387C331.036 415.061 330.77 416.587 330.342 417.965C329.941 419.301 329.368 420.437 328.621 421.373C327.903 422.266 326.931 422.848 325.708 423.119C324.519 423.382 323.42 423.223 322.411 422.64C321.428 422.014 320.512 421.19 319.662 420.168C318.804 419.111 318.014 417.948 317.293 416.677C316.563 415.372 315.839 414.176 315.121 413.088C314.438 411.992 313.749 411.118 313.054 410.465C312.387 409.77 311.686 409.503 310.952 409.666C310.882 409.682 310.781 409.722 310.649 409.788C310.552 409.846 310.468 409.883 310.398 409.899C310.394 410.046 310.425 410.681 310.49 411.804C310.556 412.926 310.598 414.274 310.617 415.847C310.628 417.385 310.596 419.061 310.521 420.875C310.446 422.688 310.271 424.378 309.994 425.943C309.753 427.5 309.391 428.846 308.909 429.979C308.454 431.071 307.824 431.705 307.02 431.884C305.377 432.248 303.738 431.969 302.104 431.048C300.461 430.092 298.881 428.755 297.364 427.038C295.873 425.278 294.458 423.281 293.119 421.047C291.781 418.813 290.576 416.604 289.505 414.421C288.461 412.195 287.578 410.117 286.857 408.186C286.163 406.213 285.692 404.667 285.444 403.548ZM360.58 412.911C359.453 414.115 358.482 415.192 357.665 416.143C356.877 417.052 356.082 417.851 355.282 418.542C354.481 419.233 353.584 419.817 352.589 420.295C351.63 420.764 350.398 421.166 348.895 421.499C345.644 422.22 343.042 421.898 341.089 420.534C339.128 419.135 337.768 416.722 337.009 413.296C336.714 411.968 336.583 410.548 336.615 409.037C336.646 407.527 336.839 405.998 337.193 404.453C337.575 402.865 338.098 401.337 338.763 399.869C339.42 398.366 340.234 396.993 341.206 395.751C342.177 394.509 343.265 393.461 344.47 392.607C345.701 391.71 347.069 391.095 348.572 390.762C351.143 390.449 353.258 390.64 354.916 391.336C356.566 391.997 357.933 393.033 359.016 394.443C360.091 395.818 360.981 397.436 361.687 399.297C362.386 401.123 363.029 403.034 363.619 405.031C364.243 407.019 364.903 409.001 365.597 410.974C366.291 412.947 367.213 414.705 368.362 416.247C368.163 417.502 367.904 418.403 367.585 418.95C367.309 419.525 366.892 419.709 366.333 419.503C365.773 419.297 365.026 418.656 364.091 417.58C363.19 416.496 362.02 414.939 360.58 412.911ZM341.489 412.413C341.931 414.406 342.623 415.792 343.567 416.574C344.537 417.312 345.984 417.468 347.907 417.042C349.34 416.724 350.649 416.177 351.834 415.401C353.046 414.582 354.045 413.627 354.83 412.536C355.607 411.41 356.154 410.152 356.469 408.762C356.784 407.371 356.771 405.907 356.43 404.369C356.291 403.74 356.114 402.862 355.901 401.735C355.68 400.574 355.359 399.453 354.936 398.373C354.513 397.294 353.968 396.406 353.3 395.71C352.625 394.98 351.798 394.723 350.819 394.94C349.001 395.343 347.427 396.187 346.099 397.472C344.762 398.722 343.693 400.188 342.892 401.869C342.091 403.55 341.57 405.335 341.328 407.222C341.079 409.075 341.133 410.805 341.489 412.413ZM366.773 387.497C366.548 386.483 366.261 385.519 365.912 384.607C365.556 383.659 365.331 382.81 365.238 382.06C365.137 381.276 365.264 380.606 365.617 380.051C366.006 379.488 366.83 379.067 368.088 378.788C368.651 379.506 369.289 380.649 370.003 382.214C370.752 383.772 371.538 385.578 372.36 387.633C373.182 389.688 374.03 391.939 374.903 394.387C375.768 396.799 376.601 399.236 377.404 401.699C378.242 404.154 379.02 406.586 379.737 408.994C380.481 411.36 381.127 413.527 381.674 415.497C380.691 416.521 379.776 416.779 378.929 416.27C378.083 415.761 377.258 414.77 376.455 413.298C375.644 411.79 374.864 409.928 374.116 407.71C373.359 405.457 372.588 403.134 371.8 400.741C371.04 398.305 370.239 395.934 369.398 393.627C368.548 391.284 367.673 389.241 366.773 387.497ZM379.044 384.776C378.819 383.762 378.532 382.799 378.183 381.886C377.826 380.938 377.601 380.089 377.508 379.34C377.408 378.555 377.534 377.885 377.888 377.33C378.276 376.767 379.1 376.346 380.359 376.067C380.921 376.786 381.56 377.928 382.274 379.494C383.022 381.051 383.808 382.858 384.63 384.913C385.453 386.968 386.3 389.219 387.173 391.666C388.038 394.078 388.872 396.516 389.675 398.978C390.512 401.433 391.29 403.865 392.007 406.273C392.752 408.639 393.397 410.807 393.944 412.776C392.961 413.801 392.046 414.059 391.2 413.549C390.353 413.04 389.529 412.049 388.725 410.577C387.914 409.07 387.135 407.207 386.386 404.989C385.63 402.736 384.858 400.413 384.071 398.02C383.311 395.585 382.51 393.213 381.668 390.906C380.819 388.564 379.944 386.52 379.044 384.776ZM393.404 397.436C392.985 395.549 392.794 393.611 392.83 391.622C392.866 389.634 393.207 387.779 393.852 386.059C394.533 384.331 395.555 382.821 396.919 381.528C398.317 380.228 400.153 379.325 402.425 378.822C403.719 378.535 404.909 378.528 405.996 378.8C407.076 379.037 408.033 379.467 408.868 380.089C409.703 380.711 410.394 381.511 410.941 382.49C411.515 383.426 411.926 384.454 412.174 385.573C412.57 387.355 412.534 389.179 412.067 391.043C411.635 392.899 410.863 394.629 409.752 396.233C408.667 397.793 407.307 399.103 405.672 400.163C404.028 401.187 402.241 401.73 400.311 401.792C400.571 402.798 401.085 403.546 401.854 404.035C402.65 404.482 403.537 404.762 404.516 404.875C405.495 404.989 406.485 404.989 407.487 404.877C408.481 404.73 409.363 404.571 410.132 404.4C410.936 404.222 411.672 403.986 412.34 403.691C413.009 403.396 413.673 403.084 414.333 402.754C414.994 402.424 415.658 402.112 416.326 401.817C417.029 401.514 417.783 401.274 418.587 401.095C418.902 401.026 419.22 400.973 419.542 400.939C419.865 400.904 420.181 400.925 420.492 401.003C420.795 401.046 421.065 401.188 421.302 401.429C421.531 401.635 421.688 401.93 421.773 402.315C421.92 402.979 421.8 403.592 421.411 404.155C421.015 404.683 420.467 405.19 419.767 405.675C419.103 406.152 418.336 406.579 417.466 406.956C416.588 407.297 415.723 407.617 414.873 407.916C414.049 408.172 413.27 408.381 412.536 408.544C411.845 408.734 411.324 408.867 410.975 408.945C408.737 409.441 406.65 409.537 404.712 409.233C402.766 408.894 401.042 408.231 399.54 407.244C398.029 406.222 396.744 404.893 395.685 403.257C394.652 401.579 393.892 399.639 393.404 397.436ZM398.207 392.796C398.478 394.019 398.833 394.876 399.271 395.365C399.745 395.847 400.629 395.945 401.922 395.658C402.831 395.456 403.687 395.101 404.492 394.593C405.288 394.05 405.97 393.403 406.537 392.654C407.14 391.897 407.562 391.07 407.803 390.173C408.044 389.276 408.06 388.355 407.851 387.411C407.734 386.887 407.562 386.357 407.333 385.821C407.139 385.277 406.852 384.809 406.471 384.416C406.083 383.989 405.631 383.686 405.114 383.507C404.625 383.285 404.031 383.252 403.332 383.407C402.283 383.639 401.376 384.097 400.611 384.78C399.872 385.421 399.291 386.192 398.868 387.092C398.436 387.958 398.168 388.898 398.062 389.912C397.949 390.89 397.997 391.852 398.207 392.796ZM418.883 379.354C418.86 379.249 418.858 379.158 418.877 379.08C418.862 379.01 418.86 378.919 418.871 378.806C418.972 378.6 419.132 378.327 419.349 377.985C419.567 377.643 419.711 377.465 419.781 377.449L430.321 375.112C430.236 374.728 430.047 374.128 429.757 373.312C429.466 372.496 429.155 371.593 428.826 370.602C428.531 369.604 428.281 368.559 428.076 367.468C427.863 366.341 427.782 365.314 427.833 364.386C427.911 363.415 428.167 362.588 428.603 361.904C429.065 361.178 429.821 360.699 430.87 360.467C431.652 363.997 432.525 366.775 433.487 368.799C434.449 370.823 435.46 372.322 436.52 373.298C437.615 374.265 438.726 374.808 439.852 374.925C440.978 375.042 442.079 374.963 443.155 374.687C444.258 374.369 445.303 373.954 446.29 373.442C447.277 372.93 448.161 372.532 448.941 372.249C449.757 371.958 450.441 371.898 450.992 372.069C451.536 372.206 451.916 372.763 452.133 373.742C452.296 374.476 452.237 375.039 451.958 375.431C451.713 375.816 451.138 376.2 450.233 376.584C449.961 376.681 449.504 376.856 448.863 377.108C448.25 377.317 447.548 377.546 446.76 377.794C445.971 378.042 445.134 378.32 444.249 378.626C443.355 378.898 442.514 379.157 441.726 379.406C440.937 379.654 440.215 379.869 439.558 380.051C438.894 380.198 438.404 380.307 438.09 380.377C438.129 380.551 438.177 380.852 438.235 381.28C438.293 381.707 438.338 381.991 438.369 382.13C438.71 383.669 439.288 385.117 440.103 386.477C440.91 387.802 441.752 389.119 442.629 390.428C443.541 391.73 444.401 393.043 445.208 394.368C446.015 395.693 446.589 397.124 446.93 398.662C446.992 398.942 447.023 399.247 447.023 399.577C447.05 399.864 447.004 400.15 446.883 400.433C446.79 400.674 446.597 400.882 446.306 401.056C446.057 401.258 445.651 401.33 445.088 401.271C443.682 401.216 442.519 400.685 441.599 399.679C440.714 398.665 439.94 397.406 439.277 395.903C438.606 394.365 438.02 392.716 437.52 390.956C437.02 389.196 436.477 387.575 435.891 386.091C435.332 384.564 434.688 383.313 433.958 382.338C433.221 381.328 432.283 380.821 431.145 380.816L420.513 380.753C420.373 380.784 420.133 380.69 419.791 380.473C419.442 380.22 419.216 380.032 419.116 379.907C419.065 379.845 419.028 379.762 419.005 379.657C418.955 379.595 418.914 379.494 418.883 379.354ZM104.088 494.373C104.026 494.093 103.942 493.635 103.838 492.998C103.69 492.333 103.539 491.652 103.384 490.953C103.221 490.218 103.088 489.533 102.983 488.896C102.836 488.232 102.735 487.777 102.681 487.533C102.903 486.713 103.381 486.057 104.115 485.564C104.877 485.028 105.718 484.604 106.638 484.289C107.586 483.933 108.518 483.671 109.435 483.504C110.387 483.33 111.16 483.177 111.754 483.045C112.523 482.875 113.422 482.712 114.451 482.557C115.516 482.395 116.578 482.306 117.638 482.291C118.726 482.233 119.819 482.284 120.918 482.444C122.009 482.569 123.005 482.843 123.906 483.267C124.834 483.648 125.619 484.207 126.259 484.946C126.927 485.641 127.385 486.548 127.633 487.667C127.927 488.995 127.88 490.271 127.491 491.494C127.094 492.683 126.529 493.853 125.794 495.006C125.087 496.117 124.263 497.198 123.322 498.25C122.417 499.294 121.578 500.306 120.804 501.284C120.066 502.255 119.471 503.212 119.02 504.155C118.569 505.099 118.448 506.043 118.658 506.987C118.673 507.056 118.714 507.157 118.78 507.29C118.873 507.379 118.923 507.441 118.931 507.476C123.328 507.785 127.66 508.383 131.928 509.271C136.23 510.151 140.494 511.186 144.719 512.376C144.84 512.423 144.976 512.539 145.127 512.726C145.306 512.87 145.478 513.07 145.645 513.326C145.804 513.548 145.96 513.752 146.111 513.938C146.262 514.125 146.354 514.288 146.385 514.428C146.454 514.742 146.421 515.006 146.285 515.22C146.141 515.399 145.959 515.567 145.737 515.727C145.508 515.851 145.271 515.94 145.027 515.994C144.782 516.048 144.572 516.095 144.397 516.134C142.51 516.552 140.533 516.569 138.467 516.183C136.428 515.755 134.352 515.243 132.24 514.648C130.127 514.053 127.999 513.553 125.855 513.148C123.747 512.735 121.643 512.761 119.546 513.226L117.868 513.598C118.714 514.768 119.459 515.813 120.104 516.734C120.783 517.647 121.367 518.544 121.856 519.426C122.38 520.3 122.82 521.211 123.177 522.159C123.561 523.064 123.877 524.076 124.125 525.195C124.179 525.439 124.245 525.737 124.323 526.086C124.392 526.401 124.449 526.737 124.491 527.094C124.534 527.451 124.499 527.789 124.386 528.108C124.273 528.426 124.036 528.68 123.675 528.871C122.055 528.349 120.475 527.343 118.934 525.851C117.42 524.316 115.992 522.505 114.649 520.419C113.306 518.333 112.055 516.079 110.894 513.659C109.769 511.231 108.743 508.836 107.816 506.475C106.916 504.07 106.142 501.821 105.495 499.727C104.874 497.591 104.405 495.806 104.088 494.373ZM109.33 496.676C109.43 497.131 109.527 497.733 109.62 498.482C109.74 499.189 109.903 499.923 110.108 500.685C110.306 501.411 110.57 502.105 110.9 502.765C111.257 503.383 111.717 503.886 112.28 504.275C112.357 504.294 112.431 504.296 112.501 504.28C112.544 504.308 112.635 504.306 112.775 504.275C113.404 504.135 114.113 503.776 114.902 503.198C115.725 502.612 116.557 501.896 117.396 501.05C118.236 500.203 119.038 499.273 119.804 498.26C120.596 497.204 121.28 496.154 121.856 495.109C122.431 494.065 122.849 493.055 123.11 492.081C123.398 491.063 123.46 490.187 123.297 489.453C123.142 488.754 122.748 488.218 122.116 487.845C121.475 487.437 120.753 487.157 119.949 487.005C119.145 486.853 118.325 486.796 117.49 486.835C116.69 486.865 116.046 486.935 115.556 487.043C114.962 487.175 114.263 487.33 113.459 487.509C112.647 487.652 111.854 487.883 111.081 488.201C110.336 488.476 109.683 488.841 109.123 489.295C108.564 489.749 108.232 490.318 108.126 491.001C108.173 491.211 108.254 491.578 108.371 492.103C108.487 492.627 108.615 493.204 108.754 493.833C108.886 494.427 108.993 494.991 109.074 495.523C109.19 496.047 109.275 496.432 109.33 496.676ZM147.238 508.352C146.82 506.464 146.628 504.526 146.664 502.537C146.7 500.549 147.041 498.695 147.686 496.974C148.367 495.246 149.389 493.736 150.753 492.443C152.152 491.143 153.987 490.241 156.26 489.737C157.553 489.45 158.743 489.443 159.831 489.715C160.91 489.953 161.868 490.382 162.702 491.004C163.537 491.626 164.228 492.427 164.775 493.406C165.349 494.342 165.761 495.369 166.009 496.488C166.404 498.271 166.368 500.094 165.901 501.958C165.469 503.815 164.697 505.544 163.586 507.148C162.502 508.709 161.142 510.019 159.506 511.078C157.863 512.103 156.076 512.646 154.145 512.707C154.405 513.713 154.919 514.461 155.688 514.951C156.484 515.398 157.371 515.678 158.35 515.791C159.329 515.904 160.319 515.904 161.321 515.792C162.316 515.645 163.197 515.486 163.966 515.316C164.77 515.138 165.507 514.901 166.175 514.606C166.843 514.311 167.507 513.999 168.168 513.669C168.828 513.339 169.492 513.027 170.16 512.732C170.864 512.43 171.617 512.189 172.421 512.011C172.736 511.941 173.054 511.889 173.377 511.854C173.699 511.819 174.016 511.841 174.326 511.919C174.629 511.961 174.899 512.103 175.136 512.344C175.365 512.55 175.522 512.845 175.607 513.23C175.755 513.894 175.634 514.508 175.245 515.071C174.849 515.599 174.301 516.105 173.602 516.59C172.937 517.068 172.17 517.495 171.3 517.871C170.422 518.212 169.558 518.532 168.707 518.831C167.883 519.087 167.105 519.296 166.37 519.459C165.679 519.649 165.159 519.783 164.809 519.86C162.572 520.356 160.484 520.452 158.546 520.149C156.601 519.81 154.876 519.147 153.374 518.16C151.863 517.137 150.579 515.808 149.519 514.173C148.487 512.495 147.726 510.554 147.238 508.352ZM152.041 503.711C152.312 504.935 152.667 505.791 153.106 506.281C153.579 506.763 154.463 506.86 155.756 506.573C156.665 506.372 157.522 506.017 158.326 505.508C159.122 504.965 159.804 504.319 160.372 503.569C160.974 502.812 161.396 501.985 161.637 501.088C161.878 500.191 161.894 499.271 161.685 498.327C161.569 497.802 161.396 497.272 161.167 496.736C160.973 496.192 160.686 495.724 160.306 495.332C159.918 494.904 159.465 494.601 158.949 494.422C158.46 494.201 157.865 494.167 157.166 494.322C156.117 494.555 155.21 495.013 154.445 495.696C153.707 496.336 153.126 497.107 152.702 498.008C152.27 498.874 152.002 499.814 151.897 500.827C151.783 501.806 151.832 502.767 152.041 503.711ZM189.275 511.85C189.749 511.341 190.305 510.705 190.942 509.94C191.607 509.132 192.264 508.29 192.913 507.412C193.562 506.535 194.15 505.634 194.679 504.71C195.208 503.786 195.587 502.932 195.816 502.147C196.073 501.32 196.132 500.592 195.992 499.963C195.853 499.334 195.422 498.879 194.7 498.599C193.581 498.847 192.369 499.171 191.064 499.57C189.751 499.935 188.43 500.264 187.102 500.559C185.766 500.818 184.445 500.983 183.14 501.052C181.87 501.113 180.684 500.973 179.581 500.631C178.478 500.288 177.517 499.676 176.698 498.794C175.906 497.869 175.332 496.603 174.975 494.995C174.557 493.107 174.53 491.334 174.896 489.676C175.289 487.975 175.952 486.416 176.885 484.999C177.81 483.547 178.91 482.221 180.184 481.021C181.486 479.779 182.819 478.677 184.182 477.714C185.146 477.758 186.081 478.008 186.99 478.467C187.899 478.926 188.718 479.478 189.448 480.123C189.374 480.946 189.016 481.649 188.375 482.231C187.769 482.806 187.028 483.355 186.154 483.879C185.315 484.395 184.427 484.94 183.491 485.515C182.555 486.089 181.733 486.766 181.026 487.547C180.346 488.284 179.831 489.187 179.481 490.255C179.123 491.288 179.111 492.556 179.444 494.059C179.692 495.178 180.154 495.937 180.829 496.338C181.505 496.738 182.321 496.942 183.276 496.951C184.224 496.924 185.27 496.765 186.416 496.474C187.554 496.149 188.706 495.802 189.872 495.433C191.072 495.057 192.249 494.741 193.402 494.485C194.548 494.195 195.611 494.106 196.589 494.219C197.56 494.297 198.381 494.61 199.053 495.158C199.76 495.698 200.256 496.615 200.543 497.908C200.667 498.468 200.634 499.227 200.443 500.186C200.287 501.138 200.007 502.19 199.603 503.343C199.225 504.454 198.726 505.592 198.104 506.757C197.517 507.914 196.858 508.995 196.127 510.001C195.424 510.964 194.676 511.808 193.883 512.534C193.118 513.217 192.35 513.644 191.581 513.814C190.847 513.977 190.3 513.823 189.939 513.353C189.613 512.875 189.391 512.374 189.275 511.85ZM202.35 496.132C201.931 494.245 201.74 492.307 201.776 490.318C201.812 488.33 202.153 486.475 202.798 484.755C203.479 483.027 204.501 481.517 205.865 480.224C207.264 478.924 209.099 478.021 211.371 477.518C212.665 477.231 213.855 477.224 214.943 477.496C216.022 477.733 216.979 478.163 217.814 478.785C218.649 479.407 219.34 480.207 219.887 481.186C220.461 482.122 220.872 483.15 221.12 484.269C221.516 486.051 221.48 487.875 221.013 489.739C220.581 491.595 219.809 493.325 218.698 494.929C217.613 496.489 216.253 497.799 214.618 498.859C212.974 499.884 211.188 500.426 209.257 500.488C209.517 501.494 210.031 502.242 210.8 502.731C211.596 503.178 212.483 503.458 213.462 503.571C214.441 503.685 215.431 503.685 216.433 503.573C217.427 503.426 218.309 503.267 219.078 503.096C219.882 502.918 220.618 502.682 221.287 502.387C221.955 502.092 222.619 501.78 223.279 501.45C223.94 501.12 224.604 500.808 225.272 500.513C225.975 500.21 226.729 499.97 227.533 499.791C227.848 499.722 228.166 499.669 228.489 499.635C228.811 499.6 229.127 499.621 229.438 499.699C229.741 499.742 230.011 499.884 230.248 500.125C230.477 500.331 230.634 500.626 230.719 501.011C230.866 501.675 230.746 502.288 230.357 502.851C229.961 503.379 229.413 503.886 228.713 504.371C228.049 504.848 227.282 505.275 226.412 505.652C225.534 505.993 224.669 506.313 223.819 506.612C222.995 506.868 222.216 507.077 221.482 507.24C220.791 507.43 220.27 507.563 219.921 507.641C217.683 508.137 215.596 508.233 213.658 507.929C211.712 507.59 209.988 506.927 208.486 505.94C206.975 504.918 205.69 503.589 204.631 501.954C203.599 500.275 202.838 498.335 202.35 496.132ZM207.153 491.492C207.424 492.715 207.779 493.572 208.218 494.061C208.691 494.543 209.575 494.641 210.868 494.354C211.777 494.152 212.634 493.797 213.438 493.289C214.234 492.746 214.916 492.099 215.484 491.35C216.086 490.593 216.508 489.766 216.749 488.869C216.99 487.972 217.006 487.051 216.797 486.107C216.681 485.583 216.508 485.053 216.279 484.517C216.085 483.973 215.798 483.505 215.418 483.112C215.029 482.685 214.577 482.382 214.061 482.203C213.571 481.981 212.977 481.948 212.278 482.103C211.229 482.335 210.322 482.793 209.557 483.477C208.818 484.117 208.237 484.888 207.814 485.789C207.382 486.654 207.114 487.594 207.008 488.608C206.895 489.586 206.943 490.548 207.153 491.492ZM255.891 492.459C254.764 493.662 253.792 494.74 252.976 495.691C252.187 496.599 251.393 497.399 250.592 498.09C249.792 498.781 248.894 499.365 247.9 499.842C246.94 500.312 245.709 500.713 244.206 501.046C240.955 501.767 238.353 501.445 236.4 500.081C234.439 498.682 233.079 496.27 232.319 492.844C232.025 491.515 231.893 490.096 231.925 488.585C231.957 487.074 232.15 485.546 232.504 484C232.886 482.412 233.409 480.884 234.073 479.416C234.731 477.913 235.545 476.541 236.516 475.298C237.488 474.056 238.576 473.008 239.78 472.154C241.012 471.257 242.379 470.643 243.883 470.309C246.454 469.996 248.569 470.187 250.227 470.883C251.877 471.544 253.244 472.58 254.326 473.99C255.402 475.366 256.292 476.984 256.998 478.844C257.696 480.67 258.34 482.581 258.93 484.578C259.554 486.567 260.213 488.548 260.907 490.521C261.602 492.495 262.523 494.252 263.672 495.795C263.474 497.049 263.215 497.95 262.896 498.498C262.62 499.072 262.202 499.257 261.643 499.05C261.084 498.844 260.337 498.203 259.401 497.127C258.501 496.043 257.33 494.487 255.891 492.459ZM236.8 491.96C237.242 493.953 237.934 495.34 238.878 496.121C239.848 496.859 241.295 497.015 243.218 496.589C244.651 496.271 245.96 495.724 247.145 494.948C248.357 494.129 249.356 493.174 250.141 492.083C250.918 490.957 251.464 489.699 251.78 488.309C252.095 486.919 252.082 485.454 251.741 483.916C251.601 483.287 251.425 482.409 251.212 481.283C250.991 480.121 250.669 479.001 250.247 477.921C249.824 476.841 249.278 475.953 248.611 475.258C247.935 474.527 247.108 474.27 246.129 474.487C244.312 474.89 242.738 475.734 241.409 477.019C240.073 478.269 239.004 479.735 238.203 481.416C237.402 483.098 236.881 484.882 236.639 486.769C236.39 488.622 236.443 490.352 236.8 491.96ZM262.523 474.979C262.453 474.664 262.401 474.346 262.366 474.023C262.323 473.666 262.327 473.353 262.378 473.085C262.421 472.782 262.528 472.52 262.699 472.299C262.905 472.07 263.218 471.909 263.637 471.816C263.987 471.738 264.433 471.933 264.977 472.399C265.547 472.823 266.153 473.404 266.794 474.142C267.426 474.845 268.061 475.64 268.697 476.526C269.369 477.404 269.955 478.227 270.456 478.997C270.983 479.723 271.418 480.36 271.76 480.908C272.101 481.456 272.293 481.743 272.336 481.771C272.519 480.446 272.732 479.005 272.973 477.448C273.215 475.891 273.602 474.411 274.135 473.009C274.694 471.565 275.441 470.299 276.373 469.212C277.341 468.117 278.646 467.388 280.289 467.023C281.128 466.837 281.946 466.803 282.742 466.92C283.565 466.994 284.315 467.231 284.991 467.632C285.693 467.989 286.297 468.479 286.802 469.101C287.306 469.722 287.659 470.488 287.861 471.396C288.031 472.166 287.837 472.777 287.277 473.231C286.753 473.678 286.106 473.986 285.337 474.157L284.813 474.273L282.058 472.518C281.988 472.534 281.932 472.528 281.889 472.5C281.819 472.516 281.749 472.531 281.679 472.547C281.636 472.52 281.58 472.514 281.51 472.529C280.287 472.801 279.403 473.363 278.859 474.218C278.342 475.029 278.021 475.981 277.896 477.072C277.763 478.128 277.769 479.227 277.912 480.369C278.082 481.468 278.268 482.472 278.47 483.381C278.625 484.081 278.854 484.782 279.156 485.485C279.451 486.153 279.763 486.817 280.093 487.478C280.415 488.103 280.728 488.767 281.03 489.471C281.325 490.139 281.558 490.857 281.728 491.626C282.054 493.095 281.43 494.003 279.857 494.352C278.983 494.546 277.973 494.293 276.828 493.593C275.675 492.859 274.467 491.879 273.206 490.655C271.979 489.423 270.756 488.044 269.537 486.517C268.311 484.955 267.201 483.423 266.207 481.919C265.214 480.416 264.377 479.042 263.698 477.799C263.054 476.548 262.662 475.608 262.523 474.979ZM289.653 475.51C289.328 474.042 289.301 472.434 289.574 470.687C289.882 468.931 290.434 467.287 291.231 465.753C292.02 464.184 293.017 462.808 294.221 461.624C295.461 460.432 296.867 459.662 298.44 459.313C299.244 459.135 300.079 459.096 300.946 459.198C301.812 459.299 302.617 459.542 303.363 459.927C304.143 460.304 304.807 460.817 305.355 461.466C305.937 462.107 306.329 462.882 306.53 463.791C305.901 463.931 305.309 463.989 304.753 463.965C304.233 463.934 303.709 463.885 303.18 463.819C302.644 463.717 302.116 463.651 301.596 463.62C301.11 463.581 300.588 463.623 300.029 463.747C298.595 464.065 297.506 464.692 296.76 465.627C296.041 466.52 295.539 467.567 295.255 468.767C294.971 469.967 294.863 471.219 294.933 472.524C295.029 473.787 295.198 474.96 295.438 476.043C295.477 476.218 295.55 476.55 295.659 477.04C295.802 477.521 295.936 478.042 296.06 478.601C296.211 479.118 296.341 479.621 296.45 480.11C296.593 480.592 296.702 480.916 296.775 481.083C297.346 481.837 297.856 482.402 298.307 482.779C298.792 483.148 299.272 483.409 299.745 483.561C300.211 483.677 300.697 483.716 301.202 483.678C301.699 483.604 302.28 483.494 302.944 483.347C303.853 483.145 304.608 482.831 305.211 482.404C305.848 481.969 306.421 481.494 306.93 480.977C307.439 480.461 307.905 479.918 308.329 479.347C308.745 478.741 309.19 478.184 309.664 477.675C310.165 477.124 310.721 476.653 311.331 476.261C311.968 475.826 312.723 475.512 313.597 475.318C313.977 477.031 314 478.621 313.665 480.089C313.365 481.549 312.76 482.875 311.851 484.067C310.977 485.251 309.846 486.272 308.459 487.13C307.099 487.945 305.545 488.546 303.798 488.934C302.155 489.298 300.545 489.068 298.968 488.244C297.427 487.412 296.006 486.297 294.705 484.898C293.432 483.457 292.349 481.881 291.457 480.172C290.564 478.462 289.963 476.909 289.653 475.51ZM312.915 451.152C312.83 450.768 312.761 450.288 312.706 449.713C312.68 449.096 312.713 448.501 312.806 447.931C312.935 447.352 313.135 446.849 313.407 446.422C313.671 445.96 314.083 445.667 314.643 445.543C314.678 445.535 314.769 445.533 314.916 445.537C315.064 445.541 315.155 445.539 315.19 445.531C316.265 447.567 317.091 449.64 317.669 451.749C318.247 453.858 318.673 455.946 318.948 458.012C319.215 460.043 319.383 462.042 319.452 464.007C319.513 465.937 319.596 467.716 319.7 469.344C319.839 470.963 320.013 472.41 320.222 473.684C320.466 474.95 320.895 475.974 321.508 476.755C321.314 476.211 321.114 475.558 320.909 474.797C320.731 473.993 320.618 473.156 320.572 472.286C320.561 471.408 320.637 470.511 320.801 469.595C320.999 468.67 321.374 467.799 321.926 466.979C322.478 466.16 323.253 465.438 324.252 464.813C325.285 464.181 326.623 463.682 328.266 463.318C329.979 462.938 331.513 462.91 332.869 463.233C334.259 463.548 335.472 464.141 336.509 465.011C337.538 465.847 338.4 466.921 339.094 468.234C339.816 469.505 340.351 470.926 340.7 472.5C340.863 473.234 341.031 474.077 341.206 475.028C341.407 475.937 341.475 476.821 341.408 477.679C341.369 478.495 341.114 479.248 340.644 479.939C340.201 480.587 339.42 481.036 338.301 481.284C338.177 480.724 338.046 479.965 337.906 479.006C337.759 478.011 337.566 476.972 337.325 475.889C337.12 474.797 336.841 473.704 336.488 472.608C336.17 471.505 335.722 470.559 335.144 469.77C334.557 468.947 333.853 468.333 333.03 467.928C332.234 467.481 331.241 467.39 330.053 467.653C329.633 467.746 329.117 467.897 328.503 468.107C327.916 468.274 327.34 468.567 326.772 468.986C326.205 469.405 325.69 469.978 325.228 470.704C324.757 471.395 324.46 472.286 324.335 473.377C324.202 474.434 324.272 475.739 324.543 477.292C324.841 478.803 325.444 480.613 326.352 482.723C326.247 483.406 326.014 483.843 325.652 484.033C325.326 484.216 324.883 484.369 324.324 484.493C323.205 484.741 322.194 484.562 321.289 483.955C320.411 483.306 319.633 482.36 318.954 481.117C318.275 479.874 317.672 478.394 317.144 476.677C316.652 474.952 316.214 473.142 315.83 471.247C315.439 469.316 315.096 467.357 314.802 465.368C314.535 463.337 314.278 461.432 314.03 459.653C313.809 457.831 313.61 456.188 313.432 454.724C313.282 453.217 313.109 452.026 312.915 451.152ZM360.937 438.964C360.612 437.496 360.764 436.197 361.394 435.067C362.058 433.93 362.962 432.959 364.104 432.156C365.273 431.31 366.573 430.636 368.002 430.136C369.424 429.601 370.729 429.201 371.918 428.938C374.19 428.434 376.196 428.466 377.936 429.034C379.703 429.559 381.221 430.451 382.49 431.71C383.795 432.961 384.87 434.502 385.716 436.331C386.561 438.161 387.205 440.072 387.647 442.065C387.942 443.393 388.15 444.997 388.274 446.877C388.39 448.722 388.381 450.668 388.248 452.715C388.107 454.726 387.826 456.769 387.406 458.843C387.013 460.874 386.441 462.761 385.69 464.505C384.932 466.213 383.972 467.673 382.81 468.884C381.684 470.088 380.316 470.868 378.708 471.224C378.393 471.294 377.916 470.96 377.275 470.222C376.662 469.441 375.917 468.396 375.04 467.086C374.198 465.769 373.274 464.25 372.269 462.529C371.291 460.766 370.301 458.949 369.3 457.081C368.291 455.177 367.317 453.266 366.378 451.347C365.44 449.428 364.57 447.658 363.771 446.038C363.007 444.411 362.376 442.973 361.88 441.726C361.383 440.479 361.069 439.559 360.937 438.964ZM365.952 440.988C366.2 442.107 366.553 443.368 367.011 444.77C367.503 446.164 368.078 447.596 368.733 449.064C369.424 450.525 370.188 451.988 371.026 453.452C371.892 454.874 372.808 456.193 373.774 457.409C374.741 458.625 375.768 459.7 376.855 460.632C377.934 461.53 379.068 462.177 380.256 462.574C381.072 460.632 381.77 458.9 382.35 457.378C382.929 455.856 383.351 454.369 383.616 452.916C383.881 451.464 383.969 449.959 383.881 448.402C383.827 446.836 383.579 445.057 383.137 443.065C382.82 441.631 382.422 440.253 381.945 438.928C381.468 437.603 380.816 436.482 379.989 435.565C379.19 434.606 378.196 433.928 377.007 433.531C375.811 433.099 374.357 433.073 372.644 433.453C371.246 433.763 369.933 434.293 368.705 435.042C367.505 435.748 366.37 436.586 365.302 437.557C365.325 437.662 365.354 437.875 365.389 438.198C365.458 438.512 365.536 438.862 365.621 439.246C365.699 439.596 365.759 439.949 365.801 440.307C365.871 440.621 365.921 440.849 365.952 440.988ZM416.716 456.801C415.589 458.004 414.618 459.081 413.802 460.032C413.013 460.941 412.218 461.741 411.418 462.432C410.618 463.122 409.72 463.707 408.726 464.184C407.766 464.653 406.535 465.055 405.032 465.388C401.78 466.109 399.178 465.787 397.226 464.423C395.265 463.024 393.905 460.611 393.145 457.185C392.851 455.857 392.719 454.437 392.751 452.927C392.783 451.416 392.976 449.888 393.33 448.342C393.711 446.754 394.234 445.226 394.899 443.758C395.556 442.255 396.371 440.883 397.342 439.64C398.314 438.398 399.402 437.35 400.606 436.496C401.838 435.599 403.205 434.984 404.708 434.651C407.28 434.338 409.394 434.529 411.052 435.225C412.703 435.886 414.069 436.922 415.152 438.332C416.227 439.708 417.118 441.326 417.824 443.186C418.522 445.012 419.166 446.923 419.755 448.92C420.38 450.909 421.039 452.89 421.733 454.863C422.428 456.836 423.349 458.594 424.498 460.137C424.299 461.391 424.041 462.292 423.722 462.839C423.446 463.414 423.028 463.598 422.469 463.392C421.91 463.186 421.163 462.545 420.227 461.469C419.327 460.385 418.156 458.829 416.716 456.801ZM397.626 456.302C398.067 458.295 398.76 459.682 399.703 460.463C400.674 461.201 402.121 461.357 404.043 460.931C405.477 460.613 406.786 460.066 407.971 459.29C409.183 458.471 410.181 457.516 410.967 456.425C411.744 455.299 412.29 454.041 412.605 452.651C412.921 451.26 412.908 449.796 412.567 448.258C412.427 447.629 412.251 446.751 412.038 445.624C411.817 444.463 411.495 443.342 411.072 442.263C410.65 441.183 410.104 440.295 409.437 439.599C408.761 438.869 407.934 438.612 406.955 438.829C405.137 439.232 403.564 440.076 402.235 441.361C400.898 442.611 399.83 444.077 399.029 445.758C398.228 447.439 397.707 449.224 397.465 451.111C397.215 452.964 397.269 454.694 397.626 456.302ZM421.218 435.172C421.195 435.067 421.193 434.975 421.213 434.898C421.197 434.828 421.195 434.737 421.207 434.624C421.308 434.418 421.467 434.144 421.685 433.803C421.903 433.461 422.047 433.283 422.116 433.267L432.656 430.93C432.571 430.546 432.383 429.945 432.092 429.13C431.801 428.314 431.491 427.411 431.161 426.42C430.867 425.422 430.617 424.377 430.411 423.286C430.198 422.159 430.117 421.132 430.168 420.204C430.246 419.233 430.503 418.406 430.938 417.722C431.401 416.996 432.156 416.517 433.205 416.284C433.988 419.815 434.861 422.593 435.823 424.616C436.785 426.64 437.796 428.14 438.856 429.115C439.951 430.083 441.061 430.625 442.187 430.742C443.314 430.859 444.415 430.78 445.491 430.505C446.594 430.187 447.639 429.772 448.626 429.26C449.612 428.748 450.496 428.35 451.277 428.067C452.093 427.776 452.776 427.716 453.328 427.887C453.871 428.024 454.252 428.581 454.469 429.56C454.632 430.294 454.573 430.857 454.293 431.249C454.048 431.634 453.473 432.018 452.568 432.402C452.296 432.499 451.84 432.673 451.199 432.926C450.585 433.135 449.884 433.364 449.095 433.612C448.307 433.86 447.47 434.137 446.584 434.444C445.691 434.715 444.85 434.975 444.061 435.223C443.273 435.472 442.55 435.687 441.894 435.869C441.23 436.016 440.74 436.125 440.425 436.195C440.464 436.369 440.513 436.67 440.571 437.098C440.629 437.525 440.673 437.808 440.704 437.948C441.045 439.486 441.623 440.935 442.438 442.295C443.245 443.62 444.088 444.937 444.965 446.246C445.877 447.548 446.736 448.861 447.544 450.186C448.351 451.51 448.925 452.942 449.266 454.48C449.328 454.76 449.359 455.065 449.359 455.395C449.386 455.682 449.339 455.968 449.219 456.251C449.125 456.492 448.933 456.699 448.642 456.874C448.393 457.076 447.987 457.148 447.424 457.089C446.018 457.034 444.855 456.503 443.935 455.497C443.05 454.483 442.276 453.224 441.612 451.721C440.941 450.182 440.355 448.533 439.855 446.774C439.355 445.014 438.812 443.392 438.226 441.909C437.668 440.382 437.024 439.131 436.294 438.156C435.557 437.146 434.619 436.638 433.481 436.634L422.849 436.571C422.709 436.602 422.468 436.508 422.127 436.291C421.777 436.038 421.552 435.85 421.451 435.725C421.401 435.663 421.364 435.579 421.341 435.475C421.29 435.412 421.249 435.311 421.218 435.172ZM482.997 442.105C481.87 443.308 480.899 444.386 480.083 445.337C479.294 446.245 478.499 447.045 477.699 447.736C476.899 448.427 476.001 449.011 475.007 449.488C474.047 449.957 472.816 450.359 471.313 450.692C468.061 451.413 465.459 451.091 463.507 449.727C461.546 448.328 460.186 445.916 459.426 442.49C459.132 441.161 459 439.742 459.032 438.231C459.064 436.72 459.257 435.192 459.611 433.646C459.992 432.058 460.515 430.53 461.18 429.062C461.837 427.559 462.652 426.187 463.623 424.944C464.595 423.702 465.683 422.654 466.887 421.8C468.119 420.903 469.486 420.289 470.989 419.955C473.561 419.642 475.675 419.833 477.333 420.529C478.984 421.19 480.35 422.226 481.433 423.636C482.508 425.012 483.399 426.63 484.105 428.49C484.803 430.316 485.447 432.227 486.036 434.224C486.661 436.213 487.32 438.194 488.014 440.167C488.709 442.141 489.63 443.898 490.779 445.441C490.58 446.695 490.322 447.596 490.003 448.144C489.727 448.718 489.309 448.903 488.75 448.696C488.191 448.49 487.444 447.849 486.508 446.773C485.608 445.689 484.437 444.133 482.997 442.105ZM463.907 441.606C464.348 443.599 465.041 444.986 465.984 445.767C466.955 446.505 468.402 446.661 470.324 446.235C471.758 445.917 473.067 445.37 474.252 444.594C475.464 443.775 476.462 442.82 477.248 441.729C478.025 440.603 478.571 439.345 478.886 437.955C479.202 436.565 479.189 435.1 478.848 433.562C478.708 432.933 478.532 432.055 478.319 430.929C478.098 429.767 477.776 428.647 477.353 427.567C476.931 426.487 476.385 425.599 475.718 424.904C475.042 424.173 474.215 423.916 473.236 424.133C471.418 424.536 469.845 425.38 468.516 426.665C467.179 427.915 466.111 429.381 465.31 431.062C464.509 432.744 463.988 434.528 463.746 436.415C463.496 438.268 463.55 439.998 463.907 441.606ZM268.089 547.85C267.663 545.928 267.419 544.001 267.358 542.071C267.324 540.098 267.325 538.117 267.361 536.128C267.397 534.14 267.376 532.146 267.3 530.145C267.25 528.102 267.005 526.085 266.563 524.092C266.501 523.812 266.383 523.362 266.208 522.74C266.061 522.076 265.91 521.394 265.755 520.695C265.6 519.996 265.435 519.336 265.26 518.714C265.113 518.05 265.012 517.596 264.958 517.351C264.857 517.226 264.636 517.055 264.294 516.838C263.953 516.62 263.721 516.488 263.601 516.441L263.024 516.569C261.871 516.825 260.967 517.3 260.315 517.995C259.654 518.655 259.126 519.414 258.729 520.272C258.367 521.123 258.06 522.053 257.807 523.062C257.546 524.037 257.218 524.954 256.821 525.812C256.46 526.662 255.987 527.427 255.404 528.106C254.849 528.743 254.064 529.174 253.05 529.399C252.639 527.546 252.555 525.676 252.797 523.788C253.031 521.866 253.573 520.095 254.425 518.476C255.303 516.814 256.453 515.385 257.875 514.19C259.332 512.987 261.04 512.168 262.997 511.734C263.836 511.548 264.526 511.432 265.066 511.385C265.606 511.339 266.095 511.395 266.534 511.555C266.973 511.714 267.369 512.012 267.722 512.447C268.067 512.847 268.487 513.414 268.979 514.149C269.041 514.428 269.154 514.935 269.317 515.669C269.472 516.368 269.642 517.137 269.828 517.976C270.049 518.808 270.245 519.608 270.415 520.377C270.613 521.103 270.743 521.606 270.805 521.886C271.216 523.739 271.514 525.58 271.7 527.409C271.885 529.239 272.014 531.062 272.087 532.88C272.195 534.69 272.342 536.509 272.527 538.339C272.705 540.133 272.996 541.939 273.399 543.757L274.343 543.548L285.474 535.193C285.509 535.186 285.579 535.17 285.683 535.147C285.816 535.081 285.969 535.028 286.144 534.99C286.319 534.951 286.476 534.916 286.616 534.885C286.783 534.811 286.901 534.767 286.971 534.751C287.286 534.682 287.622 534.625 287.979 534.583C288.336 534.54 288.667 534.54 288.969 534.583C289.307 534.618 289.608 534.735 289.872 534.933C290.136 535.131 290.315 535.44 290.408 535.86C290.571 536.594 290.471 537.221 290.11 537.741C289.748 538.262 289.28 538.714 288.705 539.098C288.165 539.475 287.582 539.824 286.957 540.146C286.366 540.46 285.885 540.769 285.512 541.072C285.236 541.316 284.787 541.691 284.165 542.195C283.579 542.692 282.881 543.269 282.073 543.925C281.257 544.546 280.414 545.209 279.544 545.916C278.673 546.622 277.852 547.299 277.079 547.948C276.305 548.596 275.608 549.172 274.986 549.677C274.365 550.182 273.894 550.543 273.576 550.76C273.506 550.775 273.387 550.82 273.22 550.894C273.081 550.925 272.906 550.963 272.696 551.01C272.521 551.049 272.35 551.105 272.183 551.179C272.043 551.21 271.939 551.233 271.869 551.248C271.17 551.403 270.595 551.458 270.144 551.411C269.721 551.321 269.387 551.139 269.142 550.863C268.89 550.552 268.692 550.156 268.549 549.674C268.405 549.192 268.252 548.584 268.089 547.85ZM289.584 527.68C289.267 526.247 289.052 524.699 288.94 523.037C288.828 521.374 288.864 519.716 289.047 518.061C289.231 516.407 289.569 514.791 290.063 513.215C290.557 511.638 291.23 510.205 292.081 508.916C292.925 507.592 293.962 506.482 295.194 505.586C296.452 504.646 297.938 503.987 299.651 503.607C302.028 503.08 304.211 502.999 306.2 503.365C308.223 503.724 310.001 504.466 311.535 505.593C313.103 506.713 314.419 508.181 315.483 510C316.538 511.783 317.322 513.828 317.833 516.135C318.19 517.743 318.42 519.526 318.524 521.484C318.628 523.441 318.536 525.424 318.247 527.432C317.986 529.397 317.535 531.331 316.893 533.233C316.251 535.136 315.41 536.882 314.368 538.47C313.326 540.058 312.034 541.426 310.492 542.575C308.984 543.716 307.252 544.504 305.294 544.938C303.546 545.325 301.973 545.344 300.575 544.994C299.212 544.636 297.995 544.025 296.923 543.163C295.852 542.3 294.92 541.241 294.129 539.986C293.329 538.696 292.631 537.366 292.033 535.995C291.463 534.581 290.98 533.147 290.585 531.694C290.189 530.242 289.856 528.904 289.584 527.68ZM294.565 529.051C294.875 530.45 295.27 531.903 295.751 533.41C296.224 534.882 296.884 536.203 297.73 537.372C298.568 538.507 299.605 539.377 300.84 539.984C302.067 540.555 303.589 540.639 305.407 540.236C306.91 539.903 308.179 539.255 309.212 538.292C310.238 537.295 311.078 536.118 311.731 534.763C312.384 533.408 312.884 531.94 313.23 530.36C313.604 528.736 313.834 527.127 313.92 525.53C314.006 523.934 313.999 522.414 313.899 520.969C313.798 519.524 313.628 518.26 313.388 517.176C313.039 515.603 312.587 514.144 312.032 512.8C311.478 511.456 310.773 510.347 309.919 509.473C309.065 508.598 308.017 508.006 306.774 507.694C305.524 507.348 303.972 507.38 302.119 507.791C300.581 508.132 299.284 508.732 298.227 509.589C297.205 510.439 296.366 511.451 295.709 512.623C295.052 513.796 294.57 515.095 294.262 516.52C293.982 517.903 293.822 519.332 293.782 520.808C293.743 522.283 293.791 523.74 293.926 525.177C294.088 526.571 294.301 527.863 294.565 529.051ZM334.37 533.154C333.944 531.232 333.7 529.305 333.639 527.375C333.605 525.402 333.606 523.421 333.642 521.433C333.678 519.444 333.657 517.45 333.581 515.45C333.531 513.407 333.286 511.389 332.844 509.396C332.782 509.117 332.664 508.666 332.489 508.044C332.342 507.38 332.191 506.699 332.036 505.999C331.881 505.3 331.716 504.64 331.541 504.018C331.394 503.354 331.293 502.9 331.239 502.655C331.138 502.531 330.917 502.36 330.575 502.142C330.234 501.924 330.002 501.792 329.882 501.746L329.305 501.873C328.152 502.129 327.248 502.605 326.596 503.299C325.935 503.959 325.407 504.718 325.01 505.577C324.648 506.427 324.341 507.357 324.088 508.367C323.827 509.341 323.499 510.258 323.102 511.116C322.741 511.966 322.268 512.731 321.685 513.411C321.13 514.047 320.345 514.478 319.331 514.703C318.92 512.85 318.836 510.98 319.078 509.092C319.312 507.17 319.854 505.399 320.706 503.78C321.584 502.118 322.734 500.69 324.156 499.494C325.613 498.291 327.321 497.472 329.278 497.038C330.117 496.852 330.807 496.736 331.347 496.689C331.887 496.643 332.376 496.7 332.815 496.859C333.254 497.019 333.65 497.316 334.003 497.751C334.348 498.151 334.768 498.718 335.26 499.453C335.322 499.732 335.435 500.239 335.598 500.973C335.753 501.673 335.923 502.442 336.109 503.281C336.33 504.112 336.526 504.912 336.696 505.681C336.894 506.408 337.024 506.911 337.086 507.19C337.497 509.043 337.795 510.884 337.981 512.714C338.166 514.543 338.295 516.366 338.368 518.184C338.476 519.994 338.623 521.814 338.808 523.643C338.986 525.437 339.277 527.244 339.68 529.061L340.624 528.852L351.755 520.498C351.79 520.49 351.86 520.474 351.964 520.451C352.097 520.385 352.25 520.333 352.425 520.294C352.6 520.255 352.757 520.22 352.897 520.189C353.064 520.116 353.182 520.071 353.252 520.055C353.567 519.986 353.903 519.93 354.26 519.887C354.617 519.844 354.948 519.845 355.25 519.887C355.588 519.923 355.889 520.039 356.153 520.237C356.417 520.436 356.596 520.745 356.689 521.164C356.852 521.898 356.752 522.525 356.391 523.046C356.029 523.566 355.561 524.018 354.986 524.402C354.446 524.779 353.863 525.128 353.238 525.45C352.647 525.764 352.166 526.073 351.793 526.376C351.517 526.62 351.068 526.995 350.446 527.499C349.86 527.996 349.162 528.573 348.354 529.229C347.538 529.85 346.695 530.513 345.825 531.22C344.954 531.926 344.133 532.604 343.36 533.252C342.586 533.9 341.889 534.477 341.267 534.981C340.646 535.486 340.175 535.847 339.857 536.064C339.787 536.08 339.668 536.124 339.501 536.198C339.362 536.229 339.187 536.268 338.977 536.314C338.802 536.353 338.631 536.409 338.464 536.483C338.324 536.514 338.22 536.537 338.15 536.553C337.451 536.708 336.876 536.762 336.425 536.715C336.002 536.625 335.668 536.443 335.423 536.167C335.171 535.856 334.973 535.46 334.83 534.978C334.686 534.496 334.533 533.889 334.37 533.154ZM352.773 499.036C352.672 498.581 352.525 497.917 352.331 497.043C352.13 496.134 352.019 495.224 352 494.311C351.974 493.363 352.079 492.515 352.316 491.765C352.553 491.016 353.074 490.552 353.878 490.373C354.333 490.273 354.789 490.593 355.247 491.335C355.732 492.035 356.194 492.959 356.632 494.109C357.097 495.216 357.524 496.479 357.912 497.896C358.327 499.272 358.691 500.584 359.005 501.835C359.354 503.078 359.651 504.168 359.895 505.104C360.131 506.005 360.308 506.553 360.424 506.747C360.653 507.283 361.031 508.079 361.559 509.136C362.122 510.185 362.737 511.387 363.404 512.743C364.064 514.064 364.774 515.447 365.534 516.892C366.295 518.337 367.005 519.72 367.665 521.041C368.359 522.354 368.988 523.535 369.55 524.584C370.113 525.633 370.536 526.383 370.819 526.833C370.835 526.903 370.876 527.004 370.942 527.136C371.008 527.269 371.048 527.37 371.064 527.439C371.149 527.824 371.079 528.17 370.854 528.476C370.655 528.74 370.38 528.985 370.026 529.21C369.7 529.392 369.348 529.544 368.971 529.664C368.595 529.784 368.249 529.879 367.934 529.949C367.794 529.98 367.581 530.009 367.293 530.036C367.041 530.055 366.88 530.073 366.81 530.088C365.533 527.804 364.177 525.409 362.741 522.903C361.332 520.355 359.986 517.756 358.702 515.106C357.417 512.457 356.255 509.78 355.216 507.077C354.169 504.338 353.354 501.658 352.773 499.036Z" fill="black"/>
<path id="Vector 61" d="M533.169 160.209C528.508 161.09 523.25 161.424 517.763 160.209C516.497 151.052 541.905 126.472 532.325 110.584C523.759 110.584 517.763 120.618 517.763 135.168C505.952 120.618 519.18 110.584 531.315 109.555C521.046 106.738 512.227 109.22 507 117.274C507.844 95.2133 526.416 106.931 531.058 107.972C525.782 100.272 514.597 102.769 507 105.474C516.075 91.9469 524.305 94.0281 532.325 107.136C532.114 96.3173 534.857 78.2113 555.75 89.6576C547.731 89.6576 534.224 96.7336 533.591 107.139C537.6 101.728 555.117 80.7087 572 110.053C558.705 97.566 539.922 99.6472 534.857 107.764C538.234 106.723 568.412 93.2262 563.981 128.991C562.879 125.24 560.182 120.018 555.75 115.862L556.659 113.762L554.624 114.861C549.784 110.794 543.107 108.066 534.443 109.413C546.05 130.225 536.334 157.503 533.169 160.209Z" fill="#FFE483"/>
</g>
</svg>
