<svg width="600" height="600" viewBox="0 0 600 600" fill="none" xmlns="http://www.w3.org/2000/svg">
<style>
  @keyframes rotate-grapefruit {
    0% {transform: rotate(0deg);}
    25% {transform: rotate(-90deg);}
    50% {transform: rotate(-180deg);}
    100% {transform: rotate(-360deg);}
  }

  .fruit {
    transform-box: fill-box;
    transform-origin: center;
    animation-duration: 4s;
    animation-name: rotate-grapefruit;
    animation-iteration-count: infinite;
    animation-timing-function: linear;
  }
</style>
  <g id="grapefruit">
<circle id="Ellipse 41" cx="300" cy="300" r="297.5" fill="#FFE483" stroke="black" stroke-width="5"/>
<g id="fruit" class="fruit">
<circle id="Ellipse 42" cx="300" cy="300" r="272.5" fill="#EEEEEE" stroke="black" stroke-width="5"/>
<g id="Vector">
<path d="M224.997 536C219.968 525.5 291.995 336 299.997 336C307.999 336 380.171 523.5 374.997 536C364.328 561.779 238.769 564.75 224.997 536Z" fill="#FEC7BD"/>
<path d="M410.599 516.675C399.618 512.806 316.552 327.878 322.211 322.22C327.869 316.562 511.484 398.112 516.665 410.609C527.349 436.382 440.666 527.266 410.599 516.675Z" fill="#FEC7BD"/>
<path d="M535 374.265C524.5 379.294 335 307.266 335 299.265C335 291.263 522.5 219.091 535 224.265C560.779 234.934 563.75 360.493 535 374.265Z" fill="#FEC7BD"/>
<path d="M516.674 189.723C512.806 200.704 327.878 283.77 322.22 278.111C316.562 272.453 398.111 88.8377 410.608 83.657C436.381 72.9727 527.266 159.656 516.674 189.723Z" fill="#FEC7BD"/>
<path d="M375.265 69.4637C380.295 79.9637 308.267 269.464 300.265 269.464C292.263 269.464 220.092 81.9637 225.265 69.4637C235.934 43.6845 361.493 40.7134 375.265 69.4637Z" fill="#FEC7BD"/>
<path d="M189.723 83.6473C200.704 87.5154 283.77 272.443 278.111 278.102C272.453 283.76 88.8377 202.21 83.657 189.713C72.9727 163.94 159.656 73.0558 189.723 83.6473Z" fill="#FEC7BD"/>
<path d="M69.4637 224.251C79.9637 219.222 269.464 291.249 269.464 299.251C269.464 307.253 81.9637 379.424 69.4637 374.251C43.6845 363.582 40.7134 238.023 69.4637 224.251Z" fill="#FEC7BD"/>
<path d="M83.6478 410.599C87.5159 399.618 272.444 316.552 278.102 322.211C283.76 327.869 202.211 511.484 189.714 516.665C163.941 527.349 73.0563 440.666 83.6478 410.599Z" fill="#FEC7BD"/>
<path d="M224.997 536C219.968 525.5 291.995 336 299.997 336C307.999 336 380.171 523.5 374.997 536C364.328 561.779 238.769 564.75 224.997 536Z" stroke="black" stroke-width="5"/>
<path d="M410.599 516.675C399.618 512.806 316.552 327.878 322.211 322.22C327.869 316.562 511.484 398.112 516.665 410.609C527.349 436.382 440.666 527.266 410.599 516.675Z" stroke="black" stroke-width="5"/>
<path d="M535 374.265C524.5 379.294 335 307.266 335 299.265C335 291.263 522.5 219.091 535 224.265C560.779 234.934 563.75 360.493 535 374.265Z" stroke="black" stroke-width="5"/>
<path d="M516.674 189.723C512.806 200.704 327.878 283.77 322.22 278.111C316.562 272.453 398.111 88.8377 410.608 83.657C436.381 72.9727 527.266 159.656 516.674 189.723Z" stroke="black" stroke-width="5"/>
<path d="M375.265 69.4637C380.295 79.9637 308.267 269.464 300.265 269.464C292.263 269.464 220.092 81.9637 225.265 69.4637C235.934 43.6845 361.493 40.7134 375.265 69.4637Z" stroke="black" stroke-width="5"/>
<path d="M189.723 83.6473C200.704 87.5154 283.77 272.443 278.111 278.102C272.453 283.76 88.8377 202.21 83.657 189.713C72.9727 163.94 159.656 73.0558 189.723 83.6473Z" stroke="black" stroke-width="5"/>
<path d="M69.4637 224.251C79.9637 219.222 269.464 291.249 269.464 299.251C269.464 307.253 81.9637 379.424 69.4637 374.251C43.6845 363.582 40.7134 238.023 69.4637 224.251Z" stroke="black" stroke-width="5"/>
<path d="M83.6478 410.599C87.5159 399.618 272.444 316.552 278.102 322.211C283.76 327.869 202.211 511.484 189.714 516.665C163.941 527.349 73.0563 440.666 83.6478 410.599Z" stroke="black" stroke-width="5"/>
</g>
</g>
</g>
</svg>
