<svg width="132" height="132" viewBox="0 0 132 132" fill="none" xmlns="http://www.w3.org/2000/svg">
<path d="M42.4788 30.654L43.97 29.1628L42.7515 27.4417L31.9888 12.2394L41.6644 8.24822L51.3521 4.25206L54.516 22.63L54.8686 24.6777L56.9462 24.7056L74.4724 24.9414L76.5887 24.9699L76.966 22.8873L80.3438 4.24147L90.0572 8.24822L99.7327 12.2394L88.9701 27.4417L87.7515 29.1628L89.2427 30.654L101.818 43.2288L103.315 44.7264L105.038 43.4954L120.052 32.7716L123.899 42.3896L127.776 52.0823L109.696 55.1069L107.618 55.4545L107.609 57.5615L107.53 75.2449L107.521 77.3338L109.575 77.7142L127.796 81.0886L123.899 90.832L120.052 100.45L105.038 89.7262L103.315 88.4952L101.818 89.9927L89.2427 102.568L87.7452 104.065L88.9761 105.788L99.6999 120.802L90.082 124.649L80.3386 128.546L76.9642 110.325L76.589 108.299L74.5285 108.28L57.0807 108.123L54.9641 108.104L54.5963 110.188L51.3585 128.536L41.6396 124.649L32.0216 120.802L42.7454 105.788L43.9764 104.065L42.4788 102.568L29.904 89.9927L28.4128 88.5016L26.6917 89.7201L11.4894 100.483L7.49822 90.8072L3.49148 81.0938L22.1371 77.7162L24.2198 77.3389L24.1913 75.2226L23.9556 57.6962L23.9277 55.6186L21.88 55.266L3.50206 52.1021L7.49822 42.4144L11.4894 32.7388L26.6917 43.5015L28.4128 44.72L29.904 43.2288L42.4788 30.654Z" fill="#FF9683" stroke="black" stroke-width="5"/>
</svg>
