<svg width="1086" height="374" viewBox="0 0 1086 374" fill="none" xmlns="http://www.w3.org/2000/svg">
  <style>
    @keyframes lens-shine {
      from {
        fill: rgb(256,256,256,0);
      }
      to {
        fill: rgb(256,256,256,.25);
      }
    }
    .shine {
      transform-box: fill-box;
      animation-duration: 2s;
      animation-name: lens-shine;
      animation-iteration-count: infinite;
      animation-direction: alternate;
    }
  </style>
  <g id="sunglasses">
    <g id="Group 5">
      <path
        id="sunglasses_2"
        d="M3.81576 84.7923C1.98038 63.3652 3.8156 49.5325 3.81576 29.7238C243.106 -36.1878 453.453 40.572 542.196 40.572C630.94 40.572 842.894 -31.8295 1082.18 29.7238C1082.18 49.5325 1084.02 63.3652 1082.18 84.7923C997.798 114.506 1111.9 344.757 842.894 369.247C719.683 380.464 630.543 343.496 577.455 138.673C564.811 113.514 544.969 114.506 544.969 114.506H541.031C541.031 114.506 521.189 113.514 508.545 138.673C455.457 343.496 366.317 380.464 243.106 369.247C-25.8973 344.757 88.2015 114.506 3.81576 84.7923Z"
        fill="#3CC1EE"
        stroke="black"
        stroke-width="5"/>
      <path
        id="lenses"
        d="M948.776 38.1828C930.738 32.6331 885.137 27.7188 829.529 30.0443C773.844 32.3731 707.774 41.9736 648.788 65.6876C627.961 74.0607 616.683 90.633 612.33 111.287C608.002 131.823 610.483 156.471 617.044 181.522C630.161 231.605 659.868 284.332 686.375 311.04C725.044 350.002 793.785 360.536 855.993 350.45C887.176 345.393 916.95 335.128 940.781 320.462C964.595 305.807 982.665 286.632 990.039 263.691C1004.31 219.299 1016.83 170.184 1014.48 128.617C1013.3 107.797 1008.39 88.7048 997.943 73.0237C987.47 57.2999 971.565 45.1941 948.776 38.1828ZM440.519 65.6876C381.533 41.9736 315.463 32.3731 259.777 30.0443C204.17 27.7188 158.569 32.6331 140.531 38.1828C117.742 45.1941 101.837 57.2999 91.3644 73.0237C80.9205 88.7048 76.003 107.797 74.825 128.617C72.473 170.184 84.9992 219.299 99.268 263.691C106.642 286.632 124.712 305.807 148.526 320.462C172.357 335.128 202.131 345.393 233.314 350.45C295.522 360.536 364.263 350.002 402.932 311.04C429.439 284.332 459.146 231.605 472.263 181.522C478.824 156.471 481.305 131.823 476.977 111.287C472.624 90.633 461.346 74.0607 440.519 65.6876Z"
        fill="url(#paint0_radial_311_283)"
        stroke="black"
        stroke-width="5"/>
      <path
        id="shine"
        class="shine"
        d="M948.776 38.1828C930.738 32.6331 885.137 27.7188 829.529 30.0443C773.844 32.3731 707.774 41.9736 648.788 65.6876C627.961 74.0607 616.683 90.633 612.33 111.287C608.002 131.823 610.483 156.471 617.044 181.522C630.161 231.605 659.868 284.332 686.375 311.04C725.044 350.002 793.785 360.536 855.993 350.45C887.176 345.393 916.95 335.128 940.781 320.462C964.595 305.807 982.665 286.632 990.039 263.691C1004.31 219.299 1016.83 170.184 1014.48 128.617C1013.3 107.797 1008.39 88.7048 997.943 73.0237C987.47 57.2999 971.565 45.1941 948.776 38.1828ZM440.519 65.6876C381.533 41.9736 315.463 32.3731 259.777 30.0443C204.17 27.7188 158.569 32.6331 140.531 38.1828C117.742 45.1941 101.837 57.2999 91.3644 73.0237C80.9205 88.7048 76.003 107.797 74.825 128.617C72.473 170.184 84.9992 219.299 99.268 263.691C106.642 286.632 124.712 305.807 148.526 320.462C172.357 335.128 202.131 345.393 233.314 350.45C295.522 360.536 364.263 350.002 402.932 311.04C429.439 284.332 459.146 231.605 472.263 181.522C478.824 156.471 481.305 131.823 476.977 111.287C472.624 90.633 461.346 74.0607 440.519 65.6876Z"
        fill="url(#paint1_radial_311_283)"
        stroke="black"
        stroke-width="5"/>
      <g id="Mask Group">
        <mask id="mask0_311_283" style="mask-type:alpha" maskUnits="userSpaceOnUse" x="77" y="31" width="936" height="321">
          <g id="sunglasses_3">
            <path d="M649.72 68.0072C766.989 20.8618 912.781 29.7241 948.041 40.5723C1037.21 68.0072 1016.18 174.182 987.659 262.926C959.134 351.67 763.843 385.546 688.149 309.279C635.854 256.587 570.089 100.021 649.72 68.0072Z" fill="#672686"/>
            <path d="M439.587 68.0072C322.318 20.8618 176.525 29.7241 141.266 40.5723C52.0946 68.0072 73.1234 174.182 101.648 262.926C130.173 351.67 325.464 385.546 401.157 309.279C453.453 256.587 519.218 100.021 439.587 68.0072Z" fill="#672686"/>
          </g>
        </mask>
        <g mask="url(#mask0_311_283)">
          <g id="Vector" opacity="0.5">
            <path
              d="M6.96191 18.0889H128.192C128.192 18.0889 365.855 71.2719 302.504 131.5C287.604 145.666 288.271 143.557 278.944 161.879C262.283 194.608 292.272 212.787 325.466 228.5C392.225 260.102 469.696 351.669 469.696 351.669H348.466C348.466 351.669 270.995 260.102 204.236 228.5C171.042 212.787 141.053 194.608 157.714 161.879C167.041 143.557 166.374 145.666 181.274 131.5C244.625 71.2719 6.96191 18.0889 6.96191 18.0889Z"
              fill="#FFFDC0"/>
            <path
              d="M542.989 18.0889H664.219C664.219 18.0889 901.881 71.2718 838.531 131.5C823.63 145.666 824.297 143.557 814.971 161.879C798.31 194.608 828.298 212.787 861.493 228.5C928.251 260.102 1005.72 351.669 1005.72 351.669H884.493C884.493 351.669 807.021 260.102 740.263 228.5C707.068 212.787 677.08 194.608 693.741 161.879C703.067 143.557 702.4 145.666 717.301 131.5C780.651 71.2718 542.989 18.0889 542.989 18.0889Z"
              fill="#FFFDC0"/>
            <path
              d="M173.752 18.0889H201.485C201.485 18.0889 439.147 71.2719 375.797 131.5C360.896 145.666 361.563 143.557 352.237 161.879C335.576 194.608 365.564 212.787 398.759 228.5C465.517 260.102 542.989 351.669 542.989 351.669H515.256C515.256 351.669 437.785 260.102 371.026 228.5C337.832 212.787 307.844 194.608 324.504 161.879C333.831 143.557 333.164 145.666 348.064 131.5C411.415 71.2719 173.752 18.0889 173.752 18.0889Z"
              fill="#FFFDC0"/>
            <path
              d="M709.779 18.0889H737.511C737.511 18.0889 975.174 71.2718 911.823 131.5C896.923 145.666 897.59 143.557 888.263 161.879C871.602 194.608 901.591 212.787 934.785 228.5C1001.54 260.102 1079.02 351.669 1079.02 351.669H1051.28C1051.28 351.669 973.812 260.102 907.053 228.5C873.859 212.787 843.87 194.608 860.531 161.879C869.858 143.557 869.191 145.666 884.091 131.5C947.442 71.2718 709.779 18.0889 709.779 18.0889Z"
              fill="#FFFDC0"/>
          </g>
        </g>
      </g>
      <path
        id="Vector_2"
        d="M49.6257 56.9138C49.6257 57.6447 48.9682 58.9795 46.3662 60.2805C43.9138 61.5067 40.3508 62.3373 36.2787 62.3373C32.2066 62.3373 28.6436 61.5067 26.1912 60.2805C23.5892 58.9795 22.9316 57.6447 22.9316 56.9138C22.9316 56.1828 23.5892 54.848 26.1912 53.547C28.6436 52.3208 32.2066 51.4902 36.2787 51.4902C40.3508 51.4902 43.9138 52.3208 46.3662 53.547C48.9682 54.848 49.6257 56.1828 49.6257 56.9138ZM1063.84 56.9138C1063.84 57.6447 1063.18 58.9795 1060.58 60.2805C1058.13 61.5067 1054.56 62.3373 1050.49 62.3373C1046.42 62.3373 1042.86 61.5067 1040.4 60.2805C1037.8 58.9795 1037.14 57.6447 1037.14 56.9138C1037.14 56.1828 1037.8 54.848 1040.4 53.547C1042.86 52.3208 1046.42 51.4902 1050.49 51.4902C1054.56 51.4902 1058.13 52.3208 1060.58 53.547C1063.18 54.848 1063.84 56.1828 1063.84 56.9138Z"
        fill="#FEC7BD"
        stroke="black"
        stroke-width="5"/>
    </g>
    <path
      id="Vector 61"
      d="M949.985 119.683C946.576 120.334 942.731 120.582 938.717 119.683C937.791 112.911 956.375 94.7332 949.368 82.9838C943.103 82.9838 938.717 90.4045 938.717 101.164C930.079 90.4045 939.754 82.9838 948.629 82.2228C941.118 80.1392 934.668 81.9755 930.845 87.9309C931.463 71.6167 945.046 80.2825 948.442 81.052C944.583 75.3574 936.402 77.2043 930.845 79.2051C937.482 69.2011 943.502 70.7402 949.368 80.4341C949.213 72.4332 951.22 59.0433 966.501 67.5082C960.636 67.5082 950.757 72.741 950.294 80.4364C953.226 76.4348 966.038 60.8901 978.386 82.5911C968.662 73.3566 954.925 74.8957 951.22 80.8981C953.69 80.1286 975.762 70.1472 972.521 96.5966C971.715 93.8221 969.743 89.9608 966.501 86.8869L967.166 85.3337L965.677 86.1471C962.138 83.1392 957.254 81.1218 950.917 82.1181C959.407 97.5088 952.3 117.682 949.985 119.683Z"
      fill="#EEEEEE"/>
  </g>
  <defs>
    <radialGradient id="paint0_radial_311_283" cx="0" cy="0" r="1" gradientUnits="userSpaceOnUse" gradientTransform="translate(551.704 351.635) rotate(-91.2083) scale(319.389 934.635)">
      <stop stop-color="#FF9683"/>
      <stop offset="1" stop-color="#FFE483"/>
    </radialGradient>
    <radialGradient id="paint1_radial_311_283" cx="0" cy="0" r="1" gradientUnits="userSpaceOnUse" gradientTransform="translate(551.704 351.635) rotate(-91.2083) scale(319.389 934.635)">
      <stop stop-color="#FF9683"/>
      <stop offset="1" stop-color="#FFE483"/>
    </radialGradient>
  </defs>
</svg>
