<svg width="1352" height="500" viewBox="0 0 1352 500" fill="none" xmlns="http://www.w3.org/2000/svg">
<g id="vapor wallet header">
<g id="Vector 61" filter="url(#filter0_d_313_295)">
<path d="M1343 3H4L211 488L1343 3Z" fill="#FF73C6"/>
<path d="M1343 3H4L211 488L1343 3Z" stroke="black" stroke-width="5"/>
</g>
<path id="VAPOR WALLET" d="M203.141 189.875L179.234 119.188L187.344 115.344H187.812L207.219 174.219L225.547 115.344H226.016L234.125 119.188L211.719 186.031L203.609 189.875H203.141ZM243.781 189.875V139.719C243.781 132.969 245.891 127.422 250.109 123.078C254.547 118.547 260.328 116.281 267.453 116.281C274.453 116.281 280.234 118.547 284.797 123.078C289.016 127.266 291.125 132.812 291.125 139.719V185.656L282.219 189.875H281.75V156.875H253.156V185.656L244.25 189.875H243.781ZM253.156 148.344H281.75V139.719C281.75 135.531 280.625 132.141 278.375 129.547C275.594 126.328 271.953 124.719 267.453 124.719C262.953 124.719 259.312 126.328 256.531 129.547C254.281 132.141 253.156 135.531 253.156 139.719V148.344ZM319.25 155.656H332.609C336.703 155.656 340.344 154.047 343.531 150.828C345.781 148.547 346.906 145.156 346.906 140.656C346.906 136.469 345.781 133.078 343.531 130.484C340.75 127.266 337.109 125.656 332.609 125.656H319.25V155.656ZM309.875 189.875V119.562L314.844 117.219H332.609C339.734 117.219 345.516 119.484 349.953 124.016C354.172 128.328 356.281 133.875 356.281 140.656C356.281 147.469 354.172 153.016 349.953 157.297C345.484 161.828 339.703 164.094 332.609 164.094H319.25V185.656L310.344 189.875H309.875ZM379.719 165.5C379.719 169.688 380.844 173.078 383.094 175.672C385.875 178.891 389.516 180.5 394.016 180.5C398.516 180.5 402.156 178.891 404.938 175.672C407.188 173.078 408.312 169.688 408.312 165.5V139.719C408.312 135.531 407.188 132.141 404.938 129.547C402.156 126.328 398.516 124.719 394.016 124.719C389.516 124.719 385.875 126.328 383.094 129.547C380.844 132.141 379.719 135.531 379.719 139.719V165.5ZM370.344 165.5V139.719C370.344 132.938 372.453 127.391 376.672 123.078C381.109 118.547 386.891 116.281 394.016 116.281C401.141 116.281 406.922 118.547 411.359 123.078C415.578 127.359 417.688 132.906 417.688 139.719V165.5C417.688 172.281 415.578 177.828 411.359 182.141C406.922 186.672 401.141 188.938 394.016 188.938C386.891 188.938 381.109 186.672 376.672 182.141C372.453 177.828 370.344 172.281 370.344 165.5ZM436.438 189.875V119.562L441.406 117.219H459.172C466.297 117.219 472.078 119.484 476.516 124.016C480.734 128.328 482.844 133.875 482.844 140.656C482.844 147.469 480.734 153.016 476.516 157.297C474.016 159.828 471.094 161.656 467.75 162.781L483.969 185.984L475.719 189.875H475.25L457.203 164.094H445.812V185.656L436.906 189.875H436.438ZM445.812 155.656H459.172C463.266 155.656 466.906 154.047 470.094 150.828C472.344 148.547 473.469 145.156 473.469 140.656C473.469 136.469 472.344 133.078 470.094 130.484C467.312 127.266 463.672 125.656 459.172 125.656H445.812V155.656ZM348.688 211.344V261.5C348.688 268.25 346.578 273.797 342.359 278.141C337.922 282.672 332.141 284.938 325.016 284.938C318.578 284.938 313.094 282.672 308.562 278.141C307.438 277.016 306.594 275.922 306.031 274.859C305.312 275.953 304.438 277 303.406 278C298.688 282.625 293.234 284.938 287.047 284.938C280.047 284.938 274.266 282.672 269.703 278.141C265.484 273.953 263.375 268.406 263.375 261.5V215.562L272.281 211.344H272.75V261.5C272.75 265.688 273.875 269.078 276.125 271.672C278.906 274.891 282.547 276.5 287.047 276.5C291.547 276.5 295.188 274.891 297.969 271.672C300.219 269.078 301.344 265.688 301.344 261.5V215.562L310.25 211.344H310.719V261.5C310.719 265.688 311.844 269.078 314.094 271.672C316.875 274.891 320.516 276.5 325.016 276.5C329.516 276.5 333.156 274.891 335.938 271.672C338.188 269.078 339.312 265.688 339.312 261.5V215.562L348.219 211.344H348.688ZM367.438 285.875V235.719C367.438 228.969 369.547 223.422 373.766 219.078C378.203 214.547 383.984 212.281 391.109 212.281C398.109 212.281 403.891 214.547 408.453 219.078C412.672 223.266 414.781 228.812 414.781 235.719V281.656L405.875 285.875H405.406V252.875H376.812V281.656L367.906 285.875H367.438ZM376.812 244.344H405.406V235.719C405.406 231.531 404.281 228.141 402.031 225.547C399.25 222.328 395.609 220.719 391.109 220.719C386.609 220.719 382.969 222.328 380.188 225.547C377.938 228.141 376.812 231.531 376.812 235.719V244.344ZM433.531 284V215.562L442.438 211.344H442.906V275.469H475.016V275.938L471.219 284H433.531ZM479 284V215.562L487.906 211.344H488.375V275.469H520.484V275.938L516.688 284H479ZM524.469 284V215.562L529.438 213.219H559.156V213.688L555.359 221.75H533.844V244.344H559.156V244.812L555.359 252.875H533.844V275.469H566.984V275.938L563.188 284H524.469ZM584.984 285.875V221.75H564.922V221.281L568.719 213.219H614.422V213.688L610.625 221.75H594.359V281.656L585.453 285.875H584.984Z" fill="#A2DCEA"/>
<path id="VAPOR WALLET_2" d="M207.141 189.875L183.234 119.188L191.344 115.344H191.812L211.219 174.219L229.547 115.344H230.016L238.125 119.188L215.719 186.031L207.609 189.875H207.141ZM247.781 189.875V139.719C247.781 132.969 249.891 127.422 254.109 123.078C258.547 118.547 264.328 116.281 271.453 116.281C278.453 116.281 284.234 118.547 288.797 123.078C293.016 127.266 295.125 132.812 295.125 139.719V185.656L286.219 189.875H285.75V156.875H257.156V185.656L248.25 189.875H247.781ZM257.156 148.344H285.75V139.719C285.75 135.531 284.625 132.141 282.375 129.547C279.594 126.328 275.953 124.719 271.453 124.719C266.953 124.719 263.312 126.328 260.531 129.547C258.281 132.141 257.156 135.531 257.156 139.719V148.344ZM323.25 155.656H336.609C340.703 155.656 344.344 154.047 347.531 150.828C349.781 148.547 350.906 145.156 350.906 140.656C350.906 136.469 349.781 133.078 347.531 130.484C344.75 127.266 341.109 125.656 336.609 125.656H323.25V155.656ZM313.875 189.875V119.562L318.844 117.219H336.609C343.734 117.219 349.516 119.484 353.953 124.016C358.172 128.328 360.281 133.875 360.281 140.656C360.281 147.469 358.172 153.016 353.953 157.297C349.484 161.828 343.703 164.094 336.609 164.094H323.25V185.656L314.344 189.875H313.875ZM383.719 165.5C383.719 169.688 384.844 173.078 387.094 175.672C389.875 178.891 393.516 180.5 398.016 180.5C402.516 180.5 406.156 178.891 408.938 175.672C411.188 173.078 412.312 169.688 412.312 165.5V139.719C412.312 135.531 411.188 132.141 408.938 129.547C406.156 126.328 402.516 124.719 398.016 124.719C393.516 124.719 389.875 126.328 387.094 129.547C384.844 132.141 383.719 135.531 383.719 139.719V165.5ZM374.344 165.5V139.719C374.344 132.938 376.453 127.391 380.672 123.078C385.109 118.547 390.891 116.281 398.016 116.281C405.141 116.281 410.922 118.547 415.359 123.078C419.578 127.359 421.688 132.906 421.688 139.719V165.5C421.688 172.281 419.578 177.828 415.359 182.141C410.922 186.672 405.141 188.938 398.016 188.938C390.891 188.938 385.109 186.672 380.672 182.141C376.453 177.828 374.344 172.281 374.344 165.5ZM440.438 189.875V119.562L445.406 117.219H463.172C470.297 117.219 476.078 119.484 480.516 124.016C484.734 128.328 486.844 133.875 486.844 140.656C486.844 147.469 484.734 153.016 480.516 157.297C478.016 159.828 475.094 161.656 471.75 162.781L487.969 185.984L479.719 189.875H479.25L461.203 164.094H449.812V185.656L440.906 189.875H440.438ZM449.812 155.656H463.172C467.266 155.656 470.906 154.047 474.094 150.828C476.344 148.547 477.469 145.156 477.469 140.656C477.469 136.469 476.344 133.078 474.094 130.484C471.312 127.266 467.672 125.656 463.172 125.656H449.812V155.656ZM352.688 211.344V261.5C352.688 268.25 350.578 273.797 346.359 278.141C341.922 282.672 336.141 284.938 329.016 284.938C322.578 284.938 317.094 282.672 312.562 278.141C311.438 277.016 310.594 275.922 310.031 274.859C309.312 275.953 308.438 277 307.406 278C302.688 282.625 297.234 284.938 291.047 284.938C284.047 284.938 278.266 282.672 273.703 278.141C269.484 273.953 267.375 268.406 267.375 261.5V215.562L276.281 211.344H276.75V261.5C276.75 265.688 277.875 269.078 280.125 271.672C282.906 274.891 286.547 276.5 291.047 276.5C295.547 276.5 299.188 274.891 301.969 271.672C304.219 269.078 305.344 265.688 305.344 261.5V215.562L314.25 211.344H314.719V261.5C314.719 265.688 315.844 269.078 318.094 271.672C320.875 274.891 324.516 276.5 329.016 276.5C333.516 276.5 337.156 274.891 339.938 271.672C342.188 269.078 343.312 265.688 343.312 261.5V215.562L352.219 211.344H352.688ZM371.438 285.875V235.719C371.438 228.969 373.547 223.422 377.766 219.078C382.203 214.547 387.984 212.281 395.109 212.281C402.109 212.281 407.891 214.547 412.453 219.078C416.672 223.266 418.781 228.812 418.781 235.719V281.656L409.875 285.875H409.406V252.875H380.812V281.656L371.906 285.875H371.438ZM380.812 244.344H409.406V235.719C409.406 231.531 408.281 228.141 406.031 225.547C403.25 222.328 399.609 220.719 395.109 220.719C390.609 220.719 386.969 222.328 384.188 225.547C381.938 228.141 380.812 231.531 380.812 235.719V244.344ZM437.531 284V215.562L446.438 211.344H446.906V275.469H479.016V275.938L475.219 284H437.531ZM483 284V215.562L491.906 211.344H492.375V275.469H524.484V275.938L520.688 284H483ZM528.469 284V215.562L533.438 213.219H563.156V213.688L559.359 221.75H537.844V244.344H563.156V244.812L559.359 252.875H537.844V275.469H570.984V275.938L567.188 284H528.469ZM588.984 285.875V221.75H568.922V221.281L572.719 213.219H618.422V213.688L614.625 221.75H598.359V281.656L589.453 285.875H588.984Z" fill="#FFB8E2"/>
<path id="Intersect" fill-rule="evenodd" clip-rule="evenodd" d="M229.093 116.802L234.125 119.187L211.719 186.031L206.653 188.432L183.234 119.187L188.29 116.791L207.219 174.219L209.162 167.978L211.219 174.219L229.093 116.802ZM257.156 156.875H253.156V185.656L247.781 188.202V139.719C247.781 132.969 249.891 127.422 254.109 123.078C258.121 118.982 263.23 116.737 269.437 116.344C275.553 116.737 280.673 118.982 284.797 123.078C289.016 127.265 291.125 132.812 291.125 139.719V185.656L285.75 188.202V156.875H281.75H257.156ZM257.156 148.344H253.156V139.719C253.156 135.531 254.281 132.14 256.531 129.547C259.312 126.328 262.953 124.719 267.453 124.719C268.14 124.719 268.806 124.756 269.453 124.831C270.1 124.756 270.766 124.719 271.453 124.719C275.953 124.719 279.594 126.328 282.375 129.547C284.625 132.14 285.75 135.531 285.75 139.719V148.344H281.75H257.156ZM323.25 155.656H319.25V125.656H323.25H332.609H336.609C341.109 125.656 344.75 127.265 347.531 130.484C349.781 133.078 350.906 136.469 350.906 140.656C350.906 145.156 349.781 148.547 347.531 150.828C344.344 154.047 340.703 155.656 336.609 155.656H332.609H323.25ZM323.25 164.094H319.25V185.656L313.875 188.202V119.562L318.844 117.219H332.609C339.734 117.219 345.516 119.484 349.953 124.015C354.172 128.328 356.281 133.875 356.281 140.656C356.281 147.469 354.172 153.015 349.953 157.297C345.484 161.828 339.703 164.094 332.609 164.094H323.25ZM383.094 175.672C380.844 173.078 379.719 169.687 379.719 165.5V139.719C379.719 135.531 380.844 132.14 383.094 129.547C385.875 126.328 389.516 124.719 394.016 124.719C394.702 124.719 395.369 124.756 396.016 124.831C396.662 124.756 397.329 124.719 398.016 124.719C402.516 124.719 406.156 126.328 408.938 129.547C411.188 132.14 412.312 135.531 412.312 139.719V165.5C412.312 169.687 411.188 173.078 408.938 175.672C406.156 178.89 402.516 180.5 398.016 180.5C397.329 180.5 396.662 180.462 396.016 180.387C395.369 180.462 394.702 180.5 394.016 180.5C389.516 180.5 385.875 178.89 383.094 175.672ZM396.016 188.876C389.801 188.485 384.687 186.24 380.672 182.14C376.453 177.828 374.344 172.281 374.344 165.5V139.719C374.344 132.937 376.453 127.39 380.672 123.078C384.687 118.978 389.801 116.733 396.016 116.343C402.23 116.733 407.345 118.978 411.359 123.078C415.578 127.359 417.688 132.906 417.688 139.719V165.5C417.688 172.281 415.578 177.828 411.359 182.14C407.345 186.24 402.23 188.485 396.016 188.876ZM449.812 164.094H445.812V185.656L440.438 188.202V119.562L445.406 117.219H459.172C466.297 117.219 472.078 119.484 476.516 124.015C480.734 128.328 482.844 133.875 482.844 140.656C482.844 147.469 480.734 153.015 476.516 157.297C474.016 159.828 471.094 161.656 467.75 162.781L483.969 185.984L478.374 188.623L461.203 164.094H457.203H449.812ZM449.812 155.656H445.812V125.656H449.812H459.172H463.172C467.672 125.656 471.312 127.265 474.094 130.484C476.344 133.078 477.469 136.469 477.469 140.656C477.469 145.156 476.344 148.547 474.094 150.828C470.906 154.047 467.266 155.656 463.172 155.656H459.172H449.812ZM307.928 277.476C307.115 276.584 306.482 275.711 306.031 274.859C305.312 275.953 304.438 277 303.406 278C299.169 282.153 294.34 284.441 288.919 284.865C282.867 284.446 277.795 282.204 273.703 278.14C269.484 273.953 267.375 268.406 267.375 261.5V215.562L272.75 213.016V261.5C272.75 265.687 273.875 269.078 276.125 271.672C278.906 274.89 282.547 276.5 287.047 276.5C287.734 276.5 288.4 276.462 289.047 276.387C289.694 276.462 290.36 276.5 291.047 276.5C295.547 276.5 299.188 274.89 301.969 271.672C304.219 269.078 305.344 265.687 305.344 261.5V215.562L310.719 213.016V261.5C310.719 265.687 311.844 269.078 314.094 271.672C316.875 274.89 320.516 276.5 325.016 276.5C325.702 276.5 326.369 276.462 327.016 276.387C327.662 276.462 328.329 276.5 329.016 276.5C333.516 276.5 337.156 274.89 339.938 271.672C342.188 269.078 343.312 265.687 343.312 261.5V215.562L348.688 213.016V261.5C348.688 268.25 346.578 273.797 342.359 278.14C338.366 282.219 333.283 284.462 327.113 284.869C321.491 284.462 316.641 282.219 312.562 278.14C311.438 277.015 310.594 275.922 310.031 274.859C309.437 275.764 308.736 276.636 307.928 277.476ZM380.812 252.875H376.812V281.656L371.438 284.202V235.719C371.438 228.969 373.547 223.422 377.766 219.078C381.777 214.982 386.886 212.737 393.093 212.344C399.209 212.737 404.329 214.982 408.453 219.078C412.672 223.265 414.781 228.812 414.781 235.719V281.656L409.406 284.202V252.875H405.406H380.812ZM380.812 244.344H376.812V235.719C376.812 231.531 377.938 228.14 380.188 225.547C382.969 222.328 386.609 220.719 391.109 220.719C391.796 220.719 392.463 220.756 393.109 220.831C393.756 220.756 394.423 220.719 395.109 220.719C399.609 220.719 403.25 222.328 406.031 225.547C408.281 228.14 409.406 231.531 409.406 235.719V244.344H405.406H380.812ZM437.531 284H471.219L475.016 275.937V275.469H446.906H442.906V213.016L437.531 215.562V284ZM479 275.469V275.97L479.016 275.937V275.469H479ZM483 284H516.688L520.484 275.937V275.469H492.375H488.375V213.016L483 215.562V284ZM524.469 275.469V275.97L524.484 275.937V275.469H524.469ZM528.469 284H563.188L566.984 275.937V275.469H537.844H533.844V252.875H537.844H555.359L559.156 244.812V244.344H537.844H533.844V221.75H537.844H555.359L559.156 213.687V213.219H533.438L528.469 215.562V284ZM598.359 221.75H594.359V281.656L588.984 284.202V221.75H584.984H568.922V221.281L572.719 213.219H614.422V213.687L610.625 221.75H598.359Z" fill="#EEEEEE"/>
<g id="Group 2">
<path id="Vector 60" d="M557.462 186.238C547.227 188.2 535.683 188.945 523.634 186.238C520.853 165.848 576.645 111.117 555.608 75.7404C536.8 75.7404 523.634 98.0834 523.634 130.481C497.7 98.0834 526.746 75.7404 553.391 73.4491C530.842 67.1756 511.478 72.7043 500 90.6357C501.854 41.515 542.633 67.6069 552.828 69.9239C541.243 52.778 516.683 58.3388 500 64.363C519.926 34.2418 537.999 38.8758 555.608 68.0633C555.145 43.9733 561.17 3.65717 607.047 29.1444C589.437 29.1444 559.779 44.9001 558.389 68.0703C567.193 56.0218 605.656 9.21799 642.729 74.5579C613.534 46.7537 572.291 51.3877 561.17 69.4605C568.584 67.1435 634.851 37.0904 625.119 116.728C622.701 108.374 616.778 96.7476 607.047 87.4922L609.042 82.8157L604.574 85.2648C593.947 76.2083 579.285 70.1339 560.26 73.1337C585.747 119.474 564.413 180.214 557.462 186.238Z" fill="#A2DCEA"/>
<path id="Vector 59" d="M564.715 186.238C554.479 188.2 542.935 188.945 530.886 186.238C528.106 165.848 583.897 111.117 562.861 75.7404C544.052 75.7404 530.886 98.0834 530.886 130.481C504.952 98.0834 533.998 75.7404 560.643 73.4491C538.094 67.1756 518.73 72.7043 507.252 90.6357C509.106 41.515 549.886 67.6069 560.08 69.9239C548.495 52.778 523.935 58.3388 507.252 64.363C527.179 34.2418 545.252 38.8758 562.861 68.0633C562.398 43.9733 568.422 3.65717 614.299 29.1444C596.69 29.1444 567.031 44.9001 565.641 68.0703C574.446 56.0218 612.909 9.21799 649.981 74.5579C620.787 46.7537 579.544 51.3877 568.422 69.4605C575.836 67.1435 642.103 37.0904 632.372 116.728C629.954 108.374 624.031 96.7476 614.299 87.4922L616.295 82.8157L611.826 85.2648C601.199 76.2083 586.538 70.1339 567.513 73.1337C593 119.474 571.666 180.214 564.715 186.238Z" fill="#FFB8E2"/>
<path id="Intersect_2" fill-rule="evenodd" clip-rule="evenodd" d="M543.548 187.918C548.387 187.704 553.046 187.084 557.462 186.238C563.591 180.926 580.904 133.069 567.437 90.0566C569.288 109.817 556.166 132.724 545.113 152.019C536.914 166.332 529.853 178.658 530.887 186.238C535.183 187.203 539.416 187.73 543.548 187.918ZM608.874 82.9076C599.755 76.101 588.014 71.5707 573.48 72.4741C569.333 72.2077 564.928 72.3975 560.26 73.1335C560.305 73.2157 560.35 73.2979 560.395 73.3802C553.206 71.4056 546.343 70.6334 539.958 71.0833C527.67 70.2619 516.796 73.5065 508.273 80.9368C510.806 67.4297 517.489 62.2606 525.329 61.1696C532.653 62.0243 540.185 65.0827 545.844 67.3803C548.768 68.5676 551.192 69.5518 552.828 69.9236C551.818 68.4294 550.71 67.1077 549.517 65.9436C550.774 66.4371 551.972 66.9237 553.097 67.3803C556.021 68.5676 558.445 69.5518 560.081 69.9236C559.59 69.197 559.075 68.5112 558.539 67.8644C559.172 67.0035 559.946 65.9797 560.851 64.8421C561.41 65.7066 561.968 66.5961 562.526 67.5102C562.034 68.1412 561.581 68.7915 561.17 69.4602C561.68 69.3006 562.47 69.0095 563.495 68.6317C564.129 68.398 564.853 68.1312 565.656 67.8418C565.651 67.9178 565.646 67.9939 565.642 68.07C565.714 67.9714 565.788 67.8704 565.864 67.7672C567.353 67.2327 569.103 66.6265 571.052 66.0127C570.049 67.0977 569.168 68.2487 568.422 69.4602C568.933 69.3006 569.723 69.0095 570.748 68.6317C575.739 66.7918 586.307 62.8961 597.362 62.1309C612.389 63.2859 626.259 72.3566 626.091 102.47C623.09 97.3551 619.172 92.1263 614.299 87.492L616.295 82.8154L611.826 85.2646C610.905 84.4795 609.954 83.7169 608.972 82.9807L609.042 82.8154L608.874 82.9076ZM636.194 64.1835C623.692 56.9183 610.307 54.2104 598.589 54.9116C588.732 54.3366 579.617 56.1046 572.561 59.6225C579.78 51.7522 590.92 42.3128 603.978 40.7812C614.133 41.9942 625.144 48.5043 636.194 64.1835ZM530.363 44.247C537.683 45.7992 544.825 52.0198 551.878 62.2613C546.051 58.9393 539.032 58.0812 531.85 58.5901C524.503 58.0073 516.582 59.3693 509.3 61.3814C516.54 51.2363 523.538 45.6911 530.363 44.247ZM555.587 64.8639C556.583 65.7134 557.527 66.6604 558.413 67.7125C558.543 65.9258 558.84 64.1838 559.288 62.4903C558.143 60.8177 556.996 59.251 555.846 57.793C555.68 60.2127 555.602 62.5894 555.587 64.8639ZM563.538 53.0579C565.29 38.2523 570.827 23.2815 585.471 21.2363C591.44 21.9674 598.562 24.4304 607.047 29.1441C593.58 29.1441 573.066 38.359 563.538 53.0579ZM562.881 62.3727C564.698 60.234 566.866 57.8665 569.337 55.5031C567.937 58.088 566.878 60.8241 566.25 63.6931C564.979 64.7523 563.839 65.8931 562.846 67.1086C562.828 65.5821 562.837 63.9969 562.881 62.3727ZM560.442 73.4665C536.86 75.5827 511.511 93.3726 524.126 119.914C526.677 93.3248 538.922 75.7401 555.608 75.7401C555.805 76.0702 555.994 76.402 556.177 76.7355C557.937 76.1943 559.765 75.8685 561.653 75.7711C561.262 74.9993 560.858 74.2309 560.442 73.4665Z" fill="#EEEEEE"/>
</g>
</g>
<defs>
<filter id="filter0_d_313_295" x="0.214844" y="0.5" width="1351.77" height="498.784" filterUnits="userSpaceOnUse" color-interpolation-filters="sRGB">
<feFlood flood-opacity="0" result="BackgroundImageFix"/>
<feColorMatrix in="SourceAlpha" type="matrix" values="0 0 0 0 0 0 0 0 0 0 0 0 0 0 0 0 0 0 127 0" result="hardAlpha"/>
<feOffset dx="8" dy="8"/>
<feComposite in2="hardAlpha" operator="out"/>
<feColorMatrix type="matrix" values="0 0 0 0 0 0 0 0 0 0 0 0 0 0 0 0 0 0 1 0"/>
<feBlend mode="normal" in2="BackgroundImageFix" result="effect1_dropShadow_313_295"/>
<feBlend mode="normal" in="SourceGraphic" in2="effect1_dropShadow_313_295" result="shape"/>
</filter>
</defs>
</svg>
