<svg width="326" height="143" viewBox="0 0 326 143" fill="none" xmlns="http://www.w3.org/2000/svg">
<rect x="0.5" y="7.5" width="325" height="135" stroke="#E93479"/>
<path d="M22.424 63.84H48.92L33.656 21.864L17.6 66H15.296L33.656 15.528L52.016 66H22.424V63.84ZM66.0487 63.84H88.3687L62.5927 19.272V66H60.4327V15.6H62.9527L89.8807 62.184V15.6H92.0407V66H66.0487V63.84ZM136.228 15.6V17.76H119.308V66H117.148V17.76H100.228V15.6H136.228ZM174.696 66H172.536V40.8H146.616V66H144.456V15.6H146.616V38.64H172.536V15.6H174.696V66ZM216.972 61.32C214.332 64.92 210.06 66.72 204.156 66.72C198.252 66.72 193.98 64.92 191.34 61.32C188.7 57.672 187.38 52.008 187.38 44.328V37.272C187.38 29.592 188.7 23.952 191.34 20.352C193.98 16.704 198.252 14.88 204.156 14.88C210.06 14.88 214.332 16.704 216.972 20.352C219.612 23.952 220.932 29.592 220.932 37.272V44.328C220.932 52.008 219.612 57.672 216.972 61.32ZM210.204 17.976C208.524 17.352 206.508 17.04 204.156 17.04C201.804 17.04 199.788 17.352 198.108 17.976C196.428 18.552 194.916 19.56 193.572 21C192.228 22.44 191.22 24.528 190.548 27.264C189.876 29.952 189.54 33.288 189.54 37.272V44.328C189.54 48.312 189.876 51.672 190.548 54.408C191.22 57.096 192.228 59.16 193.572 60.6C194.916 62.04 196.428 63.072 198.108 63.696C199.788 64.272 201.804 64.56 204.156 64.56C206.508 64.56 208.524 64.272 210.204 63.696C211.884 63.072 213.396 62.04 214.74 60.6C216.084 59.16 217.092 57.096 217.764 54.408C218.436 51.672 218.772 48.312 218.772 44.328V37.272C218.772 33.288 218.436 29.952 217.764 27.264C217.092 24.528 216.084 22.44 214.74 21C213.396 19.56 211.884 18.552 210.204 17.976ZM239.228 63.84H261.548L235.772 19.272V66H233.612V15.6H236.132L263.06 62.184V15.6H265.22V66H239.228V63.84ZM281.904 15.6H311.064L293.064 44.4V66H290.904V44.4L272.904 15.6H275.424L291.984 42.024L307.176 17.76H281.904V15.6Z" fill="#E93479"/>
<path fill-rule="evenodd" clip-rule="evenodd" d="M326 75H0V143H326V75ZM29.144 132.024C26.792 129.96 25.616 126.6 25.616 121.944C25.616 119.496 26.576 117.336 28.496 115.464C30.464 113.592 32.84 112.056 35.624 110.856C38.408 109.656 41.192 108.48 43.976 107.328C46.808 106.176 49.184 104.784 51.104 103.152C53.072 101.52 54.056 99.648 54.056 97.536C54.056 93.024 52.928 89.88 50.672 88.104C48.464 86.328 45.056 85.44 40.448 85.44C36.32 85.44 33.08 86.184 30.728 87.672C28.424 89.208 26.792 91.92 25.832 95.808L23.816 94.944C24.824 90.96 26.672 88.008 29.36 86.088C32.048 84.216 35.744 83.28 40.448 83.28C46.208 83.28 50.264 84.456 52.616 86.808C55.016 89.16 56.216 92.736 56.216 97.536C56.216 99.984 55.232 102.144 53.264 104.016C51.344 105.888 48.968 107.424 46.136 108.624C43.352 109.824 40.568 111 37.784 112.152C35 113.304 32.624 114.696 30.656 116.328C28.736 117.96 27.776 119.832 27.776 121.944C27.776 124.344 28.112 126.312 28.784 127.848C29.456 129.384 30.44 130.488 31.736 131.16C33.08 131.88 34.4 132.36 35.696 132.6C37.04 132.84 38.672 132.96 40.592 132.96C43.376 132.96 45.704 132.312 47.576 131.016C49.496 129.72 50.96 127.464 51.968 124.248L44.192 118.416H47.72L54.416 123.456C53.408 127.392 51.776 130.32 49.52 132.24C47.264 134.16 44.288 135.12 40.592 135.12C35.312 135.12 31.496 134.088 29.144 132.024ZM82.6794 83.28C88.5834 83.28 92.8554 85.08 95.4954 88.68C98.1354 92.328 99.4554 97.992 99.4554 105.672V112.728C99.4554 120.408 98.1354 126.048 95.4954 129.648C92.8554 133.296 88.5834 135.12 82.6794 135.12C76.7754 135.12 72.5034 133.296 69.8634 129.648C67.2234 126.048 65.9034 120.408 65.9034 112.728V105.672C65.9034 97.992 67.2234 92.328 69.8634 88.68C72.5034 85.08 76.7754 83.28 82.6794 83.28ZM82.6794 132.96C85.0314 132.96 87.0474 132.648 88.7274 132.024C90.4074 131.448 91.9194 130.44 93.2634 129C94.6074 127.56 95.6154 125.472 96.2874 122.736C96.9594 120.048 97.2954 116.712 97.2954 112.728V105.672C97.2954 101.688 96.9594 98.328 96.2874 95.592C95.6154 92.904 94.6074 90.84 93.2634 89.4C91.9194 87.96 90.4074 86.928 88.7274 86.304C87.0474 85.728 85.0314 85.44 82.6794 85.44C80.3274 85.44 78.3114 85.728 76.6314 86.304C74.9514 86.928 73.4394 87.96 72.0954 89.4C70.7514 90.84 69.7434 92.904 69.0714 95.592C68.3994 98.328 68.0634 101.688 68.0634 105.672V112.728C68.0634 116.712 68.3994 120.048 69.0714 122.736C69.7434 125.472 70.7514 127.56 72.0954 129C73.4394 130.44 74.9514 131.448 76.6314 132.024C78.3114 132.648 80.3274 132.96 82.6794 132.96ZM142.232 84V86.16H114.296V134.4H112.136V84H142.232ZM154.92 110.352H176.304V112.512H160.176L182.208 134.4H150.456V84H180.552V86.16H152.616V132.24H176.952L154.92 110.352ZM193.956 132.024C191.605 129.96 190.428 126.6 190.428 121.944C190.428 119.496 191.389 117.336 193.309 115.464C195.277 113.592 197.652 112.056 200.436 110.856C203.221 109.656 206.005 108.48 208.788 107.328C211.62 106.176 213.997 104.784 215.917 103.152C217.885 101.52 218.868 99.648 218.868 97.536C218.868 93.024 217.741 89.88 215.484 88.104C213.277 86.328 209.868 85.44 205.26 85.44C201.133 85.44 197.893 86.184 195.54 87.672C193.236 89.208 191.605 91.92 190.645 95.808L188.628 94.944C189.637 90.96 191.484 88.008 194.173 86.088C196.861 84.216 200.557 83.28 205.26 83.28C211.021 83.28 215.077 84.456 217.428 86.808C219.829 89.16 221.029 92.736 221.029 97.536C221.029 99.984 220.044 102.144 218.077 104.016C216.156 105.888 213.781 107.424 210.949 108.624C208.165 109.824 205.38 111 202.596 112.152C199.812 113.304 197.436 114.696 195.469 116.328C193.549 117.96 192.589 119.832 192.589 121.944C192.589 124.344 192.924 126.312 193.596 127.848C194.268 129.384 195.253 130.488 196.549 131.16C197.893 131.88 199.212 132.36 200.508 132.6C201.852 132.84 203.484 132.96 205.404 132.96C208.189 132.96 210.516 132.312 212.389 131.016C214.309 129.72 215.773 127.464 216.781 124.248L209.005 118.416H212.533L219.229 123.456C218.221 127.392 216.589 130.32 214.333 132.24C212.077 134.16 209.1 135.12 205.404 135.12C200.124 135.12 196.309 134.088 193.956 132.024ZM234.46 84V134.4H232.3V84H234.46ZM239.86 110.352L264.052 134.4H260.956L236.764 110.352L263.26 84H266.356L239.86 110.352ZM305.181 134.4H276.021V132.24H301.293L286.101 107.976L269.541 134.4H267.021L285.021 105.6V84H287.181V105.6L305.181 134.4Z" fill="#E93479"/>
</svg>
