<svg width="253" height="112" viewBox="0 0 253 112" fill="none" xmlns="http://www.w3.org/2000/svg">
<path fill-rule="evenodd" clip-rule="evenodd" d="M74.477 48.7376C74.0444 50.0944 72.9693 51.0782 74.636 53.3546C76.1086 51.159 75.1889 50.1823 74.477 48.7376Z" fill="white"/>
<path fill-rule="evenodd" clip-rule="evenodd" d="M81.4692 47.7968C80.5588 49.5639 81.3399 51.3219 82.5715 51.9376C83.0802 50.4919 83.4282 49.3771 81.4692 47.7968Z" fill="white"/>
<path fill-rule="evenodd" clip-rule="evenodd" d="M86.7162 45.2901C88.2743 45.9135 89.0508 46.5561 89.0508 48.35C87.2301 47.9216 86.9356 47.1184 86.7162 45.2901Z" fill="white"/>
<path fill-rule="evenodd" clip-rule="evenodd" d="M90.6663 41.4499C91.0729 42.2315 91.5227 43.6764 93.451 43.8153C93.1938 41.9722 91.4719 41.6178 90.6663 41.4499Z" fill="white"/>
<path fill-rule="evenodd" clip-rule="evenodd" d="M93.1689 37.6694C93.8765 39.0947 94.9147 39.3205 96.2384 39.2303C95.8608 38.1696 94.4693 37.1694 93.1689 37.6694Z" fill="white"/>
<path fill-rule="evenodd" clip-rule="evenodd" d="M94.5639 33.9868C95.7833 35.0039 95.9651 35.1339 97.5555 34.7731C96.7281 33.7972 96.0058 33.5008 94.5639 33.9868Z" fill="white"/>
<path fill-rule="evenodd" clip-rule="evenodd" d="M65.3273 36.3614C65.3273 35.9253 65.6807 35.5719 66.1167 35.5719C66.5527 35.5719 66.9061 35.9253 66.9061 36.3614C66.9061 36.7973 66.5527 37.1507 66.1167 37.1507C65.6807 37.1507 65.3273 36.7973 65.3273 36.3614Z" fill="white"/>
<path fill-rule="evenodd" clip-rule="evenodd" d="M65.2303 34.112C65.2303 33.8852 65.4141 33.7016 65.6408 33.7016C65.8675 33.7016 66.0513 33.8852 66.0513 34.112C66.0513 34.3386 65.8675 34.5225 65.6408 34.5225C65.4141 34.5225 65.2303 34.3386 65.2303 34.112Z" fill="white"/>
<path fill-rule="evenodd" clip-rule="evenodd" d="M65.0989 32.2552C65.0989 32.1418 65.1907 32.0499 65.3041 32.0499C65.4174 32.0499 65.5093 32.1418 65.5093 32.2552C65.5093 32.3684 65.4174 32.4603 65.3041 32.4603C65.1907 32.4603 65.0989 32.3684 65.0989 32.2552Z" fill="white"/>
<path fill-rule="evenodd" clip-rule="evenodd" d="M90.0305 39.9249C90.0305 39.8115 90.1224 39.7196 90.2358 39.7196C90.3491 39.7196 90.441 39.8115 90.441 39.9249C90.441 40.0381 90.3491 40.13 90.2358 40.13C90.1224 40.13 90.0305 40.0381 90.0305 39.9249Z" fill="white"/>
<path fill-rule="evenodd" clip-rule="evenodd" d="M91.0561 35.8378C91.0561 35.4018 91.4095 35.0484 91.8455 35.0484C92.2814 35.0484 92.6349 35.4018 92.6349 35.8378C92.6349 36.2737 92.2814 36.6271 91.8455 36.6271C91.4095 36.6271 91.0561 36.2737 91.0561 35.8378Z" fill="white"/>
<path fill-rule="evenodd" clip-rule="evenodd" d="M90.6601 38.0841C90.6601 37.8574 90.8439 37.6736 91.0706 37.6736C91.2973 37.6736 91.4812 37.8574 91.4812 38.0841C91.4812 38.3108 91.2973 38.4945 91.0706 38.4945C90.8439 38.4945 90.6601 38.3108 90.6601 38.0841Z" fill="white"/>
<path fill-rule="evenodd" clip-rule="evenodd" d="M77.1085 32.6307C77.1085 31.6232 77.9251 30.8065 78.9326 30.8065C79.9401 30.8065 80.7569 31.6232 80.7569 32.6307C80.7569 33.6381 79.9401 34.4549 78.9326 34.4549C77.9251 34.4549 77.1085 33.6381 77.1085 32.6307Z" fill="white"/>
<path fill-rule="evenodd" clip-rule="evenodd" d="M79.365 36.0774C79.365 35.7552 79.6262 35.4938 79.9485 35.4938C80.2709 35.4938 80.5322 35.7552 80.5322 36.0774C80.5322 36.3998 80.2709 36.6611 79.9485 36.6611C79.6262 36.6611 79.365 36.3998 79.365 36.0774Z" fill="white"/>
<path fill-rule="evenodd" clip-rule="evenodd" d="M81.6839 42.011C81.6839 41.8213 81.8378 41.6673 82.0277 41.6673C82.2177 41.6673 82.3716 41.8213 82.3716 42.011C82.3716 42.201 82.2177 42.3549 82.0277 42.3549C81.8378 42.3549 81.6839 42.201 81.6839 42.011Z" fill="white"/>
<path fill-rule="evenodd" clip-rule="evenodd" d="M75.3815 29.1091C74.9731 28.5696 74.4511 28.7463 74.033 28.9512C73.4968 28.4804 73.9977 27.8136 74.088 27.1546C74.9696 27.0579 75.7012 26.72 75.9718 27.4092C75.6282 27.7863 75.1863 28.4057 75.3815 29.1091Z" fill="white"/>
<path fill-rule="evenodd" clip-rule="evenodd" d="M79.6594 27.4725C79.3043 26.8311 78.7885 26.7788 78.0171 26.5139C77.8152 25.7484 78.9242 25.6156 79.3732 25.2275C79.7499 25.6452 80.7587 25.8206 80.5496 26.6522C80 26.8249 79.8599 27.071 79.6594 27.4725Z" fill="white"/>
<path fill-rule="evenodd" clip-rule="evenodd" d="M76.1574 40.9667C75.4629 41.165 75.0914 40.4859 74.3993 40.3992C74.9482 40.0012 74.9082 39.3659 75.6574 39.1896C76.115 39.3619 76.7872 39.6324 76.7872 39.6324C76.7872 39.6324 76.2759 39.6598 76.1574 40.9667Z" fill="white"/>
<path fill-rule="evenodd" clip-rule="evenodd" d="M79.3234 42.5943C79.3234 42.5943 79.2287 43.1815 77.9979 42.9534C77.9128 43.6518 78.1904 43.6212 78.356 44.3529C79.0934 43.9753 79.7502 44.3539 79.8841 43.6818C79.3487 43.1721 79.3234 42.5943 79.3234 42.5943Z" fill="white"/>
<path fill-rule="evenodd" clip-rule="evenodd" d="M97.0055 33.0903C97.0055 32.9865 97.0896 32.9023 97.1934 32.9023C97.2971 32.9023 97.3813 32.9865 97.3813 33.0903C97.3813 33.1941 97.2971 33.2782 97.1934 33.2782C97.0896 33.2782 97.0055 33.1941 97.0055 33.0903Z" fill="white"/>
<path fill-rule="evenodd" clip-rule="evenodd" d="M96.3161 37.112C96.3161 36.9979 96.4085 36.9054 96.5226 36.9054C96.6367 36.9054 96.7292 36.9979 96.7292 37.112C96.7292 37.2261 96.6367 37.3185 96.5226 37.3185C96.4085 37.3185 96.3161 37.2261 96.3161 37.112Z" fill="white"/>
<path fill-rule="evenodd" clip-rule="evenodd" d="M94.5175 41.4252C94.5175 41.2804 94.6349 41.1628 94.7799 41.1628C94.9247 41.1628 95.0422 41.2804 95.0422 41.4252C95.0422 41.5702 94.9247 41.6875 94.7799 41.6875C94.6349 41.6875 94.5175 41.5702 94.5175 41.4252Z" fill="white"/>
<path fill-rule="evenodd" clip-rule="evenodd" d="M91.5181 45.72C91.5181 45.5822 91.63 45.4705 91.7678 45.4705C91.9057 45.4705 92.0174 45.5822 92.0174 45.72C92.0174 45.8579 91.9057 45.9697 91.7678 45.9697C91.63 45.9697 91.5181 45.8579 91.5181 45.72Z" fill="white"/>
<path fill-rule="evenodd" clip-rule="evenodd" d="M85.9241 50.5638C85.9241 50.3875 86.0671 50.2445 86.2434 50.2445C86.4196 50.2445 86.5626 50.3875 86.5626 50.5638C86.5626 50.74 86.4196 50.883 86.2434 50.883C86.0671 50.883 85.9241 50.74 85.9241 50.5638Z" fill="white"/>
<path fill-rule="evenodd" clip-rule="evenodd" d="M78.4828 53.1938C78.4828 53.0129 78.6296 52.8661 78.8105 52.8661C78.9915 52.8661 79.1383 53.0129 79.1383 53.1938C79.1383 53.3749 78.9915 53.5216 78.8105 53.5216C78.6296 53.5216 78.4828 53.3749 78.4828 53.1938Z" fill="white"/>
<path fill-rule="evenodd" clip-rule="evenodd" d="M70.9213 54.1472C70.9213 53.9638 71.0699 53.8152 71.2532 53.8152C71.4365 53.8152 71.5851 53.9638 71.5851 54.1472C71.5851 54.3304 71.4365 54.4791 71.2532 54.4791C71.0699 54.4791 70.9213 54.3304 70.9213 54.1472Z" fill="white"/>
<path fill-rule="evenodd" clip-rule="evenodd" d="M123.512 76.8077C123.13 77.2349 122.982 77.528 122.184 77.7125C122.208 78.6045 122.785 78.5032 123.055 79.1457C123.649 78.5181 124.339 78.9004 124.453 78.316C123.648 77.6815 123.668 77.288 123.512 76.8077Z" fill="white"/>
<path fill-rule="evenodd" clip-rule="evenodd" d="M123.938 83.0258C123.938 83.0258 123.689 83.5504 122.642 83.441C122.392 84.333 122.994 84.2913 123.297 84.9979C123.78 84.6055 124.56 84.809 124.736 84.0725C124.04 83.7214 123.938 83.0258 123.938 83.0258Z" fill="white"/>
<path fill-rule="evenodd" clip-rule="evenodd" d="M123.459 71.5961C123.194 72.0415 122.538 72.0512 121.969 72.1478C121.947 73.46 122.638 73.0729 122.727 73.9537C123.537 73.0507 123.967 73.8975 124.62 72.7187C124.376 72.5232 123.907 72.397 123.459 71.5961Z" fill="white"/>
<path fill-rule="evenodd" clip-rule="evenodd" d="M106.334 91.4709C106.655 91.5808 104.458 96.9636 104.458 96.9636C102.941 96.4456 102.131 94.7962 102.649 93.2793C103.167 91.7625 104.817 90.9529 106.334 91.4709Z" fill="white"/>
<path fill-rule="evenodd" clip-rule="evenodd" d="M96.8487 86.1447C98.4515 86.1447 99.7508 87.444 99.7508 89.0468C99.7508 90.6496 98.4515 91.9489 96.8487 91.9489C95.2459 91.9489 93.9466 90.6496 93.9466 89.0468C93.9466 87.444 95.2459 86.1447 96.8487 86.1447Z" fill="white"/>
<path fill-rule="evenodd" clip-rule="evenodd" d="M112.045 92.5273C110.504 92.9686 109.612 94.5768 110.054 96.1177C110.495 97.6584 112.102 98.5462 113.643 98.1047C113.936 98.0206 114.198 97.8841 114.44 97.7237C113.667 97.3915 113.038 96.7375 112.789 95.866C112.431 94.6189 112.957 93.3417 113.984 92.6609C113.391 92.4058 112.714 92.3356 112.045 92.5273Z" fill="white"/>
<path fill-rule="evenodd" clip-rule="evenodd" d="M87.3633 75.7545C87.9797 77.2339 89.6802 77.934 91.1596 77.3175C92.6391 76.7011 93.3352 75.0023 92.7186 73.5229C92.6011 73.2408 92.4352 72.9965 92.248 72.7749C92.0073 73.5808 91.4305 74.2812 90.5936 74.6299C89.3961 75.1289 88.0666 74.7541 87.2718 73.813C87.087 74.4317 87.0954 75.1119 87.3633 75.7545Z" fill="white"/>
<path fill-rule="evenodd" clip-rule="evenodd" d="M88.8064 81.9285C88.6888 81.6096 94.2515 79.9183 94.2515 79.9183C94.8066 81.4219 94.0377 83.0908 92.5341 83.646C91.0305 84.2011 89.3615 83.4321 88.8064 81.9285Z" fill="white"/>
<path fill-rule="evenodd" clip-rule="evenodd" d="M98.7111 58.8904C98.7111 57.8833 99.5276 57.067 100.535 57.067C101.542 57.067 102.358 57.8833 102.358 58.8904C102.358 59.8975 101.542 60.7139 100.535 60.7139C99.5276 60.7139 98.7111 59.8975 98.7111 58.8904Z" fill="white"/>
<path fill-rule="evenodd" clip-rule="evenodd" d="M106.035 60.4288C106.035 59.9018 106.462 59.4746 106.989 59.4746C107.516 59.4746 107.943 59.9018 107.943 60.4288C107.943 60.9556 107.516 61.3828 106.989 61.3828C106.462 61.3828 106.035 60.9556 106.035 60.4288Z" fill="white"/>
<path fill-rule="evenodd" clip-rule="evenodd" d="M111.51 61.8537C111.51 61.5558 111.752 61.3144 112.05 61.3144C112.348 61.3144 112.589 61.5558 112.589 61.8537C112.589 62.1514 112.348 62.393 112.05 62.393C111.752 62.393 111.51 62.1514 111.51 61.8537Z" fill="white"/>
<path fill-rule="evenodd" clip-rule="evenodd" d="M101.395 48.882C101.395 47.8749 102.211 47.0586 103.218 47.0586C104.225 47.0586 105.042 47.8749 105.042 48.882C105.042 49.8891 104.225 50.7055 103.218 50.7055C102.211 50.7055 101.395 49.8891 101.395 48.882Z" fill="white"/>
<path fill-rule="evenodd" clip-rule="evenodd" d="M107.625 52.5922C107.625 52.0652 108.052 51.6382 108.579 51.6382C109.106 51.6382 109.533 52.0652 109.533 52.5922C109.533 53.1191 109.106 53.5462 108.579 53.5462C108.052 53.5462 107.625 53.1191 107.625 52.5922Z" fill="white"/>
<path fill-rule="evenodd" clip-rule="evenodd" d="M113.003 55.5756C113.003 55.2777 113.244 55.0363 113.542 55.0363C113.84 55.0363 114.081 55.2777 114.081 55.5756C114.081 55.8734 113.84 56.1148 113.542 56.1148C113.244 56.1148 113.003 55.8734 113.003 55.5756Z" fill="white"/>
<path fill-rule="evenodd" clip-rule="evenodd" d="M96.7456 72.4533C96.7456 72.2715 96.8928 72.1241 97.0746 72.1241C97.2564 72.1241 97.4038 72.2715 97.4038 72.4533C97.4038 72.6352 97.2564 72.7824 97.0746 72.7824C96.8928 72.7824 96.7456 72.6352 96.7456 72.4533Z" fill="white"/>
<path fill-rule="evenodd" clip-rule="evenodd" d="M97.9669 78.5507C97.9669 78.369 98.1142 78.2216 98.296 78.2216C98.4778 78.2216 98.6252 78.369 98.6252 78.5507C98.6252 78.7325 98.4778 78.8799 98.296 78.8799C98.1142 78.8799 97.9669 78.7325 97.9669 78.5507Z" fill="white"/>
<path fill-rule="evenodd" clip-rule="evenodd" d="M101.382 83.7325C101.382 83.5507 101.529 83.4034 101.711 83.4034C101.893 83.4034 102.04 83.5507 102.04 83.7325C102.04 83.9143 101.893 84.0615 101.711 84.0615C101.529 84.0615 101.382 83.9143 101.382 83.7325Z" fill="white"/>
<path fill-rule="evenodd" clip-rule="evenodd" d="M107.127 87.0403C107.127 86.8585 107.274 86.7111 107.456 86.7111C107.638 86.7111 107.785 86.8585 107.785 87.0403C107.785 87.2221 107.638 87.3693 107.456 87.3693C107.274 87.3693 107.127 87.2221 107.127 87.0403Z" fill="white"/>
<path fill-rule="evenodd" clip-rule="evenodd" d="M114.16 87.972C114.16 87.7903 114.307 87.6429 114.489 87.6429C114.671 87.6429 114.818 87.7903 114.818 87.972C114.818 88.1538 114.671 88.3012 114.489 88.3012C114.307 88.3012 114.16 88.1538 114.16 87.972Z" fill="white"/>
<path fill-rule="evenodd" clip-rule="evenodd" d="M115.836 69.4286C115.836 69.1482 116.059 68.921 116.334 68.921C116.609 68.921 116.832 69.1482 116.832 69.4286C116.832 69.7089 116.609 69.9362 116.334 69.9362C116.059 69.9362 115.836 69.7089 115.836 69.4286Z" fill="white"/>
<path fill-rule="evenodd" clip-rule="evenodd" d="M84.8009 42.0127C85.5416 42.4878 85.9494 41.4929 86.4992 41.5179C86.1405 41.1273 86.5609 40.7853 86.1755 40.3556C85.2469 41.1399 84.6119 40.8914 84.6119 40.8914C84.6119 40.8914 84.9769 41.2648 84.8009 42.0127Z" fill="white"/>
<path fill-rule="evenodd" clip-rule="evenodd" d="M84.9285 36.968C84.9285 36.968 85.6622 36.4433 85.7104 35.7488C86.3408 35.4854 86.6117 36.0891 87.287 36.2645C86.8278 36.6916 86.7191 37.2668 86.2488 37.5147C85.8932 36.7129 84.9285 36.968 84.9285 36.968Z" fill="white"/>
<path fill-rule="evenodd" clip-rule="evenodd" d="M128.488 76.8077C128.87 77.2349 129.018 77.528 129.816 77.7125C129.792 78.6045 129.215 78.5032 128.945 79.1457C128.351 78.5181 127.571 78.9166 127.457 78.332C128.262 77.6977 128.333 77.288 128.488 76.8077Z" fill="white"/>
<path fill-rule="evenodd" clip-rule="evenodd" d="M128.062 83.0258C128.062 83.0258 128.311 83.5504 129.358 83.441C129.608 84.333 129.005 84.2913 128.703 84.9979C128.22 84.6055 127.44 84.809 127.264 84.0725C127.96 83.7214 128.062 83.0258 128.062 83.0258Z" fill="white"/>
<path fill-rule="evenodd" clip-rule="evenodd" d="M128.541 71.5961C128.806 72.0415 129.462 72.0512 130.031 72.1478C130.053 73.46 129.363 73.0729 129.273 73.9537C128.463 73.0507 128.033 73.8975 127.38 72.7187C127.624 72.5232 128.093 72.397 128.541 71.5961Z" fill="white"/>
<path fill-rule="evenodd" clip-rule="evenodd" d="M177.523 48.7376C177.956 50.0944 179.031 51.0782 177.364 53.3546C175.891 51.159 176.811 50.1823 177.523 48.7376Z" fill="white"/>
<path fill-rule="evenodd" clip-rule="evenodd" d="M170.531 47.7968C171.441 49.5639 170.66 51.3219 169.429 51.9376C168.92 50.4919 168.572 49.3771 170.531 47.7968Z" fill="white"/>
<path fill-rule="evenodd" clip-rule="evenodd" d="M165.284 45.2901C163.726 45.9135 162.949 46.5561 162.949 48.35C164.77 47.9216 165.064 47.1184 165.284 45.2901Z" fill="white"/>
<path fill-rule="evenodd" clip-rule="evenodd" d="M161.334 41.4499C160.927 42.2315 160.477 43.6764 158.549 43.8153C158.806 41.9722 160.528 41.6178 161.334 41.4499Z" fill="white"/>
<path fill-rule="evenodd" clip-rule="evenodd" d="M158.831 37.6694C158.124 39.0947 157.085 39.3205 155.762 39.2303C156.139 38.1696 157.531 37.1694 158.831 37.6694Z" fill="white"/>
<path fill-rule="evenodd" clip-rule="evenodd" d="M157.436 33.9868C156.217 35.0039 156.035 35.1339 154.445 34.7731C155.272 33.7972 155.994 33.5008 157.436 33.9868Z" fill="white"/>
<path fill-rule="evenodd" clip-rule="evenodd" d="M186.673 36.3614C186.673 35.9253 186.319 35.5719 185.883 35.5719C185.447 35.5719 185.094 35.9253 185.094 36.3614C185.094 36.7973 185.447 37.1507 185.883 37.1507C186.319 37.1507 186.673 36.7973 186.673 36.3614Z" fill="white"/>
<path fill-rule="evenodd" clip-rule="evenodd" d="M186.77 34.112C186.77 33.8852 186.586 33.7016 186.359 33.7016C186.133 33.7016 185.949 33.8852 185.949 34.112C185.949 34.3386 186.133 34.5225 186.359 34.5225C186.586 34.5225 186.77 34.3386 186.77 34.112Z" fill="white"/>
<path fill-rule="evenodd" clip-rule="evenodd" d="M186.901 32.2552C186.901 32.1418 186.809 32.0499 186.696 32.0499C186.583 32.0499 186.491 32.1418 186.491 32.2552C186.491 32.3684 186.583 32.4603 186.696 32.4603C186.809 32.4603 186.901 32.3684 186.901 32.2552Z" fill="white"/>
<path fill-rule="evenodd" clip-rule="evenodd" d="M161.969 39.9249C161.969 39.8115 161.878 39.7196 161.764 39.7196C161.651 39.7196 161.559 39.8115 161.559 39.9249C161.559 40.0381 161.651 40.13 161.764 40.13C161.878 40.13 161.969 40.0381 161.969 39.9249Z" fill="white"/>
<path fill-rule="evenodd" clip-rule="evenodd" d="M160.944 35.8378C160.944 35.4018 160.59 35.0484 160.155 35.0484C159.719 35.0484 159.365 35.4018 159.365 35.8378C159.365 36.2737 159.719 36.6271 160.155 36.6271C160.59 36.6271 160.944 36.2737 160.944 35.8378Z" fill="white"/>
<path fill-rule="evenodd" clip-rule="evenodd" d="M161.34 38.0841C161.34 37.8574 161.156 37.6736 160.929 37.6736C160.703 37.6736 160.519 37.8574 160.519 38.0841C160.519 38.3108 160.703 38.4945 160.929 38.4945C161.156 38.4945 161.34 38.3108 161.34 38.0841Z" fill="white"/>
<path fill-rule="evenodd" clip-rule="evenodd" d="M174.892 32.6307C174.892 31.6232 174.075 30.8065 173.067 30.8065C172.06 30.8065 171.243 31.6232 171.243 32.6307C171.243 33.6381 172.06 34.4549 173.067 34.4549C174.075 34.4549 174.892 33.6381 174.892 32.6307Z" fill="white"/>
<path fill-rule="evenodd" clip-rule="evenodd" d="M172.635 36.0774C172.635 35.7552 172.374 35.4938 172.052 35.4938C171.729 35.4938 171.468 35.7552 171.468 36.0774C171.468 36.3998 171.729 36.6611 172.052 36.6611C172.374 36.6611 172.635 36.3998 172.635 36.0774Z" fill="white"/>
<path fill-rule="evenodd" clip-rule="evenodd" d="M170.316 42.011C170.316 41.8213 170.162 41.6673 169.972 41.6673C169.782 41.6673 169.628 41.8213 169.628 42.011C169.628 42.201 169.782 42.3549 169.972 42.3549C170.162 42.3549 170.316 42.201 170.316 42.011Z" fill="white"/>
<path fill-rule="evenodd" clip-rule="evenodd" d="M175.843 40.9667C176.537 41.165 176.909 40.4859 177.601 40.3992C177.052 40.0012 177.092 39.3659 176.343 39.1896C175.885 39.3619 175.213 39.6324 175.213 39.6324C175.213 39.6324 175.724 39.6598 175.843 40.9667Z" fill="white"/>
<path fill-rule="evenodd" clip-rule="evenodd" d="M172.677 42.5943C172.677 42.5943 172.771 43.1815 174.002 42.9534C174.087 43.6518 173.809 43.6212 173.644 44.3529C172.907 43.9753 172.25 44.3539 172.116 43.6818C172.651 43.1721 172.677 42.5943 172.677 42.5943Z" fill="white"/>
<path fill-rule="evenodd" clip-rule="evenodd" d="M167.199 42.0127C166.458 42.4878 166.05 41.4929 165.501 41.5179C165.86 41.1273 165.439 40.7853 165.824 40.3556C166.753 41.1399 167.388 40.8914 167.388 40.8914C167.388 40.8914 167.023 41.2648 167.199 42.0127Z" fill="white"/>
<path fill-rule="evenodd" clip-rule="evenodd" d="M167.072 36.968C167.072 36.968 166.338 36.4433 166.289 35.7488C165.659 35.4854 165.388 36.0891 164.713 36.2645C165.172 36.6916 165.281 37.2668 165.751 37.5147C166.107 36.7129 167.072 36.968 167.072 36.968Z" fill="white"/>
<path fill-rule="evenodd" clip-rule="evenodd" d="M154.995 33.0903C154.995 32.9865 154.91 32.9023 154.807 32.9023C154.703 32.9023 154.619 32.9865 154.619 33.0903C154.619 33.1941 154.703 33.2782 154.807 33.2782C154.91 33.2782 154.995 33.1941 154.995 33.0903Z" fill="white"/>
<path fill-rule="evenodd" clip-rule="evenodd" d="M155.684 37.112C155.684 36.9979 155.591 36.9054 155.477 36.9054C155.363 36.9054 155.271 36.9979 155.271 37.112C155.271 37.2261 155.363 37.3185 155.477 37.3185C155.591 37.3185 155.684 37.2261 155.684 37.112Z" fill="white"/>
<path fill-rule="evenodd" clip-rule="evenodd" d="M157.483 41.4252C157.483 41.2804 157.365 41.1628 157.22 41.1628C157.075 41.1628 156.958 41.2804 156.958 41.4252C156.958 41.5702 157.075 41.6875 157.22 41.6875C157.365 41.6875 157.483 41.5702 157.483 41.4252Z" fill="white"/>
<path fill-rule="evenodd" clip-rule="evenodd" d="M160.482 45.72C160.482 45.5822 160.37 45.4705 160.232 45.4705C160.094 45.4705 159.983 45.5822 159.983 45.72C159.983 45.8579 160.094 45.9697 160.232 45.9697C160.37 45.9697 160.482 45.8579 160.482 45.72Z" fill="white"/>
<path fill-rule="evenodd" clip-rule="evenodd" d="M166.076 50.5638C166.076 50.3875 165.933 50.2445 165.757 50.2445C165.58 50.2445 165.437 50.3875 165.437 50.5638C165.437 50.74 165.58 50.883 165.757 50.883C165.933 50.883 166.076 50.74 166.076 50.5638Z" fill="white"/>
<path fill-rule="evenodd" clip-rule="evenodd" d="M173.517 53.1938C173.517 53.0129 173.37 52.8661 173.19 52.8661C173.008 52.8661 172.862 53.0129 172.862 53.1938C172.862 53.3749 173.008 53.5216 173.19 53.5216C173.37 53.5216 173.517 53.3749 173.517 53.1938Z" fill="white"/>
<path fill-rule="evenodd" clip-rule="evenodd" d="M181.079 54.1472C181.079 53.9638 180.93 53.8152 180.747 53.8152C180.563 53.8152 180.415 53.9638 180.415 54.1472C180.415 54.3304 180.563 54.4791 180.747 54.4791C180.93 54.4791 181.079 54.3304 181.079 54.1472Z" fill="white"/>
<path fill-rule="evenodd" clip-rule="evenodd" d="M145.666 91.4709C145.345 91.5808 147.542 96.9636 147.542 96.9636C149.059 96.4456 149.869 94.7962 149.351 93.2793C148.833 91.7625 147.183 90.9529 145.666 91.4709Z" fill="white"/>
<path fill-rule="evenodd" clip-rule="evenodd" d="M155.151 86.1447C153.548 86.1447 152.249 87.444 152.249 89.0468C152.249 90.6496 153.548 91.9489 155.151 91.9489C156.754 91.9489 158.053 90.6496 158.053 89.0468C158.053 87.444 156.754 86.1447 155.151 86.1447Z" fill="white"/>
<path fill-rule="evenodd" clip-rule="evenodd" d="M139.955 92.5273C141.496 92.9686 142.388 94.5768 141.947 96.1177C141.505 97.6584 139.898 98.5462 138.357 98.1047C138.064 98.0206 137.802 97.8841 137.56 97.7237C138.333 97.3915 138.962 96.7375 139.211 95.866C139.569 94.6189 139.043 93.3417 138.016 92.6609C138.609 92.4058 139.286 92.3356 139.955 92.5273Z" fill="white"/>
<path fill-rule="evenodd" clip-rule="evenodd" d="M164.637 75.7545C164.02 77.2339 162.32 77.934 160.84 77.3175C159.361 76.7011 158.665 75.0023 159.281 73.5229C159.399 73.2408 159.565 72.9965 159.752 72.7749C159.993 73.5808 160.57 74.2812 161.406 74.6299C162.604 75.1289 163.933 74.7541 164.728 73.813C164.913 74.4317 164.905 75.1119 164.637 75.7545Z" fill="white"/>
<path fill-rule="evenodd" clip-rule="evenodd" d="M163.193 81.9285C163.311 81.6096 157.749 79.9183 157.749 79.9183C157.193 81.4219 157.962 83.0908 159.466 83.646C160.969 84.2011 162.638 83.4321 163.193 81.9285Z" fill="white"/>
<path fill-rule="evenodd" clip-rule="evenodd" d="M153.289 58.8904C153.289 57.8833 152.472 57.067 151.465 57.067C150.458 57.067 149.642 57.8833 149.642 58.8904C149.642 59.8975 150.458 60.7139 151.465 60.7139C152.472 60.7139 153.289 59.8975 153.289 58.8904Z" fill="white"/>
<path fill-rule="evenodd" clip-rule="evenodd" d="M145.965 60.4288C145.965 59.9018 145.538 59.4746 145.011 59.4746C144.484 59.4746 144.057 59.9018 144.057 60.4288C144.057 60.9556 144.484 61.3828 145.011 61.3828C145.538 61.3828 145.965 60.9556 145.965 60.4288Z" fill="white"/>
<path fill-rule="evenodd" clip-rule="evenodd" d="M140.49 61.8537C140.49 61.5558 140.248 61.3144 139.95 61.3144C139.652 61.3144 139.411 61.5558 139.411 61.8537C139.411 62.1514 139.652 62.393 139.95 62.393C140.248 62.393 140.49 62.1514 140.49 61.8537Z" fill="white"/>
<path fill-rule="evenodd" clip-rule="evenodd" d="M150.605 48.882C150.605 47.8749 149.789 47.0586 148.782 47.0586C147.775 47.0586 146.958 47.8749 146.958 48.882C146.958 49.8891 147.775 50.7055 148.782 50.7055C149.789 50.7055 150.605 49.8891 150.605 48.882Z" fill="white"/>
<path fill-rule="evenodd" clip-rule="evenodd" d="M144.375 52.5922C144.375 52.0652 143.948 51.6382 143.421 51.6382C142.894 51.6382 142.467 52.0652 142.467 52.5922C142.467 53.1191 142.894 53.5462 143.421 53.5462C143.948 53.5462 144.375 53.1191 144.375 52.5922Z" fill="white"/>
<path fill-rule="evenodd" clip-rule="evenodd" d="M138.997 55.5756C138.997 55.2777 138.756 55.0363 138.458 55.0363C138.16 55.0363 137.919 55.2777 137.919 55.5756C137.919 55.8734 138.16 56.1148 138.458 56.1148C138.756 56.1148 138.997 55.8734 138.997 55.5756Z" fill="white"/>
<path fill-rule="evenodd" clip-rule="evenodd" d="M155.254 72.4533C155.254 72.2715 155.107 72.1241 154.925 72.1241C154.744 72.1241 154.596 72.2715 154.596 72.4533C154.596 72.6352 154.744 72.7824 154.925 72.7824C155.107 72.7824 155.254 72.6352 155.254 72.4533Z" fill="white"/>
<path fill-rule="evenodd" clip-rule="evenodd" d="M150.618 83.7325C150.618 83.5507 150.471 83.4034 150.289 83.4034C150.107 83.4034 149.96 83.5507 149.96 83.7325C149.96 83.9143 150.107 84.0615 150.289 84.0615C150.471 84.0615 150.618 83.9143 150.618 83.7325Z" fill="white"/>
<path fill-rule="evenodd" clip-rule="evenodd" d="M144.873 87.0403C144.873 86.8585 144.726 86.7111 144.544 86.7111C144.362 86.7111 144.215 86.8585 144.215 87.0403C144.215 87.2221 144.362 87.3693 144.544 87.3693C144.726 87.3693 144.873 87.2221 144.873 87.0403Z" fill="white"/>
<path fill-rule="evenodd" clip-rule="evenodd" d="M137.84 87.972C137.84 87.7903 137.693 87.6429 137.511 87.6429C137.329 87.6429 137.182 87.7903 137.182 87.972C137.182 88.1538 137.329 88.3012 137.511 88.3012C137.693 88.3012 137.84 88.1538 137.84 87.972Z" fill="white"/>
<path fill-rule="evenodd" clip-rule="evenodd" d="M136.164 69.4286C136.164 69.1482 135.941 68.921 135.666 68.921C135.391 68.921 135.168 69.1482 135.168 69.4286C135.168 69.7089 135.391 69.9362 135.666 69.9362C135.941 69.9362 136.164 69.7089 136.164 69.4286Z" fill="white"/>
<path fill-rule="evenodd" clip-rule="evenodd" d="M176.618 29.1091C177.027 28.5696 177.549 28.7463 177.967 28.9512C178.503 28.4804 178.002 27.8136 177.912 27.1546C177.03 27.0579 176.299 26.72 176.028 27.4092C176.372 27.7863 176.814 28.4057 176.618 29.1091Z" fill="white"/>
<path fill-rule="evenodd" clip-rule="evenodd" d="M172.341 27.4725C172.696 26.8311 173.211 26.7788 173.983 26.5139C174.185 25.7484 173.076 25.6156 172.627 25.2275C172.25 25.6452 171.241 25.8206 171.45 26.6522C172 26.8249 172.14 27.071 172.341 27.4725Z" fill="white"/>
<path fill-rule="evenodd" clip-rule="evenodd" d="M69.0811 40.0751C69.0811 39.9894 69.1506 39.92 69.2362 39.92C69.3218 39.92 69.3913 39.9894 69.3913 40.0751C69.3913 40.1606 69.3218 40.23 69.2362 40.23C69.1506 40.23 69.0811 40.1606 69.0811 40.0751Z" fill="white"/>
<path fill-rule="evenodd" clip-rule="evenodd" d="M72.1585 43.2059C72.1585 43.117 72.2305 43.045 72.3194 43.045C72.4083 43.045 72.4804 43.117 72.4804 43.2059C72.4804 43.295 72.4083 43.367 72.3194 43.367C72.2305 43.367 72.1585 43.295 72.1585 43.2059Z" fill="white"/>
<path fill-rule="evenodd" clip-rule="evenodd" d="M75.3311 47.5655C75.3311 47.4799 75.4006 47.4104 75.4862 47.4104C75.5719 47.4104 75.6413 47.4799 75.6413 47.5655C75.6413 47.6512 75.5719 47.7206 75.4862 47.7206C75.4006 47.7206 75.3311 47.6512 75.3311 47.5655Z" fill="white"/>
<path fill-rule="evenodd" clip-rule="evenodd" d="M90.7778 32.7768C90.7778 32.6953 90.8441 32.629 90.9257 32.629C91.0074 32.629 91.0736 32.6953 91.0736 32.7768C91.0736 32.8585 91.0074 32.9248 90.9257 32.9248C90.8441 32.9248 90.7778 32.8585 90.7778 32.7768Z" fill="white"/>
<path fill-rule="evenodd" clip-rule="evenodd" d="M90.2981 28.7591C90.2981 28.6796 90.3625 28.6151 90.442 28.6151C90.5216 28.6151 90.586 28.6796 90.586 28.7591C90.586 28.8386 90.5216 28.9031 90.442 28.9031C90.3625 28.9031 90.2981 28.8386 90.2981 28.7591Z" fill="white"/>
<path fill-rule="evenodd" clip-rule="evenodd" d="M90.1171 25.4533C90.1171 25.3735 90.1817 25.3089 90.2615 25.3089C90.3412 25.3089 90.4059 25.3735 90.4059 25.4533C90.4059 25.533 90.3412 25.5977 90.2615 25.5977C90.1817 25.5977 90.1171 25.533 90.1171 25.4533Z" fill="white"/>
<path fill-rule="evenodd" clip-rule="evenodd" d="M182.919 40.0751C182.919 39.9894 182.849 39.92 182.764 39.92C182.678 39.92 182.609 39.9894 182.609 40.0751C182.609 40.1606 182.678 40.23 182.764 40.23C182.849 40.23 182.919 40.1606 182.919 40.0751Z" fill="white"/>
<path fill-rule="evenodd" clip-rule="evenodd" d="M179.842 43.2059C179.842 43.117 179.769 43.045 179.681 43.045C179.592 43.045 179.519 43.117 179.519 43.2059C179.519 43.295 179.592 43.367 179.681 43.367C179.769 43.367 179.842 43.295 179.842 43.2059Z" fill="white"/>
<path fill-rule="evenodd" clip-rule="evenodd" d="M161.222 32.7768C161.222 32.6953 161.156 32.629 161.074 32.629C160.993 32.629 160.926 32.6953 160.926 32.7768C160.926 32.8585 160.993 32.9248 161.074 32.9248C161.156 32.9248 161.222 32.8585 161.222 32.7768Z" fill="white"/>
<path fill-rule="evenodd" clip-rule="evenodd" d="M161.702 28.7591C161.702 28.6796 161.638 28.6151 161.558 28.6151C161.478 28.6151 161.414 28.6796 161.414 28.7591C161.414 28.8386 161.478 28.9031 161.558 28.9031C161.638 28.9031 161.702 28.8386 161.702 28.7591Z" fill="white"/>
<path fill-rule="evenodd" clip-rule="evenodd" d="M161.883 25.4533C161.883 25.3735 161.818 25.3089 161.739 25.3089C161.659 25.3089 161.594 25.3735 161.594 25.4533C161.594 25.533 161.659 25.5977 161.739 25.5977C161.818 25.5977 161.883 25.533 161.883 25.4533Z" fill="white"/>
<path fill-rule="evenodd" clip-rule="evenodd" d="M115.346 17.7202C114.603 19.2687 114.177 20.9958 114.177 22.8283C114.177 29.3663 119.478 34.6676 126.016 34.6676C132.554 34.6676 137.851 29.3663 137.851 22.8283C137.851 21.1655 137.505 19.5871 136.886 18.1514C136.945 18.6105 136.988 19.0722 136.988 19.5473C136.988 25.5682 132.108 30.4529 126.087 30.4529C120.066 30.4529 115.182 25.5682 115.182 19.5473C115.182 18.9229 115.245 18.316 115.346 17.7202Z" fill="white"/>
<path fill-rule="evenodd" clip-rule="evenodd" d="M121.307 87.8236C122.009 87.5113 121.307 87.8236 122.009 87.5113Z" fill="white"/>
<path fill-rule="evenodd" clip-rule="evenodd" d="M124.439 90.5621L124.883 89.8058Z" fill="white"/>
<path fill-rule="evenodd" clip-rule="evenodd" d="M126.022 91.8161L126.019 89.5211Z" fill="white"/>
<path fill-rule="evenodd" clip-rule="evenodd" d="M118.397 81.3629L119.298 81.2206Z" fill="white"/>
<path fill-rule="evenodd" clip-rule="evenodd" d="M117.998 73.9537L118.843 74.153Z" fill="white"/>
<path fill-rule="evenodd" clip-rule="evenodd" d="M120.628 62.5218C120.118 63.0223 120.628 62.5218 120.105 63.0355Z" fill="white"/>
<path fill-rule="evenodd" clip-rule="evenodd" d="M122.295 63.8643C121.802 64.9724 122.324 63.8246 121.802 64.9724Z" fill="white"/>
<path fill-rule="evenodd" clip-rule="evenodd" d="M124.087 64.3865C123.72 66.6897 124.084 64.4087 123.72 66.6897Z" fill="white"/>
<path fill-rule="evenodd" clip-rule="evenodd" d="M126.039 64.4654C126.042 67.9711 126.048 64.4654 126.034 67.9711Z" fill="white"/>
<path fill-rule="evenodd" clip-rule="evenodd" d="M111.099 35.5435C110.602 35.5711 110.337 34.6025 110.756 34.09Z" fill="white"/>
<path fill-rule="evenodd" clip-rule="evenodd" d="M110.785 37.3858C110.296 37.2524 109.938 36.7472 109.916 36.0296Z" fill="white"/>
<path fill-rule="evenodd" clip-rule="evenodd" d="M110.754 39.202C109.937 39.0632 109.604 38.241 109.662 37.7162Z" fill="white"/>
<path fill-rule="evenodd" clip-rule="evenodd" d="M111.365 41.394C110.503 41.4417 109.826 41.1823 109.644 40.1045Z" fill="white"/>
<path fill-rule="evenodd" clip-rule="evenodd" d="M112.619 43.674C112.159 44.2042 110.794 44.0141 110.241 42.8487Z" fill="white"/>
<path fill-rule="evenodd" clip-rule="evenodd" d="M114.474 45.6913C113.882 46.3891 112.201 46.2794 111.395 44.9885Z" fill="white"/>
<path fill-rule="evenodd" clip-rule="evenodd" d="M116.832 47.6436C116.191 48.6045 114.149 48.2234 113.362 47.7461Z" fill="white"/>
<path fill-rule="evenodd" clip-rule="evenodd" d="M114.96 49.5951C115.965 50.8833 118.389 50.2265 119.407 49.5611Z" fill="white"/>
<path fill-rule="evenodd" clip-rule="evenodd" d="M117.171 51.5776C118.212 52.3798 120.459 52.0342 121.469 51.2397Z" fill="white"/>
<path fill-rule="evenodd" clip-rule="evenodd" d="M118.997 53.2948C120.751 54.0621 122.085 53.2217 122.645 52.6107Z" fill="white"/>
<path fill-rule="evenodd" clip-rule="evenodd" d="M111.141 35.8132C111.564 36.004 112.023 35.7789 112.34 35.3315Z" fill="white"/>
<path fill-rule="evenodd" clip-rule="evenodd" d="M110.836 37.8129C111.444 37.8752 111.975 37.5924 112.146 37.2727Z" fill="white"/>
<path fill-rule="evenodd" clip-rule="evenodd" d="M110.992 40.2242C112.021 40.0738 112.292 39.5107 112.384 39.1179Z" fill="white"/>
<path fill-rule="evenodd" clip-rule="evenodd" d="M111.882 42.1781C112.649 41.8422 113.086 41.4203 112.949 40.3519Z" fill="white"/>
<path fill-rule="evenodd" clip-rule="evenodd" d="M113.462 44.6568C113.462 44.6815 114.832 43.9776 114.172 42.304Z" fill="white"/>
<path fill-rule="evenodd" clip-rule="evenodd" d="M115.577 46.5728C116.805 45.841 116.398 44.1622 116.074 43.667Z" fill="white"/>
<path fill-rule="evenodd" clip-rule="evenodd" d="M117.967 48.4524C118.443 47.83 119.125 46.5718 118.212 45.1651Z" fill="white"/>
<path fill-rule="evenodd" clip-rule="evenodd" d="M120.217 50.1882C121.062 48.5631 120.805 47.9492 120.295 46.8276Z" fill="white"/>
<path fill-rule="evenodd" clip-rule="evenodd" d="M122.226 51.9742C122.813 51.779 122.998 49.6833 122.268 48.9284Z" fill="white"/>
<path fill-rule="evenodd" clip-rule="evenodd" d="M73.6587 61.4919L81.0312 61.5529Z" fill="white"/>
<path fill-rule="evenodd" clip-rule="evenodd" d="M72.1026 56.5493L84.0259 56.5852Z" fill="white"/>
<path fill-rule="evenodd" clip-rule="evenodd" d="M87.8835 56.665L93.451 56.7448Z" fill="white"/>
<path fill-rule="evenodd" clip-rule="evenodd" d="M85.6946 52.8525L95.3919 52.7648Z" fill="white"/>
<path fill-rule="evenodd" clip-rule="evenodd" d="M91.8902 50.261L96.7992 50.3755Z" fill="white"/>
<path fill-rule="evenodd" clip-rule="evenodd" d="M93.4851 46.7306L95.0711 46.8532Z" fill="white"/>
<path fill-rule="evenodd" clip-rule="evenodd" d="M96.4481 46.8834L98.691 46.9657Z" fill="white"/>
<path fill-rule="evenodd" clip-rule="evenodd" d="M85.2306 61.547L87.3131 61.5508Z" fill="white"/>
<path fill-rule="evenodd" clip-rule="evenodd" d="M89.597 61.6547L96.3752 61.5898Z" fill="white"/>
<path fill-rule="evenodd" clip-rule="evenodd" d="M79.8942 66.7084L88.6943 66.7501Z" fill="white"/>
<path fill-rule="evenodd" clip-rule="evenodd" d="M91.5278 66.6897L98.3889 66.7575Z" fill="white"/>
<path fill-rule="evenodd" clip-rule="evenodd" d="M95.5316 43.8131L98.3166 43.9834Z" fill="white"/>
<path fill-rule="evenodd" clip-rule="evenodd" d="M100.183 44.0467H101.642Z" fill="white"/>
<path fill-rule="evenodd" clip-rule="evenodd" d="M96.4551 42.0402L105.132 42.0051Z" fill="white"/>
<path fill-rule="evenodd" clip-rule="evenodd" d="M97.1153 40.438L104.644 40.2637Z" fill="white"/>
<path fill-rule="evenodd" clip-rule="evenodd" d="M97.5579 39.0769L103.435 38.9222Z" fill="white"/>
<path fill-rule="evenodd" clip-rule="evenodd" d="M97.9413 37.5254L101.059 37.3267Z" fill="white"/>
<path fill-rule="evenodd" clip-rule="evenodd" d="M101.078 36.2874L98.1261 36.5056Z" fill="white"/>
<path fill-rule="evenodd" clip-rule="evenodd" d="M98.2906 35.1796L99.9798 35.0592Z" fill="white"/>
<path fill-rule="evenodd" clip-rule="evenodd" d="M75.7305 31.019L74.5043 30.3689Z" fill="white"/>
<path fill-rule="evenodd" clip-rule="evenodd" d="M77.9486 29.5219L77.3782 27.821Z" fill="white"/>
<path fill-rule="evenodd" clip-rule="evenodd" d="M80.3335 29.4737L81.2157 27.9806Z" fill="white"/>
<path fill-rule="evenodd" clip-rule="evenodd" d="M71.1177 29.0333L68.6037 27.9099Z" fill="white"/>
<path fill-rule="evenodd" clip-rule="evenodd" d="M73.438 25.6348L69.8452 21.6774Z" fill="white"/>
<path fill-rule="evenodd" clip-rule="evenodd" d="M76.7335 23.9114L74.5234 16.5992Z" fill="white"/>
<path fill-rule="evenodd" clip-rule="evenodd" d="M80.8604 23.9528L81.4934 18.9371Z" fill="white"/>
<path fill-rule="evenodd" clip-rule="evenodd" d="M84.5867 26.1978L86.2215 23.9807Z" fill="white"/>
<path fill-rule="evenodd" clip-rule="evenodd" d="M67.5836 23.8214L69.4115 25.1285Z" fill="white"/>
<path fill-rule="evenodd" clip-rule="evenodd" d="M71.5139 18.1223L72.8709 20.5184Z" fill="white"/>
<path fill-rule="evenodd" clip-rule="evenodd" d="M78.141 18.9907L78.0437 16.4557Z" fill="white"/>
<path fill-rule="evenodd" clip-rule="evenodd" d="M83.8934 22.0715L84.5633 20.6276Z" fill="white"/>
<path fill-rule="evenodd" clip-rule="evenodd" d="M82.0003 39.2717L84.4411 38.9788Z" fill="white"/>
<path fill-rule="evenodd" clip-rule="evenodd" d="M80.4796 39.7718L78.176 41.2485Z" fill="white"/>
<path fill-rule="evenodd" clip-rule="evenodd" d="M70.6799 48.4702L70.5961 49.4895Z" fill="white"/>
<path fill-rule="evenodd" clip-rule="evenodd" d="M78.0033 48.4883L78.1647 49.362Z" fill="white"/>
<path fill-rule="evenodd" clip-rule="evenodd" d="M84.2909 46.5416L84.7772 47.4181Z" fill="white"/>
<path fill-rule="evenodd" clip-rule="evenodd" d="M89.0486 43.1951L89.6079 43.7215Z" fill="white"/>
<path fill-rule="evenodd" clip-rule="evenodd" d="M92 39.6264L92.6235 40.0481Z" fill="white"/>
<path fill-rule="evenodd" clip-rule="evenodd" d="M93.9261 35.8521L94.3871 36.0595Z" fill="white"/>
<path fill-rule="evenodd" clip-rule="evenodd" d="M94.9405 32.2334L95.3447 32.32Z" fill="white"/>
<path fill-rule="evenodd" clip-rule="evenodd" d="M92.9492 29.9883L95.2055 29.8392Z" fill="white"/>
<path fill-rule="evenodd" clip-rule="evenodd" d="M93.683 32.8015L95.0614 31.2448Z" fill="white"/>
<path fill-rule="evenodd" clip-rule="evenodd" d="M92.2278 27.4429L93.7409 28.0852Z" fill="white"/>
<path fill-rule="evenodd" clip-rule="evenodd" d="M66.0928 41.4324L65.1066 44.5593Z" fill="white"/>
<path fill-rule="evenodd" clip-rule="evenodd" d="M65.8508 47.4075L67.9406 45.0791Z" fill="white"/>
<path fill-rule="evenodd" clip-rule="evenodd" d="M68.15 47.9024L71.2192 47.0448Z" fill="white"/>
<path fill-rule="evenodd" clip-rule="evenodd" d="M126.029 69.7476L126.039 71.8567Z" fill="white"/>
<path fill-rule="evenodd" clip-rule="evenodd" d="M126.028 75.107V77.4611Z" fill="white"/>
<path fill-rule="evenodd" clip-rule="evenodd" d="M124.158 81.5915L122.802 82.3511Z" fill="white"/>
<path fill-rule="evenodd" clip-rule="evenodd" d="M124.003 75.1695L121.802 76.2841Z" fill="white"/>
<path fill-rule="evenodd" clip-rule="evenodd" d="M123.372 69.678L121.802 70.9129Z" fill="white"/>
<path fill-rule="evenodd" clip-rule="evenodd" d="M130.693 87.8236C129.991 87.5113 130.693 87.8236 129.991 87.5113Z" fill="white"/>
<path fill-rule="evenodd" clip-rule="evenodd" d="M127.276 90.5621L126.833 89.8058Z" fill="white"/>
<path fill-rule="evenodd" clip-rule="evenodd" d="M133.603 81.3629L132.702 81.2206Z" fill="white"/>
<path fill-rule="evenodd" clip-rule="evenodd" d="M134.002 73.9537L133.157 74.153Z" fill="white"/>
<path fill-rule="evenodd" clip-rule="evenodd" d="M131.372 62.5218C131.882 63.0223 131.372 62.5218 131.895 63.0355Z" fill="white"/>
<path fill-rule="evenodd" clip-rule="evenodd" d="M129.705 63.8643C130.198 64.9724 129.676 63.8246 130.198 64.9724Z" fill="white"/>
<path fill-rule="evenodd" clip-rule="evenodd" d="M127.913 64.3865C128.28 66.6897 127.916 64.4087 128.28 66.6897Z" fill="white"/>
<path fill-rule="evenodd" clip-rule="evenodd" d="M140.901 35.5435C141.398 35.5711 141.663 34.6025 141.244 34.09Z" fill="white"/>
<path fill-rule="evenodd" clip-rule="evenodd" d="M141.215 37.3858C141.704 37.2524 142.062 36.7472 142.084 36.0296Z" fill="white"/>
<path fill-rule="evenodd" clip-rule="evenodd" d="M141.246 39.202C142.063 39.0632 142.396 38.241 142.338 37.7162Z" fill="white"/>
<path fill-rule="evenodd" clip-rule="evenodd" d="M140.635 41.394C141.497 41.4417 142.174 41.1823 142.356 40.1045Z" fill="white"/>
<path fill-rule="evenodd" clip-rule="evenodd" d="M139.381 43.674C139.841 44.2042 141.205 44.0141 141.759 42.8487Z" fill="white"/>
<path fill-rule="evenodd" clip-rule="evenodd" d="M137.526 45.6913C138.118 46.3891 139.799 46.2794 140.605 44.9885Z" fill="white"/>
<path fill-rule="evenodd" clip-rule="evenodd" d="M135.168 47.6436C135.808 48.6045 137.851 48.2234 138.638 47.7461Z" fill="white"/>
<path fill-rule="evenodd" clip-rule="evenodd" d="M137.04 49.5951C136.035 50.8833 133.611 50.2265 132.593 49.5611Z" fill="white"/>
<path fill-rule="evenodd" clip-rule="evenodd" d="M134.83 51.5776C133.788 52.3798 131.541 52.0342 130.531 51.2397Z" fill="white"/>
<path fill-rule="evenodd" clip-rule="evenodd" d="M133.003 53.2948C131.249 54.0621 129.915 53.2217 129.355 52.6107Z" fill="white"/>
<path fill-rule="evenodd" clip-rule="evenodd" d="M140.859 35.8132C140.436 36.004 139.977 35.7789 139.66 35.3315Z" fill="white"/>
<path fill-rule="evenodd" clip-rule="evenodd" d="M141.164 37.8129C140.556 37.8752 140.025 37.5924 139.854 37.2727Z" fill="white"/>
<path fill-rule="evenodd" clip-rule="evenodd" d="M141.008 40.2242C139.979 40.0738 139.708 39.5107 139.616 39.1179Z" fill="white"/>
<path fill-rule="evenodd" clip-rule="evenodd" d="M140.118 42.1781C139.351 41.8422 138.914 41.4203 139.051 40.3519Z" fill="white"/>
<path fill-rule="evenodd" clip-rule="evenodd" d="M138.538 44.6568C138.538 44.6815 137.168 43.9776 137.828 42.304Z" fill="white"/>
<path fill-rule="evenodd" clip-rule="evenodd" d="M136.423 46.5728C135.195 45.841 135.602 44.1622 135.926 43.667Z" fill="white"/>
<path fill-rule="evenodd" clip-rule="evenodd" d="M134.033 48.4524C133.558 47.83 132.875 46.5718 133.788 45.1651Z" fill="white"/>
<path fill-rule="evenodd" clip-rule="evenodd" d="M131.783 50.1882C130.938 48.5631 131.196 47.9492 131.706 46.8276Z" fill="white"/>
<path fill-rule="evenodd" clip-rule="evenodd" d="M129.774 51.9742C129.187 51.779 129.002 49.6833 129.732 48.9284Z" fill="white"/>
<path fill-rule="evenodd" clip-rule="evenodd" d="M178.341 61.4919L170.969 61.5529Z" fill="white"/>
<path fill-rule="evenodd" clip-rule="evenodd" d="M179.897 56.5493L167.974 56.5852Z" fill="white"/>
<path fill-rule="evenodd" clip-rule="evenodd" d="M164.117 56.665L158.549 56.7448Z" fill="white"/>
<path fill-rule="evenodd" clip-rule="evenodd" d="M166.305 52.8525L156.608 52.7648Z" fill="white"/>
<path fill-rule="evenodd" clip-rule="evenodd" d="M160.11 50.261L155.201 50.3755Z" fill="white"/>
<path fill-rule="evenodd" clip-rule="evenodd" d="M158.515 46.7306L156.929 46.8532Z" fill="white"/>
<path fill-rule="evenodd" clip-rule="evenodd" d="M155.552 46.8834L153.309 46.9657Z" fill="white"/>
<path fill-rule="evenodd" clip-rule="evenodd" d="M166.769 61.547L164.687 61.5508Z" fill="white"/>
<path fill-rule="evenodd" clip-rule="evenodd" d="M162.403 61.6547L155.625 61.5898Z" fill="white"/>
<path fill-rule="evenodd" clip-rule="evenodd" d="M172.106 66.7084L163.306 66.7501Z" fill="white"/>
<path fill-rule="evenodd" clip-rule="evenodd" d="M160.472 66.6897L153.611 66.7575Z" fill="white"/>
<path fill-rule="evenodd" clip-rule="evenodd" d="M156.468 43.8131L153.683 43.9834Z" fill="white"/>
<path fill-rule="evenodd" clip-rule="evenodd" d="M151.817 44.0467H150.358Z" fill="white"/>
<path fill-rule="evenodd" clip-rule="evenodd" d="M155.545 42.0402L146.868 42.0051Z" fill="white"/>
<path fill-rule="evenodd" clip-rule="evenodd" d="M154.885 40.438L147.356 40.2637Z" fill="white"/>
<path fill-rule="evenodd" clip-rule="evenodd" d="M154.442 39.0769L148.565 38.9222Z" fill="white"/>
<path fill-rule="evenodd" clip-rule="evenodd" d="M154.059 37.5254L150.941 37.3267Z" fill="white"/>
<path fill-rule="evenodd" clip-rule="evenodd" d="M150.922 36.2874L153.874 36.5056Z" fill="white"/>
<path fill-rule="evenodd" clip-rule="evenodd" d="M153.709 35.1796L152.02 35.0592Z" fill="white"/>
<path fill-rule="evenodd" clip-rule="evenodd" d="M176.269 31.019L177.496 30.3689Z" fill="white"/>
<path fill-rule="evenodd" clip-rule="evenodd" d="M174.051 29.5219L174.622 27.821Z" fill="white"/>
<path fill-rule="evenodd" clip-rule="evenodd" d="M171.667 29.4737L170.784 27.9806Z" fill="white"/>
<path fill-rule="evenodd" clip-rule="evenodd" d="M180.882 29.0333L183.396 27.9099Z" fill="white"/>
<path fill-rule="evenodd" clip-rule="evenodd" d="M178.562 25.6348L182.155 21.6774Z" fill="white"/>
<path fill-rule="evenodd" clip-rule="evenodd" d="M175.267 23.9114L177.477 16.5992Z" fill="white"/>
<path fill-rule="evenodd" clip-rule="evenodd" d="M171.139 23.9528L170.507 18.9371Z" fill="white"/>
<path fill-rule="evenodd" clip-rule="evenodd" d="M167.413 26.1978L165.778 23.9807Z" fill="white"/>
<path fill-rule="evenodd" clip-rule="evenodd" d="M184.416 23.8214L182.588 25.1285Z" fill="white"/>
<path fill-rule="evenodd" clip-rule="evenodd" d="M180.486 18.1223L179.129 20.5184Z" fill="white"/>
<path fill-rule="evenodd" clip-rule="evenodd" d="M173.859 18.9907L173.956 16.4557Z" fill="white"/>
<path fill-rule="evenodd" clip-rule="evenodd" d="M168.106 22.0715L167.437 20.6276Z" fill="white"/>
<path fill-rule="evenodd" clip-rule="evenodd" d="M170 39.2717L167.559 38.9788Z" fill="white"/>
<path fill-rule="evenodd" clip-rule="evenodd" d="M171.52 39.7718L173.824 41.2485Z" fill="white"/>
<path fill-rule="evenodd" clip-rule="evenodd" d="M181.32 48.4702L181.404 49.4895Z" fill="white"/>
<path fill-rule="evenodd" clip-rule="evenodd" d="M173.997 48.4883L173.835 49.362Z" fill="white"/>
<path fill-rule="evenodd" clip-rule="evenodd" d="M167.709 46.5416L167.223 47.4181Z" fill="white"/>
<path fill-rule="evenodd" clip-rule="evenodd" d="M162.951 43.1951L162.392 43.7215Z" fill="white"/>
<path fill-rule="evenodd" clip-rule="evenodd" d="M160 39.6264L159.376 40.0481Z" fill="white"/>
<path fill-rule="evenodd" clip-rule="evenodd" d="M158.074 35.8521L157.613 36.0595Z" fill="white"/>
<path fill-rule="evenodd" clip-rule="evenodd" d="M157.06 32.2334L156.655 32.32Z" fill="white"/>
<path fill-rule="evenodd" clip-rule="evenodd" d="M159.051 29.9883L156.794 29.8392Z" fill="white"/>
<path fill-rule="evenodd" clip-rule="evenodd" d="M158.317 32.8015L156.938 31.2448Z" fill="white"/>
<path fill-rule="evenodd" clip-rule="evenodd" d="M159.772 27.4429L158.259 28.0852Z" fill="white"/>
<path fill-rule="evenodd" clip-rule="evenodd" d="M185.907 41.4324L186.893 44.5593Z" fill="white"/>
<path fill-rule="evenodd" clip-rule="evenodd" d="M186.149 47.4075L184.059 45.0791Z" fill="white"/>
<path fill-rule="evenodd" clip-rule="evenodd" d="M183.85 47.9024L180.781 47.0448Z" fill="white"/>
<path fill-rule="evenodd" clip-rule="evenodd" d="M176.669 47.5655C176.669 47.4799 176.599 47.4104 176.514 47.4104C176.428 47.4104 176.359 47.4799 176.359 47.5655C176.359 47.6512 176.428 47.7206 176.514 47.7206C176.599 47.7206 176.669 47.6512 176.669 47.5655Z" fill="white"/>
<path fill-rule="evenodd" clip-rule="evenodd" d="M126.032 81.6535V83.5263Z" fill="white"/>
<path fill-rule="evenodd" clip-rule="evenodd" d="M127.842 81.5915L129.198 82.3511Z" fill="white"/>
<path fill-rule="evenodd" clip-rule="evenodd" d="M127.997 75.1695L130.198 76.2841Z" fill="white"/>
<path fill-rule="evenodd" clip-rule="evenodd" d="M128.628 69.678L130.198 70.9129Z" fill="white"/>
<path fill-rule="evenodd" clip-rule="evenodd" d="M127.763 87.1857C127.763 89.4277 124.237 89.4277 124.237 87.1857Z" fill="white"/>
<path d="M74.477 48.7376C74.0444 50.0944 72.9693 51.0782 74.636 53.3546C76.1086 51.159 75.1889 50.1823 74.477 48.7376ZM74.477 48.7376C71.2703 54.3635 66.7265 50.001 65.9611 47.4738M74.477 48.7376C75.2889 51.2244 80.2154 52.2687 81.5038 47.678C82.7638 49.2982 86.9333 49.6841 86.7096 45.1077C87.575 46.0212 92.0115 45.3826 90.7092 41.3973C92.1461 42.2098 94.9176 40.7405 93.1784 37.5558C94.382 37.7685 96.5817 36.0431 94.5678 33.8938M74.033 28.9512C74.4511 28.7463 74.9731 28.5696 75.3815 29.1091C75.1863 28.4057 75.6282 27.7863 75.9718 27.4092M74.033 28.9512C73.4968 28.4804 73.9977 27.8136 74.088 27.1546C74.9696 27.0579 75.7012 26.72 75.9718 27.4092M74.033 28.9512L75.9718 27.4092M78.0171 26.5139C78.7885 26.7788 79.3043 26.8311 79.6594 27.4725C79.8599 27.071 80 26.8249 80.5496 26.6522M78.0171 26.5139C77.8152 25.7484 78.9242 25.6156 79.3732 25.2275C79.7499 25.6452 80.7587 25.8206 80.5496 26.6522M78.0171 26.5139L80.5496 26.6522M125.986 62.629C125.228 62.629 124.614 62.0147 124.614 61.257C124.614 60.4992 125.228 59.8849 125.986 59.8849C123.365 59.8661 120.696 60.7244 119.57 61.3817C121.658 63.767 122.627 64.4425 126.001 64.4654M84.8009 42.0127C85.5416 42.4878 85.9494 41.4929 86.4992 41.5179C86.1405 41.1273 86.5609 40.7853 86.1755 40.3556C85.2469 41.1399 84.6119 40.8914 84.6119 40.8914C84.6119 40.8914 84.9769 41.2648 84.8009 42.0127ZM84.8009 42.0127C84.8009 40.4986 83.5735 39.2711 82.0592 39.2711C80.545 39.2711 79.3174 40.4986 79.3174 42.0127C79.3174 43.527 80.545 44.7545 82.0592 44.7545C83.5735 44.7545 84.8009 43.527 84.8009 42.0127ZM126.014 62.629C126.772 62.629 127.386 62.0147 127.386 61.257C127.386 60.4992 126.772 59.8849 126.014 59.8849C128.634 59.8661 131.304 60.7244 132.43 61.3817C130.342 63.767 129.373 64.4425 125.999 64.4654M177.523 48.7376C177.956 50.0944 179.031 51.0782 177.364 53.3546C175.891 51.159 176.811 50.1823 177.523 48.7376ZM177.523 48.7376C180.73 54.3635 185.273 50.001 186.039 47.4738M177.523 48.7376C176.711 51.2244 171.785 52.2687 170.496 47.678M167.199 42.0127C166.458 42.4878 166.05 41.4929 165.501 41.5179C165.86 41.1273 165.439 40.7853 165.824 40.3556C166.753 41.1399 167.388 40.8914 167.388 40.8914C167.388 40.8914 167.023 41.2648 167.199 42.0127ZM167.199 42.0127C167.199 40.4986 168.427 39.2711 169.941 39.2711C171.455 39.2711 172.682 40.4986 172.682 42.0127C172.682 43.527 171.455 44.7545 169.941 44.7545C168.427 44.7545 167.199 43.527 167.199 42.0127ZM119.019 64.0921C119.006 64.0921 118.995 64.103 118.995 64.1163C118.995 64.1297 119.006 64.1405 119.019 64.1405M120.941 66.75C120.928 66.75 120.917 66.7609 120.917 66.7742C120.917 66.7875 120.928 66.7984 120.941 66.7984M123.42 68.1286C123.406 68.1286 123.395 68.1394 123.395 68.1528C123.395 68.1662 123.406 68.177 123.42 68.177M125.986 68.9452C125.986 68.9586 125.997 68.9694 126.01 68.9694C126.023 68.9694 126.034 68.9586 126.034 68.9452M132.981 64.0921C132.994 64.0921 133.005 64.103 133.005 64.1163C133.005 64.1297 132.994 64.1405 132.981 64.1405M131.059 66.75C131.072 66.75 131.083 66.7609 131.083 66.7742C131.083 66.7875 131.072 66.7984 131.059 66.7984M128.58 68.1286C128.594 68.1286 128.605 68.1394 128.605 68.1528C128.605 68.1662 128.594 68.177 128.58 68.177M121.631 57.2894C120.401 52.8379 125.986 53.0928 125.986 53.0928M125.986 56.2395C120.857 56.1178 115.098 61.0725 117.725 66.9329M117.725 66.9329C118.377 68.388 120.189 69.8076 125.986 69.7456M117.725 66.9329C107.898 64.5252 88.8776 76.1 75.7848 63.6821C60.4616 49.1486 64.2991 28.2719 64.757 25.4566C67.4889 8.65839 75.1724 11.3678 79.7331 13.8468C85.0187 16.7199 114.556 53.0901 121.517 57.3488M120.285 69.0697C116.859 69.7456 117.717 81.2846 119.335 84.6876M119.335 84.6876C122.411 90.6141 125.467 91.2405 126.014 93.4533M119.335 84.6876C122.411 90.6141 125.428 91.2048 125.975 93.4176M118.328 71.8131C118.825 74.7347 123.72 75.107 125.975 75.107M118 78.1471C119.139 81.2595 122.971 81.6535 125.975 81.6535M119.629 85.2112C121.055 87.357 124.411 87.2067 125.975 87.2112M122.362 89.1603C122.147 88.167 123.02 87.0609 124.237 87.1857C124.237 89.4277 127.763 89.4277 127.763 87.1857C128.98 87.0609 129.853 88.167 129.638 89.1603M124.439 90.5621L124.883 89.8058M126.022 91.8161L126.019 89.5211M119.308 84.6293C118.77 81.6535 121.24 81.4036 122.727 81.4195M118.397 81.3629L119.298 81.2206M117.998 73.9537L118.843 74.153M117.928 76.6833C117.922 75.4701 118.889 74.3947 121.768 74.6319M121.611 74.6201C118.548 74.8633 120.062 77.274 119.734 78.0541C120.564 77.5711 122.398 78.3719 123.532 76.7437M124.127 81.6249C123.151 83.8762 125.883 84.4363 126.005 85.42M122.585 81.4188C121.008 81.8257 121.781 82.5778 121.607 83.5263C122.948 83.2798 123.297 83.7335 123.967 82.941M120.485 69.1155C119.298 70.2957 120.553 71.3327 120.285 72.7101C121.714 71.8132 122.971 72.3981 123.449 71.5741M123.377 69.6563C122.727 72.8399 125.162 72.2946 126.019 74.0534M126.028 58.0343C125.123 58.0627 121.587 58.0343 119.574 61.3792M124.342 64.3776C121.951 63.6113 121.98 61.2496 122.88 60.2229M126.039 64.4654C126.042 67.9711 126.048 64.4654 126.034 67.9711M65.8623 47.4462C84.9191 52.8828 94.85 40.0381 95.2099 29.7241M70.0431 56.6946C89.113 55.7347 98.3357 44.8561 98.3822 33.2701M94.5678 33.8938C95.1744 33.8515 97.7138 32.5218 95.2045 29.8635M94.5678 33.8938C93.4276 34.8371 92.9365 34.3106 92.1074 34.4653C92.2104 33.403 91.6334 32.3712 92.6686 31.8184M73.6587 61.4919L81.0312 61.5529M72.1026 56.5493L84.0259 56.5852M87.8835 56.665L93.451 56.7448M85.6946 52.8525L95.3919 52.7648M91.8902 50.261L96.7992 50.3755M93.4851 46.7306L95.0711 46.8532M96.4481 46.8834L98.691 46.9657M85.2306 61.547L87.3131 61.5508M89.597 61.6547L96.3752 61.5898M79.8942 66.7084L88.6943 66.7501M91.5278 66.6897L98.3889 66.7575M95.5316 43.8131L98.3166 43.9834M100.183 44.0467H101.642M96.4551 42.0402L105.132 42.0051M97.1153 40.438L104.644 40.2637M97.5579 39.0769L103.435 38.9222M97.9413 37.5254L101.059 37.3267M101.078 36.2874L98.1261 36.5056M98.2906 35.1796L99.9798 35.0592M65.1437 23.556C64.8759 35.2558 77.5321 49.8419 84.2417 46.5667C92.5006 42.535 90.5473 23.5421 86.3713 20.0436M65.1762 44.8655C65.702 41.2354 69.3234 42.4145 70.7512 41.852C69.9536 43.2315 72.1073 46.1305 67.9959 47.9737M64.3998 40.5367C64.63 38.8244 66.3969 39.3467 67.465 38.5809C67.6694 40.1774 68.7478 40.5751 67.879 42.164M70.5893 45.0138C72.033 43.9359 72.7176 45.364 74.278 45.1356C73.5793 46.4916 74.5003 47.8483 72.575 48.6682M93.7409 28.0852C91.3531 28.2182 91.8572 29.5268 90.6057 30.473C91.8391 30.7541 92.3776 33.0456 95.0919 31.2249L93.7409 28.0852ZM93.7409 28.0852L92.2278 27.4429M91.8883 28.7947C90.6364 28.8136 91.0084 27.2538 90.5061 26.7806C91.3141 26.5937 91.5563 26.0995 92.0162 26.1714M76.3794 30.3595C73.85 28.2757 76.7208 27.4567 76.7791 25.8127C77.795 27.097 80.3934 25.9763 79.7132 29.362M75.3666 29.0011C74.4416 28.2653 74.1691 29.2518 72.6961 29.3083C73.476 30.3635 72.611 31.6784 75.1873 31.8848M79.6879 27.5675C79.911 26.3204 81.2029 26.7448 82.045 26.2824C82.0131 27.3063 83.1933 28.846 81.38 29.8866M75.7305 31.019L74.5043 30.3689M77.9486 29.5219L77.3782 27.821M80.3335 29.4737L81.2157 27.9806M71.1177 29.0333L68.6037 27.9099M73.438 25.6348L69.8452 21.6774M76.7335 23.9114L74.5234 16.5992M80.8604 23.9528L81.4934 18.9371M84.5867 26.1978L86.2215 23.9807M67.5836 23.8214L69.4115 25.1285M71.5139 18.1223L72.8709 20.5184M78.141 18.9907L78.0437 16.4557M83.8934 22.0715L84.5633 20.6276M82.0003 39.2717L84.4411 38.9788M80.4796 39.7718L78.176 41.2485M76.8909 39.5836C75.7783 40.0463 76.4858 41.4761 76.1746 42.922C77.4442 42.5499 78.8801 43.5366 79.364 42.5179M84.5584 40.8837C86.4055 41.1675 86.3205 39.1242 87.263 38.6745C86.2697 38.0543 86.4148 36.8381 84.8428 36.9741M70.6799 48.4702L70.5961 49.4895M78.0033 48.4883L78.1647 49.362M84.2909 46.5416L84.7772 47.4181M89.0486 43.1951L89.6079 43.7215M92 39.6264L92.6235 40.0481M93.9261 35.8521L94.3871 36.0595M94.9405 32.2334L95.3447 32.32M92.9492 29.9883L95.2055 29.8392M93.683 32.8015L95.0614 31.2448M66.0928 41.4324L65.1066 44.5593M65.8508 47.4075L67.9406 45.0791M68.15 47.9024L71.2192 47.0448M122.971 53.6922C122.971 49.2517 106.98 45.8262 111.599 34.2513M95.1617 69.3786C89.91 70.0263 83.5975 70.5927 85.7931 80.6517C86.7783 85.1655 93.4995 100.099 113.093 99.9468C119.493 99.8971 117.487 85.456 118.052 78.2828M95.5646 69.3414C93.858 73.5085 95.8176 92.4471 117.703 90.3211M113.442 66.6148C112.392 69.6594 114.599 73.0051 118.082 73.1719M95.5298 76.546L113.308 69.3337M97.8232 82.2304L114.093 71.0155M102.731 87.2365L115.205 72.156M109.893 90.0303L116.311 72.7821M105.91 41.67C91.9765 47.3533 95.3559 62.4361 98.8243 67.3346C99.2989 68.0048 99.7751 68.4844 100.209 68.7231M113.086 49.4646C111.345 50.1792 102.84 43.2264 102.84 43.2264C102.84 43.2264 120.757 57.0477 119.148 59.1273C117.538 61.207 96.4652 51.5733 96.4652 51.5733C96.4652 51.5733 117.056 60.1075 117.149 62.9796C117.243 65.8515 96.8574 63.0435 96.8574 63.0435C96.8574 63.0435 111.2 65.325 111.36 66.7994M126.029 69.7476L126.039 71.8567M126.028 75.107V77.4611M124.158 81.5915L122.802 82.3511M124.003 75.1695L121.802 76.2841M123.372 69.678L121.802 70.9129M94.1922 69.5491C91.8391 81.7797 102.233 94.0031 117.673 91.4916M86.3644 72.9015C85.8648 97.6536 111.924 100.848 116.19 98.0936M130.369 57.2894C131.599 52.8379 126.014 53.0928 126.014 53.0928M126.014 56.2395C131.143 56.1178 136.902 61.0725 134.275 66.9329M134.275 66.9329C133.623 68.388 131.811 69.8076 126.014 69.7456M134.275 66.9329C144.102 64.5252 163.122 76.1 176.215 63.6821C191.538 49.1486 187.701 28.2719 187.243 25.4566C184.511 8.65839 176.828 11.3678 172.267 13.8468C166.981 16.7199 137.444 53.0901 130.483 57.3488M131.715 69.0697C135.141 69.7456 134.283 81.2846 132.665 84.6876M132.665 84.6876C129.589 90.6141 126.533 91.2405 125.986 93.4533M132.665 84.6876C129.589 90.6141 126.572 91.2048 126.025 93.4176M133.672 71.8131C133.175 74.7347 128.28 75.107 126.025 75.107M134 78.1471C132.861 81.2595 129.029 81.6535 126.025 81.6535M132.371 85.2112C130.945 87.357 127.589 87.2067 126.025 87.2112M127.276 90.5621L126.833 89.8058M132.692 84.6293C133.23 81.6535 130.76 81.4036 129.273 81.4195M133.603 81.3629L132.702 81.2206M134.002 73.9537L133.157 74.153M134.072 76.6833C134.078 75.4701 133.111 74.3947 130.232 74.6319M130.389 74.6201C133.452 74.8633 131.938 77.274 132.266 78.0541C131.436 77.5711 129.62 78.2783 128.486 76.6502M127.872 81.6249C128.849 83.8762 126.117 84.4363 125.995 85.42M129.415 81.4188C130.992 81.8257 130.218 82.5778 130.393 83.5263C129.052 83.2798 128.703 83.7335 128.033 82.941M131.515 69.1155C132.702 70.2957 131.447 71.3327 131.715 72.7101C130.286 71.8132 129.029 72.3981 128.551 71.5741M128.623 69.6563C129.273 72.8399 126.838 72.2946 125.981 74.0534M125.972 58.0343C126.877 58.0627 130.413 58.0343 132.426 61.3792M127.658 64.3776C130.049 63.6113 130.02 61.2496 129.12 60.2229M186.138 47.4462C167.081 52.8828 157.15 40.0381 156.79 29.7241M181.957 56.6946C162.887 55.7347 153.664 44.8561 153.618 33.2701M170.496 47.678C169.236 49.2982 165.067 49.6841 165.29 45.1077M170.496 47.678C169.236 49.2982 164.995 49.5565 165.29 45.1077M165.29 45.1077C164.425 46.0212 159.989 45.3826 161.291 41.3973C159.854 42.2098 157.082 40.7405 158.822 37.5558C157.618 37.7685 155.418 36.0431 157.432 33.8938M157.432 33.8938C156.826 33.8515 154.286 32.5218 156.795 29.8635M157.432 33.8938C158.572 34.8371 159.064 34.3106 159.893 34.4653C159.789 33.403 160.367 32.3712 159.331 31.8184M178.341 61.4919L170.969 61.5529M179.897 56.5493L167.974 56.5852M164.117 56.665L158.549 56.7448M166.305 52.8525L156.608 52.7648M160.11 50.261L155.201 50.3755M158.515 46.7306L156.929 46.8532M155.552 46.8834L153.309 46.9657M166.769 61.547L164.687 61.5508M162.403 61.6547L155.625 61.5898M172.106 66.7084L163.306 66.7501M160.472 66.6897L153.611 66.7575M156.468 43.8131L153.683 43.9834M151.817 44.0467H150.358M155.545 42.0402L146.868 42.0051M154.885 40.438L147.356 40.2637M154.442 39.0769L148.565 38.9222M154.059 37.5254L150.941 37.3267M150.922 36.2874L153.874 36.5056M153.709 35.1796L152.02 35.0592M186.856 23.556C187.124 35.2558 174.468 49.8419 167.758 46.5667C159.499 42.535 161.453 23.5421 165.629 20.0436M186.824 44.8655C186.298 41.2354 182.677 42.4145 181.249 41.852C182.046 43.2315 179.893 46.1305 184.004 47.9737M187.6 40.5367C187.37 38.8244 185.603 39.3467 184.535 38.5809C184.331 40.1774 183.252 40.5751 184.121 42.164M181.411 45.0138C179.967 43.9359 179.282 45.364 177.722 45.1356C178.421 46.4916 177.5 47.8483 179.425 48.6682M156.908 31.2249C159.622 33.0456 160.161 30.7541 161.394 30.473C160.143 29.5268 160.647 28.2182 158.259 28.0852L159.772 27.4429M160.112 28.7947C161.364 28.8136 160.991 27.2538 161.494 26.7806C160.686 26.5937 160.444 26.0995 159.984 26.1714M175.621 30.3595C178.15 28.2757 175.279 27.4567 175.221 25.8127C174.205 27.097 171.607 25.9763 172.287 29.362M176.633 29.0011C177.558 28.2653 177.831 29.2518 179.304 29.3083C178.524 30.3635 179.389 31.6784 176.813 31.8848M172.312 27.5675C172.089 26.3204 170.797 26.7448 169.955 26.2824C169.987 27.3063 168.807 28.846 170.62 29.8866M176.269 31.019L177.496 30.3689M174.051 29.5219L174.622 27.821M171.667 29.4737L170.784 27.9806M180.882 29.0333L183.396 27.9099M178.562 25.6348L182.155 21.6774M175.267 23.9114L177.477 16.5992M171.139 23.9528L170.507 18.9371M167.413 26.1978L165.778 23.9807M184.416 23.8214L182.588 25.1285M180.486 18.1223L179.129 20.5184M173.859 18.9907L173.956 16.4557M168.106 22.0715L167.437 20.6276M170 39.2717L167.559 38.9788M171.52 39.7718L173.824 41.2485M175.109 39.5836C176.222 40.0463 175.514 41.4761 175.825 42.922C174.556 42.5499 173.12 43.5366 172.636 42.5179M167.442 40.8837C165.595 41.1675 165.68 39.1242 164.737 38.6745C165.73 38.0543 165.585 36.8381 167.157 36.9741M181.32 48.4702L181.404 49.4895M173.997 48.4883L173.835 49.362M167.709 46.5416L167.223 47.4181M162.951 43.1951L162.392 43.7215M160 39.6264L159.376 40.0481M158.074 35.8521L157.613 36.0595M157.06 32.2334L156.655 32.32M159.051 29.9883L156.794 29.8392M158.317 32.8015L156.938 31.2448M185.907 41.4324L186.893 44.5593M186.149 47.4075L184.059 45.0791M183.85 47.9024L180.781 47.0448M129.029 53.6922C129.029 49.2517 145.02 45.8262 140.402 34.2513M127.905 75.0218C129.614 77.6465 127.122 78.0583 126.043 79.9004M156.838 69.3786C162.09 70.0263 168.403 70.5927 166.207 80.6517C165.222 85.1655 158.5 99.7598 138.907 99.9468C132.618 100.007 134.539 85.5609 133.979 78.4288M156.435 69.3414C158.142 73.5085 156.182 92.4471 134.297 90.3211M138.558 66.6148C139.609 69.6594 137.401 73.0051 133.918 73.1719M156.47 76.546L138.692 69.3337M154.177 82.2304L137.907 71.0155M149.269 87.2365L136.795 72.156M142.106 90.0303L135.689 72.7821M146.09 41.67C160.023 47.3533 156.644 62.4361 153.176 67.3346C152.701 68.0048 152.225 68.4844 151.791 68.7231M138.914 49.4646C140.655 50.1792 149.16 43.2264 149.16 43.2264C149.16 43.2264 131.243 57.0477 132.852 59.1273C134.461 61.207 155.535 51.5733 155.535 51.5733C155.535 51.5733 134.944 60.1075 134.85 62.9796C134.757 65.8515 155.143 63.0435 155.143 63.0435C155.143 63.0435 140.8 65.325 140.64 66.7994M126.032 81.6535V83.5263M127.842 81.5915L129.198 82.3511M127.997 75.1695L130.198 76.2841M128.628 69.678L130.198 70.9129M157.808 69.5491C160.161 81.7797 149.767 94.0031 134.327 91.4916M165.635 72.9015C166.135 97.6536 140.076 100.848 135.81 98.0936M81.4692 47.7968C80.5588 49.5639 81.3399 51.3219 82.5715 51.9376C83.0802 50.4919 83.4282 49.3771 81.4692 47.7968ZM86.7162 45.2901C88.2743 45.9135 89.0508 46.5561 89.0508 48.35C87.2301 47.9216 86.9356 47.1184 86.7162 45.2901ZM90.6663 41.4499C91.0729 42.2315 91.5227 43.6764 93.451 43.8153C93.1938 41.9722 91.4719 41.6178 90.6663 41.4499ZM93.1689 37.6694C93.8765 39.0947 94.9147 39.3205 96.2384 39.2303C95.8608 38.1696 94.4693 37.1694 93.1689 37.6694ZM94.5639 33.9868C95.7833 35.0039 95.9651 35.1339 97.5555 34.7731C96.7281 33.7972 96.0058 33.5008 94.5639 33.9868ZM65.3273 36.3614C65.3273 35.9253 65.6807 35.5719 66.1167 35.5719C66.5527 35.5719 66.9061 35.9253 66.9061 36.3614C66.9061 36.7973 66.5527 37.1507 66.1167 37.1507C65.6807 37.1507 65.3273 36.7973 65.3273 36.3614ZM65.2303 34.112C65.2303 33.8852 65.4141 33.7016 65.6408 33.7016C65.8675 33.7016 66.0513 33.8852 66.0513 34.112C66.0513 34.3386 65.8675 34.5225 65.6408 34.5225C65.4141 34.5225 65.2303 34.3386 65.2303 34.112ZM65.0989 32.2552C65.0989 32.1418 65.1907 32.0499 65.3041 32.0499C65.4174 32.0499 65.5093 32.1418 65.5093 32.2552C65.5093 32.3684 65.4174 32.4603 65.3041 32.4603C65.1907 32.4603 65.0989 32.3684 65.0989 32.2552ZM90.0305 39.9249C90.0305 39.8115 90.1224 39.7196 90.2358 39.7196C90.3491 39.7196 90.441 39.8115 90.441 39.9249C90.441 40.0381 90.3491 40.13 90.2358 40.13C90.1224 40.13 90.0305 40.0381 90.0305 39.9249ZM91.0561 35.8378C91.0561 35.4018 91.4095 35.0484 91.8455 35.0484C92.2814 35.0484 92.6349 35.4018 92.6349 35.8378C92.6349 36.2737 92.2814 36.6271 91.8455 36.6271C91.4095 36.6271 91.0561 36.2737 91.0561 35.8378ZM90.6601 38.0841C90.6601 37.8574 90.8439 37.6736 91.0706 37.6736C91.2973 37.6736 91.4812 37.8574 91.4812 38.0841C91.4812 38.3108 91.2973 38.4945 91.0706 38.4945C90.8439 38.4945 90.6601 38.3108 90.6601 38.0841ZM77.1085 32.6307C77.1085 31.6232 77.9251 30.8065 78.9326 30.8065C79.9401 30.8065 80.7569 31.6232 80.7569 32.6307C80.7569 33.6381 79.9401 34.4549 78.9326 34.4549C77.9251 34.4549 77.1085 33.6381 77.1085 32.6307ZM79.365 36.0774C79.365 35.7552 79.6262 35.4938 79.9485 35.4938C80.2709 35.4938 80.5322 35.7552 80.5322 36.0774C80.5322 36.3998 80.2709 36.6611 79.9485 36.6611C79.6262 36.6611 79.365 36.3998 79.365 36.0774ZM81.6839 42.011C81.6839 41.8213 81.8378 41.6673 82.0277 41.6673C82.2177 41.6673 82.3716 41.8213 82.3716 42.011C82.3716 42.201 82.2177 42.3549 82.0277 42.3549C81.8378 42.3549 81.6839 42.201 81.6839 42.011ZM76.1574 40.9667C75.4629 41.165 75.0914 40.4859 74.3993 40.3992C74.9482 40.0012 74.9082 39.3659 75.6574 39.1896C76.115 39.3619 76.7872 39.6324 76.7872 39.6324C76.7872 39.6324 76.2759 39.6598 76.1574 40.9667ZM79.3234 42.5943C79.3234 42.5943 79.2287 43.1815 77.9979 42.9534C77.9128 43.6518 78.1904 43.6212 78.356 44.3529C79.0934 43.9753 79.7502 44.3539 79.8841 43.6818C79.3487 43.1721 79.3234 42.5943 79.3234 42.5943ZM97.0055 33.0903C97.0055 32.9865 97.0896 32.9023 97.1934 32.9023C97.2971 32.9023 97.3813 32.9865 97.3813 33.0903C97.3813 33.1941 97.2971 33.2782 97.1934 33.2782C97.0896 33.2782 97.0055 33.1941 97.0055 33.0903ZM96.3161 37.112C96.3161 36.9979 96.4085 36.9054 96.5226 36.9054C96.6367 36.9054 96.7292 36.9979 96.7292 37.112C96.7292 37.2261 96.6367 37.3185 96.5226 37.3185C96.4085 37.3185 96.3161 37.2261 96.3161 37.112ZM94.5175 41.4252C94.5175 41.2804 94.6349 41.1628 94.7799 41.1628C94.9247 41.1628 95.0422 41.2804 95.0422 41.4252C95.0422 41.5702 94.9247 41.6875 94.7799 41.6875C94.6349 41.6875 94.5175 41.5702 94.5175 41.4252ZM91.5181 45.72C91.5181 45.5822 91.63 45.4705 91.7678 45.4705C91.9057 45.4705 92.0174 45.5822 92.0174 45.72C92.0174 45.8579 91.9057 45.9697 91.7678 45.9697C91.63 45.9697 91.5181 45.8579 91.5181 45.72ZM85.9241 50.5638C85.9241 50.3875 86.0671 50.2445 86.2434 50.2445C86.4196 50.2445 86.5626 50.3875 86.5626 50.5638C86.5626 50.74 86.4196 50.883 86.2434 50.883C86.0671 50.883 85.9241 50.74 85.9241 50.5638ZM78.4828 53.1938C78.4828 53.0129 78.6296 52.8661 78.8105 52.8661C78.9915 52.8661 79.1383 53.0129 79.1383 53.1938C79.1383 53.3749 78.9915 53.5216 78.8105 53.5216C78.6296 53.5216 78.4828 53.3749 78.4828 53.1938ZM70.9213 54.1472C70.9213 53.9638 71.0699 53.8152 71.2532 53.8152C71.4365 53.8152 71.5851 53.9638 71.5851 54.1472C71.5851 54.3304 71.4365 54.4791 71.2532 54.4791C71.0699 54.4791 70.9213 54.3304 70.9213 54.1472ZM123.512 76.8077C123.13 77.2349 122.982 77.528 122.184 77.7125C122.208 78.6045 122.785 78.5032 123.055 79.1457C123.649 78.5181 124.339 78.9004 124.453 78.316C123.648 77.6815 123.668 77.288 123.512 76.8077ZM123.938 83.0258C123.938 83.0258 123.689 83.5504 122.642 83.441C122.392 84.333 122.994 84.2913 123.297 84.9979C123.78 84.6055 124.56 84.809 124.736 84.0725C124.04 83.7214 123.938 83.0258 123.938 83.0258ZM123.459 71.5961C123.194 72.0415 122.538 72.0512 121.969 72.1478C121.947 73.46 122.638 73.0729 122.727 73.9537C123.537 73.0507 123.967 73.8975 124.62 72.7187C124.376 72.5232 123.907 72.397 123.459 71.5961ZM106.334 91.4709C106.655 91.5808 104.458 96.9636 104.458 96.9636C102.941 96.4456 102.131 94.7962 102.649 93.2793C103.167 91.7625 104.817 90.9529 106.334 91.4709ZM96.8487 86.1447C98.4515 86.1447 99.7508 87.444 99.7508 89.0468C99.7508 90.6496 98.4515 91.9489 96.8487 91.9489C95.2459 91.9489 93.9466 90.6496 93.9466 89.0468C93.9466 87.444 95.2459 86.1447 96.8487 86.1447ZM112.045 92.5273C110.504 92.9686 109.612 94.5768 110.054 96.1177C110.495 97.6584 112.102 98.5462 113.643 98.1047C113.936 98.0206 114.198 97.8841 114.44 97.7237C113.667 97.3915 113.038 96.7375 112.789 95.866C112.431 94.6189 112.957 93.3417 113.984 92.6609C113.391 92.4058 112.714 92.3356 112.045 92.5273ZM87.3633 75.7545C87.9797 77.2339 89.6802 77.934 91.1596 77.3175C92.6391 76.7011 93.3352 75.0023 92.7186 73.5229C92.6011 73.2408 92.4352 72.9965 92.248 72.7749C92.0073 73.5808 91.4305 74.2812 90.5936 74.6299C89.3961 75.1289 88.0666 74.7541 87.2718 73.813C87.087 74.4317 87.0954 75.1119 87.3633 75.7545ZM88.8064 81.9285C88.6888 81.6096 94.2515 79.9183 94.2515 79.9183C94.8066 81.4219 94.0377 83.0908 92.5341 83.646C91.0305 84.2011 89.3615 83.4321 88.8064 81.9285ZM98.7111 58.8904C98.7111 57.8833 99.5276 57.067 100.535 57.067C101.542 57.067 102.358 57.8833 102.358 58.8904C102.358 59.8975 101.542 60.7139 100.535 60.7139C99.5276 60.7139 98.7111 59.8975 98.7111 58.8904ZM106.035 60.4288C106.035 59.9018 106.462 59.4746 106.989 59.4746C107.516 59.4746 107.943 59.9018 107.943 60.4288C107.943 60.9556 107.516 61.3828 106.989 61.3828C106.462 61.3828 106.035 60.9556 106.035 60.4288ZM111.51 61.8537C111.51 61.5558 111.752 61.3144 112.05 61.3144C112.348 61.3144 112.589 61.5558 112.589 61.8537C112.589 62.1514 112.348 62.393 112.05 62.393C111.752 62.393 111.51 62.1514 111.51 61.8537ZM101.395 48.882C101.395 47.8749 102.211 47.0586 103.218 47.0586C104.225 47.0586 105.042 47.8749 105.042 48.882C105.042 49.8891 104.225 50.7055 103.218 50.7055C102.211 50.7055 101.395 49.8891 101.395 48.882ZM107.625 52.5922C107.625 52.0652 108.052 51.6382 108.579 51.6382C109.106 51.6382 109.533 52.0652 109.533 52.5922C109.533 53.1191 109.106 53.5462 108.579 53.5462C108.052 53.5462 107.625 53.1191 107.625 52.5922ZM113.003 55.5756C113.003 55.2777 113.244 55.0363 113.542 55.0363C113.84 55.0363 114.081 55.2777 114.081 55.5756C114.081 55.8734 113.84 56.1148 113.542 56.1148C113.244 56.1148 113.003 55.8734 113.003 55.5756ZM96.7456 72.4533C96.7456 72.2715 96.8928 72.1241 97.0746 72.1241C97.2564 72.1241 97.4038 72.2715 97.4038 72.4533C97.4038 72.6352 97.2564 72.7824 97.0746 72.7824C96.8928 72.7824 96.7456 72.6352 96.7456 72.4533ZM97.9669 78.5507C97.9669 78.369 98.1142 78.2216 98.296 78.2216C98.4778 78.2216 98.6252 78.369 98.6252 78.5507C98.6252 78.7325 98.4778 78.8799 98.296 78.8799C98.1142 78.8799 97.9669 78.7325 97.9669 78.5507ZM101.382 83.7325C101.382 83.5507 101.529 83.4034 101.711 83.4034C101.893 83.4034 102.04 83.5507 102.04 83.7325C102.04 83.9143 101.893 84.0615 101.711 84.0615C101.529 84.0615 101.382 83.9143 101.382 83.7325ZM107.127 87.0403C107.127 86.8585 107.274 86.7111 107.456 86.7111C107.638 86.7111 107.785 86.8585 107.785 87.0403C107.785 87.2221 107.638 87.3693 107.456 87.3693C107.274 87.3693 107.127 87.2221 107.127 87.0403ZM114.16 87.972C114.16 87.7903 114.307 87.6429 114.489 87.6429C114.671 87.6429 114.818 87.7903 114.818 87.972C114.818 88.1538 114.671 88.3012 114.489 88.3012C114.307 88.3012 114.16 88.1538 114.16 87.972ZM115.836 69.4286C115.836 69.1482 116.059 68.921 116.334 68.921C116.609 68.921 116.832 69.1482 116.832 69.4286C116.832 69.7089 116.609 69.9362 116.334 69.9362C116.059 69.9362 115.836 69.7089 115.836 69.4286ZM84.9285 36.968C84.9285 36.968 85.6622 36.4433 85.7104 35.7488C86.3408 35.4854 86.6117 36.0891 87.287 36.2645C86.8278 36.6916 86.7191 37.2668 86.2488 37.5147C85.8932 36.7129 84.9285 36.968 84.9285 36.968ZM128.488 76.8077C128.87 77.2349 129.018 77.528 129.816 77.7125C129.792 78.6045 129.215 78.5032 128.945 79.1457C128.351 78.5181 127.571 78.9166 127.457 78.332C128.262 77.6977 128.333 77.288 128.488 76.8077ZM128.062 83.0258C128.062 83.0258 128.311 83.5504 129.358 83.441C129.608 84.333 129.005 84.2913 128.703 84.9979C128.22 84.6055 127.44 84.809 127.264 84.0725C127.96 83.7214 128.062 83.0258 128.062 83.0258ZM128.541 71.5961C128.806 72.0415 129.462 72.0512 130.031 72.1478C130.053 73.46 129.363 73.0729 129.273 73.9537C128.463 73.0507 128.033 73.8975 127.38 72.7187C127.624 72.5232 128.093 72.397 128.541 71.5961ZM170.531 47.7968C171.441 49.5639 170.66 51.3219 169.429 51.9376C168.92 50.4919 168.572 49.3771 170.531 47.7968ZM165.284 45.2901C163.726 45.9135 162.949 46.5561 162.949 48.35C164.77 47.9216 165.064 47.1184 165.284 45.2901ZM161.334 41.4499C160.927 42.2315 160.477 43.6764 158.549 43.8153C158.806 41.9722 160.528 41.6178 161.334 41.4499ZM158.831 37.6694C158.124 39.0947 157.085 39.3205 155.762 39.2303C156.139 38.1696 157.531 37.1694 158.831 37.6694ZM157.436 33.9868C156.217 35.0039 156.035 35.1339 154.445 34.7731C155.272 33.7972 155.994 33.5008 157.436 33.9868ZM186.673 36.3614C186.673 35.9253 186.319 35.5719 185.883 35.5719C185.447 35.5719 185.094 35.9253 185.094 36.3614C185.094 36.7973 185.447 37.1507 185.883 37.1507C186.319 37.1507 186.673 36.7973 186.673 36.3614ZM186.77 34.112C186.77 33.8852 186.586 33.7016 186.359 33.7016C186.133 33.7016 185.949 33.8852 185.949 34.112C185.949 34.3386 186.133 34.5225 186.359 34.5225C186.586 34.5225 186.77 34.3386 186.77 34.112ZM186.901 32.2552C186.901 32.1418 186.809 32.0499 186.696 32.0499C186.583 32.0499 186.491 32.1418 186.491 32.2552C186.491 32.3684 186.583 32.4603 186.696 32.4603C186.809 32.4603 186.901 32.3684 186.901 32.2552ZM161.969 39.9249C161.969 39.8115 161.878 39.7196 161.764 39.7196C161.651 39.7196 161.559 39.8115 161.559 39.9249C161.559 40.0381 161.651 40.13 161.764 40.13C161.878 40.13 161.969 40.0381 161.969 39.9249ZM160.944 35.8378C160.944 35.4018 160.59 35.0484 160.155 35.0484C159.719 35.0484 159.365 35.4018 159.365 35.8378C159.365 36.2737 159.719 36.6271 160.155 36.6271C160.59 36.6271 160.944 36.2737 160.944 35.8378ZM161.34 38.0841C161.34 37.8574 161.156 37.6736 160.929 37.6736C160.703 37.6736 160.519 37.8574 160.519 38.0841C160.519 38.3108 160.703 38.4945 160.929 38.4945C161.156 38.4945 161.34 38.3108 161.34 38.0841ZM174.892 32.6307C174.892 31.6232 174.075 30.8065 173.067 30.8065C172.06 30.8065 171.243 31.6232 171.243 32.6307C171.243 33.6381 172.06 34.4549 173.067 34.4549C174.075 34.4549 174.892 33.6381 174.892 32.6307ZM172.635 36.0774C172.635 35.7552 172.374 35.4938 172.052 35.4938C171.729 35.4938 171.468 35.7552 171.468 36.0774C171.468 36.3998 171.729 36.6611 172.052 36.6611C172.374 36.6611 172.635 36.3998 172.635 36.0774ZM170.316 42.011C170.316 41.8213 170.162 41.6673 169.972 41.6673C169.782 41.6673 169.628 41.8213 169.628 42.011C169.628 42.201 169.782 42.3549 169.972 42.3549C170.162 42.3549 170.316 42.201 170.316 42.011ZM175.843 40.9667C176.537 41.165 176.909 40.4859 177.601 40.3992C177.052 40.0012 177.092 39.3659 176.343 39.1896C175.885 39.3619 175.213 39.6324 175.213 39.6324C175.213 39.6324 175.724 39.6598 175.843 40.9667ZM172.677 42.5943C172.677 42.5943 172.771 43.1815 174.002 42.9534C174.087 43.6518 173.809 43.6212 173.644 44.3529C172.907 43.9753 172.25 44.3539 172.116 43.6818C172.651 43.1721 172.677 42.5943 172.677 42.5943ZM167.072 36.968C167.072 36.968 166.338 36.4433 166.289 35.7488C165.659 35.4854 165.388 36.0891 164.713 36.2645C165.172 36.6916 165.281 37.2668 165.751 37.5147C166.107 36.7129 167.072 36.968 167.072 36.968ZM154.995 33.0903C154.995 32.9865 154.91 32.9023 154.807 32.9023C154.703 32.9023 154.619 32.9865 154.619 33.0903C154.619 33.1941 154.703 33.2782 154.807 33.2782C154.91 33.2782 154.995 33.1941 154.995 33.0903ZM155.684 37.112C155.684 36.9979 155.591 36.9054 155.477 36.9054C155.363 36.9054 155.271 36.9979 155.271 37.112C155.271 37.2261 155.363 37.3185 155.477 37.3185C155.591 37.3185 155.684 37.2261 155.684 37.112ZM157.483 41.4252C157.483 41.2804 157.365 41.1628 157.22 41.1628C157.075 41.1628 156.958 41.2804 156.958 41.4252C156.958 41.5702 157.075 41.6875 157.22 41.6875C157.365 41.6875 157.483 41.5702 157.483 41.4252ZM160.482 45.72C160.482 45.5822 160.37 45.4705 160.232 45.4705C160.094 45.4705 159.983 45.5822 159.983 45.72C159.983 45.8579 160.094 45.9697 160.232 45.9697C160.37 45.9697 160.482 45.8579 160.482 45.72ZM166.076 50.5638C166.076 50.3875 165.933 50.2445 165.757 50.2445C165.58 50.2445 165.437 50.3875 165.437 50.5638C165.437 50.74 165.58 50.883 165.757 50.883C165.933 50.883 166.076 50.74 166.076 50.5638ZM173.517 53.1938C173.517 53.0129 173.37 52.8661 173.19 52.8661C173.008 52.8661 172.862 53.0129 172.862 53.1938C172.862 53.3749 173.008 53.5216 173.19 53.5216C173.37 53.5216 173.517 53.3749 173.517 53.1938ZM181.079 54.1472C181.079 53.9638 180.93 53.8152 180.747 53.8152C180.563 53.8152 180.415 53.9638 180.415 54.1472C180.415 54.3304 180.563 54.4791 180.747 54.4791C180.93 54.4791 181.079 54.3304 181.079 54.1472ZM145.666 91.4709C145.345 91.5808 147.542 96.9636 147.542 96.9636C149.059 96.4456 149.869 94.7962 149.351 93.2793C148.833 91.7625 147.183 90.9529 145.666 91.4709ZM155.151 86.1447C153.548 86.1447 152.249 87.444 152.249 89.0468C152.249 90.6496 153.548 91.9489 155.151 91.9489C156.754 91.9489 158.053 90.6496 158.053 89.0468C158.053 87.444 156.754 86.1447 155.151 86.1447ZM139.955 92.5273C141.496 92.9686 142.388 94.5768 141.947 96.1177C141.505 97.6584 139.898 98.5462 138.357 98.1047C138.064 98.0206 137.802 97.8841 137.56 97.7237C138.333 97.3915 138.962 96.7375 139.211 95.866C139.569 94.6189 139.043 93.3417 138.016 92.6609C138.609 92.4058 139.286 92.3356 139.955 92.5273ZM164.637 75.7545C164.02 77.2339 162.32 77.934 160.84 77.3175C159.361 76.7011 158.665 75.0023 159.281 73.5229C159.399 73.2408 159.565 72.9965 159.752 72.7749C159.993 73.5808 160.57 74.2812 161.406 74.6299C162.604 75.1289 163.933 74.7541 164.728 73.813C164.913 74.4317 164.905 75.1119 164.637 75.7545ZM163.193 81.9285C163.311 81.6096 157.749 79.9183 157.749 79.9183C157.193 81.4219 157.962 83.0908 159.466 83.646C160.969 84.2011 162.638 83.4321 163.193 81.9285ZM153.289 58.8904C153.289 57.8833 152.472 57.067 151.465 57.067C150.458 57.067 149.642 57.8833 149.642 58.8904C149.642 59.8975 150.458 60.7139 151.465 60.7139C152.472 60.7139 153.289 59.8975 153.289 58.8904ZM145.965 60.4288C145.965 59.9018 145.538 59.4746 145.011 59.4746C144.484 59.4746 144.057 59.9018 144.057 60.4288C144.057 60.9556 144.484 61.3828 145.011 61.3828C145.538 61.3828 145.965 60.9556 145.965 60.4288ZM140.49 61.8537C140.49 61.5558 140.248 61.3144 139.95 61.3144C139.652 61.3144 139.411 61.5558 139.411 61.8537C139.411 62.1514 139.652 62.393 139.95 62.393C140.248 62.393 140.49 62.1514 140.49 61.8537ZM150.605 48.882C150.605 47.8749 149.789 47.0586 148.782 47.0586C147.775 47.0586 146.958 47.8749 146.958 48.882C146.958 49.8891 147.775 50.7055 148.782 50.7055C149.789 50.7055 150.605 49.8891 150.605 48.882ZM144.375 52.5922C144.375 52.0652 143.948 51.6382 143.421 51.6382C142.894 51.6382 142.467 52.0652 142.467 52.5922C142.467 53.1191 142.894 53.5462 143.421 53.5462C143.948 53.5462 144.375 53.1191 144.375 52.5922ZM138.997 55.5756C138.997 55.2777 138.756 55.0363 138.458 55.0363C138.16 55.0363 137.919 55.2777 137.919 55.5756C137.919 55.8734 138.16 56.1148 138.458 56.1148C138.756 56.1148 138.997 55.8734 138.997 55.5756ZM155.254 72.4533C155.254 72.2715 155.107 72.1241 154.925 72.1241C154.744 72.1241 154.596 72.2715 154.596 72.4533C154.596 72.6352 154.744 72.7824 154.925 72.7824C155.107 72.7824 155.254 72.6352 155.254 72.4533ZM150.618 83.7325C150.618 83.5507 150.471 83.4034 150.289 83.4034C150.107 83.4034 149.96 83.5507 149.96 83.7325C149.96 83.9143 150.107 84.0615 150.289 84.0615C150.471 84.0615 150.618 83.9143 150.618 83.7325ZM144.873 87.0403C144.873 86.8585 144.726 86.7111 144.544 86.7111C144.362 86.7111 144.215 86.8585 144.215 87.0403C144.215 87.2221 144.362 87.3693 144.544 87.3693C144.726 87.3693 144.873 87.2221 144.873 87.0403ZM137.84 87.972C137.84 87.7903 137.693 87.6429 137.511 87.6429C137.329 87.6429 137.182 87.7903 137.182 87.972C137.182 88.1538 137.329 88.3012 137.511 88.3012C137.693 88.3012 137.84 88.1538 137.84 87.972ZM136.164 69.4286C136.164 69.1482 135.941 68.921 135.666 68.921C135.391 68.921 135.168 69.1482 135.168 69.4286C135.168 69.7089 135.391 69.9362 135.666 69.9362C135.941 69.9362 136.164 69.7089 136.164 69.4286ZM176.618 29.1091C177.027 28.5696 177.549 28.7463 177.967 28.9512C178.503 28.4804 178.002 27.8136 177.912 27.1546C177.03 27.0579 176.299 26.72 176.028 27.4092C176.372 27.7863 176.814 28.4057 176.618 29.1091ZM172.341 27.4725C172.696 26.8311 173.211 26.7788 173.983 26.5139C174.185 25.7484 173.076 25.6156 172.627 25.2275C172.25 25.6452 171.241 25.8206 171.45 26.6522C172 26.8249 172.14 27.071 172.341 27.4725ZM69.0811 40.0751C69.0811 39.9894 69.1506 39.92 69.2362 39.92C69.3218 39.92 69.3913 39.9894 69.3913 40.0751C69.3913 40.1606 69.3218 40.23 69.2362 40.23C69.1506 40.23 69.0811 40.1606 69.0811 40.0751ZM72.1585 43.2059C72.1585 43.117 72.2305 43.045 72.3194 43.045C72.4083 43.045 72.4804 43.117 72.4804 43.2059C72.4804 43.295 72.4083 43.367 72.3194 43.367C72.2305 43.367 72.1585 43.295 72.1585 43.2059ZM75.3311 47.5655C75.3311 47.4799 75.4006 47.4104 75.4862 47.4104C75.5719 47.4104 75.6413 47.4799 75.6413 47.5655C75.6413 47.6512 75.5719 47.7206 75.4862 47.7206C75.4006 47.7206 75.3311 47.6512 75.3311 47.5655ZM90.7778 32.7768C90.7778 32.6953 90.8441 32.629 90.9257 32.629C91.0074 32.629 91.0736 32.6953 91.0736 32.7768C91.0736 32.8585 91.0074 32.9248 90.9257 32.9248C90.8441 32.9248 90.7778 32.8585 90.7778 32.7768ZM90.2981 28.7591C90.2981 28.6796 90.3625 28.6151 90.442 28.6151C90.5216 28.6151 90.586 28.6796 90.586 28.7591C90.586 28.8386 90.5216 28.9031 90.442 28.9031C90.3625 28.9031 90.2981 28.8386 90.2981 28.7591ZM90.1171 25.4533C90.1171 25.3735 90.1817 25.3089 90.2615 25.3089C90.3412 25.3089 90.4059 25.3735 90.4059 25.4533C90.4059 25.533 90.3412 25.5977 90.2615 25.5977C90.1817 25.5977 90.1171 25.533 90.1171 25.4533ZM182.919 40.0751C182.919 39.9894 182.849 39.92 182.764 39.92C182.678 39.92 182.609 39.9894 182.609 40.0751C182.609 40.1606 182.678 40.23 182.764 40.23C182.849 40.23 182.919 40.1606 182.919 40.0751ZM179.842 43.2059C179.842 43.117 179.769 43.045 179.681 43.045C179.592 43.045 179.519 43.117 179.519 43.2059C179.519 43.295 179.592 43.367 179.681 43.367C179.769 43.367 179.842 43.295 179.842 43.2059ZM161.222 32.7768C161.222 32.6953 161.156 32.629 161.074 32.629C160.993 32.629 160.926 32.6953 160.926 32.7768C160.926 32.8585 160.993 32.9248 161.074 32.9248C161.156 32.9248 161.222 32.8585 161.222 32.7768ZM161.702 28.7591C161.702 28.6796 161.638 28.6151 161.558 28.6151C161.478 28.6151 161.414 28.6796 161.414 28.7591C161.414 28.8386 161.478 28.9031 161.558 28.9031C161.638 28.9031 161.702 28.8386 161.702 28.7591ZM161.883 25.4533C161.883 25.3735 161.818 25.3089 161.739 25.3089C161.659 25.3089 161.594 25.3735 161.594 25.4533C161.594 25.533 161.659 25.5977 161.739 25.5977C161.818 25.5977 161.883 25.533 161.883 25.4533ZM115.346 17.7202C114.603 19.2687 114.177 20.9958 114.177 22.8283C114.177 29.3663 119.478 34.6676 126.016 34.6676C132.554 34.6676 137.851 29.3663 137.851 22.8283C137.851 21.1655 137.505 19.5871 136.886 18.1514C136.945 18.6105 136.988 19.0722 136.988 19.5473C136.988 25.5682 132.108 30.4529 126.087 30.4529C120.066 30.4529 115.182 25.5682 115.182 19.5473C115.182 18.9229 115.245 18.316 115.346 17.7202ZM121.307 87.8236C122.009 87.5113 121.307 87.8236 122.009 87.5113L121.307 87.8236ZM124.095 75.0218C122.386 77.6465 124.945 78.0583 126.024 79.9004C125.993 79.8473 125.961 79.7954 125.927 79.7448C124.802 78.0327 122.435 77.5709 124.095 75.0218ZM120.628 62.5218C120.118 63.0223 120.628 62.5218 120.105 63.0355L120.628 62.5218ZM122.295 63.8643C121.802 64.9724 122.324 63.8246 121.802 64.9724L122.295 63.8643ZM124.087 64.3865C123.72 66.6897 124.084 64.4087 123.72 66.6897L124.087 64.3865ZM111.099 35.5435C110.602 35.5711 110.337 34.6025 110.756 34.09L111.099 35.5435ZM110.785 37.3858C110.296 37.2524 109.938 36.7472 109.916 36.0296L110.785 37.3858ZM110.754 39.202C109.937 39.0632 109.604 38.241 109.662 37.7162L110.754 39.202ZM111.365 41.394C110.503 41.4417 109.826 41.1823 109.644 40.1045L111.365 41.394ZM112.619 43.674C112.159 44.2042 110.794 44.0141 110.241 42.8487L112.619 43.674ZM114.474 45.6913C113.882 46.3891 112.201 46.2794 111.395 44.9885L114.474 45.6913ZM116.832 47.6436C116.191 48.6045 114.149 48.2234 113.362 47.7461L116.832 47.6436ZM114.96 49.5951C115.965 50.8833 118.389 50.2265 119.407 49.5611L114.96 49.5951ZM117.171 51.5776C118.212 52.3798 120.459 52.0342 121.469 51.2397L117.171 51.5776ZM118.997 53.2948C120.751 54.0621 122.085 53.2217 122.645 52.6107L118.997 53.2948ZM111.141 35.8132C111.564 36.004 112.023 35.7789 112.34 35.3315L111.141 35.8132ZM110.836 37.8129C111.444 37.8752 111.975 37.5924 112.146 37.2727L110.836 37.8129ZM110.992 40.2242C112.021 40.0738 112.292 39.5107 112.384 39.1179L110.992 40.2242ZM111.882 42.1781C112.649 41.8422 113.086 41.4203 112.949 40.3519L111.882 42.1781ZM113.462 44.6568C113.462 44.6815 114.832 43.9776 114.172 42.304L113.462 44.6568ZM115.577 46.5728C116.805 45.841 116.398 44.1622 116.074 43.667L115.577 46.5728ZM117.967 48.4524C118.443 47.83 119.125 46.5718 118.212 45.1651L117.967 48.4524ZM120.217 50.1882C121.062 48.5631 120.805 47.9492 120.295 46.8276L120.217 50.1882ZM122.226 51.9742C122.813 51.779 122.998 49.6833 122.268 48.9284L122.226 51.9742ZM70.6557 31.7283C70.6557 27.275 74.2659 23.6647 78.7192 23.6647C83.1726 23.6647 86.7828 27.275 86.7828 31.7283C86.7828 36.1817 83.1726 39.7918 78.7192 39.7918C74.2659 39.7918 70.6557 36.1817 70.6557 31.7283ZM74.7523 33.8118C74.7523 31.3398 76.7561 29.336 79.2279 29.336C81.7 29.336 83.7038 31.3398 83.7038 33.8118C83.7038 36.2837 81.7 38.2875 79.2279 38.2875C76.7561 38.2875 74.7523 36.2837 74.7523 33.8118ZM80.2496 44.0688L81.1601 39.4434L84.7425 42.5788L80.2496 44.0688ZM123.822 89.2854C124.291 88.8681 124.33 88.8159 124.33 88.8159L123.822 89.2854ZM114.916 69.4103C114.916 68.6209 115.556 67.9809 116.346 67.9809C117.135 67.9809 117.775 68.6209 117.775 69.4103C117.775 70.1997 117.135 70.8398 116.346 70.8398C115.556 70.8398 114.916 70.1997 114.916 69.4103ZM130.693 87.8236C129.991 87.5113 130.693 87.8236 129.991 87.5113L130.693 87.8236ZM131.372 62.5218C131.882 63.0223 131.372 62.5218 131.895 63.0355L131.372 62.5218ZM129.705 63.8643C130.198 64.9724 129.676 63.8246 130.198 64.9724L129.705 63.8643ZM127.913 64.3865C128.28 66.6897 127.916 64.4087 128.28 66.6897L127.913 64.3865ZM140.901 35.5435C141.398 35.5711 141.663 34.6025 141.244 34.09L140.901 35.5435ZM141.215 37.3858C141.704 37.2524 142.062 36.7472 142.084 36.0296L141.215 37.3858ZM141.246 39.202C142.063 39.0632 142.396 38.241 142.338 37.7162L141.246 39.202ZM140.635 41.394C141.497 41.4417 142.174 41.1823 142.356 40.1045L140.635 41.394ZM139.381 43.674C139.841 44.2042 141.205 44.0141 141.759 42.8487L139.381 43.674ZM137.526 45.6913C138.118 46.3891 139.799 46.2794 140.605 44.9885L137.526 45.6913ZM135.168 47.6436C135.808 48.6045 137.851 48.2234 138.638 47.7461L135.168 47.6436ZM137.04 49.5951C136.035 50.8833 133.611 50.2265 132.593 49.5611L137.04 49.5951ZM134.83 51.5776C133.788 52.3798 131.541 52.0342 130.531 51.2397L134.83 51.5776ZM133.003 53.2948C131.249 54.0621 129.915 53.2217 129.355 52.6107L133.003 53.2948ZM140.859 35.8132C140.436 36.004 139.977 35.7789 139.66 35.3315L140.859 35.8132ZM141.164 37.8129C140.556 37.8752 140.025 37.5924 139.854 37.2727L141.164 37.8129ZM141.008 40.2242C139.979 40.0738 139.708 39.5107 139.616 39.1179L141.008 40.2242ZM140.118 42.1781C139.351 41.8422 138.914 41.4203 139.051 40.3519L140.118 42.1781ZM138.538 44.6568C138.538 44.6815 137.168 43.9776 137.828 42.304L138.538 44.6568ZM136.423 46.5728C135.195 45.841 135.602 44.1622 135.926 43.667L136.423 46.5728ZM134.033 48.4524C133.558 47.83 132.875 46.5718 133.788 45.1651L134.033 48.4524ZM131.783 50.1882C130.938 48.5631 131.196 47.9492 131.706 46.8276L131.783 50.1882ZM129.774 51.9742C129.187 51.779 129.002 49.6833 129.732 48.9284L129.774 51.9742ZM181.344 31.7283C181.344 27.275 177.734 23.6647 173.281 23.6647C168.827 23.6647 165.217 27.275 165.217 31.7283C165.217 36.1817 168.827 39.7918 173.281 39.7918C177.734 39.7918 181.344 36.1817 181.344 31.7283ZM177.248 33.8118C177.248 31.3398 175.244 29.336 172.772 29.336C170.3 29.336 168.296 31.3398 168.296 33.8118C168.296 36.2837 170.3 38.2875 172.772 38.2875C175.244 38.2875 177.248 36.2837 177.248 33.8118ZM171.75 44.0688L170.84 39.4434L167.258 42.5788L171.75 44.0688ZM176.669 47.5655C176.669 47.4799 176.599 47.4104 176.514 47.4104C176.428 47.4104 176.359 47.4799 176.359 47.5655C176.359 47.6512 176.428 47.7206 176.514 47.7206C176.599 47.7206 176.669 47.6512 176.669 47.5655ZM128.178 89.2854C127.709 88.8681 127.67 88.8159 127.67 88.8159L128.178 89.2854ZM137.084 69.4103C137.084 68.6209 136.444 67.9809 135.654 67.9809C134.865 67.9809 134.225 68.6209 134.225 69.4103C134.225 70.1997 134.865 70.8398 135.654 70.8398C136.444 70.8398 137.084 70.1997 137.084 69.4103Z" stroke="white" stroke-width="0.5" stroke-linecap="round" stroke-linejoin="round"/>
<circle cx="126.028" cy="61.224" r="1.42266" fill="white"/>
<path d="M11.232 86.12H46.56L26.208 30.152L4.8 89H1.728L26.208 21.704L50.688 89H11.232V86.12Z" fill="white"/>
<path d="M206.488 38.408C206.488 32.2 208.056 27.72 211.192 24.968C214.328 22.216 219.416 20.84 226.456 20.84C231.384 20.84 235.352 22.12 238.36 24.68C241.368 27.24 243.544 31.144 244.888 36.392L235.96 43.112H231.256L241.624 35.336C240.28 31.048 238.328 28.04 235.768 26.312C233.272 24.584 230.168 23.72 226.456 23.72C223.896 23.72 221.72 23.88 219.928 24.2C218.2 24.52 216.44 25.16 214.648 26.12C212.92 27.016 211.608 28.488 210.712 30.536C209.816 32.584 209.368 35.208 209.368 38.408C209.368 41.224 210.648 43.72 213.208 45.896C215.832 48.072 219 49.928 222.712 51.464C226.424 53 230.136 54.568 233.848 56.168C237.624 57.768 240.792 59.816 243.352 62.312C245.976 64.808 247.288 67.688 247.288 70.952C247.288 77.352 245.688 82.12 242.488 85.256C239.352 88.392 233.944 89.96 226.264 89.96C219.992 89.96 215.064 88.712 211.48 86.216C207.896 83.656 205.432 79.72 204.088 74.408L206.776 73.256C208.056 78.44 210.232 82.056 213.304 84.104C216.44 86.088 220.76 87.08 226.264 87.08C232.408 87.08 236.952 85.896 239.896 83.528C242.904 81.16 244.408 76.968 244.408 70.952C244.408 68.136 243.096 65.64 240.472 63.464C237.912 61.288 234.744 59.432 230.968 57.896C227.256 56.36 223.544 54.792 219.832 53.192C216.12 51.592 212.952 49.544 210.328 47.048C207.768 44.552 206.488 41.672 206.488 38.408Z" fill="white"/>
</svg>
