<svg width="740" height="90" viewBox="0 0 740 90" fill="none" xmlns="http://www.w3.org/2000/svg">
<path fill-rule="evenodd" clip-rule="evenodd" d="M11.477 37.7376C11.0444 39.0944 9.96925 40.0782 11.636 42.3546C13.1086 40.159 12.1889 39.1823 11.477 37.7376Z" fill="white"/>
<path fill-rule="evenodd" clip-rule="evenodd" d="M18.4692 36.7968C17.5588 38.5639 18.3399 40.3219 19.5715 40.9376C20.0802 39.4919 20.4282 38.3771 18.4692 36.7968Z" fill="white"/>
<path fill-rule="evenodd" clip-rule="evenodd" d="M23.7162 34.2901C25.2743 34.9135 26.0508 35.5561 26.0508 37.35C24.2301 36.9216 23.9356 36.1184 23.7162 34.2901Z" fill="white"/>
<path fill-rule="evenodd" clip-rule="evenodd" d="M27.6663 30.4499C28.0729 31.2315 28.5227 32.6764 30.451 32.8153C30.1938 30.9722 28.4719 30.6178 27.6663 30.4499Z" fill="white"/>
<path fill-rule="evenodd" clip-rule="evenodd" d="M30.1689 26.6694C30.8765 28.0947 31.9147 28.3205 33.2384 28.2303C32.8608 27.1696 31.4693 26.1694 30.1689 26.6694Z" fill="white"/>
<path fill-rule="evenodd" clip-rule="evenodd" d="M31.5639 22.9868C32.7833 24.0039 32.9651 24.1339 34.5555 23.7731C33.7281 22.7972 33.0058 22.5008 31.5639 22.9868Z" fill="white"/>
<path fill-rule="evenodd" clip-rule="evenodd" d="M2.3273 25.3614C2.3273 24.9253 2.68073 24.5719 3.11669 24.5719C3.55267 24.5719 3.90608 24.9253 3.90608 25.3614C3.90608 25.7973 3.55267 26.1507 3.11669 26.1507C2.68073 26.1507 2.3273 25.7973 2.3273 25.3614Z" fill="white"/>
<path fill-rule="evenodd" clip-rule="evenodd" d="M2.23029 23.112C2.23029 22.8852 2.41407 22.7016 2.64077 22.7016C2.86747 22.7016 3.05125 22.8852 3.05125 23.112C3.05125 23.3386 2.86747 23.5225 2.64077 23.5225C2.41407 23.5225 2.23029 23.3386 2.23029 23.112Z" fill="white"/>
<path fill-rule="evenodd" clip-rule="evenodd" d="M2.09885 21.2552C2.09885 21.1418 2.19074 21.0499 2.3041 21.0499C2.41744 21.0499 2.50933 21.1418 2.50933 21.2552C2.50933 21.3684 2.41744 21.4603 2.3041 21.4603C2.19074 21.4603 2.09885 21.3684 2.09885 21.2552Z" fill="white"/>
<path fill-rule="evenodd" clip-rule="evenodd" d="M27.0305 28.9249C27.0305 28.8115 27.1224 28.7196 27.2358 28.7196C27.3491 28.7196 27.441 28.8115 27.441 28.9249C27.441 29.0381 27.3491 29.13 27.2358 29.13C27.1224 29.13 27.0305 29.0381 27.0305 28.9249Z" fill="white"/>
<path fill-rule="evenodd" clip-rule="evenodd" d="M28.0561 24.8378C28.0561 24.4018 28.4095 24.0484 28.8455 24.0484C29.2814 24.0484 29.6349 24.4018 29.6349 24.8378C29.6349 25.2737 29.2814 25.6271 28.8455 25.6271C28.4095 25.6271 28.0561 25.2737 28.0561 24.8378Z" fill="white"/>
<path fill-rule="evenodd" clip-rule="evenodd" d="M27.6601 27.0841C27.6601 26.8574 27.8439 26.6736 28.0706 26.6736C28.2973 26.6736 28.4812 26.8574 28.4812 27.0841C28.4812 27.3108 28.2973 27.4945 28.0706 27.4945C27.8439 27.4945 27.6601 27.3108 27.6601 27.0841Z" fill="white"/>
<path fill-rule="evenodd" clip-rule="evenodd" d="M14.1085 21.6307C14.1085 20.6232 14.9251 19.8065 15.9326 19.8065C16.9401 19.8065 17.7569 20.6232 17.7569 21.6307C17.7569 22.6381 16.9401 23.4549 15.9326 23.4549C14.9251 23.4549 14.1085 22.6381 14.1085 21.6307Z" fill="white"/>
<path fill-rule="evenodd" clip-rule="evenodd" d="M16.365 25.0774C16.365 24.7552 16.6262 24.4938 16.9485 24.4938C17.2709 24.4938 17.5322 24.7552 17.5322 25.0774C17.5322 25.3998 17.2709 25.6611 16.9485 25.6611C16.6262 25.6611 16.365 25.3998 16.365 25.0774Z" fill="white"/>
<path fill-rule="evenodd" clip-rule="evenodd" d="M18.6839 31.011C18.6839 30.8213 18.8378 30.6673 19.0277 30.6673C19.2177 30.6673 19.3716 30.8213 19.3716 31.011C19.3716 31.201 19.2177 31.3549 19.0277 31.3549C18.8378 31.3549 18.6839 31.201 18.6839 31.011Z" fill="white"/>
<path fill-rule="evenodd" clip-rule="evenodd" d="M12.3815 18.1091C11.9731 17.5696 11.4511 17.7463 11.033 17.9512C10.4968 17.4804 10.9977 16.8136 11.088 16.1546C11.9696 16.0579 12.7012 15.72 12.9718 16.4092C12.6282 16.7863 12.1863 17.4057 12.3815 18.1091Z" fill="white"/>
<path fill-rule="evenodd" clip-rule="evenodd" d="M16.6594 16.4725C16.3043 15.8311 15.7885 15.7788 15.0171 15.5139C14.8152 14.7484 15.9242 14.6156 16.3732 14.2275C16.7499 14.6452 17.7587 14.8206 17.5496 15.6522C17 15.8249 16.8599 16.071 16.6594 16.4725Z" fill="white"/>
<path fill-rule="evenodd" clip-rule="evenodd" d="M13.1574 29.9667C12.4629 30.165 12.0914 29.4859 11.3993 29.3992C11.9482 29.0012 11.9082 28.3659 12.6574 28.1896C13.115 28.3619 13.7872 28.6324 13.7872 28.6324C13.7872 28.6324 13.2759 28.6598 13.1574 29.9667Z" fill="white"/>
<path fill-rule="evenodd" clip-rule="evenodd" d="M16.3234 31.5943C16.3234 31.5943 16.2287 32.1815 14.9979 31.9534C14.9128 32.6518 15.1904 32.6212 15.356 33.3529C16.0934 32.9753 16.7502 33.3539 16.8841 32.6818C16.3487 32.1721 16.3234 31.5943 16.3234 31.5943Z" fill="white"/>
<path fill-rule="evenodd" clip-rule="evenodd" d="M34.0055 22.0903C34.0055 21.9865 34.0896 21.9023 34.1934 21.9023C34.2971 21.9023 34.3813 21.9865 34.3813 22.0903C34.3813 22.1941 34.2971 22.2782 34.1934 22.2782C34.0896 22.2782 34.0055 22.1941 34.0055 22.0903Z" fill="white"/>
<path fill-rule="evenodd" clip-rule="evenodd" d="M33.3161 26.112C33.3161 25.9979 33.4085 25.9054 33.5226 25.9054C33.6367 25.9054 33.7292 25.9979 33.7292 26.112C33.7292 26.2261 33.6367 26.3185 33.5226 26.3185C33.4085 26.3185 33.3161 26.2261 33.3161 26.112Z" fill="white"/>
<path fill-rule="evenodd" clip-rule="evenodd" d="M31.5175 30.4252C31.5175 30.2804 31.6349 30.1628 31.7799 30.1628C31.9247 30.1628 32.0422 30.2804 32.0422 30.4252C32.0422 30.5702 31.9247 30.6875 31.7799 30.6875C31.6349 30.6875 31.5175 30.5702 31.5175 30.4252Z" fill="white"/>
<path fill-rule="evenodd" clip-rule="evenodd" d="M28.5181 34.72C28.5181 34.5822 28.63 34.4705 28.7678 34.4705C28.9057 34.4705 29.0174 34.5822 29.0174 34.72C29.0174 34.8579 28.9057 34.9697 28.7678 34.9697C28.63 34.9697 28.5181 34.8579 28.5181 34.72Z" fill="white"/>
<path fill-rule="evenodd" clip-rule="evenodd" d="M22.9241 39.5638C22.9241 39.3875 23.0671 39.2445 23.2434 39.2445C23.4196 39.2445 23.5626 39.3875 23.5626 39.5638C23.5626 39.74 23.4196 39.883 23.2434 39.883C23.0671 39.883 22.9241 39.74 22.9241 39.5638Z" fill="white"/>
<path fill-rule="evenodd" clip-rule="evenodd" d="M15.4828 42.1938C15.4828 42.0129 15.6296 41.8661 15.8105 41.8661C15.9915 41.8661 16.1383 42.0129 16.1383 42.1938C16.1383 42.3749 15.9915 42.5216 15.8105 42.5216C15.6296 42.5216 15.4828 42.3749 15.4828 42.1938Z" fill="white"/>
<path fill-rule="evenodd" clip-rule="evenodd" d="M7.92134 43.1472C7.92134 42.9638 8.06986 42.8152 8.25324 42.8152C8.43648 42.8152 8.58515 42.9638 8.58515 43.1472C8.58515 43.3304 8.43648 43.4791 8.25324 43.4791C8.06986 43.4791 7.92134 43.3304 7.92134 43.1472Z" fill="white"/>
<path fill-rule="evenodd" clip-rule="evenodd" d="M60.5116 65.8077C60.13 66.2349 59.9818 66.528 59.1838 66.7125C59.208 67.6045 59.7847 67.5032 60.0555 68.1457C60.6492 67.5181 61.3387 67.9004 61.4528 67.316C60.6482 66.6815 60.6675 66.288 60.5116 65.8077Z" fill="white"/>
<path fill-rule="evenodd" clip-rule="evenodd" d="M60.9378 72.0258C60.9378 72.0258 60.6887 72.5504 59.6419 72.441C59.3921 73.333 59.9944 73.2913 60.2968 73.9979C60.7803 73.6055 61.5597 73.809 61.7356 73.0725C61.0401 72.7214 60.9378 72.0258 60.9378 72.0258Z" fill="white"/>
<path fill-rule="evenodd" clip-rule="evenodd" d="M60.4591 60.5961C60.1941 61.0415 59.5381 61.0512 58.9689 61.1478C58.9467 62.46 59.6375 62.0729 59.7271 62.9537C60.5373 62.0507 60.967 62.8975 61.6197 61.7187C61.3756 61.5232 60.9065 61.397 60.4591 60.5961Z" fill="white"/>
<path fill-rule="evenodd" clip-rule="evenodd" d="M43.3336 80.4709C43.6552 80.5808 41.4576 85.9636 41.4576 85.9636C39.9408 85.4456 39.1312 83.7962 39.6492 82.2793C40.1672 80.7625 41.8167 79.9529 43.3336 80.4709Z" fill="white"/>
<path fill-rule="evenodd" clip-rule="evenodd" d="M33.8487 75.1447C35.4515 75.1447 36.7508 76.444 36.7508 78.0468C36.7508 79.6496 35.4515 80.9489 33.8487 80.9489C32.2459 80.9489 30.9466 79.6496 30.9466 78.0468C30.9466 76.444 32.2459 75.1447 33.8487 75.1447Z" fill="white"/>
<path fill-rule="evenodd" clip-rule="evenodd" d="M49.045 81.5273C47.5041 81.9686 46.6121 83.5768 47.0535 85.1177C47.4948 86.6584 49.1017 87.5462 50.6426 87.1047C50.9362 87.0206 51.1982 86.8841 51.4399 86.7237C50.6672 86.3915 50.0383 85.7375 49.7886 84.866C49.4314 83.6189 49.9573 82.3417 50.9839 81.6609C50.3906 81.4058 49.7142 81.3356 49.045 81.5273Z" fill="white"/>
<path fill-rule="evenodd" clip-rule="evenodd" d="M24.3633 64.7545C24.9797 66.2339 26.6802 66.934 28.1596 66.3175C29.6391 65.7011 30.3352 64.0023 29.7186 62.5229C29.6011 62.2408 29.4352 61.9965 29.248 61.7749C29.0073 62.5808 28.4305 63.2812 27.5936 63.6299C26.3961 64.1289 25.0666 63.7541 24.2718 62.813C24.087 63.4317 24.0954 64.1119 24.3633 64.7545Z" fill="white"/>
<path fill-rule="evenodd" clip-rule="evenodd" d="M25.8064 70.9285C25.6888 70.6096 31.2515 68.9183 31.2515 68.9183C31.8066 70.4219 31.0377 72.0908 29.5341 72.646C28.0305 73.2011 26.3615 72.4321 25.8064 70.9285Z" fill="white"/>
<path fill-rule="evenodd" clip-rule="evenodd" d="M35.7111 47.8904C35.7111 46.8833 36.5276 46.067 37.5345 46.067C38.5416 46.067 39.3579 46.8833 39.3579 47.8904C39.3579 48.8975 38.5416 49.7139 37.5345 49.7139C36.5276 49.7139 35.7111 48.8975 35.7111 47.8904Z" fill="white"/>
<path fill-rule="evenodd" clip-rule="evenodd" d="M43.0347 49.4288C43.0347 48.9018 43.4619 48.4746 43.9888 48.4746C44.5156 48.4746 44.9429 48.9018 44.9429 49.4288C44.9429 49.9556 44.5156 50.3828 43.9888 50.3828C43.4619 50.3828 43.0347 49.9556 43.0347 49.4288Z" fill="white"/>
<path fill-rule="evenodd" clip-rule="evenodd" d="M48.5105 50.8537C48.5105 50.5558 48.7519 50.3144 49.0497 50.3144C49.3476 50.3144 49.589 50.5558 49.589 50.8537C49.589 51.1514 49.3476 51.393 49.0497 51.393C48.7519 51.393 48.5105 51.1514 48.5105 50.8537Z" fill="white"/>
<path fill-rule="evenodd" clip-rule="evenodd" d="M38.3949 37.882C38.3949 36.8749 39.2114 36.0586 40.2184 36.0586C41.2255 36.0586 42.0418 36.8749 42.0418 37.882C42.0418 38.8891 41.2255 39.7055 40.2184 39.7055C39.2114 39.7055 38.3949 38.8891 38.3949 37.882Z" fill="white"/>
<path fill-rule="evenodd" clip-rule="evenodd" d="M44.6249 41.5922C44.6249 41.0652 45.0521 40.6382 45.5789 40.6382C46.1059 40.6382 46.5331 41.0652 46.5331 41.5922C46.5331 42.1191 46.1059 42.5462 45.5789 42.5462C45.0521 42.5462 44.6249 42.1191 44.6249 41.5922Z" fill="white"/>
<path fill-rule="evenodd" clip-rule="evenodd" d="M50.0028 44.5756C50.0028 44.2777 50.2443 44.0363 50.5422 44.0363C50.8399 44.0363 51.0814 44.2777 51.0814 44.5756C51.0814 44.8734 50.8399 45.1148 50.5422 45.1148C50.2443 45.1148 50.0028 44.8734 50.0028 44.5756Z" fill="white"/>
<path fill-rule="evenodd" clip-rule="evenodd" d="M33.7456 61.4533C33.7456 61.2715 33.8928 61.1241 34.0746 61.1241C34.2564 61.1241 34.4038 61.2715 34.4038 61.4533C34.4038 61.6352 34.2564 61.7824 34.0746 61.7824C33.8928 61.7824 33.7456 61.6352 33.7456 61.4533Z" fill="white"/>
<path fill-rule="evenodd" clip-rule="evenodd" d="M34.9669 67.5507C34.9669 67.369 35.1142 67.2216 35.296 67.2216C35.4778 67.2216 35.6252 67.369 35.6252 67.5507C35.6252 67.7325 35.4778 67.8799 35.296 67.8799C35.1142 67.8799 34.9669 67.7325 34.9669 67.5507Z" fill="white"/>
<path fill-rule="evenodd" clip-rule="evenodd" d="M38.382 72.7325C38.382 72.5507 38.5294 72.4034 38.7112 72.4034C38.893 72.4034 39.0403 72.5507 39.0403 72.7325C39.0403 72.9143 38.893 73.0615 38.7112 73.0615C38.5294 73.0615 38.382 72.9143 38.382 72.7325Z" fill="white"/>
<path fill-rule="evenodd" clip-rule="evenodd" d="M44.1267 76.0403C44.1267 75.8585 44.2741 75.7111 44.4559 75.7111C44.6376 75.7111 44.785 75.8585 44.785 76.0403C44.785 76.2221 44.6376 76.3693 44.4559 76.3693C44.2741 76.3693 44.1267 76.2221 44.1267 76.0403Z" fill="white"/>
<path fill-rule="evenodd" clip-rule="evenodd" d="M51.1597 76.972C51.1597 76.7903 51.307 76.6429 51.4888 76.6429C51.6706 76.6429 51.8179 76.7903 51.8179 76.972C51.8179 77.1538 51.6706 77.3012 51.4888 77.3012C51.307 77.3012 51.1597 77.1538 51.1597 76.972Z" fill="white"/>
<path fill-rule="evenodd" clip-rule="evenodd" d="M52.8361 58.4286C52.8361 58.1482 53.0591 57.921 53.3343 57.921C53.6094 57.921 53.8325 58.1482 53.8325 58.4286C53.8325 58.7089 53.6094 58.9362 53.3343 58.9362C53.0591 58.9362 52.8361 58.7089 52.8361 58.4286Z" fill="white"/>
<path fill-rule="evenodd" clip-rule="evenodd" d="M21.8009 31.0127C22.5416 31.4878 22.9494 30.4929 23.4992 30.5179C23.1405 30.1273 23.5609 29.7853 23.1755 29.3556C22.2469 30.1399 21.6119 29.8914 21.6119 29.8914C21.6119 29.8914 21.9769 30.2648 21.8009 31.0127Z" fill="white"/>
<path fill-rule="evenodd" clip-rule="evenodd" d="M21.9285 25.968C21.9285 25.968 22.6622 25.4433 22.7104 24.7488C23.3408 24.4854 23.6117 25.0891 24.287 25.2645C23.8278 25.6916 23.7191 26.2668 23.2488 26.5147C22.8932 25.7129 21.9285 25.968 21.9285 25.968Z" fill="white"/>
<path fill-rule="evenodd" clip-rule="evenodd" d="M65.4883 65.8077C65.8699 66.2349 66.0183 66.528 66.8162 66.7125C66.792 67.6045 66.2152 67.5032 65.9446 68.1457C65.3509 67.5181 64.5711 67.9166 64.4572 67.332C65.2617 66.6977 65.3325 66.288 65.4883 65.8077Z" fill="white"/>
<path fill-rule="evenodd" clip-rule="evenodd" d="M65.0622 72.0258C65.0622 72.0258 65.3113 72.5504 66.3581 72.441C66.608 73.333 66.0055 73.2913 65.7031 73.9979C65.2197 73.6055 64.4402 73.809 64.2643 73.0725C64.9598 72.7214 65.0622 72.0258 65.0622 72.0258Z" fill="white"/>
<path fill-rule="evenodd" clip-rule="evenodd" d="M65.5408 60.5961C65.8059 61.0415 66.462 61.0512 67.0312 61.1478C67.0534 62.46 66.3625 62.0729 66.2729 62.9537C65.4627 62.0507 65.0331 62.8975 64.3802 61.7187C64.6243 61.5232 65.0934 61.397 65.5408 60.5961Z" fill="white"/>
<path fill-rule="evenodd" clip-rule="evenodd" d="M114.523 37.7376C114.956 39.0944 116.031 40.0782 114.364 42.3546C112.891 40.159 113.811 39.1823 114.523 37.7376Z" fill="white"/>
<path fill-rule="evenodd" clip-rule="evenodd" d="M107.531 36.7968C108.441 38.5639 107.66 40.3219 106.429 40.9376C105.92 39.4919 105.572 38.3771 107.531 36.7968Z" fill="white"/>
<path fill-rule="evenodd" clip-rule="evenodd" d="M102.284 34.2901C100.726 34.9135 99.9492 35.5561 99.9492 37.35C101.77 36.9216 102.064 36.1184 102.284 34.2901Z" fill="white"/>
<path fill-rule="evenodd" clip-rule="evenodd" d="M98.3338 30.4499C97.9272 31.2315 97.4773 32.6764 95.5491 32.8153C95.8061 30.9722 97.5281 30.6178 98.3338 30.4499Z" fill="white"/>
<path fill-rule="evenodd" clip-rule="evenodd" d="M95.831 26.6694C95.1236 28.0947 94.0853 28.3205 92.7617 28.2303C93.1392 27.1696 94.5307 26.1694 95.831 26.6694Z" fill="white"/>
<path fill-rule="evenodd" clip-rule="evenodd" d="M94.436 22.9868C93.2168 24.0039 93.0348 24.1339 91.4446 23.7731C92.272 22.7972 92.9943 22.5008 94.436 22.9868Z" fill="white"/>
<path fill-rule="evenodd" clip-rule="evenodd" d="M123.673 25.3614C123.673 24.9253 123.319 24.5719 122.883 24.5719C122.447 24.5719 122.094 24.9253 122.094 25.3614C122.094 25.7973 122.447 26.1507 122.883 26.1507C123.319 26.1507 123.673 25.7973 123.673 25.3614Z" fill="white"/>
<path fill-rule="evenodd" clip-rule="evenodd" d="M123.77 23.112C123.77 22.8852 123.586 22.7016 123.359 22.7016C123.133 22.7016 122.949 22.8852 122.949 23.112C122.949 23.3386 123.133 23.5225 123.359 23.5225C123.586 23.5225 123.77 23.3386 123.77 23.112Z" fill="white"/>
<path fill-rule="evenodd" clip-rule="evenodd" d="M123.901 21.2552C123.901 21.1418 123.809 21.0499 123.696 21.0499C123.583 21.0499 123.491 21.1418 123.491 21.2552C123.491 21.3684 123.583 21.4603 123.696 21.4603C123.809 21.4603 123.901 21.3684 123.901 21.2552Z" fill="white"/>
<path fill-rule="evenodd" clip-rule="evenodd" d="M98.9694 28.9249C98.9694 28.8115 98.8775 28.7196 98.7643 28.7196C98.6509 28.7196 98.559 28.8115 98.559 28.9249C98.559 29.0381 98.6509 29.13 98.7643 29.13C98.8775 29.13 98.9694 29.0381 98.9694 28.9249Z" fill="white"/>
<path fill-rule="evenodd" clip-rule="evenodd" d="M97.9438 24.8378C97.9438 24.4018 97.5905 24.0484 97.1545 24.0484C96.7185 24.0484 96.3651 24.4018 96.3651 24.8378C96.3651 25.2737 96.7185 25.6271 97.1545 25.6271C97.5905 25.6271 97.9438 25.2737 97.9438 24.8378Z" fill="white"/>
<path fill-rule="evenodd" clip-rule="evenodd" d="M98.3399 27.0841C98.3399 26.8574 98.1561 26.6736 97.9293 26.6736C97.7027 26.6736 97.5189 26.8574 97.5189 27.0841C97.5189 27.3108 97.7027 27.4945 97.9293 27.4945C98.1561 27.4945 98.3399 27.3108 98.3399 27.0841Z" fill="white"/>
<path fill-rule="evenodd" clip-rule="evenodd" d="M111.892 21.6307C111.892 20.6232 111.075 19.8065 110.067 19.8065C109.06 19.8065 108.243 20.6232 108.243 21.6307C108.243 22.6381 109.06 23.4549 110.067 23.4549C111.075 23.4549 111.892 22.6381 111.892 21.6307Z" fill="white"/>
<path fill-rule="evenodd" clip-rule="evenodd" d="M109.635 25.0774C109.635 24.7552 109.374 24.4938 109.052 24.4938C108.729 24.4938 108.468 24.7552 108.468 25.0774C108.468 25.3998 108.729 25.6611 109.052 25.6611C109.374 25.6611 109.635 25.3998 109.635 25.0774Z" fill="white"/>
<path fill-rule="evenodd" clip-rule="evenodd" d="M107.316 31.011C107.316 30.8213 107.162 30.6673 106.972 30.6673C106.782 30.6673 106.628 30.8213 106.628 31.011C106.628 31.201 106.782 31.3549 106.972 31.3549C107.162 31.3549 107.316 31.201 107.316 31.011Z" fill="white"/>
<path fill-rule="evenodd" clip-rule="evenodd" d="M112.843 29.9667C113.537 30.165 113.909 29.4859 114.601 29.3992C114.052 29.0012 114.092 28.3659 113.343 28.1896C112.885 28.3619 112.213 28.6324 112.213 28.6324C112.213 28.6324 112.724 28.6598 112.843 29.9667Z" fill="white"/>
<path fill-rule="evenodd" clip-rule="evenodd" d="M109.677 31.5943C109.677 31.5943 109.771 32.1815 111.002 31.9534C111.087 32.6518 110.809 32.6212 110.644 33.3529C109.907 32.9753 109.25 33.3539 109.116 32.6818C109.651 32.1721 109.677 31.5943 109.677 31.5943Z" fill="white"/>
<path fill-rule="evenodd" clip-rule="evenodd" d="M104.199 31.0127C103.458 31.4878 103.05 30.4929 102.501 30.5179C102.86 30.1273 102.439 29.7853 102.824 29.3556C103.753 30.1399 104.388 29.8914 104.388 29.8914C104.388 29.8914 104.023 30.2648 104.199 31.0127Z" fill="white"/>
<path fill-rule="evenodd" clip-rule="evenodd" d="M104.072 25.968C104.072 25.968 103.338 25.4433 103.289 24.7488C102.659 24.4854 102.388 25.0891 101.713 25.2645C102.172 25.6916 102.281 26.2668 102.751 26.5147C103.107 25.7129 104.072 25.968 104.072 25.968Z" fill="white"/>
<path fill-rule="evenodd" clip-rule="evenodd" d="M91.9946 22.0903C91.9946 21.9865 91.9104 21.9023 91.8066 21.9023C91.7028 21.9023 91.6187 21.9865 91.6187 22.0903C91.6187 22.1941 91.7028 22.2782 91.8066 22.2782C91.9104 22.2782 91.9946 22.1941 91.9946 22.0903Z" fill="white"/>
<path fill-rule="evenodd" clip-rule="evenodd" d="M92.6838 26.112C92.6838 25.9979 92.5914 25.9054 92.4774 25.9054C92.3633 25.9054 92.2708 25.9979 92.2708 26.112C92.2708 26.2261 92.3633 26.3185 92.4774 26.3185C92.5914 26.3185 92.6838 26.2261 92.6838 26.112Z" fill="white"/>
<path fill-rule="evenodd" clip-rule="evenodd" d="M94.4825 30.4252C94.4825 30.2804 94.365 30.1628 94.2202 30.1628C94.0752 30.1628 93.9578 30.2804 93.9578 30.4252C93.9578 30.5702 94.0752 30.6875 94.2202 30.6875C94.365 30.6875 94.4825 30.5702 94.4825 30.4252Z" fill="white"/>
<path fill-rule="evenodd" clip-rule="evenodd" d="M97.4818 34.72C97.4818 34.5822 97.3701 34.4705 97.2322 34.4705C97.0944 34.4705 96.9825 34.5822 96.9825 34.72C96.9825 34.8579 97.0944 34.9697 97.2322 34.9697C97.3701 34.9697 97.4818 34.8579 97.4818 34.72Z" fill="white"/>
<path fill-rule="evenodd" clip-rule="evenodd" d="M103.076 39.5638C103.076 39.3875 102.933 39.2445 102.757 39.2445C102.58 39.2445 102.437 39.3875 102.437 39.5638C102.437 39.74 102.58 39.883 102.757 39.883C102.933 39.883 103.076 39.74 103.076 39.5638Z" fill="white"/>
<path fill-rule="evenodd" clip-rule="evenodd" d="M110.517 42.1938C110.517 42.0129 110.37 41.8661 110.19 41.8661C110.008 41.8661 109.862 42.0129 109.862 42.1938C109.862 42.3749 110.008 42.5216 110.19 42.5216C110.37 42.5216 110.517 42.3749 110.517 42.1938Z" fill="white"/>
<path fill-rule="evenodd" clip-rule="evenodd" d="M118.079 43.1472C118.079 42.9638 117.93 42.8152 117.747 42.8152C117.563 42.8152 117.415 42.9638 117.415 43.1472C117.415 43.3304 117.563 43.4791 117.747 43.4791C117.93 43.4791 118.079 43.3304 118.079 43.1472Z" fill="white"/>
<path fill-rule="evenodd" clip-rule="evenodd" d="M82.6665 80.4709C82.3447 80.5808 84.5424 85.9636 84.5424 85.9636C86.0591 85.4456 86.8687 83.7962 86.3507 82.2793C85.8328 80.7625 84.1833 79.9529 82.6665 80.4709Z" fill="white"/>
<path fill-rule="evenodd" clip-rule="evenodd" d="M92.1512 75.1447C90.5484 75.1447 89.2491 76.444 89.2491 78.0468C89.2491 79.6496 90.5484 80.9489 92.1512 80.9489C93.7541 80.9489 95.0534 79.6496 95.0534 78.0468C95.0534 76.444 93.7541 75.1447 92.1512 75.1447Z" fill="white"/>
<path fill-rule="evenodd" clip-rule="evenodd" d="M76.9551 81.5273C78.496 81.9686 79.3878 83.5768 78.9465 85.1177C78.5051 86.6584 76.8982 87.5462 75.3574 87.1047C75.0638 87.0206 74.8019 86.8841 74.5602 86.7237C75.3328 86.3915 75.9618 85.7375 76.2115 84.866C76.5687 83.6189 76.0427 82.3417 75.0161 81.6609C75.6092 81.4058 76.2859 81.3356 76.9551 81.5273Z" fill="white"/>
<path fill-rule="evenodd" clip-rule="evenodd" d="M101.637 64.7545C101.02 66.2339 99.3198 66.934 97.8404 66.3175C96.3608 65.7011 95.6649 64.0023 96.2813 62.5229C96.3988 62.2408 96.5649 61.9965 96.7519 61.7749C96.9926 62.5808 97.5695 63.2812 98.4065 63.6299C99.6039 64.1289 100.933 63.7541 101.728 62.813C101.913 63.4317 101.905 64.1119 101.637 64.7545Z" fill="white"/>
<path fill-rule="evenodd" clip-rule="evenodd" d="M100.193 70.9285C100.311 70.6096 94.7486 68.9183 94.7486 68.9183C94.1934 70.4219 94.9624 72.0908 96.4658 72.646C97.9694 73.2011 99.6384 72.4321 100.193 70.9285Z" fill="white"/>
<path fill-rule="evenodd" clip-rule="evenodd" d="M90.2888 47.8904C90.2888 46.8833 89.4725 46.067 88.4654 46.067C87.4584 46.067 86.642 46.8833 86.642 47.8904C86.642 48.8975 87.4584 49.7139 88.4654 49.7139C89.4725 49.7139 90.2888 48.8975 90.2888 47.8904Z" fill="white"/>
<path fill-rule="evenodd" clip-rule="evenodd" d="M82.9652 49.4288C82.9652 48.9018 82.5382 48.4746 82.0112 48.4746C81.4843 48.4746 81.0572 48.9018 81.0572 49.4288C81.0572 49.9556 81.4843 50.3828 82.0112 50.3828C82.5382 50.3828 82.9652 49.9556 82.9652 49.4288Z" fill="white"/>
<path fill-rule="evenodd" clip-rule="evenodd" d="M77.4896 50.8537C77.4896 50.5558 77.2482 50.3144 76.9502 50.3144C76.6523 50.3144 76.4109 50.5558 76.4109 50.8537C76.4109 51.1514 76.6523 51.393 76.9502 51.393C77.2482 51.393 77.4896 51.1514 77.4896 50.8537Z" fill="white"/>
<path fill-rule="evenodd" clip-rule="evenodd" d="M87.605 37.882C87.605 36.8749 86.7886 36.0586 85.7815 36.0586C84.7746 36.0586 83.9581 36.8749 83.9581 37.882C83.9581 38.8891 84.7746 39.7055 85.7815 39.7055C86.7886 39.7055 87.605 38.8891 87.605 37.882Z" fill="white"/>
<path fill-rule="evenodd" clip-rule="evenodd" d="M81.375 41.5922C81.375 41.0652 80.9479 40.6382 80.421 40.6382C79.894 40.6382 79.4669 41.0652 79.4669 41.5922C79.4669 42.1191 79.894 42.5462 80.421 42.5462C80.9479 42.5462 81.375 42.1191 81.375 41.5922Z" fill="white"/>
<path fill-rule="evenodd" clip-rule="evenodd" d="M75.9972 44.5756C75.9972 44.2777 75.7558 44.0363 75.4579 44.0363C75.16 44.0363 74.9186 44.2777 74.9186 44.5756C74.9186 44.8734 75.16 45.1148 75.4579 45.1148C75.7558 45.1148 75.9972 44.8734 75.9972 44.5756Z" fill="white"/>
<path fill-rule="evenodd" clip-rule="evenodd" d="M92.2545 61.4533C92.2545 61.2715 92.1071 61.1241 91.9253 61.1241C91.7436 61.1241 91.5962 61.2715 91.5962 61.4533C91.5962 61.6352 91.7436 61.7824 91.9253 61.7824C92.1071 61.7824 92.2545 61.6352 92.2545 61.4533Z" fill="white"/>
<path fill-rule="evenodd" clip-rule="evenodd" d="M87.6179 72.7325C87.6179 72.5507 87.4705 72.4034 87.2888 72.4034C87.107 72.4034 86.9596 72.5507 86.9596 72.7325C86.9596 72.9143 87.107 73.0615 87.2888 73.0615C87.4705 73.0615 87.6179 72.9143 87.6179 72.7325Z" fill="white"/>
<path fill-rule="evenodd" clip-rule="evenodd" d="M81.8732 76.0403C81.8732 75.8585 81.726 75.7111 81.5442 75.7111C81.3623 75.7111 81.215 75.8585 81.215 76.0403C81.215 76.2221 81.3623 76.3693 81.5442 76.3693C81.726 76.3693 81.8732 76.2221 81.8732 76.0403Z" fill="white"/>
<path fill-rule="evenodd" clip-rule="evenodd" d="M74.8403 76.972C74.8403 76.7903 74.6929 76.6429 74.5112 76.6429C74.3294 76.6429 74.182 76.7903 74.182 76.972C74.182 77.1538 74.3294 77.3012 74.5112 77.3012C74.6929 77.3012 74.8403 77.1538 74.8403 76.972Z" fill="white"/>
<path fill-rule="evenodd" clip-rule="evenodd" d="M73.164 58.4286C73.164 58.1482 72.9409 57.921 72.6658 57.921C72.3906 57.921 72.1676 58.1482 72.1676 58.4286C72.1676 58.7089 72.3906 58.9362 72.6658 58.9362C72.9409 58.9362 73.164 58.7089 73.164 58.4286Z" fill="white"/>
<path fill-rule="evenodd" clip-rule="evenodd" d="M113.618 18.1091C114.027 17.5696 114.549 17.7463 114.967 17.9512C115.503 17.4804 115.002 16.8136 114.912 16.1546C114.03 16.0579 113.299 15.72 113.028 16.4092C113.372 16.7863 113.814 17.4057 113.618 18.1091Z" fill="white"/>
<path fill-rule="evenodd" clip-rule="evenodd" d="M109.341 16.4725C109.696 15.8311 110.211 15.7788 110.983 15.5139C111.185 14.7484 110.076 14.6156 109.627 14.2275C109.25 14.6452 108.241 14.8206 108.45 15.6522C109 15.8249 109.14 16.071 109.341 16.4725Z" fill="white"/>
<path fill-rule="evenodd" clip-rule="evenodd" d="M6.08113 29.0751C6.08113 28.9894 6.15055 28.92 6.2362 28.92C6.32184 28.92 6.39127 28.9894 6.39127 29.0751C6.39127 29.1606 6.32184 29.23 6.2362 29.23C6.15055 29.23 6.08113 29.1606 6.08113 29.0751Z" fill="white"/>
<path fill-rule="evenodd" clip-rule="evenodd" d="M9.15848 32.2059C9.15848 32.117 9.23047 32.045 9.31938 32.045C9.4083 32.045 9.48042 32.117 9.48042 32.2059C9.48042 32.295 9.4083 32.367 9.31938 32.367C9.23047 32.367 9.15848 32.295 9.15848 32.2059Z" fill="white"/>
<path fill-rule="evenodd" clip-rule="evenodd" d="M12.3311 36.5655C12.3311 36.4799 12.4006 36.4104 12.4862 36.4104C12.5719 36.4104 12.6413 36.4799 12.6413 36.5655C12.6413 36.6512 12.5719 36.7206 12.4862 36.7206C12.4006 36.7206 12.3311 36.6512 12.3311 36.5655Z" fill="white"/>
<path fill-rule="evenodd" clip-rule="evenodd" d="M27.7778 21.7768C27.7778 21.6953 27.8441 21.629 27.9257 21.629C28.0074 21.629 28.0736 21.6953 28.0736 21.7768C28.0736 21.8585 28.0074 21.9248 27.9257 21.9248C27.8441 21.9248 27.7778 21.8585 27.7778 21.7768Z" fill="white"/>
<path fill-rule="evenodd" clip-rule="evenodd" d="M27.2981 17.7591C27.2981 17.6796 27.3625 17.6151 27.442 17.6151C27.5216 17.6151 27.586 17.6796 27.586 17.7591C27.586 17.8386 27.5216 17.9031 27.442 17.9031C27.3625 17.9031 27.2981 17.8386 27.2981 17.7591Z" fill="white"/>
<path fill-rule="evenodd" clip-rule="evenodd" d="M27.1171 14.4533C27.1171 14.3735 27.1817 14.3089 27.2615 14.3089C27.3412 14.3089 27.4059 14.3735 27.4059 14.4533C27.4059 14.533 27.3412 14.5977 27.2615 14.5977C27.1817 14.5977 27.1171 14.533 27.1171 14.4533Z" fill="white"/>
<path fill-rule="evenodd" clip-rule="evenodd" d="M119.919 29.0751C119.919 28.9894 119.849 28.92 119.764 28.92C119.678 28.92 119.609 28.9894 119.609 29.0751C119.609 29.1606 119.678 29.23 119.764 29.23C119.849 29.23 119.919 29.1606 119.919 29.0751Z" fill="white"/>
<path fill-rule="evenodd" clip-rule="evenodd" d="M116.842 32.2059C116.842 32.117 116.769 32.045 116.681 32.045C116.592 32.045 116.519 32.117 116.519 32.2059C116.519 32.295 116.592 32.367 116.681 32.367C116.769 32.367 116.842 32.295 116.842 32.2059Z" fill="white"/>
<path fill-rule="evenodd" clip-rule="evenodd" d="M98.2221 21.7768C98.2221 21.6953 98.156 21.629 98.0743 21.629C97.9926 21.629 97.9265 21.6953 97.9265 21.7768C97.9265 21.8585 97.9926 21.9248 98.0743 21.9248C98.156 21.9248 98.2221 21.8585 98.2221 21.7768Z" fill="white"/>
<path fill-rule="evenodd" clip-rule="evenodd" d="M98.702 17.7591C98.702 17.6796 98.6375 17.6151 98.558 17.6151C98.4785 17.6151 98.414 17.6796 98.414 17.7591C98.414 17.8386 98.4785 17.9031 98.558 17.9031C98.6375 17.9031 98.702 17.8386 98.702 17.7591Z" fill="white"/>
<path fill-rule="evenodd" clip-rule="evenodd" d="M98.8829 14.4533C98.8829 14.3735 98.8182 14.3089 98.7385 14.3089C98.6587 14.3089 98.5941 14.3735 98.5941 14.4533C98.5941 14.533 98.6587 14.5977 98.7385 14.5977C98.8182 14.5977 98.8829 14.533 98.8829 14.4533Z" fill="white"/>
<path fill-rule="evenodd" clip-rule="evenodd" d="M52.3462 6.72015C51.6029 8.26871 51.177 9.99582 51.177 11.8283C51.177 18.3663 56.4781 23.6676 63.0162 23.6676C69.5541 23.6676 74.8508 18.3663 74.8508 11.8283C74.8508 10.1655 74.505 8.58711 73.8861 7.15136C73.945 7.61045 73.9884 8.07225 73.9884 8.54727C73.9884 14.5682 69.1081 19.4529 63.0873 19.4529C57.0663 19.4529 52.1816 14.5682 52.1816 8.54727C52.1816 7.92287 52.2454 7.31596 52.3462 6.72015Z" fill="white"/>
<path fill-rule="evenodd" clip-rule="evenodd" d="M58.3072 76.8236C59.0091 76.5113 58.3072 76.8236 59.0091 76.5113Z" fill="white"/>
<path fill-rule="evenodd" clip-rule="evenodd" d="M61.4393 79.5621L61.8826 78.8058Z" fill="white"/>
<path fill-rule="evenodd" clip-rule="evenodd" d="M63.0217 80.8161L63.0193 78.5211Z" fill="white"/>
<path fill-rule="evenodd" clip-rule="evenodd" d="M55.3971 70.3629L56.298 70.2206Z" fill="white"/>
<path fill-rule="evenodd" clip-rule="evenodd" d="M54.9982 62.9537L55.8426 63.153Z" fill="white"/>
<path fill-rule="evenodd" clip-rule="evenodd" d="M57.6276 51.5218C57.1178 52.0223 57.6276 51.5218 57.1047 52.0355Z" fill="white"/>
<path fill-rule="evenodd" clip-rule="evenodd" d="M59.2953 52.8643C58.802 53.9724 59.3241 52.8246 58.802 53.9724Z" fill="white"/>
<path fill-rule="evenodd" clip-rule="evenodd" d="M61.0873 53.3865C60.72 55.6897 61.0836 53.4087 60.72 55.6897Z" fill="white"/>
<path fill-rule="evenodd" clip-rule="evenodd" d="M63.0391 53.4654C63.0422 56.9711 63.048 53.4654 63.0341 56.9711Z" fill="white"/>
<path fill-rule="evenodd" clip-rule="evenodd" d="M48.0989 24.5435C47.6018 24.5711 47.3372 23.6025 47.7556 23.09Z" fill="white"/>
<path fill-rule="evenodd" clip-rule="evenodd" d="M47.7853 26.3858C47.2964 26.2524 46.9376 25.7472 46.9161 25.0296Z" fill="white"/>
<path fill-rule="evenodd" clip-rule="evenodd" d="M47.7542 28.202C46.9373 28.0632 46.6044 27.241 46.6623 26.7162Z" fill="white"/>
<path fill-rule="evenodd" clip-rule="evenodd" d="M48.3646 30.394C47.5028 30.4417 46.8262 30.1823 46.6435 29.1045Z" fill="white"/>
<path fill-rule="evenodd" clip-rule="evenodd" d="M49.619 32.674C49.1593 33.2042 47.7944 33.0141 47.2406 31.8487Z" fill="white"/>
<path fill-rule="evenodd" clip-rule="evenodd" d="M51.4736 34.6913C50.882 35.3891 49.2012 35.2794 48.3949 33.9885Z" fill="white"/>
<path fill-rule="evenodd" clip-rule="evenodd" d="M53.8325 36.6436C53.1914 37.6045 51.1494 37.2234 50.3618 36.7461Z" fill="white"/>
<path fill-rule="evenodd" clip-rule="evenodd" d="M51.9597 38.5951C52.9647 39.8833 55.3887 39.2265 56.4068 38.5611Z" fill="white"/>
<path fill-rule="evenodd" clip-rule="evenodd" d="M54.1705 40.5776C55.2118 41.3798 57.4588 41.0342 58.4694 40.2397Z" fill="white"/>
<path fill-rule="evenodd" clip-rule="evenodd" d="M55.9973 42.2948C57.7512 43.0621 59.0848 42.2217 59.6452 41.6107Z" fill="white"/>
<path fill-rule="evenodd" clip-rule="evenodd" d="M48.141 24.8132C48.5637 25.004 49.0231 24.7789 49.3399 24.3315Z" fill="white"/>
<path fill-rule="evenodd" clip-rule="evenodd" d="M47.8361 26.8129C48.4439 26.8752 48.9754 26.5924 49.1464 26.2727Z" fill="white"/>
<path fill-rule="evenodd" clip-rule="evenodd" d="M47.9919 29.2242C49.0212 29.0738 49.2916 28.5107 49.384 28.1179Z" fill="white"/>
<path fill-rule="evenodd" clip-rule="evenodd" d="M48.8821 31.1781C49.6486 30.8422 50.0858 30.4203 49.9488 29.3519Z" fill="white"/>
<path fill-rule="evenodd" clip-rule="evenodd" d="M50.4621 33.6568C50.4616 33.6815 51.8319 32.9776 51.1716 31.304Z" fill="white"/>
<path fill-rule="evenodd" clip-rule="evenodd" d="M52.5767 35.5728C53.805 34.841 53.398 33.1622 53.0744 32.667Z" fill="white"/>
<path fill-rule="evenodd" clip-rule="evenodd" d="M54.9668 37.4524C55.4425 36.83 56.1252 35.5718 55.2118 34.1651Z" fill="white"/>
<path fill-rule="evenodd" clip-rule="evenodd" d="M57.2173 39.1882C58.0618 37.5631 57.8045 36.9492 57.2945 35.8276Z" fill="white"/>
<path fill-rule="evenodd" clip-rule="evenodd" d="M59.2264 40.9742C59.8128 40.779 59.998 38.6833 59.2676 37.9284Z" fill="white"/>
<path fill-rule="evenodd" clip-rule="evenodd" d="M10.6587 50.4919L18.0312 50.5529Z" fill="white"/>
<path fill-rule="evenodd" clip-rule="evenodd" d="M9.10257 45.5493L21.0259 45.5852Z" fill="white"/>
<path fill-rule="evenodd" clip-rule="evenodd" d="M24.8835 45.665L30.451 45.7448Z" fill="white"/>
<path fill-rule="evenodd" clip-rule="evenodd" d="M22.6946 41.8525L32.3919 41.7648Z" fill="white"/>
<path fill-rule="evenodd" clip-rule="evenodd" d="M28.8902 39.261L33.7992 39.3755Z" fill="white"/>
<path fill-rule="evenodd" clip-rule="evenodd" d="M30.4851 35.7306L32.0711 35.8532Z" fill="white"/>
<path fill-rule="evenodd" clip-rule="evenodd" d="M33.4481 35.8834L35.691 35.9657Z" fill="white"/>
<path fill-rule="evenodd" clip-rule="evenodd" d="M22.2306 50.547L24.3131 50.5508Z" fill="white"/>
<path fill-rule="evenodd" clip-rule="evenodd" d="M26.597 50.6547L33.3752 50.5898Z" fill="white"/>
<path fill-rule="evenodd" clip-rule="evenodd" d="M16.8942 55.7084L25.6943 55.7501Z" fill="white"/>
<path fill-rule="evenodd" clip-rule="evenodd" d="M28.5278 55.6897L35.3889 55.7575Z" fill="white"/>
<path fill-rule="evenodd" clip-rule="evenodd" d="M32.5316 32.8131L35.3166 32.9834Z" fill="white"/>
<path fill-rule="evenodd" clip-rule="evenodd" d="M37.1827 33.0467H38.6421Z" fill="white"/>
<path fill-rule="evenodd" clip-rule="evenodd" d="M33.4551 31.0402L42.132 31.0051Z" fill="white"/>
<path fill-rule="evenodd" clip-rule="evenodd" d="M34.1153 29.438L41.6436 29.2637Z" fill="white"/>
<path fill-rule="evenodd" clip-rule="evenodd" d="M34.5579 28.0769L40.4355 27.9222Z" fill="white"/>
<path fill-rule="evenodd" clip-rule="evenodd" d="M34.9413 26.5254L38.0593 26.3267Z" fill="white"/>
<path fill-rule="evenodd" clip-rule="evenodd" d="M38.0783 25.2874L35.1261 25.5056Z" fill="white"/>
<path fill-rule="evenodd" clip-rule="evenodd" d="M35.2906 24.1796L36.9798 24.0592Z" fill="white"/>
<path fill-rule="evenodd" clip-rule="evenodd" d="M12.7305 20.019L11.5043 19.3689Z" fill="white"/>
<path fill-rule="evenodd" clip-rule="evenodd" d="M14.9486 18.5219L14.3782 16.821Z" fill="white"/>
<path fill-rule="evenodd" clip-rule="evenodd" d="M17.3335 18.4737L18.2157 16.9806Z" fill="white"/>
<path fill-rule="evenodd" clip-rule="evenodd" d="M8.11766 18.0333L5.60368 16.9099Z" fill="white"/>
<path fill-rule="evenodd" clip-rule="evenodd" d="M10.438 14.6348L6.84524 10.6774Z" fill="white"/>
<path fill-rule="evenodd" clip-rule="evenodd" d="M13.7335 12.9114L11.5234 5.59924Z" fill="white"/>
<path fill-rule="evenodd" clip-rule="evenodd" d="M17.8604 12.9528L18.4934 7.93709Z" fill="white"/>
<path fill-rule="evenodd" clip-rule="evenodd" d="M21.5867 15.1978L23.2215 12.9807Z" fill="white"/>
<path fill-rule="evenodd" clip-rule="evenodd" d="M4.58364 12.8214L6.41147 14.1285Z" fill="white"/>
<path fill-rule="evenodd" clip-rule="evenodd" d="M8.51387 7.12234L9.87095 9.51838Z" fill="white"/>
<path fill-rule="evenodd" clip-rule="evenodd" d="M15.141 7.99073L15.0437 5.45569Z" fill="white"/>
<path fill-rule="evenodd" clip-rule="evenodd" d="M20.8934 11.0715L21.5633 9.62764Z" fill="white"/>
<path fill-rule="evenodd" clip-rule="evenodd" d="M19.0003 28.2717L21.4411 27.9788Z" fill="white"/>
<path fill-rule="evenodd" clip-rule="evenodd" d="M17.4796 28.7718L15.176 30.2485Z" fill="white"/>
<path fill-rule="evenodd" clip-rule="evenodd" d="M7.67991 37.4702L7.59612 38.4895Z" fill="white"/>
<path fill-rule="evenodd" clip-rule="evenodd" d="M15.0033 37.4883L15.1647 38.362Z" fill="white"/>
<path fill-rule="evenodd" clip-rule="evenodd" d="M21.2909 35.5416L21.7772 36.4181Z" fill="white"/>
<path fill-rule="evenodd" clip-rule="evenodd" d="M26.0486 32.1951L26.6079 32.7215Z" fill="white"/>
<path fill-rule="evenodd" clip-rule="evenodd" d="M29 28.6264L29.6235 29.0481Z" fill="white"/>
<path fill-rule="evenodd" clip-rule="evenodd" d="M30.9261 24.8521L31.3871 25.0595Z" fill="white"/>
<path fill-rule="evenodd" clip-rule="evenodd" d="M31.9405 21.2334L32.3447 21.32Z" fill="white"/>
<path fill-rule="evenodd" clip-rule="evenodd" d="M29.9492 18.9883L32.2055 18.8392Z" fill="white"/>
<path fill-rule="evenodd" clip-rule="evenodd" d="M30.683 21.8015L32.0614 20.2448Z" fill="white"/>
<path fill-rule="evenodd" clip-rule="evenodd" d="M29.2278 16.4429L30.7409 17.0852Z" fill="white"/>
<path fill-rule="evenodd" clip-rule="evenodd" d="M3.09278 30.4324L2.10658 33.5593Z" fill="white"/>
<path fill-rule="evenodd" clip-rule="evenodd" d="M2.8508 36.4075L4.94058 34.0791Z" fill="white"/>
<path fill-rule="evenodd" clip-rule="evenodd" d="M5.15 36.9024L8.21924 36.0448Z" fill="white"/>
<path fill-rule="evenodd" clip-rule="evenodd" d="M63.0288 58.7476L63.0392 60.8567Z" fill="white"/>
<path fill-rule="evenodd" clip-rule="evenodd" d="M63.0277 64.107V66.4611Z" fill="white"/>
<path fill-rule="evenodd" clip-rule="evenodd" d="M61.1579 70.5915L59.8022 71.3511Z" fill="white"/>
<path fill-rule="evenodd" clip-rule="evenodd" d="M61.0025 64.1695L58.802 65.2841Z" fill="white"/>
<path fill-rule="evenodd" clip-rule="evenodd" d="M60.3723 58.678L58.802 59.9129Z" fill="white"/>
<path fill-rule="evenodd" clip-rule="evenodd" d="M67.6929 76.8236C66.9908 76.5113 67.6929 76.8236 66.9908 76.5113Z" fill="white"/>
<path fill-rule="evenodd" clip-rule="evenodd" d="M64.2762 79.5621L63.8328 78.8058Z" fill="white"/>
<path fill-rule="evenodd" clip-rule="evenodd" d="M70.6029 70.3629L69.7021 70.2206Z" fill="white"/>
<path fill-rule="evenodd" clip-rule="evenodd" d="M71.0018 62.9537L70.1575 63.153Z" fill="white"/>
<path fill-rule="evenodd" clip-rule="evenodd" d="M68.3725 51.5218C68.8821 52.0223 68.3725 51.5218 68.8952 52.0355Z" fill="white"/>
<path fill-rule="evenodd" clip-rule="evenodd" d="M66.7046 52.8643C67.1979 53.9724 66.6758 52.8246 67.1979 53.9724Z" fill="white"/>
<path fill-rule="evenodd" clip-rule="evenodd" d="M64.9126 53.3865C65.28 55.6897 64.9163 53.4087 65.2801 55.6897Z" fill="white"/>
<path fill-rule="evenodd" clip-rule="evenodd" d="M77.901 24.5435C78.3982 24.5711 78.6627 23.6025 78.2444 23.09Z" fill="white"/>
<path fill-rule="evenodd" clip-rule="evenodd" d="M78.2147 26.3858C78.7037 26.2524 79.0625 25.7472 79.0838 25.0296Z" fill="white"/>
<path fill-rule="evenodd" clip-rule="evenodd" d="M78.2457 28.202C79.0626 28.0632 79.3956 27.241 79.3377 26.7162Z" fill="white"/>
<path fill-rule="evenodd" clip-rule="evenodd" d="M77.6354 30.394C78.4971 30.4417 79.1737 30.1823 79.3564 29.1045Z" fill="white"/>
<path fill-rule="evenodd" clip-rule="evenodd" d="M76.381 32.674C76.8407 33.2042 78.2055 33.0141 78.7594 31.8487Z" fill="white"/>
<path fill-rule="evenodd" clip-rule="evenodd" d="M74.5263 34.6913C75.118 35.3891 76.7987 35.2794 77.6051 33.9885Z" fill="white"/>
<path fill-rule="evenodd" clip-rule="evenodd" d="M72.1676 36.6436C72.8085 37.6045 74.8507 37.2234 75.6381 36.7461Z" fill="white"/>
<path fill-rule="evenodd" clip-rule="evenodd" d="M74.0402 38.5951C73.0352 39.8833 70.6113 39.2265 69.5933 38.5611Z" fill="white"/>
<path fill-rule="evenodd" clip-rule="evenodd" d="M71.8295 40.5776C70.7881 41.3798 68.5411 41.0342 67.5307 40.2397Z" fill="white"/>
<path fill-rule="evenodd" clip-rule="evenodd" d="M70.0026 42.2948C68.2488 43.0621 66.9151 42.2217 66.3549 41.6107Z" fill="white"/>
<path fill-rule="evenodd" clip-rule="evenodd" d="M77.8589 24.8132C77.4362 25.004 76.977 24.7789 76.6602 24.3315Z" fill="white"/>
<path fill-rule="evenodd" clip-rule="evenodd" d="M78.1639 26.8129C77.5562 26.8752 77.0247 26.5924 76.8535 26.2727Z" fill="white"/>
<path fill-rule="evenodd" clip-rule="evenodd" d="M78.008 29.2242C76.9788 29.0738 76.7084 28.5107 76.6161 28.1179Z" fill="white"/>
<path fill-rule="evenodd" clip-rule="evenodd" d="M77.1178 31.1781C76.3513 30.8422 75.9143 30.4203 76.0513 29.3519Z" fill="white"/>
<path fill-rule="evenodd" clip-rule="evenodd" d="M75.5378 33.6568C75.5384 33.6815 74.168 32.9776 74.8284 31.304Z" fill="white"/>
<path fill-rule="evenodd" clip-rule="evenodd" d="M73.4233 35.5728C72.1949 34.841 72.6019 33.1622 72.9257 32.667Z" fill="white"/>
<path fill-rule="evenodd" clip-rule="evenodd" d="M71.0331 37.4524C70.5575 36.83 69.8748 35.5718 70.7881 34.1651Z" fill="white"/>
<path fill-rule="evenodd" clip-rule="evenodd" d="M68.7828 39.1882C67.9381 37.5631 68.1955 36.9492 68.7055 35.8276Z" fill="white"/>
<path fill-rule="evenodd" clip-rule="evenodd" d="M66.7737 40.9742C66.1871 40.779 66.0019 38.6833 66.7324 37.9284Z" fill="white"/>
<path fill-rule="evenodd" clip-rule="evenodd" d="M115.341 50.4919L107.969 50.5529Z" fill="white"/>
<path fill-rule="evenodd" clip-rule="evenodd" d="M116.897 45.5493L104.974 45.5852Z" fill="white"/>
<path fill-rule="evenodd" clip-rule="evenodd" d="M101.117 45.665L95.5491 45.7448Z" fill="white"/>
<path fill-rule="evenodd" clip-rule="evenodd" d="M103.305 41.8525L93.6081 41.7648Z" fill="white"/>
<path fill-rule="evenodd" clip-rule="evenodd" d="M97.1099 39.261L92.2007 39.3755Z" fill="white"/>
<path fill-rule="evenodd" clip-rule="evenodd" d="M95.5149 35.7306L93.9288 35.8532Z" fill="white"/>
<path fill-rule="evenodd" clip-rule="evenodd" d="M92.5518 35.8834L90.3089 35.9657Z" fill="white"/>
<path fill-rule="evenodd" clip-rule="evenodd" d="M103.769 50.547L101.687 50.5508Z" fill="white"/>
<path fill-rule="evenodd" clip-rule="evenodd" d="M99.4031 50.6547L92.6247 50.5898Z" fill="white"/>
<path fill-rule="evenodd" clip-rule="evenodd" d="M109.106 55.7084L100.306 55.7501Z" fill="white"/>
<path fill-rule="evenodd" clip-rule="evenodd" d="M97.4722 55.6897L90.611 55.7575Z" fill="white"/>
<path fill-rule="evenodd" clip-rule="evenodd" d="M93.4684 32.8131L90.6834 32.9834Z" fill="white"/>
<path fill-rule="evenodd" clip-rule="evenodd" d="M88.8172 33.0467H87.3578Z" fill="white"/>
<path fill-rule="evenodd" clip-rule="evenodd" d="M92.5448 31.0402L83.8681 31.0051Z" fill="white"/>
<path fill-rule="evenodd" clip-rule="evenodd" d="M91.8847 29.438L84.3563 29.2637Z" fill="white"/>
<path fill-rule="evenodd" clip-rule="evenodd" d="M91.442 28.0769L85.5646 27.9222Z" fill="white"/>
<path fill-rule="evenodd" clip-rule="evenodd" d="M91.0587 26.5254L87.9407 26.3267Z" fill="white"/>
<path fill-rule="evenodd" clip-rule="evenodd" d="M87.9216 25.2874L90.8739 25.5056Z" fill="white"/>
<path fill-rule="evenodd" clip-rule="evenodd" d="M90.7095 24.1796L89.0202 24.0592Z" fill="white"/>
<path fill-rule="evenodd" clip-rule="evenodd" d="M113.269 20.019L114.496 19.3689Z" fill="white"/>
<path fill-rule="evenodd" clip-rule="evenodd" d="M111.051 18.5219L111.622 16.821Z" fill="white"/>
<path fill-rule="evenodd" clip-rule="evenodd" d="M108.667 18.4737L107.784 16.9806Z" fill="white"/>
<path fill-rule="evenodd" clip-rule="evenodd" d="M117.882 18.0333L120.396 16.9099Z" fill="white"/>
<path fill-rule="evenodd" clip-rule="evenodd" d="M115.562 14.6348L119.155 10.6774Z" fill="white"/>
<path fill-rule="evenodd" clip-rule="evenodd" d="M112.267 12.9114L114.477 5.59924Z" fill="white"/>
<path fill-rule="evenodd" clip-rule="evenodd" d="M108.139 12.9528L107.507 7.93709Z" fill="white"/>
<path fill-rule="evenodd" clip-rule="evenodd" d="M104.413 15.1978L102.778 12.9807Z" fill="white"/>
<path fill-rule="evenodd" clip-rule="evenodd" d="M121.416 12.8214L119.588 14.1285Z" fill="white"/>
<path fill-rule="evenodd" clip-rule="evenodd" d="M117.486 7.12234L116.129 9.51838Z" fill="white"/>
<path fill-rule="evenodd" clip-rule="evenodd" d="M110.859 7.99073L110.956 5.45569Z" fill="white"/>
<path fill-rule="evenodd" clip-rule="evenodd" d="M105.106 11.0715L104.437 9.62764Z" fill="white"/>
<path fill-rule="evenodd" clip-rule="evenodd" d="M107 28.2717L104.559 27.9788Z" fill="white"/>
<path fill-rule="evenodd" clip-rule="evenodd" d="M108.52 28.7718L110.824 30.2485Z" fill="white"/>
<path fill-rule="evenodd" clip-rule="evenodd" d="M118.32 37.4702L118.404 38.4895Z" fill="white"/>
<path fill-rule="evenodd" clip-rule="evenodd" d="M110.997 37.4883L110.835 38.362Z" fill="white"/>
<path fill-rule="evenodd" clip-rule="evenodd" d="M104.709 35.5416L104.223 36.4181Z" fill="white"/>
<path fill-rule="evenodd" clip-rule="evenodd" d="M99.9514 32.1951L99.3921 32.7215Z" fill="white"/>
<path fill-rule="evenodd" clip-rule="evenodd" d="M96.9999 28.6264L96.3765 29.0481Z" fill="white"/>
<path fill-rule="evenodd" clip-rule="evenodd" d="M95.0739 24.8521L94.6128 25.0595Z" fill="white"/>
<path fill-rule="evenodd" clip-rule="evenodd" d="M94.0596 21.2334L93.6552 21.32Z" fill="white"/>
<path fill-rule="evenodd" clip-rule="evenodd" d="M96.0508 18.9883L93.7944 18.8392Z" fill="white"/>
<path fill-rule="evenodd" clip-rule="evenodd" d="M95.317 21.8015L93.9385 20.2448Z" fill="white"/>
<path fill-rule="evenodd" clip-rule="evenodd" d="M96.7723 16.4429L95.2591 17.0852Z" fill="white"/>
<path fill-rule="evenodd" clip-rule="evenodd" d="M122.907 30.4324L123.893 33.5593Z" fill="white"/>
<path fill-rule="evenodd" clip-rule="evenodd" d="M123.149 36.4075L121.059 34.0791Z" fill="white"/>
<path fill-rule="evenodd" clip-rule="evenodd" d="M120.85 36.9024L117.781 36.0448Z" fill="white"/>
<path fill-rule="evenodd" clip-rule="evenodd" d="M113.669 36.5655C113.669 36.4799 113.599 36.4104 113.514 36.4104C113.428 36.4104 113.359 36.4799 113.359 36.5655C113.359 36.6512 113.428 36.7206 113.514 36.7206C113.599 36.7206 113.669 36.6512 113.669 36.5655Z" fill="white"/>
<path fill-rule="evenodd" clip-rule="evenodd" d="M63.0315 70.6535V72.5263Z" fill="white"/>
<path fill-rule="evenodd" clip-rule="evenodd" d="M64.842 70.5915L66.1978 71.3511Z" fill="white"/>
<path fill-rule="evenodd" clip-rule="evenodd" d="M64.9974 64.1695L67.1979 65.2841Z" fill="white"/>
<path fill-rule="evenodd" clip-rule="evenodd" d="M65.6276 58.678L67.1979 59.9129Z" fill="white"/>
<path fill-rule="evenodd" clip-rule="evenodd" d="M64.7626 76.1857C64.7626 78.4277 61.2373 78.4277 61.2373 76.1857Z" fill="white"/>
<path d="M11.477 37.7376C11.0444 39.0944 9.96925 40.0782 11.636 42.3546C13.1086 40.159 12.1889 39.1823 11.477 37.7376ZM11.477 37.7376C8.27031 43.3635 3.72652 39.001 2.96114 36.4738M11.477 37.7376C12.2889 40.2244 17.2154 41.2687 18.5038 36.678C19.7638 38.2982 23.9333 38.6841 23.7096 34.1077C24.575 35.0212 29.0115 34.3826 27.7092 30.3973C29.1461 31.2098 31.9176 29.7405 30.1784 26.5558C31.382 26.7685 33.5817 25.0431 31.5678 22.8938M11.033 17.9512C11.4511 17.7463 11.9731 17.5696 12.3815 18.1091C12.1863 17.4057 12.6282 16.7863 12.9718 16.4092M11.033 17.9512C10.4968 17.4804 10.9977 16.8136 11.088 16.1546C11.9696 16.0579 12.7012 15.72 12.9718 16.4092M11.033 17.9512L12.9718 16.4092M15.0171 15.5139C15.7885 15.7788 16.3043 15.8311 16.6594 16.4725C16.8599 16.071 17 15.8249 17.5496 15.6522M15.0171 15.5139C14.8152 14.7484 15.9242 14.6156 16.3732 14.2275C16.7499 14.6452 17.7587 14.8206 17.5496 15.6522M15.0171 15.5139L17.5496 15.6522M62.9857 51.629C62.2279 51.629 61.6136 51.0147 61.6136 50.257C61.6136 49.4992 62.2279 48.8849 62.9857 48.8849C60.3655 48.8661 57.6957 49.7244 56.5701 50.3817C58.6581 52.767 59.6271 53.4425 63.0012 53.4654M21.8009 31.0127C22.5416 31.4878 22.9494 30.4929 23.4992 30.5179C23.1405 30.1273 23.5609 29.7853 23.1755 29.3556C22.2469 30.1399 21.6119 29.8914 21.6119 29.8914C21.6119 29.8914 21.9769 30.2648 21.8009 31.0127ZM21.8009 31.0127C21.8009 29.4986 20.5735 28.2711 19.0592 28.2711C17.545 28.2711 16.3174 29.4986 16.3174 31.0127C16.3174 32.527 17.545 33.7545 19.0592 33.7545C20.5735 33.7545 21.8009 32.527 21.8009 31.0127ZM63.0143 51.629C63.7722 51.629 64.3865 51.0147 64.3865 50.257C64.3865 49.4992 63.7722 48.8849 63.0143 48.8849C65.6344 48.8661 68.3042 49.7244 69.4299 50.3817C67.3419 52.767 66.3729 53.4425 62.9987 53.4654M114.523 37.7376C114.956 39.0944 116.031 40.0782 114.364 42.3546C112.891 40.159 113.811 39.1823 114.523 37.7376ZM114.523 37.7376C117.73 43.3635 122.273 39.001 123.039 36.4738M114.523 37.7376C113.711 40.2244 108.785 41.2687 107.496 36.678M104.199 31.0127C103.458 31.4878 103.05 30.4929 102.501 30.5179C102.86 30.1273 102.439 29.7853 102.824 29.3556C103.753 30.1399 104.388 29.8914 104.388 29.8914C104.388 29.8914 104.023 30.2648 104.199 31.0127ZM104.199 31.0127C104.199 29.4986 105.427 28.2711 106.941 28.2711C108.455 28.2711 109.682 29.4986 109.682 31.0127C109.682 32.527 108.455 33.7545 106.941 33.7545C105.427 33.7545 104.199 32.527 104.199 31.0127ZM56.0194 53.0921C56.006 53.0921 55.9952 53.103 55.9952 53.1163C55.9952 53.1297 56.006 53.1405 56.0194 53.1405M57.9413 55.75C57.9279 55.75 57.9171 55.7609 57.9171 55.7742C57.9171 55.7875 57.9279 55.7984 57.9413 55.7984M60.4197 57.1286C60.4063 57.1286 60.3955 57.1394 60.3955 57.1528C60.3955 57.1662 60.4063 57.177 60.4197 57.177M62.9857 57.9452C62.9857 57.9586 62.9965 57.9694 63.0099 57.9694C63.0231 57.9694 63.0341 57.9586 63.0341 57.9452M69.9806 53.0921C69.994 53.0921 70.0048 53.103 70.0048 53.1163C70.0048 53.1297 69.994 53.1405 69.9806 53.1405M68.0588 55.75C68.0721 55.75 68.083 55.7609 68.083 55.7742C68.083 55.7875 68.0721 55.7984 68.0588 55.7984M65.5804 57.1286C65.5936 57.1286 65.6046 57.1394 65.6046 57.1528C65.6046 57.1662 65.5936 57.177 65.5804 57.177M58.6313 46.2894C57.4011 41.8379 62.9857 42.0928 62.9857 42.0928M62.9857 45.2395C57.8575 45.1178 52.0983 50.0725 54.7248 55.9329M54.7248 55.9329C55.3769 57.388 57.1888 58.8076 62.9857 58.7456M54.7248 55.9329C44.8981 53.5252 25.8776 65.1 12.7848 52.6821C-2.53836 38.1486 1.29913 17.2719 1.75699 14.4566C4.48889 -2.34161 12.1724 0.367843 16.7331 2.84682C22.0187 5.71988 51.5561 42.0901 58.5167 46.3488M57.285 58.0697C53.8585 58.7456 54.717 70.2846 56.3348 73.6876M56.3348 73.6876C59.411 79.6141 62.467 80.2405 63.0139 82.4533M56.3348 73.6876C59.411 79.6141 62.4283 80.2048 62.9752 82.4176M55.3281 60.8131C55.8248 63.7347 60.72 64.107 62.9752 64.107M54.9996 67.1471C56.1393 70.2595 59.9713 70.6535 62.9752 70.6535M56.6291 74.2112C58.0552 76.357 61.4106 76.2067 62.9752 76.2112M59.3619 78.1603C59.1473 77.167 60.0199 76.0609 61.2373 76.1857C61.2373 78.4277 64.7626 78.4277 64.7626 76.1857C65.9801 76.0609 66.8526 77.167 66.6381 78.1603M61.4393 79.5621L61.8826 78.8058M63.0217 80.8161L63.0193 78.5211M56.3083 73.6293C55.7701 70.6535 58.2396 70.4036 59.7271 70.4195M55.3971 70.3629L56.298 70.2206M54.9982 62.9537L55.8426 63.153M54.9277 65.6833C54.9224 64.4701 55.8892 63.3947 58.7675 63.6319M58.611 63.6201C55.5481 63.8633 57.0623 66.274 56.7337 67.0541C57.5637 66.5711 59.3983 67.3719 60.5321 65.7437M61.1274 70.6249C60.1508 72.8762 62.8829 73.4363 63.0046 74.42M59.5847 70.4188C58.0076 70.8257 58.7815 71.5778 58.6071 72.5263C59.9483 72.2798 60.2968 72.7335 60.967 71.941M57.4849 58.1155C56.298 59.2957 57.5534 60.3327 57.285 61.7101C58.7139 60.8132 59.9713 61.3981 60.4493 60.5741M60.3766 58.6563C59.7271 61.8399 62.1623 61.2946 63.0193 63.0534M63.0277 47.0343C62.1229 47.0627 58.5871 47.0343 56.5744 50.3792M61.3417 53.3776C58.9505 52.6113 58.9802 50.2496 59.8796 49.2229M63.0391 53.4654C63.0422 56.9711 63.048 53.4654 63.0341 56.9711M2.86232 36.4462C21.9191 41.8828 31.85 29.0381 32.2099 18.7241M7.04313 45.6946C26.113 44.7347 35.3357 33.8561 35.3822 22.2701M31.5678 22.8938C32.1744 22.8515 34.7138 21.5218 32.2045 18.8635M31.5678 22.8938C30.4276 23.8371 29.9365 23.3106 29.1074 23.4653C29.2104 22.403 28.6334 21.3712 29.6686 20.8184M10.6587 50.4919L18.0312 50.5529M9.10257 45.5493L21.0259 45.5852M24.8835 45.665L30.451 45.7448M22.6946 41.8525L32.3919 41.7648M28.8902 39.261L33.7992 39.3755M30.4851 35.7306L32.0711 35.8532M33.4481 35.8834L35.691 35.9657M22.2306 50.547L24.3131 50.5508M26.597 50.6547L33.3752 50.5898M16.8942 55.7084L25.6943 55.7501M28.5278 55.6897L35.3889 55.7575M32.5316 32.8131L35.3166 32.9834M37.1827 33.0467H38.6421M33.4551 31.0402L42.132 31.0051M34.1153 29.438L41.6436 29.2637M34.5579 28.0769L40.4355 27.9222M34.9413 26.5254L38.0593 26.3267M38.0783 25.2874L35.1261 25.5056M35.2906 24.1796L36.9798 24.0592M2.14371 12.556C1.87585 24.2558 14.5321 38.8419 21.2417 35.5667C29.5006 31.535 27.5473 12.5421 23.3713 9.04364M2.17625 33.8655C2.70199 30.2354 6.32341 31.4145 7.75119 30.852C6.95364 32.2315 9.10726 35.1305 4.99592 36.9737M1.39982 29.5367C1.62996 27.8244 3.39686 28.3467 4.46499 27.5809C4.66942 29.1774 5.7478 29.5751 4.87898 31.164M7.58929 34.0138C9.033 32.9359 9.71758 34.364 11.278 34.1356C10.5793 35.4916 11.5003 36.8483 9.57503 37.6682M30.7409 17.0852C28.3531 17.2182 28.8572 18.5268 27.6057 19.473C28.8391 19.7541 29.3776 22.0456 32.0919 20.2249L30.7409 17.0852ZM30.7409 17.0852L29.2278 16.4429M28.8883 17.7947C27.6364 17.8136 28.0084 16.2538 27.5061 15.7806C28.3141 15.5937 28.5563 15.0995 29.0162 15.1714M13.3794 19.3595C10.85 17.2757 13.7208 16.4567 13.7791 14.8127C14.795 16.097 17.3934 14.9763 16.7132 18.362M12.3666 18.0011C11.4416 17.2653 11.1691 18.2518 9.6961 18.3083C10.476 19.3635 9.61103 20.6784 12.1873 20.8848M16.6879 16.5675C16.911 15.3204 18.2029 15.7448 19.045 15.2824C19.0131 16.3063 20.1933 17.846 18.38 18.8866M12.7305 20.019L11.5043 19.3689M14.9486 18.5219L14.3782 16.821M17.3335 18.4737L18.2157 16.9806M8.11766 18.0333L5.60368 16.9099M10.438 14.6348L6.84524 10.6774M13.7335 12.9114L11.5234 5.59924M17.8604 12.9528L18.4934 7.93709M21.5867 15.1978L23.2215 12.9807M4.58364 12.8214L6.41147 14.1285M8.51387 7.12234L9.87095 9.51838M15.141 7.99073L15.0437 5.45569M20.8934 11.0715L21.5633 9.62764M19.0003 28.2717L21.4411 27.9788M17.4796 28.7718L15.176 30.2485M13.8909 28.5836C12.7783 29.0463 13.4858 30.4761 13.1746 31.922C14.4442 31.5499 15.8801 32.5366 16.364 31.5179M21.5584 29.8837C23.4055 30.1675 23.3205 28.1242 24.263 27.6745C23.2697 27.0543 23.4148 25.8381 21.8428 25.9741M7.67991 37.4702L7.59612 38.4895M15.0033 37.4883L15.1647 38.362M21.2909 35.5416L21.7772 36.4181M26.0486 32.1951L26.6079 32.7215M29 28.6264L29.6235 29.0481M30.9261 24.8521L31.3871 25.0595M31.9405 21.2334L32.3447 21.32M29.9492 18.9883L32.2055 18.8392M30.683 21.8015L32.0614 20.2448M3.09278 30.4324L2.10658 33.5593M2.8508 36.4075L4.94058 34.0791M5.15 36.9024L8.21924 36.0448M59.9713 42.6922C59.9713 38.2517 43.9804 34.8262 48.5985 23.2513M32.1617 58.3786C26.91 59.0263 20.5975 59.5927 22.7931 69.6517C23.7783 74.1655 30.4995 89.0986 50.0929 88.9468C56.4931 88.8971 54.4869 74.456 55.0518 67.2828M32.5646 58.3414C30.858 62.5085 32.8176 81.4471 54.7026 79.3211M50.4422 55.6148C49.3915 58.6594 51.5991 62.0051 55.0817 62.1719M32.5298 65.546L50.3083 58.3337M34.8232 71.2304L51.0926 60.0155M39.7307 76.2365L52.205 61.156M46.8935 79.0303L53.3108 61.7821M42.91 30.67C28.9765 36.3533 32.3559 51.4361 35.8243 56.3346C36.2989 57.0048 36.7751 57.4844 37.209 57.7231M50.0862 38.4646C48.3452 39.1792 39.8404 32.2264 39.8404 32.2264C39.8404 32.2264 57.7573 46.0477 56.1479 48.1273C54.5384 50.207 33.4652 40.5733 33.4652 40.5733C33.4652 40.5733 54.0557 49.1075 54.1495 51.9796C54.2432 54.8515 33.8574 52.0435 33.8574 52.0435C33.8574 52.0435 48.2002 54.325 48.3598 55.7994M63.0288 58.7476L63.0392 60.8567M63.0277 64.107V66.4611M61.1579 70.5915L59.8022 71.3511M61.0025 64.1695L58.802 65.2841M60.3723 58.678L58.802 59.9129M31.1922 58.5491C28.8391 70.7797 39.2327 83.0031 54.6729 80.4916M23.3644 61.9015C22.8648 86.6536 48.9238 89.8479 53.1904 87.0936M67.3688 46.2894C68.5988 41.8379 63.0143 42.0928 63.0143 42.0928M63.0143 45.2395C68.1426 45.1178 73.9018 50.0725 71.2751 55.9329M71.2751 55.9329C70.623 57.388 68.8112 58.8076 63.0143 58.7456M71.2751 55.9329C81.102 53.5252 100.122 65.1 113.215 52.6821C128.538 38.1486 124.701 17.2719 124.243 14.4566C121.511 -2.34161 113.828 0.367843 109.267 2.84682C103.981 5.71988 74.4439 42.0901 67.4832 46.3488M68.715 58.0697C72.1414 58.7456 71.2829 70.2846 69.6652 73.6876M69.6652 73.6876C66.589 79.6141 63.5329 80.2405 62.9861 82.4533M69.6652 73.6876C66.589 79.6141 63.5716 80.2048 63.0249 82.4176M70.6718 60.8131C70.1753 63.7347 65.28 64.107 63.0249 64.107M71.0003 67.1471C69.8607 70.2595 66.0287 70.6535 63.0249 70.6535M69.3708 74.2112C67.9448 76.357 64.5893 76.2067 63.0249 76.2112M64.2762 79.5621L63.8328 78.8058M69.6917 73.6293C70.2298 70.6535 67.7603 70.4036 66.2729 70.4195M70.6029 70.3629L69.7021 70.2206M71.0018 62.9537L70.1575 63.153M71.0724 65.6833C71.0777 64.4701 70.1108 63.3947 67.2325 63.6319M67.3888 63.6201C70.4518 63.8633 68.9377 66.274 69.2662 67.0541C68.4363 66.5711 66.6198 67.2783 65.486 65.6502M64.8725 70.6249C65.8493 72.8762 63.117 73.4363 62.9953 74.42M66.4152 70.4188C67.9923 70.8257 67.2184 71.5778 67.3928 72.5263C66.0517 72.2798 65.7031 72.7335 65.0331 71.941M68.515 58.1155C69.7021 59.2957 68.4466 60.3327 68.715 61.7101C67.286 60.8132 66.0286 61.3981 65.5508 60.5741M65.6235 58.6563C66.2729 61.8399 63.8378 61.2946 62.9807 63.0534M62.9724 47.0343C63.8772 47.0627 67.4129 47.0343 69.4257 50.3792M64.6583 53.3776C67.0494 52.6113 67.0198 50.2496 66.1204 49.2229M123.138 36.4462C104.081 41.8828 94.15 29.0381 93.79 18.7241M118.957 45.6946C99.8869 44.7347 90.6642 33.8561 90.6179 22.2701M107.496 36.678C106.236 38.2982 102.067 38.6841 102.29 34.1077M107.496 36.678C106.236 38.2982 101.995 38.5565 102.29 34.1077M102.29 34.1077C101.425 35.0212 96.9885 34.3826 98.2907 30.3973C96.8539 31.2098 94.0823 29.7405 95.8215 26.5558C94.6179 26.7685 92.4184 25.0431 94.4323 22.8938M94.4323 22.8938C93.8257 22.8515 91.2861 21.5218 93.7954 18.8635M94.4323 22.8938C95.5723 23.8371 96.0635 23.3106 96.8926 23.4653C96.7895 22.403 97.3667 21.3712 96.3314 20.8184M115.341 50.4919L107.969 50.5529M116.897 45.5493L104.974 45.5852M101.117 45.665L95.5491 45.7448M103.305 41.8525L93.6081 41.7648M97.1099 39.261L92.2007 39.3755M95.5149 35.7306L93.9288 35.8532M92.5518 35.8834L90.3089 35.9657M103.769 50.547L101.687 50.5508M99.4031 50.6547L92.6247 50.5898M109.106 55.7084L100.306 55.7501M97.4722 55.6897L90.611 55.7575M93.4684 32.8131L90.6834 32.9834M88.8172 33.0467H87.3578M92.5448 31.0402L83.8681 31.0051M91.8847 29.438L84.3563 29.2637M91.442 28.0769L85.5646 27.9222M91.0587 26.5254L87.9407 26.3267M87.9216 25.2874L90.8739 25.5056M90.7095 24.1796L89.0202 24.0592M123.856 12.556C124.124 24.2558 111.468 38.8419 104.758 35.5667C96.4993 31.535 98.4526 12.5421 102.629 9.04364M123.824 33.8655C123.298 30.2354 119.677 31.4145 118.249 30.852C119.046 32.2315 116.893 35.1305 121.004 36.9737M124.6 29.5367C124.37 27.8244 122.603 28.3467 121.535 27.5809C121.331 29.1774 120.252 29.5751 121.121 31.164M118.411 34.0138C116.967 32.9359 116.282 34.364 114.722 34.1356C115.421 35.4916 114.5 36.8483 116.425 37.6682M93.9082 20.2249C96.6225 22.0456 97.1609 19.7541 98.3944 19.473C97.1427 18.5268 97.6469 17.2182 95.2591 17.0852L96.7723 16.4429M97.1116 17.7947C98.3635 17.8136 97.9915 16.2538 98.4938 15.7806C97.6858 15.5937 97.4438 15.0995 96.9838 15.1714M112.621 19.3595C115.15 17.2757 112.279 16.4567 112.221 14.8127C111.205 16.097 108.607 14.9763 109.287 18.362M113.633 18.0011C114.558 17.2653 114.831 18.2518 116.304 18.3083C115.524 19.3635 116.389 20.6784 113.813 20.8848M109.312 16.5675C109.089 15.3204 107.797 15.7448 106.955 15.2824C106.987 16.3063 105.807 17.846 107.62 18.8866M113.269 20.019L114.496 19.3689M111.051 18.5219L111.622 16.821M108.667 18.4737L107.784 16.9806M117.882 18.0333L120.396 16.9099M115.562 14.6348L119.155 10.6774M112.267 12.9114L114.477 5.59924M108.139 12.9528L107.507 7.93709M104.413 15.1978L102.778 12.9807M121.416 12.8214L119.588 14.1285M117.486 7.12234L116.129 9.51838M110.859 7.99073L110.956 5.45569M105.106 11.0715L104.437 9.62764M107 28.2717L104.559 27.9788M108.52 28.7718L110.824 30.2485M112.109 28.5836C113.222 29.0463 112.514 30.4761 112.825 31.922C111.556 31.5499 110.12 32.5366 109.636 31.5179M104.442 29.8837C102.595 30.1675 102.68 28.1242 101.737 27.6745C102.73 27.0543 102.585 25.8381 104.157 25.9741M118.32 37.4702L118.404 38.4895M110.997 37.4883L110.835 38.362M104.709 35.5416L104.223 36.4181M99.9514 32.1951L99.3921 32.7215M96.9999 28.6264L96.3765 29.0481M95.0739 24.8521L94.6128 25.0595M94.0596 21.2334L93.6552 21.32M96.0508 18.9883L93.7944 18.8392M95.317 21.8015L93.9385 20.2448M122.907 30.4324L123.893 33.5593M123.149 36.4075L121.059 34.0791M120.85 36.9024L117.781 36.0448M66.0286 42.6922C66.0286 38.2517 82.0196 34.8262 77.4015 23.2513M64.9047 64.0218C66.6139 66.6465 64.1216 67.0583 63.0429 68.9004M93.8383 58.3786C99.0901 59.0263 105.403 59.5927 103.207 69.6517C102.222 74.1655 95.5001 88.7598 75.907 88.9468C69.6182 89.0067 71.5389 74.5609 70.9789 67.4288M93.4354 58.3414C95.1419 62.5085 93.1823 81.4471 71.2975 79.3211M75.5577 55.6148C76.6085 58.6594 74.4008 62.0051 70.9183 62.1719M93.4703 65.546L75.6918 58.3337M91.1767 71.2304L74.9073 60.0155M86.2692 76.2365L73.7951 61.156M79.1064 79.0303L72.6892 61.7821M83.09 30.67C97.0234 36.3533 93.6441 51.4361 90.1757 56.3346C89.7011 57.0048 89.2248 57.4844 88.791 57.7231M75.9138 38.4646C77.6549 39.1792 86.1597 32.2264 86.1597 32.2264C86.1597 32.2264 68.2426 46.0477 69.852 48.1273C71.4615 50.207 92.5349 40.5733 92.5349 40.5733C92.5349 40.5733 71.9442 49.1075 71.8504 51.9796C71.7567 54.8515 92.1427 52.0435 92.1427 52.0435C92.1427 52.0435 77.7997 54.325 77.6402 55.7994M63.0315 70.6535V72.5263M64.842 70.5915L66.1978 71.3511M64.9974 64.1695L67.1979 65.2841M65.6276 58.678L67.1979 59.9129M94.8077 58.5491C97.1608 70.7797 86.7672 83.0031 71.3271 80.4916M102.635 61.9015C103.135 86.6536 77.0763 89.8479 72.8096 87.0936M18.4692 36.7968C17.5588 38.5639 18.3399 40.3219 19.5715 40.9376C20.0802 39.4919 20.4282 38.3771 18.4692 36.7968ZM23.7162 34.2901C25.2743 34.9135 26.0508 35.5561 26.0508 37.35C24.2301 36.9216 23.9356 36.1184 23.7162 34.2901ZM27.6663 30.4499C28.0729 31.2315 28.5227 32.6764 30.451 32.8153C30.1938 30.9722 28.4719 30.6178 27.6663 30.4499ZM30.1689 26.6694C30.8765 28.0947 31.9147 28.3205 33.2384 28.2303C32.8608 27.1696 31.4693 26.1694 30.1689 26.6694ZM31.5639 22.9868C32.7833 24.0039 32.9651 24.1339 34.5555 23.7731C33.7281 22.7972 33.0058 22.5008 31.5639 22.9868ZM2.3273 25.3614C2.3273 24.9253 2.68073 24.5719 3.11669 24.5719C3.55267 24.5719 3.90608 24.9253 3.90608 25.3614C3.90608 25.7973 3.55267 26.1507 3.11669 26.1507C2.68073 26.1507 2.3273 25.7973 2.3273 25.3614ZM2.23029 23.112C2.23029 22.8852 2.41407 22.7016 2.64077 22.7016C2.86747 22.7016 3.05125 22.8852 3.05125 23.112C3.05125 23.3386 2.86747 23.5225 2.64077 23.5225C2.41407 23.5225 2.23029 23.3386 2.23029 23.112ZM2.09885 21.2552C2.09885 21.1418 2.19074 21.0499 2.3041 21.0499C2.41744 21.0499 2.50933 21.1418 2.50933 21.2552C2.50933 21.3684 2.41744 21.4603 2.3041 21.4603C2.19074 21.4603 2.09885 21.3684 2.09885 21.2552ZM27.0305 28.9249C27.0305 28.8115 27.1224 28.7196 27.2358 28.7196C27.3491 28.7196 27.441 28.8115 27.441 28.9249C27.441 29.0381 27.3491 29.13 27.2358 29.13C27.1224 29.13 27.0305 29.0381 27.0305 28.9249ZM28.0561 24.8378C28.0561 24.4018 28.4095 24.0484 28.8455 24.0484C29.2814 24.0484 29.6349 24.4018 29.6349 24.8378C29.6349 25.2737 29.2814 25.6271 28.8455 25.6271C28.4095 25.6271 28.0561 25.2737 28.0561 24.8378ZM27.6601 27.0841C27.6601 26.8574 27.8439 26.6736 28.0706 26.6736C28.2973 26.6736 28.4812 26.8574 28.4812 27.0841C28.4812 27.3108 28.2973 27.4945 28.0706 27.4945C27.8439 27.4945 27.6601 27.3108 27.6601 27.0841ZM14.1085 21.6307C14.1085 20.6232 14.9251 19.8065 15.9326 19.8065C16.9401 19.8065 17.7569 20.6232 17.7569 21.6307C17.7569 22.6381 16.9401 23.4549 15.9326 23.4549C14.9251 23.4549 14.1085 22.6381 14.1085 21.6307ZM16.365 25.0774C16.365 24.7552 16.6262 24.4938 16.9485 24.4938C17.2709 24.4938 17.5322 24.7552 17.5322 25.0774C17.5322 25.3998 17.2709 25.6611 16.9485 25.6611C16.6262 25.6611 16.365 25.3998 16.365 25.0774ZM18.6839 31.011C18.6839 30.8213 18.8378 30.6673 19.0277 30.6673C19.2177 30.6673 19.3716 30.8213 19.3716 31.011C19.3716 31.201 19.2177 31.3549 19.0277 31.3549C18.8378 31.3549 18.6839 31.201 18.6839 31.011ZM13.1574 29.9667C12.4629 30.165 12.0914 29.4859 11.3993 29.3992C11.9482 29.0012 11.9082 28.3659 12.6574 28.1896C13.115 28.3619 13.7872 28.6324 13.7872 28.6324C13.7872 28.6324 13.2759 28.6598 13.1574 29.9667ZM16.3234 31.5943C16.3234 31.5943 16.2287 32.1815 14.9979 31.9534C14.9128 32.6518 15.1904 32.6212 15.356 33.3529C16.0934 32.9753 16.7502 33.3539 16.8841 32.6818C16.3487 32.1721 16.3234 31.5943 16.3234 31.5943ZM34.0055 22.0903C34.0055 21.9865 34.0896 21.9023 34.1934 21.9023C34.2971 21.9023 34.3813 21.9865 34.3813 22.0903C34.3813 22.1941 34.2971 22.2782 34.1934 22.2782C34.0896 22.2782 34.0055 22.1941 34.0055 22.0903ZM33.3161 26.112C33.3161 25.9979 33.4085 25.9054 33.5226 25.9054C33.6367 25.9054 33.7292 25.9979 33.7292 26.112C33.7292 26.2261 33.6367 26.3185 33.5226 26.3185C33.4085 26.3185 33.3161 26.2261 33.3161 26.112ZM31.5175 30.4252C31.5175 30.2804 31.6349 30.1628 31.7799 30.1628C31.9247 30.1628 32.0422 30.2804 32.0422 30.4252C32.0422 30.5702 31.9247 30.6875 31.7799 30.6875C31.6349 30.6875 31.5175 30.5702 31.5175 30.4252ZM28.5181 34.72C28.5181 34.5822 28.63 34.4705 28.7678 34.4705C28.9057 34.4705 29.0174 34.5822 29.0174 34.72C29.0174 34.8579 28.9057 34.9697 28.7678 34.9697C28.63 34.9697 28.5181 34.8579 28.5181 34.72ZM22.9241 39.5638C22.9241 39.3875 23.0671 39.2445 23.2434 39.2445C23.4196 39.2445 23.5626 39.3875 23.5626 39.5638C23.5626 39.74 23.4196 39.883 23.2434 39.883C23.0671 39.883 22.9241 39.74 22.9241 39.5638ZM15.4828 42.1938C15.4828 42.0129 15.6296 41.8661 15.8105 41.8661C15.9915 41.8661 16.1383 42.0129 16.1383 42.1938C16.1383 42.3749 15.9915 42.5216 15.8105 42.5216C15.6296 42.5216 15.4828 42.3749 15.4828 42.1938ZM7.92134 43.1472C7.92134 42.9638 8.06986 42.8152 8.25324 42.8152C8.43648 42.8152 8.58515 42.9638 8.58515 43.1472C8.58515 43.3304 8.43648 43.4791 8.25324 43.4791C8.06986 43.4791 7.92134 43.3304 7.92134 43.1472ZM60.5116 65.8077C60.13 66.2349 59.9818 66.528 59.1838 66.7125C59.208 67.6045 59.7847 67.5032 60.0555 68.1457C60.6492 67.5181 61.3387 67.9004 61.4528 67.316C60.6482 66.6815 60.6675 66.288 60.5116 65.8077ZM60.9378 72.0258C60.9378 72.0258 60.6887 72.5504 59.6419 72.441C59.3921 73.333 59.9944 73.2913 60.2968 73.9979C60.7803 73.6055 61.5597 73.809 61.7356 73.0725C61.0401 72.7214 60.9378 72.0258 60.9378 72.0258ZM60.4591 60.5961C60.1941 61.0415 59.5381 61.0512 58.9689 61.1478C58.9467 62.46 59.6375 62.0729 59.7271 62.9537C60.5373 62.0507 60.967 62.8975 61.6197 61.7187C61.3756 61.5232 60.9065 61.397 60.4591 60.5961ZM43.3336 80.4709C43.6552 80.5808 41.4576 85.9636 41.4576 85.9636C39.9408 85.4456 39.1312 83.7962 39.6492 82.2793C40.1672 80.7625 41.8167 79.9529 43.3336 80.4709ZM33.8487 75.1447C35.4515 75.1447 36.7508 76.444 36.7508 78.0468C36.7508 79.6496 35.4515 80.9489 33.8487 80.9489C32.2459 80.9489 30.9466 79.6496 30.9466 78.0468C30.9466 76.444 32.2459 75.1447 33.8487 75.1447ZM49.045 81.5273C47.5041 81.9686 46.6121 83.5768 47.0535 85.1177C47.4948 86.6584 49.1017 87.5462 50.6426 87.1047C50.9362 87.0206 51.1982 86.8841 51.4399 86.7237C50.6672 86.3915 50.0383 85.7375 49.7886 84.866C49.4314 83.6189 49.9573 82.3417 50.9839 81.6609C50.3906 81.4058 49.7142 81.3356 49.045 81.5273ZM24.3633 64.7545C24.9797 66.2339 26.6802 66.934 28.1596 66.3175C29.6391 65.7011 30.3352 64.0023 29.7186 62.5229C29.6011 62.2408 29.4352 61.9965 29.248 61.7749C29.0073 62.5808 28.4305 63.2812 27.5936 63.6299C26.3961 64.1289 25.0666 63.7541 24.2718 62.813C24.087 63.4317 24.0954 64.1119 24.3633 64.7545ZM25.8064 70.9285C25.6888 70.6096 31.2515 68.9183 31.2515 68.9183C31.8066 70.4219 31.0377 72.0908 29.5341 72.646C28.0305 73.2011 26.3615 72.4321 25.8064 70.9285ZM35.7111 47.8904C35.7111 46.8833 36.5276 46.067 37.5345 46.067C38.5416 46.067 39.3579 46.8833 39.3579 47.8904C39.3579 48.8975 38.5416 49.7139 37.5345 49.7139C36.5276 49.7139 35.7111 48.8975 35.7111 47.8904ZM43.0347 49.4288C43.0347 48.9018 43.4619 48.4746 43.9888 48.4746C44.5156 48.4746 44.9429 48.9018 44.9429 49.4288C44.9429 49.9556 44.5156 50.3828 43.9888 50.3828C43.4619 50.3828 43.0347 49.9556 43.0347 49.4288ZM48.5105 50.8537C48.5105 50.5558 48.7519 50.3144 49.0497 50.3144C49.3476 50.3144 49.589 50.5558 49.589 50.8537C49.589 51.1514 49.3476 51.393 49.0497 51.393C48.7519 51.393 48.5105 51.1514 48.5105 50.8537ZM38.3949 37.882C38.3949 36.8749 39.2114 36.0586 40.2184 36.0586C41.2255 36.0586 42.0418 36.8749 42.0418 37.882C42.0418 38.8891 41.2255 39.7055 40.2184 39.7055C39.2114 39.7055 38.3949 38.8891 38.3949 37.882ZM44.6249 41.5922C44.6249 41.0652 45.0521 40.6382 45.5789 40.6382C46.1059 40.6382 46.5331 41.0652 46.5331 41.5922C46.5331 42.1191 46.1059 42.5462 45.5789 42.5462C45.0521 42.5462 44.6249 42.1191 44.6249 41.5922ZM50.0028 44.5756C50.0028 44.2777 50.2443 44.0363 50.5422 44.0363C50.8399 44.0363 51.0814 44.2777 51.0814 44.5756C51.0814 44.8734 50.8399 45.1148 50.5422 45.1148C50.2443 45.1148 50.0028 44.8734 50.0028 44.5756ZM33.7456 61.4533C33.7456 61.2715 33.8928 61.1241 34.0746 61.1241C34.2564 61.1241 34.4038 61.2715 34.4038 61.4533C34.4038 61.6352 34.2564 61.7824 34.0746 61.7824C33.8928 61.7824 33.7456 61.6352 33.7456 61.4533ZM34.9669 67.5507C34.9669 67.369 35.1142 67.2216 35.296 67.2216C35.4778 67.2216 35.6252 67.369 35.6252 67.5507C35.6252 67.7325 35.4778 67.8799 35.296 67.8799C35.1142 67.8799 34.9669 67.7325 34.9669 67.5507ZM38.382 72.7325C38.382 72.5507 38.5294 72.4034 38.7112 72.4034C38.893 72.4034 39.0403 72.5507 39.0403 72.7325C39.0403 72.9143 38.893 73.0615 38.7112 73.0615C38.5294 73.0615 38.382 72.9143 38.382 72.7325ZM44.1267 76.0403C44.1267 75.8585 44.2741 75.7111 44.4559 75.7111C44.6376 75.7111 44.785 75.8585 44.785 76.0403C44.785 76.2221 44.6376 76.3693 44.4559 76.3693C44.2741 76.3693 44.1267 76.2221 44.1267 76.0403ZM51.1597 76.972C51.1597 76.7903 51.307 76.6429 51.4888 76.6429C51.6706 76.6429 51.8179 76.7903 51.8179 76.972C51.8179 77.1538 51.6706 77.3012 51.4888 77.3012C51.307 77.3012 51.1597 77.1538 51.1597 76.972ZM52.8361 58.4286C52.8361 58.1482 53.0591 57.921 53.3343 57.921C53.6094 57.921 53.8325 58.1482 53.8325 58.4286C53.8325 58.7089 53.6094 58.9362 53.3343 58.9362C53.0591 58.9362 52.8361 58.7089 52.8361 58.4286ZM21.9285 25.968C21.9285 25.968 22.6622 25.4433 22.7104 24.7488C23.3408 24.4854 23.6117 25.0891 24.287 25.2645C23.8278 25.6916 23.7191 26.2668 23.2488 26.5147C22.8932 25.7129 21.9285 25.968 21.9285 25.968ZM65.4883 65.8077C65.8699 66.2349 66.0183 66.528 66.8162 66.7125C66.792 67.6045 66.2152 67.5032 65.9446 68.1457C65.3509 67.5181 64.5711 67.9166 64.4572 67.332C65.2617 66.6977 65.3325 66.288 65.4883 65.8077ZM65.0622 72.0258C65.0622 72.0258 65.3113 72.5504 66.3581 72.441C66.608 73.333 66.0055 73.2913 65.7031 73.9979C65.2197 73.6055 64.4402 73.809 64.2643 73.0725C64.9598 72.7214 65.0622 72.0258 65.0622 72.0258ZM65.5408 60.5961C65.8059 61.0415 66.462 61.0512 67.0312 61.1478C67.0534 62.46 66.3625 62.0729 66.2729 62.9537C65.4627 62.0507 65.0331 62.8975 64.3802 61.7187C64.6243 61.5232 65.0934 61.397 65.5408 60.5961ZM107.531 36.7968C108.441 38.5639 107.66 40.3219 106.429 40.9376C105.92 39.4919 105.572 38.3771 107.531 36.7968ZM102.284 34.2901C100.726 34.9135 99.9492 35.5561 99.9492 37.35C101.77 36.9216 102.064 36.1184 102.284 34.2901ZM98.3338 30.4499C97.9272 31.2315 97.4773 32.6764 95.5491 32.8153C95.8061 30.9722 97.5281 30.6178 98.3338 30.4499ZM95.831 26.6694C95.1236 28.0947 94.0853 28.3205 92.7617 28.2303C93.1392 27.1696 94.5307 26.1694 95.831 26.6694ZM94.436 22.9868C93.2168 24.0039 93.0348 24.1339 91.4446 23.7731C92.272 22.7972 92.9943 22.5008 94.436 22.9868ZM123.673 25.3614C123.673 24.9253 123.319 24.5719 122.883 24.5719C122.447 24.5719 122.094 24.9253 122.094 25.3614C122.094 25.7973 122.447 26.1507 122.883 26.1507C123.319 26.1507 123.673 25.7973 123.673 25.3614ZM123.77 23.112C123.77 22.8852 123.586 22.7016 123.359 22.7016C123.133 22.7016 122.949 22.8852 122.949 23.112C122.949 23.3386 123.133 23.5225 123.359 23.5225C123.586 23.5225 123.77 23.3386 123.77 23.112ZM123.901 21.2552C123.901 21.1418 123.809 21.0499 123.696 21.0499C123.583 21.0499 123.491 21.1418 123.491 21.2552C123.491 21.3684 123.583 21.4603 123.696 21.4603C123.809 21.4603 123.901 21.3684 123.901 21.2552ZM98.9694 28.9249C98.9694 28.8115 98.8775 28.7196 98.7643 28.7196C98.6509 28.7196 98.559 28.8115 98.559 28.9249C98.559 29.0381 98.6509 29.13 98.7643 29.13C98.8775 29.13 98.9694 29.0381 98.9694 28.9249ZM97.9438 24.8378C97.9438 24.4018 97.5905 24.0484 97.1545 24.0484C96.7185 24.0484 96.3651 24.4018 96.3651 24.8378C96.3651 25.2737 96.7185 25.6271 97.1545 25.6271C97.5905 25.6271 97.9438 25.2737 97.9438 24.8378ZM98.3399 27.0841C98.3399 26.8574 98.1561 26.6736 97.9293 26.6736C97.7027 26.6736 97.5189 26.8574 97.5189 27.0841C97.5189 27.3108 97.7027 27.4945 97.9293 27.4945C98.1561 27.4945 98.3399 27.3108 98.3399 27.0841ZM111.892 21.6307C111.892 20.6232 111.075 19.8065 110.067 19.8065C109.06 19.8065 108.243 20.6232 108.243 21.6307C108.243 22.6381 109.06 23.4549 110.067 23.4549C111.075 23.4549 111.892 22.6381 111.892 21.6307ZM109.635 25.0774C109.635 24.7552 109.374 24.4938 109.052 24.4938C108.729 24.4938 108.468 24.7552 108.468 25.0774C108.468 25.3998 108.729 25.6611 109.052 25.6611C109.374 25.6611 109.635 25.3998 109.635 25.0774ZM107.316 31.011C107.316 30.8213 107.162 30.6673 106.972 30.6673C106.782 30.6673 106.628 30.8213 106.628 31.011C106.628 31.201 106.782 31.3549 106.972 31.3549C107.162 31.3549 107.316 31.201 107.316 31.011ZM112.843 29.9667C113.537 30.165 113.909 29.4859 114.601 29.3992C114.052 29.0012 114.092 28.3659 113.343 28.1896C112.885 28.3619 112.213 28.6324 112.213 28.6324C112.213 28.6324 112.724 28.6598 112.843 29.9667ZM109.677 31.5943C109.677 31.5943 109.771 32.1815 111.002 31.9534C111.087 32.6518 110.809 32.6212 110.644 33.3529C109.907 32.9753 109.25 33.3539 109.116 32.6818C109.651 32.1721 109.677 31.5943 109.677 31.5943ZM104.072 25.968C104.072 25.968 103.338 25.4433 103.289 24.7488C102.659 24.4854 102.388 25.0891 101.713 25.2645C102.172 25.6916 102.281 26.2668 102.751 26.5147C103.107 25.7129 104.072 25.968 104.072 25.968ZM91.9946 22.0903C91.9946 21.9865 91.9104 21.9023 91.8066 21.9023C91.7028 21.9023 91.6187 21.9865 91.6187 22.0903C91.6187 22.1941 91.7028 22.2782 91.8066 22.2782C91.9104 22.2782 91.9946 22.1941 91.9946 22.0903ZM92.6838 26.112C92.6838 25.9979 92.5914 25.9054 92.4774 25.9054C92.3633 25.9054 92.2708 25.9979 92.2708 26.112C92.2708 26.2261 92.3633 26.3185 92.4774 26.3185C92.5914 26.3185 92.6838 26.2261 92.6838 26.112ZM94.4825 30.4252C94.4825 30.2804 94.365 30.1628 94.2202 30.1628C94.0752 30.1628 93.9578 30.2804 93.9578 30.4252C93.9578 30.5702 94.0752 30.6875 94.2202 30.6875C94.365 30.6875 94.4825 30.5702 94.4825 30.4252ZM97.4818 34.72C97.4818 34.5822 97.3701 34.4705 97.2322 34.4705C97.0944 34.4705 96.9825 34.5822 96.9825 34.72C96.9825 34.8579 97.0944 34.9697 97.2322 34.9697C97.3701 34.9697 97.4818 34.8579 97.4818 34.72ZM103.076 39.5638C103.076 39.3875 102.933 39.2445 102.757 39.2445C102.58 39.2445 102.437 39.3875 102.437 39.5638C102.437 39.74 102.58 39.883 102.757 39.883C102.933 39.883 103.076 39.74 103.076 39.5638ZM110.517 42.1938C110.517 42.0129 110.37 41.8661 110.19 41.8661C110.008 41.8661 109.862 42.0129 109.862 42.1938C109.862 42.3749 110.008 42.5216 110.19 42.5216C110.37 42.5216 110.517 42.3749 110.517 42.1938ZM118.079 43.1472C118.079 42.9638 117.93 42.8152 117.747 42.8152C117.563 42.8152 117.415 42.9638 117.415 43.1472C117.415 43.3304 117.563 43.4791 117.747 43.4791C117.93 43.4791 118.079 43.3304 118.079 43.1472ZM82.6665 80.4709C82.3447 80.5808 84.5424 85.9636 84.5424 85.9636C86.0591 85.4456 86.8687 83.7962 86.3507 82.2793C85.8328 80.7625 84.1833 79.9529 82.6665 80.4709ZM92.1512 75.1447C90.5484 75.1447 89.2491 76.444 89.2491 78.0468C89.2491 79.6496 90.5484 80.9489 92.1512 80.9489C93.7541 80.9489 95.0534 79.6496 95.0534 78.0468C95.0534 76.444 93.7541 75.1447 92.1512 75.1447ZM76.9551 81.5273C78.496 81.9686 79.3878 83.5768 78.9465 85.1177C78.5051 86.6584 76.8982 87.5462 75.3574 87.1047C75.0638 87.0206 74.8019 86.8841 74.5602 86.7237C75.3328 86.3915 75.9618 85.7375 76.2115 84.866C76.5687 83.6189 76.0427 82.3417 75.0161 81.6609C75.6092 81.4058 76.2859 81.3356 76.9551 81.5273ZM101.637 64.7545C101.02 66.2339 99.3198 66.934 97.8404 66.3175C96.3608 65.7011 95.6649 64.0023 96.2813 62.5229C96.3988 62.2408 96.5649 61.9965 96.7519 61.7749C96.9926 62.5808 97.5695 63.2812 98.4065 63.6299C99.6039 64.1289 100.933 63.7541 101.728 62.813C101.913 63.4317 101.905 64.1119 101.637 64.7545ZM100.193 70.9285C100.311 70.6096 94.7486 68.9183 94.7486 68.9183C94.1934 70.4219 94.9624 72.0908 96.4658 72.646C97.9694 73.2011 99.6384 72.4321 100.193 70.9285ZM90.2888 47.8904C90.2888 46.8833 89.4725 46.067 88.4654 46.067C87.4584 46.067 86.642 46.8833 86.642 47.8904C86.642 48.8975 87.4584 49.7139 88.4654 49.7139C89.4725 49.7139 90.2888 48.8975 90.2888 47.8904ZM82.9652 49.4288C82.9652 48.9018 82.5382 48.4746 82.0112 48.4746C81.4843 48.4746 81.0572 48.9018 81.0572 49.4288C81.0572 49.9556 81.4843 50.3828 82.0112 50.3828C82.5382 50.3828 82.9652 49.9556 82.9652 49.4288ZM77.4896 50.8537C77.4896 50.5558 77.2482 50.3144 76.9502 50.3144C76.6523 50.3144 76.4109 50.5558 76.4109 50.8537C76.4109 51.1514 76.6523 51.393 76.9502 51.393C77.2482 51.393 77.4896 51.1514 77.4896 50.8537ZM87.605 37.882C87.605 36.8749 86.7886 36.0586 85.7815 36.0586C84.7746 36.0586 83.9581 36.8749 83.9581 37.882C83.9581 38.8891 84.7746 39.7055 85.7815 39.7055C86.7886 39.7055 87.605 38.8891 87.605 37.882ZM81.375 41.5922C81.375 41.0652 80.9479 40.6382 80.421 40.6382C79.894 40.6382 79.4669 41.0652 79.4669 41.5922C79.4669 42.1191 79.894 42.5462 80.421 42.5462C80.9479 42.5462 81.375 42.1191 81.375 41.5922ZM75.9972 44.5756C75.9972 44.2777 75.7558 44.0363 75.4579 44.0363C75.16 44.0363 74.9186 44.2777 74.9186 44.5756C74.9186 44.8734 75.16 45.1148 75.4579 45.1148C75.7558 45.1148 75.9972 44.8734 75.9972 44.5756ZM92.2545 61.4533C92.2545 61.2715 92.1071 61.1241 91.9253 61.1241C91.7436 61.1241 91.5962 61.2715 91.5962 61.4533C91.5962 61.6352 91.7436 61.7824 91.9253 61.7824C92.1071 61.7824 92.2545 61.6352 92.2545 61.4533ZM87.6179 72.7325C87.6179 72.5507 87.4705 72.4034 87.2888 72.4034C87.107 72.4034 86.9596 72.5507 86.9596 72.7325C86.9596 72.9143 87.107 73.0615 87.2888 73.0615C87.4705 73.0615 87.6179 72.9143 87.6179 72.7325ZM81.8732 76.0403C81.8732 75.8585 81.726 75.7111 81.5442 75.7111C81.3623 75.7111 81.215 75.8585 81.215 76.0403C81.215 76.2221 81.3623 76.3693 81.5442 76.3693C81.726 76.3693 81.8732 76.2221 81.8732 76.0403ZM74.8403 76.972C74.8403 76.7903 74.6929 76.6429 74.5112 76.6429C74.3294 76.6429 74.182 76.7903 74.182 76.972C74.182 77.1538 74.3294 77.3012 74.5112 77.3012C74.6929 77.3012 74.8403 77.1538 74.8403 76.972ZM73.164 58.4286C73.164 58.1482 72.9409 57.921 72.6658 57.921C72.3906 57.921 72.1676 58.1482 72.1676 58.4286C72.1676 58.7089 72.3906 58.9362 72.6658 58.9362C72.9409 58.9362 73.164 58.7089 73.164 58.4286ZM113.618 18.1091C114.027 17.5696 114.549 17.7463 114.967 17.9512C115.503 17.4804 115.002 16.8136 114.912 16.1546C114.03 16.0579 113.299 15.72 113.028 16.4092C113.372 16.7863 113.814 17.4057 113.618 18.1091ZM109.341 16.4725C109.696 15.8311 110.211 15.7788 110.983 15.5139C111.185 14.7484 110.076 14.6156 109.627 14.2275C109.25 14.6452 108.241 14.8206 108.45 15.6522C109 15.8249 109.14 16.071 109.341 16.4725ZM6.08113 29.0751C6.08113 28.9894 6.15055 28.92 6.2362 28.92C6.32184 28.92 6.39127 28.9894 6.39127 29.0751C6.39127 29.1606 6.32184 29.23 6.2362 29.23C6.15055 29.23 6.08113 29.1606 6.08113 29.0751ZM9.15848 32.2059C9.15848 32.117 9.23047 32.045 9.31938 32.045C9.4083 32.045 9.48042 32.117 9.48042 32.2059C9.48042 32.295 9.4083 32.367 9.31938 32.367C9.23047 32.367 9.15848 32.295 9.15848 32.2059ZM12.3311 36.5655C12.3311 36.4799 12.4006 36.4104 12.4862 36.4104C12.5719 36.4104 12.6413 36.4799 12.6413 36.5655C12.6413 36.6512 12.5719 36.7206 12.4862 36.7206C12.4006 36.7206 12.3311 36.6512 12.3311 36.5655ZM27.7778 21.7768C27.7778 21.6953 27.8441 21.629 27.9257 21.629C28.0074 21.629 28.0736 21.6953 28.0736 21.7768C28.0736 21.8585 28.0074 21.9248 27.9257 21.9248C27.8441 21.9248 27.7778 21.8585 27.7778 21.7768ZM27.2981 17.7591C27.2981 17.6796 27.3625 17.6151 27.442 17.6151C27.5216 17.6151 27.586 17.6796 27.586 17.7591C27.586 17.8386 27.5216 17.9031 27.442 17.9031C27.3625 17.9031 27.2981 17.8386 27.2981 17.7591ZM27.1171 14.4533C27.1171 14.3735 27.1817 14.3089 27.2615 14.3089C27.3412 14.3089 27.4059 14.3735 27.4059 14.4533C27.4059 14.533 27.3412 14.5977 27.2615 14.5977C27.1817 14.5977 27.1171 14.533 27.1171 14.4533ZM119.919 29.0751C119.919 28.9894 119.849 28.92 119.764 28.92C119.678 28.92 119.609 28.9894 119.609 29.0751C119.609 29.1606 119.678 29.23 119.764 29.23C119.849 29.23 119.919 29.1606 119.919 29.0751ZM116.842 32.2059C116.842 32.117 116.769 32.045 116.681 32.045C116.592 32.045 116.519 32.117 116.519 32.2059C116.519 32.295 116.592 32.367 116.681 32.367C116.769 32.367 116.842 32.295 116.842 32.2059ZM98.2221 21.7768C98.2221 21.6953 98.156 21.629 98.0743 21.629C97.9926 21.629 97.9265 21.6953 97.9265 21.7768C97.9265 21.8585 97.9926 21.9248 98.0743 21.9248C98.156 21.9248 98.2221 21.8585 98.2221 21.7768ZM98.702 17.7591C98.702 17.6796 98.6375 17.6151 98.558 17.6151C98.4785 17.6151 98.414 17.6796 98.414 17.7591C98.414 17.8386 98.4785 17.9031 98.558 17.9031C98.6375 17.9031 98.702 17.8386 98.702 17.7591ZM98.8829 14.4533C98.8829 14.3735 98.8182 14.3089 98.7385 14.3089C98.6587 14.3089 98.5941 14.3735 98.5941 14.4533C98.5941 14.533 98.6587 14.5977 98.7385 14.5977C98.8182 14.5977 98.8829 14.533 98.8829 14.4533ZM52.3462 6.72015C51.6029 8.26871 51.177 9.99582 51.177 11.8283C51.177 18.3663 56.4781 23.6676 63.0162 23.6676C69.5541 23.6676 74.8508 18.3663 74.8508 11.8283C74.8508 10.1655 74.505 8.58711 73.8861 7.15136C73.945 7.61045 73.9884 8.07225 73.9884 8.54727C73.9884 14.5682 69.1081 19.4529 63.0873 19.4529C57.0663 19.4529 52.1816 14.5682 52.1816 8.54727C52.1816 7.92287 52.2454 7.31596 52.3462 6.72015ZM58.3072 76.8236C59.0091 76.5113 58.3072 76.8236 59.0091 76.5113L58.3072 76.8236ZM61.0953 64.0218C59.3861 66.6465 61.9455 67.0583 63.0241 68.9004C62.9931 68.8473 62.9608 68.7954 62.9274 68.7448C61.8016 67.0327 59.4353 66.5709 61.0953 64.0218ZM57.6276 51.5218C57.1178 52.0223 57.6276 51.5218 57.1047 52.0355L57.6276 51.5218ZM59.2953 52.8643C58.802 53.9724 59.3241 52.8246 58.802 53.9724L59.2953 52.8643ZM61.0873 53.3865C60.72 55.6897 61.0836 53.4087 60.72 55.6897L61.0873 53.3865ZM48.0989 24.5435C47.6018 24.5711 47.3372 23.6025 47.7556 23.09L48.0989 24.5435ZM47.7853 26.3858C47.2964 26.2524 46.9376 25.7472 46.9161 25.0296L47.7853 26.3858ZM47.7542 28.202C46.9373 28.0632 46.6044 27.241 46.6623 26.7162L47.7542 28.202ZM48.3646 30.394C47.5028 30.4417 46.8262 30.1823 46.6435 29.1045L48.3646 30.394ZM49.619 32.674C49.1593 33.2042 47.7944 33.0141 47.2406 31.8487L49.619 32.674ZM51.4736 34.6913C50.882 35.3891 49.2012 35.2794 48.3949 33.9885L51.4736 34.6913ZM53.8325 36.6436C53.1914 37.6045 51.1494 37.2234 50.3618 36.7461L53.8325 36.6436ZM51.9597 38.5951C52.9647 39.8833 55.3887 39.2265 56.4068 38.5611L51.9597 38.5951ZM54.1705 40.5776C55.2118 41.3798 57.4588 41.0342 58.4694 40.2397L54.1705 40.5776ZM55.9973 42.2948C57.7512 43.0621 59.0848 42.2217 59.6452 41.6107L55.9973 42.2948ZM48.141 24.8132C48.5637 25.004 49.0231 24.7789 49.3399 24.3315L48.141 24.8132ZM47.8361 26.8129C48.4439 26.8752 48.9754 26.5924 49.1464 26.2727L47.8361 26.8129ZM47.9919 29.2242C49.0212 29.0738 49.2916 28.5107 49.384 28.1179L47.9919 29.2242ZM48.8821 31.1781C49.6486 30.8422 50.0858 30.4203 49.9488 29.3519L48.8821 31.1781ZM50.4621 33.6568C50.4616 33.6815 51.8319 32.9776 51.1716 31.304L50.4621 33.6568ZM52.5767 35.5728C53.805 34.841 53.398 33.1622 53.0744 32.667L52.5767 35.5728ZM54.9668 37.4524C55.4425 36.83 56.1252 35.5718 55.2118 34.1651L54.9668 37.4524ZM57.2173 39.1882C58.0618 37.5631 57.8045 36.9492 57.2945 35.8276L57.2173 39.1882ZM59.2264 40.9742C59.8128 40.779 59.998 38.6833 59.2676 37.9284L59.2264 40.9742ZM7.65573 20.7283C7.65573 16.275 11.2659 12.6647 15.7192 12.6647C20.1726 12.6647 23.7828 16.275 23.7828 20.7283C23.7828 25.1817 20.1726 28.7918 15.7192 28.7918C11.2659 28.7918 7.65573 25.1817 7.65573 20.7283ZM11.7523 22.8118C11.7523 20.3398 13.7561 18.336 16.2279 18.336C18.7 18.336 20.7038 20.3398 20.7038 22.8118C20.7038 25.2837 18.7 27.2875 16.2279 27.2875C13.7561 27.2875 11.7523 25.2837 11.7523 22.8118ZM17.2496 33.0688L18.1601 28.4434L21.7425 31.5788L17.2496 33.0688ZM60.8219 78.2854C61.2912 77.8681 61.3303 77.8159 61.3303 77.8159L60.8219 78.2854ZM51.9165 58.4103C51.9165 57.6209 52.5564 56.9809 53.3458 56.9809C54.1352 56.9809 54.7753 57.6209 54.7753 58.4103C54.7753 59.1997 54.1352 59.8398 53.3458 59.8398C52.5564 59.8398 51.9165 59.1997 51.9165 58.4103ZM67.6929 76.8236C66.9908 76.5113 67.6929 76.8236 66.9908 76.5113L67.6929 76.8236ZM68.3725 51.5218C68.8821 52.0223 68.3725 51.5218 68.8952 52.0355L68.3725 51.5218ZM66.7046 52.8643C67.1979 53.9724 66.6758 52.8246 67.1979 53.9724L66.7046 52.8643ZM64.9126 53.3865C65.28 55.6897 64.9163 53.4087 65.2801 55.6897L64.9126 53.3865ZM77.901 24.5435C78.3982 24.5711 78.6627 23.6025 78.2444 23.09L77.901 24.5435ZM78.2147 26.3858C78.7037 26.2524 79.0625 25.7472 79.0838 25.0296L78.2147 26.3858ZM78.2457 28.202C79.0626 28.0632 79.3956 27.241 79.3377 26.7162L78.2457 28.202ZM77.6354 30.394C78.4971 30.4417 79.1737 30.1823 79.3564 29.1045L77.6354 30.394ZM76.381 32.674C76.8407 33.2042 78.2055 33.0141 78.7594 31.8487L76.381 32.674ZM74.5263 34.6913C75.118 35.3891 76.7987 35.2794 77.6051 33.9885L74.5263 34.6913ZM72.1676 36.6436C72.8085 37.6045 74.8507 37.2234 75.6381 36.7461L72.1676 36.6436ZM74.0402 38.5951C73.0352 39.8833 70.6113 39.2265 69.5933 38.5611L74.0402 38.5951ZM71.8295 40.5776C70.7881 41.3798 68.5411 41.0342 67.5307 40.2397L71.8295 40.5776ZM70.0026 42.2948C68.2488 43.0621 66.9151 42.2217 66.3549 41.6107L70.0026 42.2948ZM77.8589 24.8132C77.4362 25.004 76.977 24.7789 76.6602 24.3315L77.8589 24.8132ZM78.1639 26.8129C77.5562 26.8752 77.0247 26.5924 76.8535 26.2727L78.1639 26.8129ZM78.008 29.2242C76.9788 29.0738 76.7084 28.5107 76.6161 28.1179L78.008 29.2242ZM77.1178 31.1781C76.3513 30.8422 75.9143 30.4203 76.0513 29.3519L77.1178 31.1781ZM75.5378 33.6568C75.5384 33.6815 74.168 32.9776 74.8284 31.304L75.5378 33.6568ZM73.4233 35.5728C72.1949 34.841 72.6019 33.1622 72.9257 32.667L73.4233 35.5728ZM71.0331 37.4524C70.5575 36.83 69.8748 35.5718 70.7881 34.1651L71.0331 37.4524ZM68.7828 39.1882C67.9381 37.5631 68.1955 36.9492 68.7055 35.8276L68.7828 39.1882ZM66.7737 40.9742C66.1871 40.779 66.0019 38.6833 66.7324 37.9284L66.7737 40.9742ZM118.344 20.7283C118.344 16.275 114.734 12.6647 110.281 12.6647C105.827 12.6647 102.217 16.275 102.217 20.7283C102.217 25.1817 105.827 28.7918 110.281 28.7918C114.734 28.7918 118.344 25.1817 118.344 20.7283ZM114.248 22.8118C114.248 20.3398 112.244 18.336 109.772 18.336C107.3 18.336 105.296 20.3398 105.296 22.8118C105.296 25.2837 107.3 27.2875 109.772 27.2875C112.244 27.2875 114.248 25.2837 114.248 22.8118ZM108.75 33.0688L107.84 28.4434L104.258 31.5788L108.75 33.0688ZM113.669 36.5655C113.669 36.4799 113.599 36.4104 113.514 36.4104C113.428 36.4104 113.359 36.4799 113.359 36.5655C113.359 36.6512 113.428 36.7206 113.514 36.7206C113.599 36.7206 113.669 36.6512 113.669 36.5655ZM65.1782 78.2854C64.7087 77.8681 64.6696 77.8159 64.6696 77.8159L65.1782 78.2854ZM74.0836 58.4103C74.0836 57.6209 73.4435 56.9809 72.6541 56.9809C71.8647 56.9809 71.2248 57.6209 71.2248 58.4103C71.2248 59.1997 71.8647 59.8398 72.6541 59.8398C73.4435 59.8398 74.0836 59.1997 74.0836 58.4103Z" stroke="white" stroke-width="0.5" stroke-linecap="round" stroke-linejoin="round"/>
<circle cx="63.0279" cy="50.224" r="1.42266" fill="white"/>
<path d="M143.424 66.84H169.92L154.656 24.864L138.6 69H136.296L154.656 18.528L173.016 69H143.424V66.84ZM187.049 66.84H209.369L183.593 22.272V69H181.433V18.6H183.953L210.881 65.184V18.6H213.041V69H187.049V66.84ZM257.228 18.6V20.76H240.308V69H238.148V20.76H221.228V18.6H257.228ZM295.696 69H293.536V43.8H267.616V69H265.456V18.6H267.616V41.64H293.536V18.6H295.696V69ZM337.972 64.32C335.332 67.92 331.06 69.72 325.156 69.72C319.252 69.72 314.98 67.92 312.34 64.32C309.7 60.672 308.38 55.008 308.38 47.328V40.272C308.38 32.592 309.7 26.952 312.34 23.352C314.98 19.704 319.252 17.88 325.156 17.88C331.06 17.88 335.332 19.704 337.972 23.352C340.612 26.952 341.932 32.592 341.932 40.272V47.328C341.932 55.008 340.612 60.672 337.972 64.32ZM331.204 20.976C329.524 20.352 327.508 20.04 325.156 20.04C322.804 20.04 320.788 20.352 319.108 20.976C317.428 21.552 315.916 22.56 314.572 24C313.228 25.44 312.22 27.528 311.548 30.264C310.876 32.952 310.54 36.288 310.54 40.272V47.328C310.54 51.312 310.876 54.672 311.548 57.408C312.22 60.096 313.228 62.16 314.572 63.6C315.916 65.04 317.428 66.072 319.108 66.696C320.788 67.272 322.804 67.56 325.156 67.56C327.508 67.56 329.524 67.272 331.204 66.696C332.884 66.072 334.396 65.04 335.74 63.6C337.084 62.16 338.092 60.096 338.764 57.408C339.436 54.672 339.772 51.312 339.772 47.328V40.272C339.772 36.288 339.436 32.952 338.764 30.264C338.092 27.528 337.084 25.44 335.74 24C334.396 22.56 332.884 21.552 331.204 20.976ZM360.228 66.84H382.548L356.772 22.272V69H354.612V18.6H357.132L384.06 65.184V18.6H386.22V69H360.228V66.84ZM402.904 18.6H432.064L414.064 47.4V69H411.904V47.4L393.904 18.6H396.424L412.984 45.024L428.176 20.76H402.904V18.6ZM459.483 31.056C459.483 26.4 460.659 23.04 463.011 20.976C465.363 18.912 469.179 17.88 474.459 17.88C478.155 17.88 481.131 18.84 483.387 20.76C485.643 22.68 487.275 25.608 488.283 29.544L481.587 34.584H478.059L485.835 28.752C484.827 25.536 483.363 23.28 481.443 21.984C479.571 20.688 477.243 20.04 474.459 20.04C472.539 20.04 470.907 20.16 469.563 20.4C468.267 20.64 466.947 21.12 465.603 21.84C464.307 22.512 463.323 23.616 462.651 25.152C461.979 26.688 461.643 28.656 461.643 31.056C461.643 33.168 462.603 35.04 464.523 36.672C466.491 38.304 468.867 39.696 471.651 40.848C474.435 42 477.219 43.176 480.003 44.376C482.835 45.576 485.211 47.112 487.131 48.984C489.099 50.856 490.083 53.016 490.083 55.464C490.083 60.264 488.883 63.84 486.483 66.192C484.131 68.544 480.075 69.72 474.315 69.72C469.611 69.72 465.915 68.784 463.227 66.912C460.539 64.992 458.691 62.04 457.683 58.056L459.699 57.192C460.659 61.08 462.291 63.792 464.595 65.328C466.947 66.816 470.187 67.56 474.315 67.56C478.923 67.56 482.331 66.672 484.539 64.896C486.795 63.12 487.923 59.976 487.923 55.464C487.923 53.352 486.939 51.48 484.971 49.848C483.051 48.216 480.675 46.824 477.843 45.672C475.059 44.52 472.275 43.344 469.491 42.144C466.707 40.944 464.331 39.408 462.363 37.536C460.443 35.664 459.483 33.504 459.483 31.056ZM529.363 64.32C526.723 67.92 522.451 69.72 516.547 69.72C510.643 69.72 506.371 67.92 503.731 64.32C501.091 60.672 499.771 55.008 499.771 47.328V40.272C499.771 32.592 501.091 26.952 503.731 23.352C506.371 19.704 510.643 17.88 516.547 17.88C522.451 17.88 526.723 19.704 529.363 23.352C532.003 26.952 533.323 32.592 533.323 40.272V47.328C533.323 55.008 532.003 60.672 529.363 64.32ZM522.595 20.976C520.915 20.352 518.899 20.04 516.547 20.04C514.195 20.04 512.179 20.352 510.499 20.976C508.819 21.552 507.307 22.56 505.963 24C504.619 25.44 503.611 27.528 502.939 30.264C502.267 32.952 501.931 36.288 501.931 40.272V47.328C501.931 51.312 502.267 54.672 502.939 57.408C503.611 60.096 504.619 62.16 505.963 63.6C507.307 65.04 508.819 66.072 510.499 66.696C512.179 67.272 514.195 67.56 516.547 67.56C518.899 67.56 520.915 67.272 522.595 66.696C524.275 66.072 525.787 65.04 527.131 63.6C528.475 62.16 529.483 60.096 530.155 57.408C530.827 54.672 531.163 51.312 531.163 47.328V40.272C531.163 36.288 530.827 32.952 530.155 30.264C529.483 27.528 528.475 25.44 527.131 24C525.787 22.56 524.275 21.552 522.595 20.976ZM576.099 66.84V69H546.003V18.6H548.163V66.84H576.099ZM610.171 42.648H588.787L610.819 20.76H586.483V66.84H614.419V69H584.323V18.6H616.075L594.043 40.488H610.171V42.648ZM624.296 31.056C624.296 26.4 625.472 23.04 627.824 20.976C630.176 18.912 633.992 17.88 639.272 17.88C642.968 17.88 645.944 18.84 648.2 20.76C650.456 22.68 652.088 25.608 653.096 29.544L646.4 34.584H642.872L650.648 28.752C649.64 25.536 648.176 23.28 646.256 21.984C644.384 20.688 642.056 20.04 639.272 20.04C637.352 20.04 635.72 20.16 634.376 20.4C633.08 20.64 631.76 21.12 630.416 21.84C629.12 22.512 628.136 23.616 627.464 25.152C626.792 26.688 626.456 28.656 626.456 31.056C626.456 33.168 627.416 35.04 629.336 36.672C631.304 38.304 633.68 39.696 636.464 40.848C639.248 42 642.032 43.176 644.816 44.376C647.648 45.576 650.024 47.112 651.944 48.984C653.912 50.856 654.896 53.016 654.896 55.464C654.896 60.264 653.696 63.84 651.296 66.192C648.944 68.544 644.888 69.72 639.128 69.72C634.424 69.72 630.728 68.784 628.04 66.912C625.352 64.992 623.504 62.04 622.496 58.056L624.512 57.192C625.472 61.08 627.104 63.792 629.408 65.328C631.76 66.816 635 67.56 639.128 67.56C643.736 67.56 647.144 66.672 649.352 64.896C651.608 63.12 652.736 59.976 652.736 55.464C652.736 53.352 651.752 51.48 649.784 49.848C647.864 48.216 645.488 46.824 642.656 45.672C639.872 44.52 637.088 43.344 634.304 42.144C631.52 40.944 629.144 39.408 627.176 37.536C625.256 35.664 624.296 33.504 624.296 31.056ZM668.327 18.6V69H666.167V18.6H668.327ZM697.919 18.6L673.727 42.648L700.223 69H697.127L670.631 42.648L694.823 18.6H697.919ZM709.889 18.6H739.049L721.049 47.4V69H718.889V47.4L700.889 18.6H703.409L719.969 45.024L735.161 20.76H709.889V18.6Z" fill="white"/>
</svg>
